<svg width="23" height="23" viewBox="0 0 23 23" fill="none" xmlns="http://www.w3.org/2000/svg">
<path d="M22.5 21.2056L16.7675 15.473C18.2566 13.6518 18.9887 11.328 18.8124 8.98213C18.6362 6.63627 17.565 4.4479 15.8205 2.86966C14.076 1.29142 11.7917 0.444067 9.43992 0.502868C7.08819 0.561668 4.84902 1.52212 3.18557 3.18557C1.52212 4.84902 0.561668 7.08819 0.502868 9.43992C0.444067 11.7917 1.29142 14.076 2.86966 15.8205C4.4479 17.565 6.63627 18.6362 8.98213 18.8124C11.328 18.9887 13.6518 18.2566 15.473 16.7675L21.2056 22.5L22.5 21.2056ZM9.68376 17.0073C8.23529 17.0073 6.81936 16.5778 5.615 15.7731C4.41065 14.9684 3.47197 13.8246 2.91767 12.4864C2.36336 11.1482 2.21833 9.67564 2.50091 8.255C2.78349 6.83437 3.481 5.52944 4.50522 4.50522C5.52944 3.481 6.83437 2.78349 8.255 2.50091C9.67564 2.21833 11.1482 2.36336 12.4864 2.91767C13.8246 3.47197 14.9684 4.41065 15.7731 5.615C16.5778 6.81936 17.0073 8.23529 17.0073 9.68376C17.0051 11.6254 16.2329 13.4869 14.8599 14.8599C13.4869 16.2329 11.6254 17.0051 9.68376 17.0073Z" fill="#000000"/>
</svg>
