<svg width="14" height="21" viewBox="0 0 14 21" fill="none" xmlns="http://www.w3.org/2000/svg">
<path fill-rule="evenodd" clip-rule="evenodd" d="M6.90026 0.985848C3.63342 0.985848 0.985927 3.63334 0.985927 6.90019C0.985927 9.75468 2.52181 12.9808 4.11508 15.5443C4.90519 16.815 5.69625 17.9018 6.28953 18.6707C6.53071 18.983 6.73864 19.2427 6.90036 19.4405C7.06208 19.2427 7.27 18.983 7.51119 18.6707C8.10447 17.9018 8.89553 16.815 9.68563 15.5443C11.2788 12.9808 12.8148 9.75468 12.8148 6.90019C12.8148 3.63334 10.1673 0.985848 6.90045 0.985848H6.90026ZM6.90026 20.2074L6.5297 20.5318L6.52785 20.53L6.52415 20.5253L6.50936 20.5087C6.49643 20.4939 6.47795 20.4717 6.45299 20.444C6.40494 20.3867 6.33471 20.3036 6.24507 20.1964C6.06671 19.981 5.81351 19.6678 5.50854 19.2732C4.90048 18.4849 4.09002 17.3704 3.27773 16.0648C1.66791 13.4755 0 10.0477 0 6.90038C0 3.08941 3.08941 0 6.90038 0C10.7113 0 13.8008 3.08941 13.8008 6.90038C13.8008 10.048 12.1327 13.4755 10.523 16.0648C9.71073 17.3705 8.90027 18.4849 8.29221 19.2732C7.98724 19.6678 7.73404 19.981 7.55568 20.1964C7.46604 20.3035 7.39581 20.3867 7.34776 20.444C7.32281 20.4717 7.30432 20.4939 7.29139 20.5087L7.2766 20.5253L7.2729 20.53L7.27106 20.5318L6.90049 20.2074H6.90026ZM6.90026 20.2074L7.27083 20.5318C7.1775 20.6381 7.04258 20.7 6.90026 20.7C6.75795 20.7 6.62302 20.639 6.5297 20.5318L6.90026 20.2074Z"/>
<path fill-rule="evenodd" clip-rule="evenodd" d="M6.9004 4.43575C5.53918 4.43575 4.43578 5.53915 4.43578 6.90037C4.43578 8.26067 5.53918 9.36404 6.9004 9.36404C8.26162 9.36404 9.36502 8.26064 9.36502 6.90037C9.36502 5.53915 8.26162 4.43575 6.9004 4.43575ZM3.45068 6.90037C3.45068 4.99484 4.99487 3.44971 6.9004 3.44971C8.80593 3.44971 10.3501 4.99482 10.3501 6.90037C10.3501 8.8059 8.80593 10.3501 6.9004 10.3501C4.99487 10.3501 3.45068 8.8059 3.45068 6.90037V6.90037Z" />
</svg>
