<svg width="13" height="26" viewBox="0 0 13 26" fill="none" xmlns="http://www.w3.org/2000/svg">
<path d="M12.9966 12.9172C12.9793 12.6542 12.8755 12.4039 12.7013 12.2067L2.0699 0.395104C1.8588 0.159793 1.56464 0.0179304 1.24972 0.00177805C0.934791 -0.0155241 0.626776 0.094056 0.391468 0.303977C0.157291 0.515062 0.0177157 0.81034 0.00156192 1.12524C-0.0145883 1.44013 0.095003 1.74812 0.307274 1.98226L10.2281 13.0001L0.307274 24.0179C0.0950148 24.2509 -0.0145624 24.5589 0.00156192 24.8738C0.0177119 25.1887 0.157294 25.484 0.391468 25.6951C0.6268 25.9062 0.934791 26.0146 1.24972 25.9984C1.56464 25.9811 1.85881 25.8392 2.0699 25.6051L12.7013 13.7935C12.9147 13.5536 13.0208 13.2364 12.9966 12.9169V12.9172Z" fill="white"/>
</svg>
