<svg width="40" height="40" viewBox="0 0 40 40" fill="none" xmlns="http://www.w3.org/2000/svg">
<path class="svgg" d="M20 0C14.6946 0 9.60841 2.10601 5.85822 5.85822C2.10611 9.60836 0 14.6946 0 20C0 25.3054 2.10601 30.3916 5.85822 34.1418C9.60836 37.8939 14.6946 40 20 40C25.3054 40 30.3916 37.894 34.1418 34.1418C37.8939 30.3916 40 25.3054 40 20C40 14.6946 37.894 9.60841 34.1418 5.85822C30.3916 2.10611 25.3054 0 20 0V0ZM20 37.896C15.2531 37.896 10.7018 36.0091 7.34627 32.6537C3.9907 29.2984 2.10399 24.7471 2.10399 20C2.10399 15.2529 3.99091 10.7018 7.34627 7.34627C10.7016 3.9907 15.2529 2.10399 20 2.10399C24.7471 2.10399 29.2982 3.99091 32.6537 7.34627C36.0093 10.7016 37.896 15.2529 37.896 20C37.896 24.7471 36.0091 29.2982 32.6537 32.6537C29.2984 36.0093 24.7471 37.896 20 37.896V37.896Z" fill="white"/>
<path d="M21.0519 9.47412H18.9479V18.9481H9.47388V21.0522H18.9479V30.5262H21.0519V21.0522H30.5259V18.9481H21.0519V9.47412Z" fill="white" />
</svg>
