<svg width="52" height="52" viewBox="0 0 52 52" fill="none" xmlns="http://www.w3.org/2000/svg">
<rect x="3.4751" y="5.00977" width="10.7749" height="6.21372" fill="#FFD225"/>
<rect x="14.25" y="5.00977" width="27.0913" height="6.21372" fill="#FF763C"/>
<rect x="41.3413" y="5.00977" width="7.18329" height="6.21372" fill="#D11D62"/>
<rect x="3.4751" y="12.4663" width="7.19148" height="6.21372" fill="#FFD225"/>
<rect x="10.6665" y="12.4663" width="18.0814" height="6.21373" fill="#FF763C"/>
<rect x="28.748" y="12.4663" width="4.79433" height="6.21373" fill="#D11D62"/>
<rect x="3.4751" y="19.9229" width="5.39974" height="6.21374" fill="#FFD225"/>
<rect x="8.875" y="19.9229" width="13.5765" height="6.21373" fill="#FF763C"/>
<rect x="22.4512" y="19.9229" width="3.59984" height="6.21373" fill="#D11D62"/>
<rect x="3.4751" y="27.3794" width="3.60801" height="6.21372" fill="#FFD225"/>
<rect x="7.08301" y="27.3794" width="9.07157" height="6.21371" fill="#FF763C"/>
<rect x="16.1548" y="27.3794" width="2.40533" height="6.21371" fill="#D11D62"/>
<rect x="3.4751" y="34.8354" width="1.81628" height="6.21371" fill="#FFD225"/>
<rect x="5.2915" y="34.8354" width="4.56664" height="6.21374" fill="#FF763C"/>
<rect x="9.85791" y="34.8354" width="1.21085" height="6.21374" fill="#D11D62"/>
<rect x="3.4751" y="42.292" width="0.515431" height="6.21371" fill="#FFD225"/>
<rect x="3.99072" y="42.292" width="1.29594" height="6.21371" fill="#FF763C"/>
<rect x="5.28662" y="42.292" width="0.343621" height="6.21371" fill="#D11D62"/>
</svg>
