<svg width="20" height="20" viewBox="0 0 20 20" fill="none" xmlns="http://www.w3.org/2000/svg">
<path fill-rule="evenodd" clip-rule="evenodd" d="M1.20647 1.29256C1.59699 0.902032 2.23016 0.902032 2.62068 1.29256L18.7065 17.3783C19.097 17.7689 19.097 18.402 18.7065 18.7926C18.3159 19.1831 17.6828 19.1831 17.2923 18.7926L1.20647 2.70677C0.815943 2.31625 0.815943 1.68308 1.20647 1.29256Z" fill="#000000"/>
<path fill-rule="evenodd" clip-rule="evenodd" d="M18.7926 1.29256C18.402 0.902032 17.7689 0.902032 17.3783 1.29256L1.29256 17.3783C0.902032 17.7689 0.902032 18.402 1.29256 18.7926C1.68308 19.1831 2.31625 19.1831 2.70677 18.7926L18.7926 2.70677C19.1831 2.31625 19.1831 1.68308 18.7926 1.29256Z" fill="#000000"/>
</svg>
