<svg width="8" height="14" viewBox="0 0 8 14" fill="none" xmlns="http://www.w3.org/2000/svg">
<path d="M2.59986 7.70982C2.50613 7.61686 2.43174 7.50626 2.38097 7.3844C2.3302 7.26254 2.30406 7.13183 2.30406 6.99982C2.30406 6.86781 2.3302 6.7371 2.38097 6.61524C2.43174 6.49338 2.50613 6.38278 2.59986 6.28982L7.18986 1.70982C7.28359 1.61686 7.35798 1.50626 7.40875 1.3844C7.45952 1.26254 7.48566 1.13183 7.48566 0.999816C7.48566 0.867804 7.45952 0.737099 7.40875 0.615239C7.35798 0.49338 7.28359 0.382779 7.18986 0.289816C7.0025 0.103565 6.74905 -0.000976562 6.48486 -0.000976562C6.22067 -0.000976562 5.96722 0.103565 5.77986 0.289816L1.18986 4.87982C0.628058 5.44232 0.3125 6.20482 0.3125 6.99982C0.3125 7.79482 0.628058 8.55732 1.18986 9.11982L5.77986 13.7099C5.96612 13.8946 6.21752 13.9988 6.47986 13.9999C6.61147 14.0006 6.74193 13.9754 6.86377 13.9256C6.9856 13.8759 7.09642 13.8025 7.18986 13.7099C7.28359 13.6169 7.35798 13.5063 7.40875 13.3844C7.45952 13.2626 7.48566 13.1319 7.48566 12.9999C7.48566 12.8678 7.45952 12.7371 7.40875 12.6153C7.35798 12.4934 7.28359 12.3828 7.18986 12.2899L2.59986 7.70982Z" fill="#545454"/>
</svg>
