<svg width="19" height="21" viewBox="0 0 19 21" fill="none" xmlns="http://www.w3.org/2000/svg">
<path d="M16.6852 20.6961H2.31714C1.04113 20.6961 0.00341797 19.6575 0.00341797 18.3824V4.01343C0.00341797 2.73833 1.04113 1.69971 2.31714 1.69971H16.6852C17.9621 1.69971 18.9989 2.73833 18.9989 4.01343V18.3824C19.0007 19.6593 17.9621 20.6961 16.6852 20.6961ZM2.31714 2.64569C1.56227 2.64569 0.948373 3.25958 0.948373 4.01355V18.3825C0.948373 19.1365 1.56227 19.7504 2.31714 19.7504H16.6852C17.4391 19.7504 18.0549 19.1365 18.0549 18.3825V4.01355C18.0549 3.25958 17.441 2.64569 16.6852 2.64569H2.31714Z" />
<path d="M5.48324 4.15828C5.22131 4.15828 5.01123 3.94637 5.01123 3.68627V0.47208C5.01123 0.211057 5.22314 0.000976562 5.48324 0.000976562C5.74245 0.000976562 5.95709 0.212887 5.95709 0.47208V3.68627C5.95527 3.94638 5.74246 4.15828 5.48324 4.15828Z" />
<path d="M13.447 4.15821C13.1851 4.15821 12.9731 3.94539 12.9731 3.6862V0.472012C12.9731 0.21008 13.1851 0 13.447 0C13.708 0 13.919 0.212818 13.919 0.472012V3.6862C13.9208 3.94541 13.708 4.15821 13.447 4.15821Z" />
<path d="M18.5261 7.04217H0.47292C0.211896 7.04217 0 6.82935 0 6.57016C0 6.31004 0.21191 6.09814 0.47292 6.09814H18.5261C18.7872 6.09814 19 6.31005 19 6.57016C19 6.82936 18.7872 7.04217 18.5261 7.04217Z" />
</svg>
