<svg width="30" height="30" viewBox="0 0 30 30" fill="none" xmlns="http://www.w3.org/2000/svg">
<rect width="30" height="30" rx="1" fill="#FFD225"/>
<path d="M17.3482 12.2295H12.7319C12.7319 12.2295 9.5 14.999 9.5 18.2305C9.5 20.0761 10.8897 21 11.8082 21H18.2715C19.1939 21 20.5797 20.0767 20.5797 18.2305C20.5802 14.999 17.3483 12.2295 17.3483 12.2295H17.3482ZM15.501 18.645V19.3843H14.5786L14.5791 18.6475C13.8996 18.5211 13.4722 18.1017 13.4421 17.4927H14.2416C14.2805 17.8125 14.6028 18.0183 15.0692 18.0183C15.4985 18.0183 15.803 17.81 15.803 17.5129C15.803 17.2602 15.6061 17.1161 15.121 17.0076L14.6068 16.8975C13.8867 16.747 13.5329 16.3719 13.5329 15.7694C13.5329 15.1668 13.9346 14.732 14.5737 14.5894V13.8457H15.4961V14.5909C16.1203 14.7301 16.5359 15.1555 16.5561 15.7279H15.7843C15.7453 15.416 15.4546 15.2073 15.0554 15.2073C14.6561 15.2073 14.3679 15.3992 14.3679 15.6998C14.3679 15.9436 14.5559 16.0788 15.0198 16.1824L15.4961 16.2836C16.2906 16.4504 16.6331 16.7889 16.6331 17.4068C16.6331 18.0676 16.2087 18.5098 15.501 18.645L15.501 18.645Z" fill="#27002E"/>
<path d="M17.3482 9.45896H16.0725C15.8089 9.1668 15.4334 9 15.04 9C14.6467 9 14.2712 9.1668 14.0076 9.45896H12.7319C12.5794 9.45994 12.4368 9.53594 12.3509 9.66228C12.2655 9.78862 12.2478 9.949 12.3035 10.0906L12.7319 11.3047L17.3481 11.3052L17.7765 10.0911V10.0906C17.8322 9.949 17.8145 9.78862 17.7291 9.66228C17.6432 9.53595 17.5006 9.45994 17.3481 9.45896L17.3482 9.45896Z" fill="#27002E"/>
</svg>
