<svg width="30" height="30" viewBox="0 0 30 30" fill="none" xmlns="http://www.w3.org/2000/svg">
<path d="M0 1C0 0.447716 0.447715 0 1 0H29C29.5523 0 30 0.447715 30 1V29C30 29.5523 29.5523 30 29 30H1C0.447716 30 0 29.5523 0 29V1Z" fill="url(#paint0_linear_8_2517)"/>
<path d="M16.8455 11C16.4373 11.0063 16.038 11.1203 15.688 11.3303C15.3379 11.5404 15.0494 11.8391 14.8518 12.1962C14.6541 11.8391 14.3656 11.5404 14.0156 11.3303C13.6655 11.1203 13.2662 11.0063 12.858 11C12.2073 11.0283 11.5942 11.3129 11.1527 11.7918C10.7112 12.2706 10.4772 12.9048 10.5018 13.5556C10.5018 16.0116 14.4733 18.8481 14.6422 18.9685L14.8518 19.1167L15.0613 18.9685C15.2302 18.8488 19.2018 16.0116 19.2018 13.5556C19.2263 12.9048 18.9923 12.2706 18.5508 11.7918C18.1093 11.3129 17.4962 11.0283 16.8455 11Z" fill="white"/>
<defs>
<linearGradient id="paint0_linear_8_2517" x1="0" y1="0" x2="30" y2="30" gradientUnits="userSpaceOnUse">
<stop stop-color="#8BFFF1"/>
<stop offset="0.197917" stop-color="#84F5EE"/>
<stop offset="0.453125" stop-color="#78E3E9"/>
<stop offset="0.661458" stop-color="#66C9E1"/>
<stop offset="0.9999" stop-color="#3A8ACE"/>
<stop offset="1" stop-color="#0036B5"/>
</linearGradient>
</defs>
</svg>
