<svg width="315" height="461" viewBox="0 0 315 461" fill="none" xmlns="http://www.w3.org/2000/svg">
<path d="M7.58697 407.191C8.20247 408.592 8.88738 410.039 9.64737 411.503C18.0447 425.661 30.7711 428.776 47.3819 421.985L112.207 399.232L108.445 399.36C88.9613 400 70.2714 394.725 54.4882 384.843C53.1465 384.008 51.8367 383.14 50.5363 382.235L32.2442 388.655C13.6668 363.052 -5.66862 377.062 7.58697 407.191" fill="#FFCA28"/>
<path d="M8.44849 400.634C4.84561 389.645 6.268 381.756 10.2443 379.302C11.1187 378.763 12.1752 378.474 13.3799 378.474C15.795 378.474 18.8087 379.64 22.1301 382.302C20.7414 381.844 19.4166 381.623 18.1706 381.623C11.0662 381.623 6.58512 388.834 8.44849 400.634ZM37.3166 394.88C36.9338 393.451 36.5228 392.041 36.11 390.647L50.0711 385.748C51.6249 386.793 53.2011 387.791 54.7999 388.742L37.3166 394.88Z" fill="#FFE79E"/>
<path d="M12.4115 409.967C19.7974 422.354 30.8462 425.332 46.1866 419.059C46.2354 419.04 46.2861 419.022 46.3367 419.003L94.7091 402.024C78.7514 400.343 63.548 394.82 50.071 385.748L33.2913 391.636C31.974 392.098 30.5066 391.642 29.6866 390.51C21.6514 379.437 14.1323 376.905 10.2442 379.302C5.21513 382.405 4.27125 394.201 12.4115 409.967V409.967ZM32.0491 428.543C21.5332 428.543 13.0026 423.356 6.92837 413.114C6.89647 413.062 6.86832 413.009 6.84017 412.955C-3.72827 392.548 -0.7315 378.647 6.92462 373.922C12.5804 370.433 22.7585 371.374 33.3776 384.907L49.4893 379.251C50.4463 378.915 51.5084 379.06 52.3434 379.641C68.8416 391.139 88.2221 396.87 108.34 396.2L112.101 396.074C113.626 396.023 115.026 397.115 115.313 398.65C115.602 400.183 114.728 401.698 113.255 402.216L48.5022 424.942C42.5969 427.348 37.095 428.543 32.0491 428.543" fill="#191414"/>
<path d="M35.1493 387.407C36.1739 390.923 37.3261 394.504 38.1367 398.255C38.5364 400.127 38.8385 402.051 38.9079 403.995C38.9793 405.935 38.7972 407.9 38.2549 409.737C38.1724 410.018 37.8777 410.178 37.5963 410.097C37.3579 410.026 37.206 409.803 37.2172 409.564V409.555C37.3805 405.973 36.172 402.619 34.6427 399.431C33.0927 396.232 31.1974 393.126 29.3397 389.902L29.3322 389.887C28.454 388.364 28.9794 386.416 30.5031 385.538C32.0268 384.661 33.9727 385.185 34.851 386.709C34.9786 386.928 35.078 387.174 35.1493 387.407" fill="#191414"/>
<path d="M36.1079 421.943C38.5811 418.661 38.7482 414.223 38.3297 409.478C38.8138 407.716 38.9752 405.843 38.9077 403.995C38.8945 403.623 38.8739 403.253 38.8438 402.886C42.4786 405.563 46.4774 406.684 50.2154 406.684C56.9915 406.684 62.9099 403.004 64.2423 398.234C68.2617 401.912 72.5721 405.239 77.1395 408.192L46.3367 419.003C46.2861 419.022 46.2354 419.04 46.1866 419.059C42.5931 420.528 39.2379 421.491 36.1079 421.943" fill="#D29433"/>
<path d="M31.9874 425.426C31.8598 425.426 31.7322 425.424 31.6064 425.423C33.6049 424.512 35.0629 423.33 36.1082 421.943C39.2382 421.491 42.5933 420.529 46.1868 419.059C46.2356 419.041 46.2863 419.022 46.337 419.003L77.1397 408.193C78.2769 408.926 79.4309 409.639 80.6 410.328L47.3822 421.985C41.8033 424.27 36.6636 425.426 31.9874 425.426V425.426ZM38.3299 409.478C38.1048 406.943 37.7126 404.318 37.4161 401.734C37.8833 402.146 38.3618 402.529 38.8441 402.886C38.8741 403.254 38.8948 403.623 38.9079 403.995C38.9755 405.843 38.8141 407.716 38.3299 409.478Z" fill="#191414"/>
<path d="M181.681 81.0513C178.226 57.7264 166.761 38.1958 149.413 21.4499C169.911 24.0845 186.883 32.8271 199.847 48.4997C209.446 24.518 224.656 9.38968 245.51 3.1597C234.818 23.7674 227.625 42.1064 228.207 55.4127C248.066 39.1059 269.114 35.2554 291.469 45.0132L263.905 81.5411L287.662 83.2262C287.662 83.2262 257.381 105.525 256.85 106.108C256.317 106.694 214.475 120.955 214.475 120.955L181.681 81.0513" fill="#5DBD5C"/>
<path d="M199.68 56.8968C190.007 45.2062 178.095 37.3624 164.152 33.0483C162.388 30.7834 160.516 28.5485 158.532 26.3417C174.239 30.1698 187.286 38.2744 197.411 50.5129C198.018 51.2448 198.913 51.6595 199.843 51.6595C200.007 51.6595 200.172 51.6482 200.335 51.6219C201.438 51.4493 202.367 50.7081 202.782 49.6741C210.793 29.6594 222.982 15.9703 239.083 8.88092C238.374 10.3315 237.692 11.7519 237.037 13.1481C235.932 14.1332 234.849 15.1616 233.787 16.2274C218.768 24.0299 207.404 37.5951 199.68 56.8968V56.8968ZM228.038 63.8117C227.97 62.1434 228.021 60.3946 228.186 58.5725H228.207C228.925 58.5725 229.638 58.3266 230.213 57.8538C242.427 47.8239 254.757 42.8343 267.486 42.8343C273.704 42.8343 280.019 44.0259 286.461 46.4015L284.132 49.4902L282.195 50.1733C277.195 48.7941 272.254 48.111 267.384 48.111C253.768 48.111 240.663 53.4402 228.038 63.8117V63.8117ZM272.404 90.5518L263.738 89.9382L267.495 84.9636L278.88 85.7723C276.493 87.5325 274.342 89.12 272.404 90.5518" fill="#B6E1B5"/>
<path d="M255.056 103.509C254.91 103.608 254.728 103.751 254.546 103.946C254.604 103.884 254.709 103.785 255.056 103.509ZM259.188 108.236C259.158 108.27 259.128 108.303 259.094 108.337C259.137 108.292 259.167 108.258 259.188 108.236ZM184.674 79.7149L215.526 117.256C230.401 112.178 252.384 104.594 255.176 103.413C256.621 102.27 261.474 98.6075 278.88 85.7723L263.682 84.6933C262.525 84.6107 261.507 83.9033 261.029 82.8487C260.549 81.7941 260.686 80.5612 261.382 79.6361L286.461 46.4014C266.833 39.16 248.395 42.9243 230.213 57.8537C229.29 58.6137 228.014 58.7863 226.92 58.2984C225.826 57.8106 225.103 56.7466 225.051 55.5494C224.561 44.3429 229.038 29.3947 239.083 8.88084C222.983 15.9703 210.793 29.6593 202.782 49.674C202.368 50.708 201.439 51.4492 200.335 51.6218C199.236 51.7964 198.123 51.3723 197.412 50.5128C187.286 38.2743 174.239 30.1697 158.533 26.3417C173.001 42.442 181.584 59.991 184.674 79.7149V79.7149ZM214.475 124.115C213.546 124.115 212.645 123.706 212.032 122.963L179.238 83.0569C178.874 82.6141 178.638 82.0812 178.553 81.5126C175.354 59.8916 165.104 40.9896 147.217 23.7239C146.238 22.7782 145.975 21.3089 146.564 20.0816C147.155 18.8525 148.465 18.1432 149.816 18.3159C169.668 20.866 186.157 29.0457 198.906 42.6465C208.937 20.4926 224.293 6.1993 244.608 0.132579C245.82 -0.231462 247.137 0.168233 247.946 1.14589C248.757 2.12354 248.901 3.48964 248.318 4.61554C238.537 23.4612 233.048 38.0135 231.679 48.7996C251.117 35.1556 271.629 32.9038 292.734 42.1155C293.62 42.5039 294.281 43.2752 294.526 44.2115C294.772 45.1479 294.575 46.1444 293.993 46.9175L269.933 78.7992L287.887 80.0733C289.208 80.1671 290.33 81.0754 290.698 82.3477C291.068 83.6199 290.603 84.986 289.537 85.7723C277.899 94.3422 260.151 107.457 258.957 108.461L258.978 108.444C258.079 109.204 254.366 110.698 215.494 123.946C215.16 124.06 214.815 124.115 214.475 124.115" fill="#191414"/>
<path d="M248.668 95.7742L261.172 65.4856C261.543 64.5868 261.479 63.5678 261.001 62.7215C260.522 61.8771 259.682 61.2972 258.721 61.1546C256.711 60.8506 254.743 60.6461 252.812 60.541L282.196 50.1734C282.586 50.2803 282.975 50.391 283.365 50.5074L261.382 79.6363C260.963 80.1917 260.747 80.8579 260.744 81.5315L248.668 95.7742Z" fill="#618B58"/>
<path d="M283.365 50.5071C282.975 50.3907 282.586 50.28 282.196 50.1731L284.132 49.49L283.365 50.5071Z" fill="#9FA496"/>
<path d="M260.744 81.5312C260.747 80.8576 260.963 80.1914 261.382 79.636L283.365 50.5071L284.132 49.49L289.525 47.5854L260.744 81.5312" fill="#191414"/>
<path d="M187.479 82.5146C186.545 81.4751 185.597 80.473 184.64 79.5085C182.049 63.1754 175.682 48.3342 165.32 34.572C172.18 40.9145 180.773 50.1075 187.316 61.2501C187.296 61.3965 187.286 61.5466 187.288 61.6986L187.479 82.5146" fill="#618B58"/>
<path d="M184.64 79.5085C184.064 78.9268 183.484 78.3601 182.899 77.8066C182.632 77.238 182.486 76.9208 182.486 76.9208C182.139 58.3529 172.116 41.0966 153.682 24.9813C153.682 24.9813 158.694 28.4471 165.32 34.572C175.682 48.3343 182.049 63.1755 184.64 79.5085" fill="#191414"/>
<path d="M212.546 79.0979L203.338 69.9819C211.178 47.9199 220.879 29.1943 233.788 16.2277C234.565 15.8243 235.351 15.4358 236.148 15.0624C228.168 32.4425 224.612 45.503 225.051 55.5497C225.102 56.7376 225.816 57.794 226.895 58.2875L224.143 68.0416C219.915 70.9164 216.046 74.6018 212.546 79.0979" fill="#618B58"/>
<path d="M233.788 16.2275C234.85 15.1617 235.933 14.1333 237.038 13.1482C236.736 13.7918 236.44 14.4298 236.149 15.0622C235.351 15.4356 234.565 15.8241 233.788 16.2275Z" fill="#9FA496"/>
<path d="M226.895 58.2874C225.816 57.7938 225.101 56.7374 225.051 55.5496C224.612 45.5028 228.168 32.4423 236.148 15.0622C236.439 14.4298 236.736 13.7918 237.038 13.1482C238.149 12.1555 239.28 11.206 240.438 10.2959L226.895 58.2874" fill="#191414"/>
<path d="M164.459 115.851C158.255 97.4894 137.208 82.3179 111.966 68.0471C141.359 58.9011 168.55 61.6426 190.724 91.4883L190.448 61.6689L212.931 83.9242C223.822 68.1147 238.832 61.3574 258.25 64.2791L242.005 103.633C256.096 101.862 268.577 101.984 278.986 104.538L262.157 115.93C285.93 123.492 304.241 134.86 311.839 153.692C288.668 145.256 267.199 139.637 251.42 143.434L222.501 157.95L171.58 148.628L164.459 115.851Z" fill="#5DBD5C"/>
<path d="M190.249 98.8926C175.158 78.587 157.739 70.824 138.893 70.824C135.211 70.824 131.477 71.1204 127.692 71.6759C125.388 70.7432 123.035 69.8313 120.646 68.9437C127.204 67.4012 133.395 66.6243 139.248 66.6243C158.951 66.6243 174.847 75.4176 188.185 93.372C188.688 94.0475 189.418 94.4753 190.21 94.6048L190.249 98.8926V98.8926ZM212.456 91.3285L196.462 75.4965L193.681 69.3171L210.705 86.17C211.3 86.7592 212.107 87.0838 212.93 87.0838C213.028 87.0838 213.127 87.0801 213.225 87.0707C214.156 86.9825 215 86.4871 215.533 85.7159C224.285 73.0138 235.501 66.7688 249.657 66.7688C250.989 66.7688 252.35 66.8251 253.733 66.9358L252.524 69.865L251.207 71.0585C250.549 71.0341 249.895 71.0229 249.248 71.0229C233.904 71.0229 221.686 77.9209 212.456 91.3285V91.3285ZM241.53 111.039L243.343 106.652C249.137 105.958 254.564 105.609 259.604 105.609C263.583 105.609 267.319 105.826 270.802 106.26L265.243 110.022C263.262 109.902 261.228 109.844 259.145 109.844C253.611 109.844 247.726 110.257 241.53 111.039V111.039ZM305.464 148.087C304.573 147.783 303.672 147.479 302.768 147.181C293.282 136.303 278.914 128.823 261.682 123.334L265.864 120.504C285.161 127.312 298.212 136.394 305.464 148.087" fill="#B6E1B5"/>
<path d="M235.718 138.658L247.88 119.007C248.111 118.637 248.257 118.228 248.319 117.808L262.851 111.642L260.383 113.312C259.381 113.991 258.854 115.183 259.028 116.382C259.18 117.44 259.856 118.339 260.807 118.787L239.363 138.658C238.764 138.641 238.165 138.633 237.561 138.633C236.951 138.633 236.334 138.641 235.718 138.658ZM180.035 123.441C175.834 119.778 171.51 116.539 167.055 113.717C160.857 96.9919 143.541 83.4286 125.103 72.0964C125.968 71.9426 126.831 71.8037 127.692 71.6761C153.404 82.0925 173.597 95.4926 182.006 115.275L185.047 119.651L180.035 123.441ZM204.388 118.789L207.286 110.058C207.721 108.746 207.25 107.3 206.126 106.495C205.576 106.099 204.931 105.903 204.285 105.903C203.613 105.903 202.942 106.115 202.379 106.541L197.119 110.522L192.895 93.7831C193.52 93.1921 193.891 92.357 193.882 91.4582L193.711 72.7738L196.462 75.4967L210.904 107.594L251.207 71.0587C251.475 71.07 251.746 71.0813 252.016 71.0963L239.083 102.428C238.653 103.468 238.809 104.657 239.492 105.551C239.608 105.705 239.738 105.843 239.877 105.971L234.277 112.118C233.253 112.055 232.224 112.023 231.194 112.023C222.489 112.023 213.529 114.284 204.388 118.789" fill="#618B58"/>
<path d="M125.103 72.0961C123.434 71.0715 121.759 70.0657 120.081 69.0768C120.271 69.0318 120.458 68.9867 120.646 68.9436C123.035 69.8312 125.388 70.7431 127.692 71.6758C126.831 71.8034 125.968 71.9422 125.103 72.0961ZM196.462 75.4963L193.711 72.7735L193.679 69.3151L193.681 69.317L196.462 75.4963ZM252.016 71.0959C251.746 71.0809 251.475 71.0697 251.207 71.0584L252.524 69.8649L252.016 71.0959" fill="#9FA496"/>
<path d="M174.222 145.899L222.028 154.651L250.003 140.61C250.217 140.501 250.446 140.418 250.68 140.362C266.477 136.562 287.401 141.923 305.465 148.087C297.641 135.475 283.07 125.9 261.198 118.942C260.044 118.574 259.201 117.579 259.029 116.382C258.854 115.183 259.381 113.991 260.384 113.312L270.802 106.26C262.671 105.249 253.157 105.418 242.399 106.769C241.275 106.911 240.176 106.446 239.492 105.551C238.809 104.658 238.654 103.468 239.083 102.428L253.733 66.9364C237.637 65.651 225.109 71.8209 215.533 85.7164C215 86.4876 214.156 86.983 213.225 87.0712C212.302 87.1575 211.371 86.8291 210.705 86.1705L193.68 69.3158L193.882 91.4585C193.895 92.8264 193.027 94.048 191.73 94.4834C190.426 94.9169 189.001 94.4703 188.185 93.3725C170.771 69.9313 149 62.1081 120.081 69.0775C140.734 81.2465 161.113 96.0728 167.454 114.84C167.491 114.952 167.523 115.065 167.547 115.181L174.222 145.899V145.899ZM222.499 161.11C222.309 161.11 222.12 161.093 221.93 161.06L171.011 151.737C169.756 151.508 168.763 150.546 168.491 149.3L161.409 116.699C154.958 97.9249 130.777 82.3124 110.41 70.8001C109.314 70.179 108.689 68.9649 108.822 67.7114C108.958 66.4579 109.823 65.4052 111.027 65.0299C127.625 59.8639 141.946 58.8974 154.81 62.0781C167.118 65.1199 177.87 71.8341 187.48 82.5151L187.288 61.6991C187.275 60.4174 188.039 59.2559 189.217 58.7586C190.401 58.2613 191.762 58.5221 192.672 59.4229L212.546 79.098C224.058 64.3074 239.575 58.2726 258.721 61.1549C259.682 61.2975 260.522 61.8773 261.001 62.7218C261.479 63.5681 261.543 64.587 261.172 65.4859L246.963 99.9065C259.777 98.6942 270.539 99.2103 279.74 101.468C280.952 101.766 281.877 102.749 282.098 103.98C282.318 105.209 281.792 106.454 280.759 107.155L269.194 114.982C293.164 123.672 308.105 135.988 314.77 152.51C315.237 153.668 314.98 154.991 314.113 155.89C313.246 156.787 311.933 157.089 310.758 156.663C292.215 149.91 268.878 142.664 252.506 146.427L223.918 160.774C223.475 160.998 222.989 161.11 222.499 161.11Z" fill="#191414"/>
<path d="M279.952 215.309C267.711 202.509 255.261 190.815 239.432 196.165L209.005 179.74L148.462 147.049C143.677 126.218 123.035 113.647 90.9394 107.048C89.8117 106.819 88.667 106.588 87.5073 106.374C121.205 98.1456 152.483 102.576 179.872 127.532L204.284 109.065L203.923 110.15L198.838 125.482C214.969 115.546 230.429 112.698 245.197 117.34L242.902 121.05L230.558 140.988L229.774 142.255C250.196 139.89 267.766 146.557 282.145 163.345L276.792 164.966L276.784 164.958L276.703 164.985L250.038 173.048C273.455 180.351 279.017 195.022 279.952 215.309Z" fill="#5DBD5C"/>
<path d="M234.701 175.657C232.209 172.677 229.624 169.77 226.94 166.935C222.953 162.726 218.599 159.016 213.968 155.826C235.955 155.826 255.562 157.58 270.715 162.645C270.952 162.857 271.188 163.071 271.423 163.287L249.12 170.027C247.95 170.38 247.101 171.373 246.914 172.553L234.701 175.657V175.657ZM212.349 154.738C199.123 146.087 183.783 141.566 168.302 141.566C168.005 141.566 167.707 141.566 167.412 141.57L177.037 132.595L179.576 130.675C179.673 130.685 179.773 130.688 179.87 130.688C180.54 130.688 181.21 130.476 181.777 130.048L198.083 117.716L195.837 124.481C195.633 125.098 195.627 125.747 195.798 126.344L187.686 142.516L238.004 122.955L227.088 140.589C226.503 141.534 226.462 142.711 226.961 143.689L214.713 152.878L212.349 154.738ZM150.796 143.525C147.043 131.088 137.874 121.321 123.048 114.064C139.199 119.686 152.62 128.457 163.586 141.705C159.304 141.96 155.025 142.565 150.796 143.525Z" fill="#618B58"/>
<path d="M272.039 163.101C271.601 162.945 271.16 162.793 270.716 162.645C259.731 152.842 247.13 148.143 233.049 148.143C230.493 148.143 227.892 148.299 225.239 148.605L227.697 144.633C228.269 145.132 229.007 145.413 229.774 145.413C229.896 145.413 230.018 145.408 230.14 145.393C232.72 145.094 235.235 144.944 237.693 144.944C252.656 144.944 265.418 150.493 276.432 161.772L272.039 163.101V163.101ZM175.335 133.882C156.094 116.348 134.927 108.947 112.354 108.947C111.733 108.947 111.114 108.953 110.493 108.964C108.098 108.157 105.601 107.395 102.998 106.678C107.744 106.071 112.371 105.767 116.882 105.767C139.982 105.767 160.06 113.751 177.743 129.865C178.157 130.242 178.649 130.491 179.167 130.609L177.037 132.595L175.335 133.882V133.882ZM194.303 131.831L195.971 126.804C196.174 127.245 196.48 127.641 196.877 127.954C197.448 128.408 198.142 128.637 198.838 128.637C199.411 128.637 199.985 128.483 200.495 128.168C211.109 121.638 221.4 118.36 231.238 118.36C234.289 118.36 237.301 118.677 240.26 119.307L238.012 122.94C234.257 121.993 230.457 121.522 226.614 121.522C216.164 121.522 205.393 125.001 194.303 131.831" fill="#B6E1B5"/>
<path d="M271.423 163.287C271.189 163.071 270.952 162.857 270.716 162.645C271.16 162.794 271.601 162.946 272.039 163.101L271.423 163.287ZM177.037 132.595L179.167 130.61C179.302 130.64 179.439 130.662 179.576 130.675L177.037 132.595Z" fill="#B8CBB4"/>
<path d="M276.02 206.784C275.133 205.919 274.223 205.058 273.29 204.21C269.97 192.102 262.356 183.12 245.619 177.903L250.344 176.471C267.805 182.292 273.973 192.495 276.02 206.784Z" fill="#B6E1B5"/>
<path d="M247.216 191.686C258.563 191.686 268.139 199.109 276.02 206.784C273.926 192.158 267.512 181.813 249.094 176.069C247.77 175.655 246.869 174.426 246.874 173.037C246.882 171.65 247.792 170.429 249.121 170.027L276.431 161.772C263.609 148.641 248.419 143.276 230.14 145.392C228.939 145.533 227.759 144.97 227.107 143.947C226.458 142.925 226.451 141.619 227.089 140.588L240.26 119.307C227.76 116.639 214.4 119.611 200.495 128.168C199.363 128.864 197.918 128.78 196.877 127.954C195.834 127.13 195.419 125.742 195.837 124.481L198.084 117.716L181.777 130.048C180.563 130.968 178.866 130.889 177.742 129.864C156.605 110.604 132.048 102.957 102.998 106.678C130.578 114.276 146.41 126.869 151.194 144.933L239.766 192.753C242.328 192.02 244.812 191.686 247.216 191.686V191.686ZM279.951 218.471C279.105 218.471 278.274 218.131 277.666 217.495C265.444 204.712 254.204 194.513 240.447 199.162C239.616 199.443 238.706 199.366 237.933 198.948L146.96 149.83C146.159 149.399 145.585 148.642 145.38 147.757C140.974 128.568 121.853 116.05 86.9254 109.482C85.4636 109.208 84.3902 107.949 84.3508 106.461C84.3096 104.974 85.3135 103.659 86.7603 103.306C123.613 94.3009 154.157 100.886 180.035 123.441L202.379 106.541C203.484 105.706 205.002 105.687 206.126 106.494C207.25 107.299 207.721 108.746 207.286 110.058L204.389 118.789C218.858 111.657 232.872 110.154 246.143 114.329C247.073 114.621 247.816 115.327 248.156 116.243C248.496 117.157 248.394 118.177 247.88 119.007L235.719 138.658C254.836 138.134 271.226 145.734 284.549 161.29C285.243 162.103 285.482 163.21 285.181 164.234C284.883 165.259 284.085 166.064 283.063 166.372L259.668 173.442C278.794 182.767 282.359 198.878 283.108 215.166C283.168 216.482 282.406 217.698 281.194 218.216C280.792 218.388 280.37 218.471 279.951 218.471" fill="#191414"/>
<path d="M35.4156 329.544C36.185 348.572 42.6232 366.399 53.2742 381.159C65.0849 397.541 82.0672 410.151 102.243 416.494L105.837 417.622L112.084 419.583L112.221 419.624C111.198 424.617 110.609 430.528 110.609 437.376C110.841 442.508 113.865 447.017 118.257 450.462C122.757 454.001 128.246 456.172 133.945 456.794C139.128 457.373 144.482 456.677 149.411 454.581L215.944 415.82L218.241 414.482C289.019 371.993 299.058 247.714 224.646 169.109C208.748 152.326 186.633 143.718 164.498 144.824C155.069 145.287 145.619 147.52 136.664 151.641C70.1308 182.204 32.751 263.128 35.4156 329.544" fill="#FFCA28"/>
<path d="M237.843 247.919C237.717 247.72 237.594 247.521 237.468 247.322C233.041 240.189 228.56 233.094 223.916 226.104C223.816 225.952 223.717 225.8 223.617 225.646C223.627 225.613 223.636 225.581 223.644 225.547C224.154 223.67 223.809 221.773 222.857 220.253C223.751 219.854 224.646 219.456 225.541 219.06C226.472 220.443 227.397 221.83 228.318 223.218C230.294 226.273 232.255 229.339 234.19 232.422C235.576 237.48 236.802 242.666 237.843 247.919ZM220.851 218.197C220.136 217.726 219.322 217.386 218.429 217.215L217.988 217.131C215.308 213.141 212.591 209.176 209.844 205.232C206.755 200.71 203.573 196.253 200.368 191.813C201.762 191.164 203.16 190.518 204.56 189.875C207.733 193.988 210.833 198.159 213.912 202.344C217.399 207.165 220.795 212.047 224.132 216.973C223.038 217.377 221.942 217.784 220.851 218.197V218.197ZM198.53 189.274C197.431 187.758 196.331 186.242 195.232 184.724C190.249 177.966 185.211 171.241 180.036 164.613C179.749 164.236 179.46 163.861 179.169 163.489C179.94 163.112 180.713 162.739 181.488 162.369C181.664 162.562 181.841 162.756 182.015 162.949C187.681 169.214 193.192 175.628 198.487 182.217C199.945 183.999 201.383 185.801 202.803 187.615C201.377 188.161 199.953 188.713 198.53 189.274V189.274ZM177.221 161.039C175.53 158.95 173.809 156.886 172.143 154.771C170.321 152.491 168.499 150.207 166.694 147.903L167.396 147.892C169.353 149.849 171.297 151.825 173.239 153.805L177.656 158.348C178.251 158.959 178.844 159.571 179.435 160.187C178.696 160.468 177.957 160.751 177.221 161.039V161.039ZM239.387 322.883C237.368 318.892 235.323 314.919 233.249 310.958C230.665 306.083 228.07 301.213 225.43 296.372C226.819 295.698 228.209 295.028 229.603 294.362C232.118 299.243 234.567 304.157 236.91 309.124C238.078 311.569 239.228 314.02 240.363 316.482C240.076 318.621 239.75 320.761 239.387 322.883V322.883ZM223.58 292.998C221.833 289.83 220.063 286.676 218.26 283.538C214.901 277.625 211.486 271.743 207.988 265.909L208.033 265.886C209.577 265.137 211.122 264.39 212.668 263.647C216.07 269.42 219.392 275.239 222.606 281.119C224.4 284.448 226.179 287.785 227.93 291.136C226.477 291.75 225.027 292.371 223.58 292.998ZM205.854 262.371C205.549 261.865 205.239 261.358 204.931 260.853C206.305 259.72 207.588 258.463 208.761 257.091C209.395 258.145 210.028 259.2 210.658 260.257C209.204 260.889 207.753 261.527 206.305 262.174L205.854 262.371V262.371ZM176.429 209.235L170.137 208.039C169.871 207.662 169.602 207.287 169.336 206.911C170.618 206.262 171.899 205.617 173.185 204.971C174.275 206.386 175.356 207.807 176.429 209.235ZM166.607 203.108C160.721 194.998 154.688 186.992 148.499 179.094C149.27 178.685 150.044 178.28 150.817 177.876C157.581 185.482 164.08 193.329 170.357 201.346C169.105 201.927 167.855 202.517 166.607 203.108ZM145.379 175.135C141.374 170.087 137.306 165.084 133.172 160.127C133.354 160.018 133.54 159.907 133.722 159.798C138.422 164.456 142.995 169.243 147.454 174.138C146.762 174.471 146.071 174.803 145.379 175.135ZM223.216 370.101C219.078 360.805 214.788 351.584 210.343 342.443C211.525 341.815 212.709 341.192 213.897 340.569C217.804 349.392 221.497 358.311 224.927 367.326C224.477 368.202 224.017 369.075 223.548 369.944C223.435 369.996 223.327 370.049 223.216 370.101ZM208.213 338.12C203.845 329.331 199.407 320.582 194.736 311.956C196.19 311.179 197.647 310.408 199.105 309.642C203.582 318.424 207.937 327.272 211.977 336.26C210.72 336.878 209.467 337.497 208.213 338.12V338.12ZM192.402 307.64C187.739 299.051 182.948 290.532 177.953 282.137C177.829 281.925 177.705 281.711 177.581 281.499C178.212 281.161 178.842 280.825 179.473 280.489C180.388 279.995 181.304 279.504 182.222 279.014C182.312 279.164 182.402 279.316 182.49 279.466C187.468 288.012 192.295 296.644 196.9 305.394C195.399 306.137 193.897 306.888 192.402 307.64V307.64ZM175.639 276.867C174.915 274.54 173.656 272.469 171.894 270.78C171.438 270.345 170.955 269.941 170.449 269.571C169.662 268.284 168.874 267.001 168.08 265.719C170.278 266.205 172.592 266.661 174.956 267.04C176.555 269.618 178.135 272.206 179.702 274.803C178.857 275.227 178.013 275.653 177.17 276.081C176.66 276.342 176.149 276.605 175.639 276.867V276.867ZM126.173 199.685L122.217 198.934C121.196 197.587 120.168 196.244 119.136 194.904C119.785 194.542 120.436 194.179 121.087 193.819C122.356 195.258 123.617 196.705 124.87 198.156C125.306 198.664 125.739 199.175 126.173 199.685ZM115.904 190.841L112.619 186.782L107.432 180.321L107.109 179.912C107.289 179.742 107.471 179.573 107.653 179.404L108.027 179.792L113.726 185.831L117.531 189.908C116.989 190.218 116.447 190.53 115.904 190.841V190.841ZM198.5 402.257C196.99 398.62 195.461 394.997 193.905 391.383C194.663 390.942 195.419 390.502 196.179 390.063C197.478 393.664 198.735 397.28 199.945 400.91C199.471 401.36 198.985 401.814 198.5 402.257ZM191.828 386.588C188.243 378.384 184.543 370.242 180.709 362.162C180.289 361.285 179.869 360.411 179.448 359.535C180.51 358.929 181.574 358.324 182.64 357.724L183.136 357.437C183.575 358.448 184.01 359.46 184.44 360.473C187.951 368.617 191.274 376.842 194.374 385.147C193.524 385.625 192.676 386.106 191.828 386.588V386.588ZM177.167 354.815C173.661 347.593 170.088 340.407 166.349 333.303C165.605 331.869 164.859 330.44 164.106 329.01C164.78 328.621 165.453 328.235 166.127 327.848C166.91 327.39 167.692 326.934 168.476 326.48C169.251 327.998 170.019 329.52 170.781 331.046C174.297 338.178 177.739 345.352 180.998 352.605C180.676 352.787 180.351 352.971 180.028 353.153C179.075 353.704 178.12 354.26 177.167 354.815V354.815ZM161.65 324.369C158.178 317.861 154.62 311.401 150.946 305.002C150.839 304.812 150.732 304.623 150.627 304.433C152.406 304.093 154.189 303.683 155.973 303.202C159.424 309.363 162.802 315.565 166.071 321.823C165.209 322.311 164.35 322.8 163.492 323.292C162.877 323.65 162.263 324.009 161.65 324.369V324.369ZM134.082 267.468C133.465 267.327 132.862 267.17 132.271 266.995C132.63 266.785 132.99 266.573 133.348 266.363C133.594 266.73 133.838 267.098 134.082 267.468ZM126.464 264.422C123.386 259.641 120.262 254.89 117.122 250.148C116.39 249.052 115.655 247.958 114.917 246.868C115.612 246.32 116.237 245.701 116.781 244.999C116.781 244.999 117.06 244.58 117.575 243.787C118.554 245.121 119.53 246.459 120.498 247.8C123.908 252.478 127.212 257.228 130.449 262.026C129.119 262.82 127.788 263.619 126.464 264.422V264.422ZM160.366 402.82C157.593 396.383 154.748 389.981 151.821 383.618C150.907 381.659 149.993 379.699 149.073 377.742C150.319 376.962 151.567 376.185 152.817 375.412C153.755 377.592 154.673 379.782 155.574 381.979C158.201 388.318 160.71 394.708 163.082 401.144L160.366 402.82V402.82ZM147.088 373.53C145.621 370.43 144.14 367.337 142.635 364.256C144.294 364.44 146.086 364.545 148.009 364.567C148.987 366.71 149.952 368.859 150.903 371.013C149.629 371.848 148.357 372.685 147.088 373.53V373.53ZM91.2398 273.011C87.9578 267.886 84.6213 262.797 81.238 257.735C82.0806 257.187 82.9231 256.641 83.7675 256.096C86.5391 259.771 89.2582 263.48 91.9303 267.23C91.6394 268.404 91.4368 269.652 91.3279 270.966C91.2716 271.649 91.2435 272.332 91.2398 273.011ZM79.0538 254.477C76.1808 250.215 73.2741 245.973 70.3393 241.745C71.666 243.46 73.2366 244.804 75.0944 245.661C75.0944 245.661 75.3702 245.757 75.8731 245.92C77.7083 248.219 79.521 250.536 81.3131 252.873C80.5587 253.405 79.8062 253.942 79.0538 254.477ZM69.311 240.27C68.354 238.894 67.3932 237.523 66.4287 236.153C66.5863 235.826 66.7402 235.507 66.8997 235.183C67.5715 237.052 68.369 238.767 69.311 240.27V240.27ZM119.629 398.115C119.474 397.774 119.32 397.432 119.164 397.091C120.432 396.241 121.703 395.393 122.973 394.546C123.206 395.1 123.437 395.653 123.668 396.207C122.592 396.487 121.579 396.909 120.697 397.442C120.329 397.656 119.973 397.881 119.629 398.115V398.115ZM117.957 394.454C115.944 390.063 113.898 385.687 111.784 381.343C109.447 376.461 107.072 371.591 104.644 366.75C105.905 365.877 107.166 365.01 108.43 364.145C108.671 364.166 108.909 364.185 109.151 364.205C111.6 369.182 113.989 374.188 116.291 379.238C118.128 383.338 119.946 387.446 121.714 391.576C120.457 392.529 119.203 393.49 117.957 394.454ZM82.4033 325C79.4703 319.809 76.4717 314.656 73.4806 309.496C72.8463 308.421 72.2102 307.345 71.574 306.27C72.6511 305.508 73.7282 304.75 74.8072 303.994C75.5353 305.107 76.2597 306.221 76.9802 307.34C79.9526 311.885 82.8161 316.503 85.6177 321.156L82.4033 325V325ZM69.8589 303.38C66.4362 297.633 62.9722 291.904 59.4331 286.218C57.4346 282.96 55.4042 279.723 53.3532 276.496C53.8036 276.179 54.2539 275.862 54.7043 275.546C61.0394 283.835 67.0817 292.35 72.8613 301.044C71.8574 301.819 70.8553 302.6 69.8589 303.38V303.38ZM52.3906 274.985C52.3287 274.888 52.2686 274.792 52.2067 274.694C52.3606 274.105 52.5219 273.51 52.6814 272.921C52.9685 273.289 53.2538 273.659 53.539 274.028C53.1543 274.345 52.7734 274.664 52.3906 274.985ZM88.7928 406.443C88.0685 405.969 87.3517 405.486 86.6423 404.995C83.2984 398.939 80.0671 392.854 76.8057 386.789C77.9279 385.952 79.05 385.117 80.174 384.286C80.2228 384.394 80.2697 384.505 80.3185 384.614C83.4073 391.782 86.3027 399.037 88.7928 406.443V406.443ZM76.1489 385.562L62.9515 360.826L60.7748 356.761C62.0545 355.742 63.3325 354.721 64.6479 353.744L64.965 353.505C65.8545 355.112 66.7308 356.724 67.5959 358.343C71.8442 366.298 75.8112 374.402 79.4572 382.649C78.3482 383.614 77.2467 384.584 76.1489 385.562V385.562ZM59.9435 355.209L51.8764 340.15C54.3966 341.355 56.8022 342.393 59.0878 343.273C60.741 346.046 62.3567 348.842 63.9367 351.659C62.595 352.83 61.2627 354.012 59.9435 355.209ZM46.7648 330.561C46.3952 329.871 46.0274 329.18 45.6558 328.492C45.6277 327.452 45.6108 326.407 45.6033 325.364C46.0461 325.026 46.489 324.688 46.9318 324.352C47.5511 325.238 48.1647 326.127 48.7727 327.021L46.7648 330.561V330.561ZM45.5977 323.757C45.5977 323.331 45.5995 322.896 45.6052 322.468C45.7891 322.729 45.9748 322.99 46.1587 323.251C45.973 323.42 45.7853 323.588 45.5977 323.757Z" fill="#F2AA31"/>
<path d="M114.542 197.477L107.075 196.058C107.651 195.705 108.229 195.353 108.807 195.002C111.159 193.592 113.527 192.208 115.904 190.841C116.446 190.53 116.989 190.218 117.531 189.909C120.541 188.194 123.564 186.503 126.595 184.825C132.616 181.6 138.674 178.44 144.799 175.415C144.992 175.321 145.185 175.229 145.378 175.135C146.071 174.803 146.761 174.471 147.454 174.139C152.729 171.609 158.011 169.104 163.389 166.8C167.966 164.803 172.567 162.855 177.221 161.039C177.956 160.752 178.696 160.468 179.435 160.187C180.411 159.817 181.39 159.453 182.37 159.097C184.901 158.187 187.431 157.275 189.962 156.378C190.456 156.766 190.942 157.158 191.431 157.564C188.757 158.875 186.078 160.17 183.402 161.469C182.762 161.765 182.124 162.065 181.488 162.369C180.713 162.739 179.94 163.112 179.168 163.49C177.521 164.295 175.881 165.115 174.245 165.944L165.142 170.519C160.372 172.983 155.573 175.392 150.816 177.877C150.043 178.28 149.27 178.685 148.499 179.095C148.019 179.348 147.536 179.605 147.056 179.862C141.042 183 135.046 186.173 129.109 189.451C126.424 190.885 123.752 192.345 121.087 193.819C120.436 194.18 119.785 194.542 119.136 194.904C117.602 195.758 116.071 196.615 114.542 197.477V197.477ZM51.3939 277.885C51.6078 277.014 51.8311 276.134 52.0563 275.265C52.1689 275.171 52.2796 275.077 52.3903 274.986C52.7731 274.665 53.1541 274.346 53.5387 274.029C55.738 272.201 57.956 270.396 60.2041 268.628C63.8614 265.748 67.5656 262.923 71.2904 260.127C73.8518 258.208 76.447 256.335 79.0535 254.477C79.806 253.943 80.5585 253.406 81.3128 252.873C81.7482 252.563 82.1835 252.256 82.6188 251.946C84.0863 250.903 85.5612 249.87 87.0455 248.848C89.0721 249.264 91.2451 249.645 93.4706 249.934C90.6146 251.734 87.7642 253.547 84.9138 255.357C84.531 255.603 84.1482 255.851 83.7672 256.097C82.9228 256.641 82.0803 257.187 81.2377 257.735C74.6906 261.983 68.1792 266.292 61.7353 270.713C59.369 272.293 57.0309 273.91 54.704 275.547C54.2537 275.862 53.8033 276.179 53.353 276.496C52.6999 276.958 52.0469 277.421 51.3939 277.885V277.885ZM126.24 230.212C126.546 230 126.882 229.805 127.251 229.634C126.915 229.828 126.578 230.021 126.24 230.212ZM167.936 207.621L160.265 206.163C162.376 205.135 164.489 204.116 166.607 203.108C167.855 202.517 169.105 201.928 170.356 201.346C173.509 199.881 176.676 198.449 179.865 197.066C186.036 194.351 192.257 191.746 198.53 189.275C199.953 188.713 201.377 188.162 202.803 187.616C206.342 186.261 209.898 184.951 213.471 183.688C213.814 184.242 214.156 184.799 214.495 185.362C211.174 186.852 207.862 188.355 204.559 189.875C203.16 190.519 201.762 191.164 200.367 191.813C194.075 194.739 187.817 197.724 181.593 200.779C178.788 202.174 175.984 203.568 173.184 204.971C171.899 205.617 170.617 206.263 169.336 206.912C168.868 207.148 168.401 207.385 167.936 207.621V207.621ZM45.603 325.364C45.5974 324.825 45.5955 324.296 45.5974 323.758C45.785 323.589 45.9727 323.42 46.1585 323.251C49.2566 320.466 52.3959 317.725 55.5747 315.028L52.7881 319.941C50.8309 321.403 48.8794 322.874 46.9316 324.352C46.4887 324.688 46.0459 325.026 45.603 325.364V325.364ZM63.411 312.12C62.5891 311.611 61.7465 311.103 60.8815 310.592C63.8445 308.153 66.8375 305.751 69.8586 303.381C70.8551 302.6 71.8571 301.819 72.861 301.044C76.5746 298.179 80.3258 295.364 84.1125 292.596C87.4546 290.125 90.8379 287.712 94.2494 285.34C94.9399 286.68 95.7412 287.971 96.6475 289.198C93.2473 291.435 89.8621 293.692 86.4788 295.957C82.5663 298.603 78.6744 301.283 74.807 303.994C73.728 304.751 72.6509 305.509 71.5738 306.271C68.8416 308.205 66.1225 310.155 63.411 312.12ZM132.271 266.995C130.13 266.369 128.156 265.534 126.351 264.49L126.463 264.423C127.788 263.62 129.119 262.82 130.449 262.026C132.663 260.705 134.885 259.396 137.112 258.097C138.7 257.189 140.291 256.288 141.884 255.391C142.954 256.787 144.309 258.046 146.026 259.037C143.924 260.231 141.832 261.437 139.745 262.655C137.606 263.879 135.474 265.115 133.348 266.363C132.99 266.573 132.629 266.785 132.271 266.995V266.995ZM222.857 220.254C222.349 219.439 221.667 218.734 220.851 218.197C221.941 217.784 223.037 217.377 224.131 216.974C225.655 216.411 227.181 215.857 228.71 215.311C228.959 215.985 229.205 216.662 229.447 217.341C228.143 217.912 226.843 218.484 225.541 219.06C224.645 219.456 223.75 219.854 222.857 220.254V220.254ZM52.805 363.003C52.6849 362.712 52.5667 362.421 52.4504 362.13L57.3799 357.572C58.2281 356.777 59.0819 355.988 59.9432 355.21C61.2624 354.012 62.5947 352.83 63.9364 351.659C64.9591 350.766 65.9893 349.879 67.0214 348.997C67.4624 349.657 67.9634 350.276 68.5226 350.849L64.9647 353.506L64.6476 353.744C63.3322 354.722 62.0543 355.743 60.7745 356.761C59.9601 357.411 59.1438 358.058 58.3163 358.692L52.805 363.003V363.003ZM176.358 282.154C176.397 280.296 176.153 278.519 175.639 276.868C176.149 276.605 176.66 276.342 177.17 276.081C178.013 275.654 178.857 275.228 179.701 274.804C188.324 270.465 197.02 266.258 205.854 262.372L206.305 262.175C207.753 261.527 209.204 260.889 210.658 260.257C219.07 256.602 227.582 253.173 236.163 249.946C236.807 249.702 237.451 249.463 238.098 249.227C238.254 250.043 238.408 250.863 238.554 251.683C238.081 251.895 237.608 252.109 237.137 252.327C228.911 255.962 220.765 259.758 212.668 263.648C211.122 264.391 209.577 265.138 208.033 265.886L207.988 265.909C199.341 270.174 190.726 274.483 182.222 279.014C181.304 279.504 180.388 279.996 179.472 280.489C178.842 280.825 178.211 281.161 177.581 281.499C177.174 281.717 176.765 281.936 176.358 282.154ZM70.8626 391.257C70.7106 391.092 70.5586 390.927 70.4085 390.762C72.3056 389.011 74.2177 387.277 76.1487 385.562C77.2464 384.584 78.3479 383.614 79.4569 382.65C87.0643 376.024 94.9118 369.659 102.943 363.538C104.745 363.781 106.578 363.986 108.43 364.146C107.165 365.011 105.904 365.878 104.643 366.75C96.398 372.455 88.2483 378.307 80.1738 384.286C79.0497 385.117 77.9276 385.952 76.8054 386.789C74.8201 388.272 72.8385 389.762 70.8626 391.257V391.257ZM145.977 337.753C145.262 337.34 144.506 336.993 143.718 336.717L143.412 335.452C149.43 331.658 155.515 327.972 161.649 324.369C162.263 324.009 162.877 323.651 163.492 323.292C164.35 322.801 165.209 322.311 166.071 321.823C174.034 317.302 182.073 312.91 190.225 308.736C190.951 308.37 191.675 308.004 192.402 307.64C193.897 306.888 195.398 306.137 196.9 305.394C203.76 301.992 210.669 298.688 217.674 295.601C219.637 294.721 221.606 293.854 223.58 292.998C225.026 292.371 226.477 291.75 227.929 291.137C232.592 289.166 237.287 287.265 242.005 285.44C242.029 286.462 242.048 287.491 242.057 288.515C237.888 290.431 233.737 292.381 229.603 294.362C228.209 295.028 226.818 295.698 225.43 296.372C223.422 297.344 221.416 298.324 219.416 299.307C212.615 302.701 205.832 306.113 199.104 309.643C197.646 310.408 196.19 311.179 194.736 311.956C194 312.35 193.265 312.746 192.529 313.144C184.441 317.462 176.41 321.883 168.476 326.48C167.692 326.935 166.909 327.391 166.127 327.848C165.453 328.235 164.779 328.622 164.106 329.01C160.871 330.877 157.651 332.772 154.446 334.69C151.349 335.655 148.527 336.681 145.977 337.753ZM97.8936 411.642C97.7322 411.58 97.5727 411.518 97.4132 411.456C104.063 405.56 110.928 399.904 117.957 394.455C119.203 393.49 120.457 392.529 121.714 391.576C126.349 388.06 131.049 384.629 135.804 381.278C139.52 378.626 143.288 376.056 147.088 373.53C148.356 372.685 149.629 371.849 150.903 371.014C153.121 369.563 155.348 368.122 157.577 366.688C159.345 365.566 161.12 364.457 162.901 363.357C165.524 362.943 168.289 362.414 171.188 361.764L170.51 358.743C172.723 357.422 174.943 356.114 177.166 354.816C178.12 354.26 179.075 353.705 180.028 353.153C180.351 352.971 180.675 352.787 180.998 352.605C188.29 348.499 195.644 344.504 203.088 340.684C204.796 339.826 206.503 338.97 208.213 338.12C209.466 337.497 210.72 336.878 211.977 336.261C216.852 333.872 221.757 331.543 226.719 329.342C230.859 327.477 235.022 325.662 239.209 323.908C238.961 325.315 238.697 326.707 238.413 328.107C235.098 329.738 231.789 331.387 228.49 333.052C223.619 335.55 218.744 338.034 213.897 340.569C212.709 341.192 211.525 341.815 210.343 342.444C208.691 343.322 207.046 344.206 205.406 345.103C197.922 349.107 190.486 353.198 183.135 357.437L182.64 357.724C181.574 358.325 180.51 358.929 179.448 359.535C172.976 363.235 166.572 367.047 160.199 370.914C157.728 372.393 155.268 373.894 152.817 375.412C151.567 376.185 150.319 376.962 149.073 377.743C145.405 380.039 141.749 382.361 138.09 384.676C133.023 387.921 127.987 391.214 122.973 394.547C121.703 395.393 120.432 396.241 119.164 397.091C112.039 401.869 104.955 406.727 97.8936 411.642ZM179.45 399.906C177.566 398.564 175.451 397.853 173.113 397.761C177.161 395.235 181.242 392.762 185.338 390.315C187.496 389.064 189.658 387.821 191.827 386.588C192.676 386.106 193.524 385.626 194.374 385.147C197.92 383.153 201.486 381.19 205.077 379.272C211.082 376.136 217.1 373.014 223.216 370.102C223.326 370.049 223.435 369.996 223.548 369.944C222.253 372.333 220.883 374.688 219.44 376.994C215.432 379.18 211.431 381.379 207.47 383.648C203.694 385.763 199.926 387.898 196.179 390.064C195.419 390.503 194.663 390.942 193.905 391.383C191.934 392.529 189.968 393.687 188.009 394.854C185.141 396.513 182.291 398.2 179.45 399.906" fill="#F2AA31"/>
<path d="M97.348 411.431C94.582 410.358 91.8836 409.162 89.2583 407.845C89.1045 407.376 88.9487 406.911 88.793 406.443C91.5421 408.245 94.3962 409.909 97.348 411.431V411.431ZM87.8134 407.106C80.679 403.368 74.1 398.731 68.1965 393.28C69.086 392.604 69.9717 391.931 70.8631 391.257C75.5806 396.372 80.8686 400.987 86.6425 404.995C87.031 405.698 87.4213 406.402 87.8134 407.106V407.106ZM67.9488 393.051C63.509 388.921 59.4558 384.329 55.836 379.309C52.9143 375.26 50.3435 371.009 48.1386 366.602L51.9817 363.646L52.8055 363.002C55.6428 369.872 59.2682 376.363 63.5897 382.349C65.7008 385.278 67.977 388.088 70.4089 390.762C69.5852 391.521 68.767 392.283 67.9488 393.051V393.051ZM47.9923 366.305C42.5054 355.236 39.3153 343.168 38.636 330.719C40.5707 329.22 42.5054 327.728 44.4494 326.244C44.851 326.992 45.2545 327.741 45.656 328.492C45.6767 329.24 45.7011 329.989 45.7311 330.734C45.7517 331.243 45.7761 331.749 45.8043 332.256L43.742 335.891C44.5808 336.366 45.4046 336.822 46.2209 337.264C47.1704 345.917 49.2946 354.265 52.4508 362.13L51.4619 363.044L47.9923 366.305V366.305ZM38.6098 330.213C38.5966 329.948 38.5854 329.683 38.5741 329.417C38.3884 324.788 38.409 320.036 38.636 315.202C40.3587 318.591 42.1395 321.937 43.9278 325.274C42.1414 326.904 40.3681 328.55 38.6098 330.213V330.213ZM45.6054 322.468C43.378 319.338 41.0868 316.251 38.7411 313.208C39.2947 303.711 40.6326 293.893 42.7475 283.994C45.6466 281.975 48.5177 279.924 51.3944 277.884C47.7014 292.865 45.7367 307.937 45.6054 322.468ZM42.9426 283.092C44.1229 277.682 45.5341 272.255 47.1779 266.836C48.8386 269.465 50.518 272.079 52.2013 274.687C52.2031 274.691 52.205 274.693 52.2069 274.694C52.1562 274.886 52.1074 275.073 52.0568 275.265C48.9887 277.839 45.9563 280.459 42.9426 283.092V283.092ZM52.6816 272.921C50.9327 270.667 49.1595 268.431 47.3655 266.215C51.1223 253.957 56.0556 241.779 62.1505 230.105C63.5841 232.119 65.0102 234.134 66.4289 236.153C60.6905 248.037 56.0875 260.42 52.6816 272.921ZM66.8042 234.909C65.3292 233.177 63.8412 231.456 62.3381 229.749C62.811 228.848 63.2933 227.945 63.7793 227.052C64.1039 226.859 64.4285 226.665 64.7532 226.474C65.2373 229.475 65.9034 232.332 66.8042 234.909" fill="#FFE79E"/>
<path d="M66.4286 236.154C65.0099 234.134 63.5838 232.119 62.1501 230.106C62.2139 229.985 62.274 229.871 62.3378 229.749C63.8409 231.457 65.3289 233.177 66.8039 234.909C66.8358 235.001 66.8677 235.093 66.8996 235.183C66.7401 235.508 66.5862 235.827 66.4286 236.154ZM52.2066 274.695C52.2047 274.693 52.2028 274.691 52.201 274.687C50.5177 272.079 48.8383 269.465 47.1776 266.836C47.2395 266.63 47.3033 266.42 47.3652 266.215C49.1592 268.431 50.9324 270.668 52.6813 272.922C52.5218 273.511 52.3605 274.106 52.2066 274.695ZM89.258 407.846C88.7739 407.604 88.2916 407.356 87.8131 407.106C87.421 406.403 87.0307 405.699 86.6422 404.995C87.3516 405.487 88.0684 405.969 88.7927 406.444C88.9484 406.911 89.1042 407.377 89.258 407.846V407.846ZM45.6557 328.492C45.2541 327.742 44.8507 326.993 44.4491 326.244C44.8319 325.95 45.2185 325.657 45.6032 325.364C45.6107 326.408 45.6276 327.453 45.6557 328.492V328.492ZM43.9275 325.274C42.1392 321.938 40.3584 318.592 38.6357 315.203C38.6676 314.537 38.7014 313.878 38.7408 313.208C41.0864 316.252 43.3777 319.339 45.6051 322.469C45.5994 322.897 45.5976 323.332 45.5976 323.758C45.0384 324.263 44.4829 324.767 43.9275 325.274ZM63.779 227.053C64.0529 226.548 64.3306 226.043 64.6102 225.54C64.6553 225.852 64.7041 226.165 64.7529 226.475C64.4282 226.666 64.1036 226.859 63.779 227.053ZM42.7471 283.995C42.8109 283.697 42.8766 283.392 42.9423 283.092C45.956 280.46 48.9884 277.84 52.0565 275.265C51.8313 276.134 51.608 277.014 51.3941 277.885C48.5174 279.925 45.6463 281.976 42.7471 283.995" fill="#F9D9A2"/>
<path d="M38.6357 330.719C38.6263 330.552 38.6188 330.381 38.6094 330.213C40.3677 328.55 42.141 326.904 43.9274 325.274C44.4828 324.767 45.0383 324.262 45.5975 323.757C45.5956 324.296 45.5975 324.825 45.6031 325.364C45.2184 325.656 44.8318 325.949 44.449 326.244C42.505 327.728 40.5703 329.22 38.6357 330.719ZM48.1383 366.602C48.0895 366.502 48.0407 366.405 47.9919 366.305L51.4615 363.044L52.4504 362.13C52.5668 362.421 52.685 362.712 52.8051 363.002L51.9813 363.646L48.1383 366.602V366.602ZM68.1961 393.28C68.1136 393.205 68.031 393.128 67.9484 393.051C68.7666 392.283 69.5848 391.522 70.4085 390.762C70.5587 390.927 70.7107 391.092 70.8627 391.257C69.9713 391.931 69.0856 392.604 68.1961 393.28" fill="#F9D9A2"/>
<path d="M94.0521 193.583L87.856 192.406C92.9244 186.659 98.385 181.241 104.215 176.252L107.109 179.913C102.515 184.216 98.1654 188.783 94.0521 193.583V193.583ZM107.653 179.404L104.442 176.057C112.633 169.078 121.571 162.925 131.248 157.83C131.892 158.596 132.532 159.359 133.172 160.127C124.005 165.633 115.489 172.127 107.653 179.404ZM133.721 159.799C133.003 159.087 132.278 158.376 131.554 157.669C133.663 156.565 135.804 155.514 137.983 154.512C144.781 151.388 151.888 149.391 159.062 148.474C154.917 149.581 150.874 151.039 146.977 152.831C142.421 154.925 138.002 157.254 133.721 159.799" fill="#FFE79E"/>
<path d="M133.172 160.127C132.532 159.359 131.892 158.596 131.248 157.83C131.348 157.777 131.455 157.721 131.554 157.669C132.278 158.376 133.003 159.087 133.721 159.798C133.539 159.907 133.354 160.018 133.172 160.127ZM107.109 179.913L104.215 176.252C104.294 176.184 104.365 176.124 104.442 176.056L107.653 179.404C107.471 179.573 107.289 179.742 107.109 179.913" fill="#F9D9A2"/>
<path d="M140.372 415.153C135.014 397.363 121.847 392.424 113.725 413.809C105.103 447.355 120.233 458.006 148.186 456.299L190.247 430.791C188.14 404.49 180.195 394.293 166.932 398.771L140.372 415.153" fill="#FFCA28"/>
<path d="M144.427 423.792C144.356 422.246 144.219 420.696 144.02 419.146C143.755 417.295 143.38 415.453 142.888 413.619L166.932 398.774C168.938 398.097 170.824 397.755 172.586 397.755C176.716 397.755 180.167 399.63 182.914 403.441C181.67 403.002 180.347 402.784 178.945 402.784C177.191 402.784 175.31 403.126 173.306 403.8L144.427 423.792ZM120 447.811C117.238 445.597 114.013 442.022 113.771 437.301C113.774 430.992 114.294 425.259 115.317 420.258V420.255C116.065 417.543 116.917 414.895 117.964 412.413C119.027 409.951 120.316 407.635 121.883 405.892C123.395 404.177 125.093 403.133 126.57 403.133C126.615 403.133 126.66 403.133 126.705 403.135C127.469 403.165 128.283 403.284 129.133 403.796C129.719 404.149 130.327 404.569 130.905 405.108C127.045 406.344 123.206 410.673 120.102 418.844C116.812 431.634 116.977 441.093 120 447.811Z" fill="#FFE79E"/>
<path d="M113.77 437.301C114.018 442.142 117.403 445.775 120.209 447.976C127.961 454.08 138.846 455.549 147.998 451.746L216.648 411.752C245.865 394.212 265.814 360.953 271.351 320.52C278.651 267.196 260.334 211.406 222.35 171.28C200.431 148.139 166.524 141.399 137.983 154.512C70.1062 185.694 36.104 267.9 38.5735 329.417C39.3016 347.414 45.2707 364.669 55.8354 379.309C67.5973 395.622 83.9716 407.438 103.191 413.478L113.166 416.606C114.712 417.092 115.641 418.669 115.317 420.256C114.294 425.257 113.774 430.992 113.77 437.301V437.301ZM137.431 460.145C129.858 460.145 122.314 457.679 116.302 452.945C110.852 448.67 107.707 443.191 107.45 437.518C107.448 437.471 107.447 437.424 107.447 437.376C107.447 431.754 107.837 426.529 108.608 421.803L101.297 419.509C80.7647 413.056 63.272 400.433 50.7107 383.008C39.4179 367.358 33.0359 348.914 32.2572 329.672V329.67C30.8798 295.325 39.7744 258.384 57.3047 225.656C76.3756 190.047 103.361 163.461 135.345 148.768C166.348 134.525 203.157 141.827 226.94 166.934C266.23 208.439 285.172 266.173 277.613 321.378C271.817 363.717 250.768 398.641 219.866 417.192L151.002 457.312C150.888 457.379 150.767 457.439 150.645 457.49C146.442 459.274 141.931 460.145 137.431 460.145" fill="#191414"/>
<path d="M215.946 418.982C214.836 418.982 213.757 418.395 213.18 417.353C212.334 415.828 212.884 413.903 214.411 413.056C215.16 412.642 215.89 412.206 216.62 411.769C218.118 410.876 220.06 411.362 220.955 412.861C221.85 414.359 221.362 416.299 219.863 417.196C219.075 417.667 218.286 418.136 217.478 418.584C216.992 418.855 216.466 418.982 215.946 418.982V418.982ZM106.1 420.784H105.837C104.09 420.784 102.675 419.369 102.675 417.622C102.675 415.877 104.09 414.462 105.837 414.462H106.1C107.845 414.462 109.262 415.877 109.262 417.622C109.262 419.369 107.845 420.784 106.1 420.784ZM138.627 413.734L167.737 397.605C167.992 397.463 168.313 397.555 168.456 397.812C168.584 398.041 168.52 398.326 168.319 398.483L142.117 419.003C140.74 420.084 138.747 419.84 137.666 418.462C136.587 417.083 136.829 415.09 138.209 414.011C138.338 413.91 138.488 413.812 138.627 413.734Z" fill="#191414"/>
<path d="M142.217 437.376C140.845 431.493 139.762 425.783 138.291 420.305C137.507 417.59 136.706 414.914 135.638 412.416C134.581 409.926 133.202 407.631 131.626 405.867C130.855 404.944 129.971 404.301 129.134 403.796C128.284 403.283 127.469 403.165 126.706 403.135C125.197 403.07 123.442 404.124 121.883 405.892C120.316 407.635 119.027 409.951 117.965 412.413C116.918 414.895 116.066 417.543 115.317 420.255L115.298 420.33C114.833 422.013 113.092 423.002 111.408 422.538C109.838 422.107 108.871 420.564 109.125 418.994C109.613 415.922 110.314 412.84 111.437 409.816C112.549 406.791 114.056 403.79 116.383 401.065C117.505 399.69 118.976 398.444 120.697 397.442C122.397 396.417 124.58 395.798 126.754 395.821C128.931 395.834 131.08 396.522 132.75 397.568C134.42 398.611 135.859 399.87 136.957 401.244C139.25 403.968 140.65 406.999 141.753 410.003C142.84 413.021 143.579 416.076 144.02 419.145C144.808 425.287 144.621 431.431 143.269 437.376C143.204 437.667 142.915 437.85 142.624 437.783C142.414 437.736 142.262 437.571 142.217 437.376V437.376ZM94.4786 271.227C95.674 256.785 109.207 255.027 119.911 263.644C127.52 270.703 138.661 273.058 153.329 270.703C167.959 266.644 175.108 275.372 172.753 285.565C171.376 291.53 166.78 296.252 161.016 298.314C141.804 305.184 123.354 303.275 107.862 294.837C99.2262 290.134 93.668 281.026 94.4786 271.227" fill="#191414"/>
<path d="M189.926 427.32C189.266 421.107 188.245 415.898 186.866 411.668C191.005 408.724 194.877 405.584 198.5 402.257C200.737 407.647 202.927 413.062 205.07 418.497L189.926 427.32ZM205.351 418.333C203.675 412.49 201.868 406.682 199.945 400.91C207.567 393.68 214.032 385.643 219.44 376.994C221.271 375.996 223.105 374.999 224.938 373.997C228.372 381.809 231.703 389.675 234.936 397.592C229.35 403.045 223.234 407.799 216.648 411.752L205.351 418.333V418.333ZM235.201 397.331C232.707 389.103 229.961 380.95 226.998 372.871C227.047 372.845 227.096 372.817 227.145 372.791C236.728 367.6 246.405 362.575 256.114 357.552C257.03 359.541 257.942 361.534 258.846 363.53C252.72 376.521 244.739 387.953 235.201 397.331ZM225.559 368.994C225.349 368.437 225.139 367.882 224.927 367.326C231.224 355.054 235.643 341.802 238.413 328.107C239.378 327.633 240.338 327.162 241.303 326.691C246.171 336.415 250.881 346.227 255.454 356.12C245.324 360.006 235.36 364.328 225.559 368.994ZM259.102 362.984C258.428 361.01 257.739 359.04 257.036 357.075C258.983 356.067 260.931 355.06 262.881 354.052C261.717 357.101 260.455 360.083 259.102 362.984ZM256.544 355.705C252.823 345.413 248.717 335.257 244.303 325.231C253.572 320.737 262.907 316.355 272.295 312.033C272.051 314.867 271.738 317.698 271.351 320.521C269.768 332.086 267.005 343.061 263.183 353.253C260.961 354.048 258.749 354.866 256.544 355.705V355.705ZM239.209 323.908C239.271 323.563 239.329 323.229 239.387 322.883C239.52 323.144 239.652 323.405 239.783 323.668C239.593 323.746 239.4 323.827 239.209 323.908V323.908ZM243.018 322.33C242.144 320.376 241.258 318.425 240.363 316.483C241.599 307.246 242.142 297.871 242.057 288.515C243.626 287.795 245.199 287.078 246.773 286.367C250.438 284.689 254.121 283.041 257.82 281.43C262.823 290.153 267.733 298.941 272.609 307.772C272.532 309.035 272.442 310.299 272.337 311.56C262.43 314.767 252.661 318.387 243.018 322.33V322.33ZM272.701 306.147C269.056 297.338 265.086 288.663 260.867 280.11L267.593 277.241L271.582 275.498C272.839 285.661 273.226 295.918 272.701 306.147V306.147ZM242.005 285.44C241.735 274.044 240.543 262.708 238.554 251.683C238.98 251.492 239.406 251.304 239.834 251.117C243.461 256.992 246.977 262.935 250.522 268.866C252.688 272.544 254.834 276.235 256.962 279.938C251.946 281.687 246.962 283.522 242.005 285.44ZM260.226 278.814C258.235 274.807 256.187 270.825 254.095 266.868C250.984 260.904 247.685 255.04 244.318 249.216C246.856 248.165 249.4 247.135 251.93 246.058L259.344 242.937L263.847 240.998C267.499 252.126 270.081 263.563 271.537 275.128C267.751 276.307 263.98 277.535 260.226 278.814V278.814ZM238.098 249.227C238.013 248.788 237.929 248.356 237.843 247.919C238.081 248.298 238.319 248.679 238.556 249.06C238.404 249.116 238.25 249.171 238.098 249.227ZM243.273 247.41C242.757 246.521 242.239 245.632 241.72 244.744C239.265 240.603 236.751 236.499 234.189 232.423C232.776 227.268 231.191 222.232 229.447 217.341C236.176 214.397 242.945 211.526 249.747 208.715C255.426 218.953 260.111 229.67 263.752 240.704L259.073 242.192L251.415 244.699C248.702 245.602 245.983 246.489 243.273 247.41ZM228.71 215.311C224.702 204.441 219.907 194.336 214.495 185.362C219.367 183.176 224.255 181.02 229.162 178.89C236.953 188.098 243.786 198.012 249.588 208.428C242.573 210.545 235.615 212.845 228.71 215.311V215.311ZM213.471 183.688C206.901 173.124 199.465 164.212 191.431 157.564C193.679 156.46 195.925 155.344 198.162 154.203C207.076 158.136 215.328 163.867 222.35 171.281C224.602 173.66 226.786 176.094 228.897 178.579C223.72 180.175 218.58 181.883 213.471 183.688V183.688ZM189.962 156.378C185.744 153.062 181.369 150.369 176.881 148.389C183.88 149.213 190.759 151.041 197.297 153.828C194.845 154.657 192.401 155.511 189.962 156.378Z" fill="#D29433"/>
<path d="M272.609 307.772C267.733 298.941 262.823 290.153 257.82 281.43C258.751 281.022 259.685 280.617 260.62 280.215L260.867 280.11C265.086 288.663 269.056 297.339 272.7 306.147C272.672 306.687 272.642 307.233 272.609 307.772ZM256.962 279.938C254.834 276.235 252.688 272.544 250.522 268.866C246.977 262.935 243.461 256.992 239.834 251.117C241.322 250.467 242.819 249.837 244.318 249.216C247.685 255.04 250.984 260.904 254.095 266.868C256.187 270.825 258.235 274.807 260.226 278.814C259.137 279.185 258.049 279.559 256.962 279.938ZM238.556 249.06C238.319 248.679 238.081 248.298 237.843 247.919C236.801 242.667 235.576 237.48 234.189 232.423C236.751 236.499 239.265 240.603 241.719 244.744C242.239 245.632 242.757 246.521 243.273 247.411C241.697 247.945 240.123 248.493 238.556 249.06V249.06ZM258.846 363.53C257.942 361.534 257.03 359.541 256.114 357.552C256.422 357.392 256.728 357.235 257.035 357.075C257.739 359.04 258.428 361.01 259.102 362.984C259.017 363.168 258.933 363.346 258.846 363.53ZM255.454 356.12C250.881 346.227 246.171 336.415 241.303 326.691C242.303 326.203 243.303 325.715 244.303 325.231C248.717 335.257 252.823 345.413 256.544 355.705C256.18 355.842 255.816 355.981 255.454 356.12V356.12ZM239.783 323.668C239.652 323.405 239.52 323.144 239.387 322.883C239.749 320.761 240.076 318.622 240.363 316.483C241.258 318.425 242.144 320.376 243.018 322.33C241.937 322.773 240.86 323.217 239.783 323.668ZM234.936 397.592C231.703 389.675 228.372 381.809 224.938 373.997L226.998 372.871C229.961 380.95 232.707 389.103 235.201 397.332C235.112 397.42 235.024 397.504 234.936 397.592ZM223.547 369.944C224.017 369.075 224.476 368.203 224.927 367.326C225.139 367.882 225.349 368.437 225.559 368.995C225.467 369.038 225.377 369.081 225.285 369.126C224.705 369.396 224.125 369.668 223.547 369.944V369.944ZM205.07 418.497C202.927 413.062 200.737 407.647 198.5 402.257C198.984 401.814 199.47 401.36 199.945 400.91C201.868 406.682 203.675 412.49 205.351 418.333L205.07 418.497V418.497ZM191.431 157.564C190.941 157.158 190.455 156.766 189.962 156.378C192.401 155.511 194.845 154.657 197.297 153.828C197.586 153.951 197.873 154.075 198.162 154.203C195.925 155.344 193.679 156.46 191.431 157.564V157.564ZM214.495 185.362C214.156 184.799 213.814 184.242 213.471 183.688C218.58 181.883 223.72 180.176 228.897 178.579C228.987 178.684 229.072 178.785 229.162 178.89C224.255 181.02 219.367 183.176 214.495 185.362ZM229.447 217.342C229.205 216.662 228.959 215.985 228.71 215.311C235.615 212.845 242.573 210.545 249.588 208.428C249.64 208.524 249.695 208.62 249.747 208.715C242.945 211.526 236.176 214.397 229.447 217.342Z" fill="#C97E3A"/>
<path d="M238.554 251.683C238.408 250.863 238.254 250.043 238.098 249.227C238.25 249.17 238.404 249.116 238.556 249.06C240.123 248.493 241.698 247.945 243.274 247.41C245.984 246.489 248.703 245.601 251.416 244.699L259.074 242.192L263.752 240.704C263.784 240.801 263.816 240.901 263.848 240.998L259.344 242.937L251.93 246.057C249.401 247.134 246.856 248.164 244.319 249.215C242.82 249.836 241.322 250.467 239.834 251.116C239.406 251.304 238.98 251.492 238.554 251.683V251.683ZM242.058 288.515C242.049 287.49 242.03 286.462 242.005 285.439C246.963 283.521 251.947 281.686 256.963 279.937C258.049 279.558 259.138 279.185 260.226 278.813C263.979 277.535 267.751 276.306 271.538 275.128C271.553 275.252 271.568 275.374 271.583 275.498L267.593 277.241L260.868 280.11L260.62 280.215C259.686 280.617 258.751 281.022 257.82 281.429C254.122 283.041 250.438 284.689 246.774 286.366C245.199 287.077 243.627 287.794 242.058 288.515V288.515ZM238.414 328.107C238.697 326.707 238.962 325.315 239.209 323.907C239.401 323.827 239.594 323.746 239.784 323.667C240.861 323.217 241.938 322.772 243.019 322.329C252.662 318.387 262.431 314.767 272.337 311.56C272.322 311.72 272.311 311.874 272.296 312.033C262.908 316.355 253.572 320.736 244.304 325.23C243.304 325.715 242.304 326.202 241.304 326.69C240.339 327.161 239.378 327.632 238.414 328.107V328.107ZM219.44 376.994C220.883 374.687 222.253 372.332 223.548 369.944C224.126 369.668 224.706 369.396 225.286 369.125C225.378 369.08 225.468 369.037 225.56 368.994C235.361 364.327 245.325 360.006 255.454 356.119C255.816 355.981 256.18 355.842 256.544 355.705C258.749 354.866 260.962 354.048 263.184 353.252C263.084 353.521 262.985 353.785 262.881 354.052C260.932 355.059 258.984 356.067 257.036 357.075C256.728 357.234 256.422 357.392 256.115 357.551C246.406 362.575 236.729 367.6 227.145 372.79C227.097 372.817 227.048 372.845 226.999 372.871L224.939 373.997C223.105 374.999 221.272 375.995 219.44 376.994" fill="#C97E3A"/>
<path d="M140.916 453.617C142.549 448.82 143.128 443.452 143.029 437.715C143.147 437.642 143.235 437.522 143.269 437.376C143.699 435.482 144.012 433.566 144.213 431.637C160.773 426.999 174.913 420.172 186.866 411.668C188.245 415.897 189.266 421.106 189.926 427.319L147.998 451.746C145.72 452.693 143.335 453.313 140.916 453.617" fill="#D29433"/>
<path d="M139.582 456.91C140.089 455.846 140.532 454.747 140.916 453.617C143.335 453.313 145.72 452.694 147.998 451.746L189.927 427.32L205.07 418.496L205.351 418.333L216.648 411.752C223.234 407.798 229.35 403.045 234.936 397.592C235.025 397.504 235.113 397.42 235.201 397.331C244.739 387.953 252.72 376.521 258.847 363.53C258.933 363.346 259.017 363.168 259.102 362.984C260.455 360.083 261.718 357.101 262.881 354.052C262.984 353.785 263.084 353.521 263.183 353.252C267.006 343.061 269.768 332.085 271.352 320.521C271.738 317.698 272.052 314.867 272.296 312.033C272.311 311.874 272.322 311.72 272.337 311.56C272.442 310.299 272.532 309.035 272.609 307.772C272.643 307.233 272.673 306.687 272.701 306.147C273.226 295.918 272.84 285.661 271.582 275.498C271.567 275.374 271.552 275.252 271.537 275.128C270.081 263.563 267.499 252.126 263.848 240.998C263.816 240.901 263.784 240.801 263.752 240.704C260.111 229.67 255.426 218.953 249.748 208.715C249.695 208.619 249.641 208.524 249.588 208.428C243.786 198.011 236.954 188.098 229.162 178.89C229.072 178.785 228.988 178.684 228.898 178.578C226.787 176.094 224.602 173.66 222.351 171.281C215.329 163.867 207.076 158.136 198.163 154.203C197.874 154.075 197.586 153.951 197.297 153.827C190.76 151.041 183.881 149.213 176.881 148.389C172.835 146.607 168.692 145.398 164.489 144.835L164.498 144.824C165.765 144.76 167.03 144.73 168.296 144.73C189.142 144.73 209.658 153.287 224.646 169.11C298.111 246.712 289.267 368.825 220.925 412.812C220.328 411.854 219.296 411.322 218.237 411.322C217.686 411.322 217.126 411.467 216.62 411.769C215.89 412.206 215.16 412.642 214.411 413.056C212.884 413.903 212.334 415.828 213.18 417.354C213.19 417.374 213.201 417.393 213.212 417.412L149.411 454.581C146.251 455.919 142.922 456.689 139.582 456.91" fill="#191414"/>
<path d="M213.212 417.412C213.201 417.393 213.189 417.374 213.18 417.353C212.334 415.828 212.883 413.903 214.411 413.056C215.16 412.642 215.89 412.206 216.62 411.769C217.126 411.467 217.685 411.322 218.237 411.322C219.295 411.322 220.328 411.853 220.924 412.812C220.042 413.381 219.143 413.94 218.241 414.482L215.944 415.82L213.212 417.412V417.412ZM143.029 437.715C142.997 435.861 142.894 433.97 142.732 432.045C143.228 431.911 143.721 431.776 144.213 431.637C144.012 433.566 143.699 435.482 143.269 437.376C143.235 437.522 143.147 437.642 143.029 437.715" fill="#191414"/>
<path d="M102.287 290.798C121.821 271.968 142.96 285.272 146.077 301.945C130.509 302.207 115.764 299.107 102.287 290.798Z" fill="#FF3B3C"/>
<path d="M94.4783 271.227H94.4876H94.4783ZM106.728 261.597C105.383 261.597 104.122 261.831 102.999 262.313C99.0456 264.008 97.8972 268.238 97.6289 271.488C96.9459 279.729 101.556 287.806 109.372 292.062C124.864 300.498 142.355 301.632 159.951 295.338C164.86 293.581 168.585 289.566 169.673 284.854C170.568 280.979 169.784 277.513 167.523 275.348C164.753 272.696 160.011 272.129 154.173 273.749C154.061 273.781 153.946 273.807 153.83 273.824C138.274 276.323 126.17 273.702 117.846 266.042C114.24 263.162 110.207 261.597 106.728 261.597ZM137.681 305.681C126.786 305.683 116.212 302.985 106.349 297.612C96.336 292.159 90.44 281.699 91.3276 270.966C91.9112 263.929 95.1688 258.793 100.507 256.504C106.773 253.813 114.97 255.607 121.892 261.182C121.95 261.229 122.007 261.276 122.061 261.326C128.858 267.633 139.15 269.746 152.661 267.609C160.655 265.438 167.482 266.56 171.893 270.78C175.806 274.528 177.241 280.176 175.832 286.276C174.265 293.064 168.996 298.815 162.081 301.29C153.883 304.221 145.694 305.681 137.681 305.681" fill="#191414"/>
<path d="M80.731 331.385C81.7912 331.644 82.8176 332.07 83.7765 332.665C95.9794 340.197 117.54 342.783 137.229 338.978C137.968 338.831 138.717 338.767 139.445 338.779C140.098 338.79 140.74 338.863 141.37 338.989L137.071 321.177L131.941 299.888L126.373 276.832L80.731 331.385" fill="#FBC953"/>
<path d="M87.6087 331.596C86.8075 331.185 86.0399 330.753 85.3081 330.303L94.7319 319.038C94.8933 320.065 95.2273 321.037 95.7077 321.92L87.6087 331.596V331.596ZM106.4 309.145C105.556 308.866 104.655 308.708 103.718 308.693H103.578C103.514 308.693 103.45 308.693 103.386 308.695L124.949 282.923L125.709 286.077L106.4 309.145" fill="#FDE7B1"/>
<path d="M85.3082 330.303C97.0363 337.512 117.676 339.888 136.694 336.214C137.045 336.144 137.404 336.09 137.764 336.049L124.949 282.923L85.3082 330.303ZM118.821 343.528C104.636 343.528 91.1986 340.554 82.2983 335.06C81.5984 334.626 80.8478 334.311 80.0653 334.12C79.1195 333.891 78.3596 333.189 78.0574 332.264C77.7535 331.34 77.9486 330.325 78.5716 329.578L124.216 275.027C124.897 274.21 125.978 273.846 127.015 274.092C128.049 274.334 128.86 275.139 129.109 276.171L144.106 338.327C144.332 339.261 144.065 340.244 143.401 340.939C142.735 341.629 141.766 341.939 140.821 341.749C140.338 341.652 139.862 341.601 139.402 341.594C138.847 341.579 138.302 341.635 137.777 341.738C131.53 342.945 125.101 343.528 118.821 343.528" fill="#191414"/>
<path d="M72.482 350.445C84.4953 357.943 100.551 361.499 116.794 361.749C125.095 361.877 133.453 361.141 141.325 359.629C147.488 358.439 151.22 352.132 149.351 346.15C148.167 342.37 145.046 339.719 141.37 338.989C140.74 338.863 140.098 338.79 139.445 338.779C138.717 338.768 137.968 338.831 137.229 338.978C117.54 342.783 95.9795 340.197 83.7766 332.665C82.8177 332.07 81.7913 331.644 80.7311 331.385C77.4453 330.565 73.8931 331.342 71.2548 333.673L71.2341 333.684C65.9781 338.302 66.5541 346.75 72.482 350.445" fill="#EFA01F"/>
<path d="M118.779 358.951C118.132 358.951 117.484 358.946 116.837 358.934C100.018 358.675 84.7957 354.813 73.972 348.058C73.4579 347.737 72.9944 347.364 72.5815 346.943C74.0921 347.144 75.5014 347.242 76.8037 347.242C77.8751 347.242 78.8734 347.176 79.8004 347.049C79.7967 347.05 79.7948 347.052 79.7929 347.054C79.9055 347.039 80.02 347.022 80.1326 347.005C91.0707 351.999 104.249 354.423 117.569 354.628C118.186 354.637 118.802 354.641 119.419 354.641C122.114 354.641 124.81 354.551 127.49 354.374C127.462 355.862 127.925 357.26 128.867 358.516C125.523 358.805 122.155 358.951 118.779 358.951" fill="#C7772D"/>
<path d="M117.053 346.401C106.193 346.401 95.8143 344.607 87.7754 341.261C88.0193 340.253 88.0494 339.135 87.858 337.925C96.3491 341.58 107.338 343.53 118.816 343.53C125.099 343.53 131.53 342.946 137.777 341.738C137.884 341.715 137.992 341.697 138.103 341.68C136.247 342.791 134.643 343.922 133.28 345.057C127.902 345.964 122.419 346.401 117.053 346.401" fill="#F8D49A"/>
<path d="M72.9833 335.894C71.1893 337.529 70.2773 339.848 70.4781 342.282C70.6752 344.691 71.9474 346.797 73.9722 348.058C84.7958 354.813 100.018 358.675 116.837 358.934C124.923 359.067 132.992 358.364 140.794 356.864C142.962 356.446 144.782 355.168 145.919 353.263C147.049 351.376 147.321 349.088 146.664 346.988C145.823 344.307 143.585 342.299 140.821 341.749C140.338 341.652 139.862 341.601 139.402 341.593C138.846 341.578 138.302 341.635 137.777 341.738C117.43 345.673 95.141 342.988 82.2982 335.059C81.5983 334.626 80.8477 334.311 80.0652 334.119C77.5844 333.498 74.9948 334.123 73.1165 335.784C73.0752 335.821 73.0302 335.859 72.9833 335.894V335.894ZM118.687 364.579C118.042 364.579 117.396 364.573 116.751 364.564C98.924 364.288 82.6735 360.124 70.9942 352.834C67.4438 350.621 65.2108 346.943 64.8674 342.742C64.5165 338.467 66.1603 334.395 69.3747 331.567C69.4254 331.524 69.4779 331.483 69.5305 331.442C72.7881 328.647 77.2129 327.606 81.4125 328.653C82.756 328.981 84.0565 329.527 85.2593 330.272C96.9799 337.506 117.651 339.895 136.694 336.213C137.595 336.035 138.535 335.947 139.486 335.964C140.288 335.977 141.106 336.065 141.92 336.227C146.702 337.18 150.58 340.659 152.036 345.307C153.172 348.938 152.703 352.888 150.753 356.151C148.811 359.401 145.57 361.676 141.86 362.392C134.302 363.845 126.516 364.579 118.687 364.579" fill="#191414"/>
<path d="M121.822 310.333C121.729 316.338 127.332 321.28 134.339 321.389C135.275 321.402 136.193 321.333 137.071 321.177L131.941 299.888C126.234 300.864 121.901 305.139 121.822 310.333" fill="#FF3B3C"/>
<path d="M129.494 320.492C128.37 320.074 127.33 319.518 126.403 318.854C127.328 319.518 128.368 320.07 129.49 320.488C129.492 320.49 129.494 320.49 129.494 320.492V320.492ZM121.828 310.836V310.834V310.836ZM121.826 310.809V310.806V310.809ZM121.825 310.734V310.727V310.734ZM121.823 310.706V310.697V310.706ZM121.823 310.678V310.667V310.678ZM121.823 310.635V310.62V310.635ZM121.821 310.605V310.588V310.605ZM121.821 310.573V310.55V310.573ZM121.821 310.534V310.513V310.534ZM121.821 310.502V310.479V310.502ZM121.821 310.47V310.44V310.47ZM121.821 310.434V310.406V310.434ZM121.821 310.397V310.374V310.397ZM121.821 310.365C121.821 310.353 121.823 310.342 121.823 310.333C121.823 310.342 121.821 310.353 121.821 310.365Z" fill="#FDE7B1"/>
<path d="M132.791 303.422L131.941 299.888L132.793 303.42C132.791 303.42 132.791 303.42 132.791 303.422" fill="#BC97AF"/>
<path d="M129.49 320.488C128.368 320.07 127.328 319.518 126.403 318.854C123.701 316.919 121.948 314.048 121.828 310.836V310.834C121.826 310.826 121.826 310.819 121.826 310.809V310.806C121.826 310.781 121.825 310.759 121.825 310.734V310.727C121.825 310.719 121.825 310.714 121.823 310.706V310.62C121.823 310.614 121.821 310.61 121.821 310.605V310.365C121.821 310.353 121.823 310.342 121.823 310.333C121.901 305.139 126.234 300.864 131.941 299.888L132.791 303.422C128.803 305.182 126.062 308.734 125.998 312.853C125.953 315.81 127.289 318.505 129.49 320.488" fill="#FFA7A7"/>
<path d="M121.823 310.333H121.83H121.823ZM130.222 302.769C126.662 304.1 124.217 307.057 124.168 310.369C124.135 312.576 125.129 314.689 126.97 316.316C128.861 317.984 131.4 318.947 134.142 319.039L130.222 302.769ZM134.579 323.737C134.487 323.737 134.393 323.735 134.301 323.735C130.353 323.673 126.647 322.289 123.864 319.83C120.98 317.282 119.421 313.897 119.477 310.298C119.571 304.107 124.647 298.757 131.545 297.577C132.765 297.367 133.932 298.14 134.221 299.339L139.351 320.628C139.501 321.258 139.387 321.923 139.032 322.463C138.679 323.004 138.116 323.375 137.478 323.488C136.544 323.653 135.57 323.737 134.579 323.737Z" fill="#191414"/>
<path d="M94.6266 317.51C94.5497 322.455 98.4978 326.525 103.442 326.602C108.389 326.677 112.459 322.731 112.534 317.784C112.611 312.84 108.663 308.77 103.718 308.693C98.7737 308.618 94.7017 312.564 94.6266 317.51Z" fill="#FF3B3C"/>
<path d="M98.9632 325.324C97.5972 324.502 96.4694 323.322 95.7075 321.92V321.918C96.4694 323.32 97.5953 324.497 98.9614 325.32C98.9614 325.322 98.9632 325.324 98.9632 325.324Z" fill="#FDE7B1"/>
<path d="M95.7077 321.92C95.2273 321.036 94.8933 320.064 94.7319 319.038V319.036C94.8933 320.064 95.2292 321.036 95.7077 321.918V321.92Z" fill="#FEF4DC"/>
<path d="M94.7315 319.038C94.6546 318.541 94.619 318.032 94.6265 317.514C94.6283 317.417 94.6302 317.321 94.6359 317.225C94.6302 317.319 94.6283 317.415 94.6265 317.511C94.619 318.03 94.6546 318.539 94.7315 319.036V319.038Z" fill="#BC97AF"/>
<path d="M98.9612 325.321C97.5951 324.497 96.4692 323.32 95.7073 321.919C95.2288 321.037 94.8929 320.065 94.7315 319.036C94.6546 318.539 94.619 318.031 94.6265 317.511C94.6283 317.415 94.6302 317.319 94.6359 317.226C94.8592 312.457 98.796 308.697 103.577 308.697H103.718C107.015 308.748 109.884 310.583 111.393 313.274C110.087 312.484 108.556 312.016 106.914 311.992C106.867 311.992 106.82 311.99 106.773 311.99C101.896 311.99 97.8972 315.914 97.8203 320.808C97.7959 322.45 98.2143 323.994 98.9612 325.321Z" fill="#FFA7A7"/>
<path d="M94.6263 317.51H94.6357H94.6263ZM103.577 311.038C101.851 311.038 100.222 311.697 98.9798 312.902C97.7112 314.131 96.9982 315.78 96.9719 317.546C96.9156 321.19 99.8354 324.2 103.48 324.257C105.236 324.307 106.914 323.622 108.182 322.393C109.449 321.164 110.162 319.515 110.188 317.749C110.244 314.105 107.326 311.095 103.682 311.038H103.577ZM103.585 328.948H103.406C97.1764 328.85 92.1849 323.703 92.2807 317.475C92.3276 314.456 93.5454 311.635 95.7146 309.533C97.8801 307.432 100.717 306.295 103.754 306.347C109.985 306.445 114.975 311.592 114.879 317.82C114.832 320.839 113.615 323.66 111.447 325.761C109.323 327.82 106.536 328.948 103.585 328.948Z" fill="#191414"/>
<path d="M164.517 332.02C110.902 344.048 117.574 373.79 171.188 361.764L164.517 332.02Z" fill="#FEC864"/>
<path d="M127.49 354.374C127.492 354.301 127.494 354.228 127.497 354.156C127.494 354.228 127.492 354.301 127.49 354.374Z" fill="#F8D49A"/>
<path d="M128.867 358.516C127.925 357.26 127.461 355.862 127.489 354.374C127.463 355.862 127.929 357.262 128.872 358.516H128.867Z" fill="#E6C2A0"/>
<path d="M132.913 361.698C131.126 360.801 129.775 359.724 128.867 358.516H128.873C129.779 359.72 131.127 360.792 132.907 361.689C132.909 361.693 132.911 361.696 132.913 361.698Z" fill="#BC97AF"/>
<path d="M164.56 332.217L164.517 332.02C164.518 332.022 164.517 332.022 164.518 332.02C164.533 332.085 164.547 332.151 164.56 332.217Z" fill="#FFE79E"/>
<path d="M132.907 361.689C131.126 360.792 129.779 359.721 128.873 358.516C127.929 357.262 127.464 355.862 127.49 354.374C127.492 354.301 127.494 354.228 127.497 354.157C127.497 354.151 127.499 354.145 127.499 354.142V354.14C127.886 346.889 139.788 337.57 164.517 332.022L164.56 332.217C165.116 335.15 163.355 338.043 160.475 338.905C138.676 345.425 129.939 355.065 132.907 361.689" fill="#FFE6B9"/>
<path d="M164.631 332.534L153.875 337.218C152.132 338.045 150.37 338.785 148.681 339.663C146.974 340.49 145.294 341.352 143.676 342.279C140.443 344.114 137.313 346.047 134.703 348.276C133.42 349.387 132.269 350.607 131.537 351.851C131.17 352.47 130.899 353.087 130.761 353.658C130.637 354.232 130.629 354.742 130.729 355.221C130.928 356.155 131.669 357.124 132.894 357.932C134.086 358.749 135.651 359.357 137.287 359.813C140.601 360.706 144.254 361.134 147.964 361.421C151.687 361.712 155.498 361.71 159.353 361.654C163.209 361.565 167.103 361.365 171.073 361.25C171.37 361.239 171.618 361.472 171.627 361.768C171.634 361.993 171.499 362.192 171.304 362.277C167.634 363.868 163.819 365.073 159.91 366C155.999 366.925 151.987 367.51 147.88 367.711C143.774 367.865 139.556 367.557 135.349 366.23C133.256 365.536 131.141 364.643 129.147 363.173C128.15 362.445 127.195 361.56 126.362 360.468C125.536 359.377 124.88 358.041 124.555 356.606C124.225 355.17 124.255 353.68 124.534 352.34C124.808 350.993 125.306 349.787 125.891 348.7C127.066 346.516 128.599 344.806 130.196 343.284C133.438 340.293 137.112 338.197 140.888 336.574C142.785 335.778 144.709 335.099 146.638 334.482C148.584 333.904 150.526 333.373 152.496 332.966C156.427 332.136 160.396 331.607 164.401 331.508C164.697 331.498 164.945 331.731 164.952 332.027C164.96 332.251 164.825 332.45 164.631 332.534" fill="#191414"/>
<path d="M58.78 309.376C106.574 336.482 91.538 362.995 43.7417 335.891L58.78 309.376Z" fill="#FEC864"/>
<path d="M80.1324 347.005C80.1287 347.003 80.1268 347.002 80.123 347.002C84.4202 346.328 87.0473 344.281 87.7735 341.261H87.7754C87.0511 344.279 84.4259 346.328 80.1324 347.005Z" fill="#F8D49A"/>
<path d="M79.793 347.054C79.7949 347.052 79.7967 347.05 79.8005 347.049C79.9098 347.033 80.0173 347.017 80.1247 347.001C80.1285 347.001 80.1304 347.003 80.1342 347.005C80.0211 347.022 79.9061 347.039 79.793 347.054" fill="#E6C2A0"/>
<path d="M81.2776 326.345C77.4551 322.114 71.9326 317.518 64.5542 312.836C71.9345 317.518 77.4551 322.112 81.2794 326.343L81.2776 326.345Z" fill="#FFE79E"/>
<path d="M83.8988 329.533C83.8969 329.531 83.8951 329.531 83.8932 329.529C83.1313 328.496 82.2606 327.432 81.2773 326.345L81.2792 326.343C82.2644 327.432 83.1369 328.497 83.8988 329.533" fill="#BC97AF"/>
<path d="M87.7753 341.261H87.7734C88.0155 340.252 88.0455 339.135 87.8541 337.923C87.856 337.923 87.8579 337.925 87.8579 337.925C88.0493 339.135 88.0193 340.254 87.7753 341.261Z" fill="#FCECD1"/>
<path d="M87.8581 337.925C87.8581 337.925 87.8562 337.923 87.8543 337.923C87.4659 335.469 86.1693 332.628 83.8931 329.53C83.8949 329.532 83.8968 329.532 83.8987 329.534C86.1749 332.63 87.4715 335.471 87.8581 337.925" fill="#BC97AF"/>
<path d="M64.4949 312.797C64.4879 312.795 64.4879 312.792 64.481 312.79L64.4949 312.797Z" fill="#FFE79E"/>
<path d="M79.8004 347.048C85.8896 341.912 80.6429 329.481 60.4068 316.178C58.1587 314.699 57.4588 311.719 58.7836 309.379C60.7933 310.519 62.6923 311.658 64.4806 312.791C64.4863 312.793 64.4863 312.795 64.4919 312.797L64.5538 312.836C71.9322 317.518 77.4548 322.113 81.2772 326.345C82.2605 327.431 83.1312 328.495 83.893 329.529C86.1692 332.627 87.4659 335.468 87.8543 337.923C88.0457 339.135 88.0157 340.252 87.7736 341.261C87.0474 344.28 84.4203 346.328 80.1231 347.001C80.0162 347.016 79.9092 347.033 79.8004 347.048" fill="#FFE6B9"/>
<path d="M59.0386 308.918C62.8404 310.179 66.4846 311.84 70.0049 313.778C71.7707 314.739 73.4746 315.812 75.169 316.931C76.8335 318.085 78.4754 319.293 80.0592 320.607C83.2004 323.258 86.1052 326.332 88.3383 330.135C89.4229 332.057 90.393 334.14 90.8809 336.57C91.1268 337.78 91.2506 339.079 91.1193 340.447C90.9973 341.811 90.5938 343.247 89.8582 344.523C89.132 345.802 88.115 346.889 87.006 347.692C85.8913 348.495 84.7204 349.064 83.557 349.471C81.2189 350.295 78.937 350.535 76.7321 350.591C72.3224 350.636 68.196 349.704 64.3135 348.362C60.4423 346.975 56.7718 345.247 53.3003 343.224C49.8307 341.201 46.5318 338.938 43.4825 336.349C43.2573 336.157 43.2291 335.819 43.4205 335.592C43.5669 335.422 43.7996 335.365 44.0023 335.433C47.7665 336.698 51.4351 338.022 55.098 339.229C58.7684 340.404 62.4163 341.515 66.0624 342.32C69.6953 343.125 73.315 343.778 76.7472 343.886C78.4435 343.926 80.1173 343.8 81.4966 343.365C82.9039 342.95 83.8947 342.239 84.3564 341.402C84.5891 340.972 84.7317 340.483 84.7786 339.897C84.8142 339.312 84.7335 338.642 84.5628 337.942C84.225 336.538 83.4782 335.037 82.5737 333.601C80.7235 330.708 78.2934 327.949 75.7339 325.253C74.4541 323.896 73.0993 322.583 71.7069 321.293C70.3464 319.963 68.8753 318.743 67.4472 317.445L58.5188 309.834C58.2937 309.642 58.2674 309.304 58.4588 309.077C58.6052 308.907 58.8379 308.85 59.0386 308.918V308.918ZM218.428 217.215L71.917 189.377C68.2185 188.674 64.7263 191.31 64.3829 195.059C63.105 209.013 61.9116 239.576 75.094 245.661C75.094 245.661 107.518 256.909 116.78 244.999C116.78 244.999 119.428 241.03 123.397 234.412C123.397 234.412 124.72 227.795 132.661 229.12C132.661 229.12 139.278 230.443 137.955 241.03C137.955 241.03 136.632 258.234 151.188 260.88C151.188 260.88 167.213 266.815 182.57 267.954C194.109 268.81 205.239 263.27 211.42 253.488C215.599 246.873 220.403 237.47 223.643 225.547C224.666 221.788 222.253 217.949 218.428 217.215" fill="#191414"/>
<path d="M76.3682 236.116C75.8465 235.168 75.3605 233.999 74.9214 232.614L117.203 208.201L122.855 209.276L76.3682 236.116ZM147.381 248.073C147.146 247.296 147 246.519 146.911 245.806L185.323 221.145L188.41 221.73L147.381 248.073ZM160.94 255.89C158.64 255.215 156.804 254.612 155.646 254.218L202.176 224.346L208.269 225.504L160.94 255.89Z" fill="#E1D0DB"/>
<path d="M218.832 217.671L265.851 231.484L272.419 252.125L217.648 233.058L218.832 217.671Z" fill="#191414"/>
</svg>
