<svg width="447" height="808" viewBox="0 0 447 808" fill="none" xmlns="http://www.w3.org/2000/svg">
<g opacity="0.1" filter="url(#filter0_d_402_3563)">
<path d="M309.784 94.8481C310.12 112.374 306.194 131.524 286.852 145.757L252.498 139.621C252.498 139.621 235.368 95.8712 259.559 66.8228C260.258 65.9692 261.002 65.1415 261.769 64.3253C278.241 46.9169 316.236 17.3425 316.943 17.7276C317.642 18.1128 304.751 46.9658 307.226 68.2398C308.114 75.8446 309.606 85.105 309.784 94.8481" fill="#5DBD5C"/>
<path d="M267.21 140.704C263.864 127.176 259.355 114.59 252.67 99.9208C252.483 98.2251 252.144 93.0229 253.923 86.5131C256.42 82.225 259.007 76.8275 263.238 73.4504C263.531 73.2147 263.824 72.9819 264.111 72.7491C266.138 76.6636 267.891 82.2077 268.747 89.4246C270.894 107.528 275.898 114.636 281.517 114.636C284.405 114.636 287.458 112.759 290.369 109.532C295.617 103.72 297.601 99.4006 303.613 96.7162C304.079 98.9062 304.493 101.197 304.832 103.568C304.553 111.256 303.308 117.734 300.302 121.091C283.02 131.725 272.731 137.643 267.21 140.704" fill="#618B58"/>
<path d="M303.613 96.7163C302.989 93.7819 302.273 91.0285 301.52 88.505C291.478 54.8581 303.417 39.6743 302.684 39.338C302.681 39.338 302.676 39.3352 302.67 39.3352C301.897 39.3352 286.25 54.9932 264.111 72.7493C263.651 71.8583 263.174 71.0507 262.691 70.3293C263.447 69.4642 264.258 68.6077 265.129 67.7599C276.45 56.7119 295.445 40.7492 307.662 30.8681C304.417 41.574 300.989 56.2261 302.454 68.8031C303.403 76.9397 304.573 86.9731 304.837 96.2162C304.412 96.3743 304.004 96.5439 303.613 96.7163" fill="#9ED79D"/>
<path d="M304.832 103.568C304.493 101.197 304.079 98.9061 303.613 96.7161C304.004 96.5436 304.412 96.3741 304.838 96.216C304.909 98.7452 304.915 101.214 304.832 103.568V103.568ZM253.923 86.5131C255.279 81.5553 257.866 75.8358 262.692 70.329C263.175 71.0504 263.652 71.8581 264.112 72.7491C263.824 72.9819 263.531 73.2147 263.238 73.4503C259.007 76.8274 256.42 82.2249 253.923 86.5131" fill="#A0B99B"/>
<path d="M303.348 129.662C302.115 129.662 300.882 129.191 299.943 128.248C298.072 126.366 298.077 123.325 299.96 121.451C307.691 113.757 304.541 86.7031 302.455 68.8033C300.989 56.2263 304.417 41.5742 307.662 30.8682C295.445 40.7493 276.45 56.712 265.129 67.76C250.1 82.4265 252.629 99.7544 252.741 100.484C253.152 103.097 251.379 105.563 248.767 105.985C246.157 106.408 243.697 104.655 243.26 102.048C243.105 101.12 239.687 79.1615 258.418 60.8823C268.966 50.5873 285.733 36.49 292.456 30.9085C298.011 26.2927 303.343 21.9614 307.464 18.7165C314.707 13.0172 316.21 11.8331 319.271 13.5288C322.961 15.578 321.809 18.8919 320.214 23.479C317.219 32.1012 310.206 52.2917 311.999 67.691C314.71 90.9338 317.776 117.281 306.737 128.265C305.8 129.197 304.576 129.662 303.348 129.662" fill="#6B184E"/>
<path d="M408.578 100.579C400.289 105.887 381.717 119.019 370.87 136.293C369.128 139.055 367.59 141.926 366.317 144.895C351.024 180.643 263.945 248.994 263.945 248.994L216.962 172.607C216.962 172.607 248.063 156.52 279.646 138.598V138.586C291.203 132.027 302.829 125.216 313.017 118.861C340.933 101.444 391.77 98.5729 407.808 98.0929C409.19 98.0556 409.742 99.8346 408.578 100.579" fill="#5DBD5C"/>
<path d="M276.703 232.158C276.456 216.753 275.559 190.274 272.418 168.29C271.763 163.697 271.061 159.34 270.294 155.149C273.32 153.457 276.381 151.735 279.445 149.996C281.733 168.399 296.52 181.309 309.695 181.309C310.514 181.309 311.325 181.26 312.126 181.16C328.379 179.105 344.874 162.984 355.517 150.166C357.23 148.105 359.307 146.016 361.446 144.058C347.167 176.418 318.915 194.412 317.308 195.415C304.746 202.58 289.361 217.997 276.703 232.158Z" fill="#618B58"/>
<path d="M279.444 149.996C279.243 148.369 279.137 146.697 279.14 144.989C286.836 140.54 298.494 133.585 315.554 122.942C337.438 109.293 374.726 104.893 396.008 103.479C393.235 105.568 390.237 107.965 387.182 110.635C364.871 112.653 333.049 117.668 313.016 130.153C302.77 136.545 291.073 143.397 279.444 149.996" fill="#9ED79D"/>
<path d="M270.293 155.149C270.003 153.566 269.704 152.008 269.394 150.467C271.477 149.347 274.627 147.599 279.14 144.989C279.137 146.697 279.243 148.369 279.444 149.996C276.381 151.735 273.32 153.457 270.293 155.149" fill="#A0B99B"/>
<path d="M212.099 142.118L153.332 175.452C153.332 175.452 136.298 146.599 133.812 113.216C133.15 104.591 133.475 95.6526 135.326 86.8348C141.405 57.8123 144.216 46.1377 145.452 20.1042C146.69 -5.92641 151.024 9.15113 151.024 9.15113C151.024 9.15113 165.346 41.7289 172.313 49.0319C178.607 55.628 186.295 63.0403 193.345 71.7602C207.173 88.8668 218.548 111.04 212.099 142.118" fill="#5DBD5C"/>
<path d="M174.75 158.406C169.217 152.729 159.046 144.464 142.465 138.08C141.497 134.631 139.683 127.245 138.801 117.717C144.546 122.957 153.088 130.033 162.446 130.033C164.34 130.033 166.266 129.742 168.209 129.09C186.927 122.807 178.127 103.89 190.204 78.2589C193.578 81.4348 196.797 85.0705 199.941 88.9218C201.126 91.3763 202.017 93.8681 202.588 96.4663C197.266 112.872 189.238 129.001 180.294 146.978L177.819 151.956C176.739 154.135 175.719 156.285 174.75 158.406" fill="#618B58"/>
<path d="M138.295 107.434C138.264 101.263 138.735 94.5864 140.046 87.7461C141.161 81.9318 142.181 76.8217 143.115 72.1542C146.935 53.053 149.24 41.5222 150.252 20.3344C150.269 19.9464 150.289 19.5699 150.309 19.2078C155.166 29.6752 163.559 46.8192 168.836 52.3489C171.434 55.0707 173.931 57.643 176.32 60.1003C182.137 66.0899 187.164 71.2661 191.253 76.1262C190.886 76.8418 190.538 77.5546 190.204 78.2587C187.713 75.9106 185.135 73.8183 182.441 72.0709C167.841 62.6151 160.567 47.2013 157.851 42.7005C156.891 41.114 155.517 38.5303 154.35 36.2828C154.089 35.7769 153.62 35.5469 153.154 35.5469C152.496 35.5469 151.841 36.0125 151.789 36.8173C151.597 39.9012 151.312 44.3704 150.93 50.0784C149.855 66.1733 142.342 83.4896 138.295 107.434" fill="#9ED79D"/>
<path d="M199.941 88.9219C196.797 85.0706 193.578 81.4349 190.204 78.259C190.537 77.5548 190.885 76.8421 191.253 76.1264C194.958 80.5295 197.892 84.6711 199.941 88.9219Z" fill="#A0B99B"/>
<path d="M319.727 204.374C318.101 204.374 316.514 203.549 315.612 202.055C314.238 199.784 314.968 196.83 317.239 195.456C317.535 195.278 347.437 176.823 361.899 143.009C369.133 126.101 384.498 112.147 396.009 103.479C374.726 104.893 337.438 109.293 315.554 122.943C277.757 146.519 266.488 152.002 266.025 152.224C263.634 153.376 260.763 152.367 259.613 149.976C258.463 147.588 259.466 144.719 261.855 143.567C261.964 143.512 273.351 137.942 310.47 114.789C338.748 97.1504 387.866 93.8769 407.672 93.2905C410.488 93.2216 412.908 94.9489 413.736 97.6247C414.561 100.303 413.532 103.114 411.169 104.623C401.898 110.558 379.394 126.547 370.737 146.789C355.018 183.534 323.541 202.877 322.211 203.681C321.432 204.15 320.575 204.374 319.727 204.374V204.374ZM138.554 146.568C136.553 146.568 134.691 145.312 134.007 143.314C133.63 142.213 124.856 115.976 130.607 85.9387C131.725 80.0985 132.754 74.9596 133.691 70.272C137.424 51.6076 139.677 40.3441 140.652 19.8778C141.281 6.66557 142.462 0.664503 147.799 0.0408258C150.237 -0.243709 153.539 0.834007 155.551 7.50189C161.193 20.3088 171.14 40.8442 175.787 45.7129C178.363 48.4145 180.843 50.9696 183.211 53.4068C198.412 69.0562 209.397 80.3629 212.251 95.7709C212.734 98.3806 211.009 100.887 208.4 101.37C205.793 101.852 203.287 100.131 202.801 97.5212C200.476 84.973 190.865 75.0804 176.319 60.1006C173.931 57.6433 171.433 55.071 168.835 52.3492C163.558 46.8195 155.166 29.6755 150.309 19.2081C150.288 19.5702 150.268 19.9467 150.251 20.3347C149.239 41.5225 146.934 53.0533 143.115 72.1545C142.181 76.822 141.16 81.9321 140.045 87.7464C134.788 115.197 143.02 139.969 143.103 140.216C143.954 142.725 142.612 145.455 140.103 146.309C139.588 146.484 139.065 146.568 138.554 146.568" fill="#6B184E"/>
<path d="M196.579 186.661L170.5 228.045C170.5 228.045 115.901 210.447 96.5841 186.638C89.9191 178.421 80.8744 163.211 63.8856 155.259C52.8233 150.082 38.4097 147.967 19.1045 152.859C19.1045 152.859 50.4205 126.515 111.541 135.186C131.927 138.095 150.126 147.548 164.395 157.59C184.29 171.572 196.579 186.661 196.579 186.661" fill="#5DBD5C"/>
<path d="M158.164 217.988C154.275 215.959 150.358 214.338 146.492 213.295C145.854 213.125 145.222 212.959 144.598 212.801C142.92 212.344 117.82 205.181 100.32 183.608C99.2021 182.232 97.9691 180.585 96.6614 178.843C91.2783 171.667 83.6591 161.504 71.9414 154.252C80.4544 154.359 93.6666 157.897 107.842 174.36C108.08 174.636 108.322 174.911 108.563 175.187C114.354 181.821 122.307 185.04 130.205 185.04C139.931 185.04 149.576 180.165 155.026 170.793C156.161 168.844 157.371 166.898 158.661 165.002C162.32 167.554 165.731 170.152 168.856 172.687C161.469 192.636 158.989 208.817 158.164 217.988Z" fill="#618B58"/>
<path d="M158.66 165.002C144.457 155.098 126.45 145.826 106.303 142.964C97.6665 141.739 89.6248 141.213 82.1809 141.213C68.1439 141.213 56.2423 143.084 46.4991 145.665C45.6139 145.573 44.7143 145.501 43.8032 145.444C54.5236 141.613 69.1728 138.259 87.6302 138.259C94.8039 138.259 102.55 138.765 110.864 139.946C136.95 143.65 153.136 152.871 162.244 160.133C160.991 161.697 159.796 163.329 158.66 165.002" fill="#9ED79D"/>
<path d="M168.855 172.688C165.731 170.153 162.32 167.554 158.661 165.002C159.796 163.329 160.992 161.697 162.245 160.133C166.43 163.47 169.117 166.39 170.586 168.175C169.982 169.701 169.404 171.202 168.855 172.688" fill="#A0B99B"/>
<path d="M143.495 222.285C143.101 222.285 142.704 222.236 142.305 222.136C141.115 221.831 112.946 214.427 92.8561 189.661C91.626 188.144 90.3355 186.428 88.9732 184.609C77.8074 169.721 60.9307 147.223 20.2882 157.512L0 162.648L16.0144 149.177C17.3595 148.044 49.6901 121.554 112.216 130.432C162.645 137.591 179.455 163.829 180.145 164.944C181.545 167.197 180.849 170.161 178.596 171.56C176.343 172.954 173.379 172.264 171.98 170.008C171.845 169.796 156.5 146.424 110.865 139.945C81.1528 135.726 58.6889 140.121 43.804 145.443C72.9559 147.228 87.8236 167.06 96.6614 178.843C97.9691 180.585 99.2021 182.232 100.32 183.608C118.341 205.825 144.423 212.758 144.685 212.824C147.251 213.485 148.8 216.103 148.142 218.67C147.587 220.842 145.636 222.285 143.495 222.285" fill="#6B184E"/>
<path d="M271.992 291.878L171.701 288.648L157.742 288.203C157.742 288.203 157.704 286.906 157.693 284.552C157.658 273.812 158.089 241.065 164.145 208.271C166.677 194.553 170.186 180.824 175.064 168.704C177.153 163.502 179.496 158.587 182.128 154.095C203.931 116.783 218.284 83.7139 213.108 40.8268C212.927 39.3754 214.85 38.7029 215.594 39.9618C219.629 46.667 227.246 59.9165 238.526 81.8861C256.196 116.28 263.008 136.425 267.658 168.965C267.862 170.359 268.04 171.862 268.222 173.46C269.446 184.224 270.277 199.275 270.84 215.06C272.136 251.541 271.992 291.878 271.992 291.878" fill="#5DBD5C"/>
<path d="M257.141 255.409C257.012 255.153 256.883 254.898 256.751 254.642C250.583 242.594 232.996 218.943 225.722 209.338C224.532 207.763 222.733 206.892 220.848 206.892C220.258 206.892 219.658 206.978 219.066 207.153C216.579 207.898 214.861 210.053 214.685 212.648C213.726 226.999 207.77 240.95 201.456 254.492C194.699 246.865 181.789 233.325 167.433 223.579C167.657 218.713 168.648 206.949 173.011 191.165C175.302 186.969 177.759 183.025 180.398 179.418C181.996 177.231 183.539 175.064 185.028 172.917C194.538 177.076 205.575 182.301 217.491 188.679C223.265 191.768 228.769 193.059 233.93 193.059C244.217 193.059 253.158 187.943 260.22 181.732C260.263 181.922 260.309 182.111 260.352 182.301L260.363 182.335C261.772 188.342 263.571 194.533 265.824 199.718C267.069 219.477 267.181 237.567 267.181 243.143C263.145 247.931 259.705 252.184 257.141 255.409" fill="#618B58"/>
<path d="M260.22 181.732C258.024 172.216 256.811 163.237 256.357 159.501C256.202 158.216 255.981 156.949 255.67 155.693C252.681 143.55 249.997 130.09 242.237 115.102C237.003 104.988 230.338 97.4522 227.093 90.5572C226.858 90.0399 226.484 89.8128 226.093 89.8128C225.501 89.8128 224.869 90.3302 224.607 91.1464C217.054 114.648 206.679 141.707 185.028 172.917C183.275 172.15 181.577 171.42 179.93 170.724C181.804 166.06 183.956 161.214 186.428 156.23L188.9 151.258C204.989 118.922 219.149 90.4624 218.851 55.1973C222.9 62.44 228.013 71.9217 234.256 84.079C251.693 118.039 258.389 138.031 262.905 169.649C263.298 172.411 263.658 175.259 263.982 178.157C262.798 179.369 261.542 180.568 260.22 181.732" fill="#9ED79D"/>
<path d="M265.824 199.718C263.571 194.533 261.772 188.342 260.364 182.335L260.352 182.301C260.309 182.111 260.263 181.921 260.22 181.732C261.542 180.568 262.798 179.369 263.982 178.156C264.775 185.221 265.373 192.579 265.824 199.718ZM173.011 191.164C174.736 184.922 176.989 178.044 179.929 170.724C181.576 171.42 183.275 172.149 185.028 172.917C183.539 175.064 181.996 177.231 180.398 179.418C177.759 183.025 175.302 186.968 173.011 191.164" fill="#A0B99B"/>
<path d="M271.984 249.736H271.946C269.293 249.716 267.158 247.549 267.178 244.896C267.181 244.465 267.448 201.448 262.904 169.649C258.389 138.032 251.693 118.039 234.255 84.0791C228.013 71.9217 222.9 62.4401 218.85 55.1974C219.149 90.4624 204.989 118.922 188.899 151.258L186.428 156.23C167.114 195.157 167.367 225.731 167.37 226.036C167.413 228.686 165.3 230.873 162.647 230.919C160.044 231.008 157.813 228.858 157.761 226.209C157.736 224.878 157.388 193.134 177.82 151.956L180.294 146.979C198.634 110.124 213.116 81.0153 208.334 41.4047C207.98 38.4903 209.673 35.7858 212.45 34.8316C215.217 33.8774 218.207 34.9696 219.718 37.4815C224.139 44.8363 231.732 58.129 242.803 79.6875C260.806 114.749 267.727 135.451 272.418 168.29C277.065 200.813 276.801 243.18 276.789 244.968C276.769 247.609 274.622 249.736 271.984 249.736" fill="#6B184E"/>
<path d="M252.497 315.279L176.061 364.208C176.061 364.208 127.264 288.084 88.4269 255.024C86.8317 253.656 85.2338 252.345 83.6473 251.083C56.079 228.872 31.8246 220.115 21.4232 217.126C20.0523 216.729 20.15 214.769 21.5411 214.505C37.3141 211.516 70.3143 208.86 89.6167 211.588C111.612 214.686 123.758 212.151 145.248 217.942C154.666 220.477 170.81 233.365 187.761 248.994C218.79 277.571 252.497 315.279 252.497 315.279" fill="#5DBD5C"/>
<path d="M182.499 316.403C173.718 307.283 158.325 296.345 134.047 294.448C133.967 294.442 133.886 294.436 133.806 294.428C130.504 288.909 120.694 276.203 91.7896 251.575C103.789 252.837 123.353 257.185 138.183 271.662C148.311 281.549 155.439 285.521 160.932 285.521C170.623 285.521 175.227 273.156 182.269 259.094C186.201 262.735 190.167 266.512 194.096 270.331C190.963 277.361 188.12 284.492 186.255 291.617C183.936 300.492 182.818 308.809 182.499 316.403Z" fill="#618B58"/>
<path d="M182.269 259.094C164.918 243.022 148.262 229.617 138.628 227.025C117.15 221.245 105.004 223.768 82.9976 220.67C77.3328 219.871 70.4867 219.535 63.244 219.535C56.7169 219.535 49.868 219.808 43.2691 220.259C40.7715 219.115 38.4176 218.106 36.2275 217.221C46.3443 216.074 58.5564 215.241 69.794 215.241C76.8068 215.241 83.4431 215.566 88.9441 216.342C97.8739 217.6 105.091 217.945 112.072 218.282C122.505 218.782 131.515 219.216 143.994 222.576C158.632 226.516 174.968 240.852 185.985 252.047C184.657 254.409 183.43 256.774 182.269 259.094" fill="#9ED79D"/>
<path d="M194.096 270.331C190.167 266.511 186.201 262.735 182.269 259.093C183.43 256.774 184.657 254.409 185.985 252.046C190.943 257.082 194.823 261.482 196.987 264.014C196.01 266.109 195.039 268.216 194.096 270.331Z" fill="#A0B99B"/>
<path d="M126.282 300.725C126.1 300.277 121.444 289.433 85.3114 258.683C56.1825 233.891 29.9967 224.59 20.0926 221.742C17.3421 220.952 15.5142 218.403 15.6464 215.543C15.7786 212.683 17.8335 210.315 20.6444 209.78C36.4289 206.788 70.3115 204.012 90.2836 206.826C98.7765 208.021 105.769 208.358 112.535 208.682C123.065 209.188 133.013 209.668 146.492 213.295C174.374 220.802 205.086 258.66 206.379 260.267C208.044 262.333 207.716 265.357 205.65 267.021C203.583 268.685 200.557 268.357 198.895 266.291C198.596 265.923 168.85 229.267 143.995 222.576C131.515 219.216 122.505 218.782 112.072 218.282C105.091 217.946 97.874 217.601 88.9443 216.342C74.6284 214.327 52.6589 215.359 36.2277 217.221C49.917 222.765 70.0299 233.058 91.5396 251.363C129.503 283.673 134.711 295.555 135.369 297.61L126.218 300.544L126.282 300.725" fill="#6B184E"/>
<path d="M188.486 357.6L138.922 375.896C138.922 375.896 129.216 370.729 117.024 352.953C109.816 342.454 103.691 340.399 91.8213 339.401C83.6043 338.703 72.6483 338.536 56.6856 336.421C26.4962 332.434 11.9993 317.455 6.96387 310.859C6.18499 309.827 7.14493 308.384 8.39516 308.732C48.4513 319.852 69.4121 313.373 87.9729 306.895C100.708 302.449 112.314 298 128.184 299.242C149.386 300.9 163.369 309.971 171.79 318.044V318.055C179.116 325.083 182.229 331.365 182.229 331.365C182.674 344.902 188.486 357.6 188.486 357.6" fill="#5DBD5C"/>
<path d="M140.394 366.723C136.781 363.392 131.895 358.135 126.481 350.24C119.169 339.583 112.406 336.438 102.304 335.099C107.454 331.167 113.901 327.733 121.572 326.405C123.144 326.132 124.638 326.008 126.064 326.008C133.582 326.008 139.259 329.446 144.711 332.886C150.163 336.323 155.394 339.764 162.013 339.764C165.364 339.764 169.072 338.881 173.346 336.674C174.852 335.898 175.947 334.812 176.731 333.535C180.545 338.143 182.235 341.551 182.235 341.551C182.301 343.506 182.477 345.443 182.732 347.325C167.333 351.395 153.207 357.868 140.394 366.723" fill="#618B58"/>
<path d="M176.731 333.536C169.41 324.698 154.261 311.454 128.179 309.419C126.345 309.275 124.563 309.206 122.836 309.206C109.612 309.206 99.2394 313.138 87.9759 317.07C76.7181 321.002 64.5693 324.934 47.8105 324.936C44.5858 324.936 41.1943 324.79 37.6017 324.471C32.1869 321.901 27.8729 319.021 24.5103 316.288C35.5008 318.628 44.9738 319.565 53.346 319.565C71.8551 319.565 84.9552 314.969 97.0494 310.727C107.508 307.06 116.714 303.829 128.279 303.829C129.903 303.829 131.573 303.892 133.3 304.027C157.744 305.939 171.753 318.162 178.461 326.267C178.458 328.831 178.018 331.438 176.731 333.536Z" fill="#9ED79D"/>
<path d="M184.724 346.813C183.508 342.379 182.422 336.981 182.232 331.443C182.539 331.931 182.787 332.348 182.973 332.676C183.241 337.697 184.152 342.534 185.215 346.693L184.724 346.813" fill="#A2A499"/>
<path d="M182.732 347.326C182.476 345.443 182.301 343.506 182.235 341.552C182.235 341.552 180.545 338.143 176.731 333.536C178.019 331.438 178.458 328.831 178.461 326.267C180.18 328.345 181.419 330.15 182.232 331.444C182.422 336.982 183.508 342.379 184.724 346.814C184.057 346.981 183.393 347.15 182.732 347.326" fill="#A0B99B"/>
<path d="M435.844 195.513C422.031 199.551 387.41 214.974 367.889 228.045C367.205 228.502 366.544 228.956 365.909 229.402C352.093 239.061 292.895 315.279 292.895 315.279L228.987 295.917C228.987 295.917 256.147 261.884 282.396 233.761C297.411 217.641 312.14 203.466 321.28 198.721C344.238 186.816 412.636 188.822 435.7 192.883C437.106 193.136 437.215 195.119 435.844 195.513" fill="#5DBD5C"/>
<path d="M441.604 194.706C441.624 194.435 441.63 194.16 441.613 193.881C441.59 193.447 441.521 193.027 441.415 192.619C442.363 192.998 442.458 194.208 441.604 194.706" fill="#FFE698"/>
<path d="M275.803 256.197C276.016 252.532 277.214 248.345 278.611 244.583C292.091 228.959 310.186 209.887 323.49 202.986C335.567 196.723 362.081 194.588 386.936 194.588C399.211 194.588 411.084 195.108 420.609 195.913C418.649 196.703 416.596 197.557 414.475 198.462C407.29 198.212 399.774 198.051 392.319 198.051C370.735 198.051 349.633 199.413 338.275 204.012C328.948 207.789 311.997 218.768 296.98 233.072C289.518 240.165 282.327 248.299 275.803 256.197" fill="#9ED79D"/>
<path d="M269.351 299.406C268.986 291.146 267.497 281.759 263.85 271.179C267.471 266.529 271.492 261.416 275.803 256.197C275.576 260.111 276.47 263.434 279.453 265.02C283.416 267.133 286.885 268.041 290.027 268.041C302.653 268.044 309.999 253.383 322.975 243.396C334.087 234.857 347.302 230.89 358.508 229.114C345.988 239.852 329.158 260.367 324.381 266.291C313.008 267.506 301.621 270.334 290.981 276.482C281.859 281.753 274.783 290.194 269.351 299.406" fill="#618B58"/>
<path d="M263.85 271.179C263.183 269.248 262.445 267.273 261.628 265.261C264.497 261.585 270.774 253.667 278.611 244.582C277.215 248.345 276.016 252.532 275.803 256.197C271.492 261.416 267.471 266.529 263.85 271.179" fill="#8F9D85"/>
<path d="M24.5094 316.288C32.0021 322.375 44.2141 329.204 62.8153 331.664C73.9552 333.139 82.6666 333.659 89.665 334.076C107.525 335.142 116.489 335.679 126.479 350.239C134.823 362.403 141.907 368.306 145.017 370.548L187.7 354.795C185.91 349.808 183.444 341.522 182.972 332.676C180.337 328.066 166.363 306.611 133.299 304.027C119.274 302.932 108.973 306.545 97.0485 310.726C79.485 316.889 59.8003 323.792 24.5094 316.288V316.288ZM144.063 381.145L142.16 380.133C141.723 379.9 131.265 374.201 118.552 355.674C111.224 344.991 106.093 344.684 89.0931 343.669C81.9395 343.241 73.0384 342.709 61.5564 341.192C29.4298 336.941 13.8494 320.599 8.63867 313.77C7.03205 311.661 6.95158 308.772 8.43748 306.579C9.91764 304.389 12.625 303.389 15.1772 304.102C55.2219 315.216 74.8692 308.324 93.8698 301.659C106.277 297.304 118.001 293.192 134.047 294.448C175.954 297.721 191.393 327.945 192.031 329.23L192.494 330.164L192.529 331.204C192.937 343.563 198.297 355.488 198.349 355.605L200.49 360.313L144.063 381.145V381.145ZM326.864 275.674C325.817 275.674 324.766 275.335 323.883 274.634C321.802 272.987 321.455 269.963 323.101 267.885C324.15 266.563 348.928 235.408 363.152 225.464C377.801 215.223 402.921 203.046 420.608 195.912C391.789 193.481 341.53 193.63 323.489 202.986C299.623 215.361 260.337 266.922 259.943 267.443C258.34 269.555 255.325 269.972 253.209 268.365C251.097 266.764 250.683 263.749 252.287 261.634C253.948 259.444 293.297 207.817 319.066 194.455C343.249 181.918 412.526 183.925 436.536 188.155C439.367 188.655 441.456 191.009 441.612 193.88C441.77 196.752 439.95 199.321 437.191 200.129C422.988 204.276 387.162 220.405 368.659 233.342C355.582 242.484 330.882 273.541 330.634 273.855C329.683 275.05 328.281 275.674 326.864 275.674" fill="#6B184E"/>
<path d="M263.813 316.722C262.106 330.98 254.803 358.634 254.803 358.634L195.137 360.184C195.137 360.184 180.625 332.121 190.909 292.829C191.593 290.208 192.409 287.601 193.335 284.983C201.503 261.861 217.767 238.627 219.486 212.967C219.558 211.72 221.133 211.24 221.889 212.234C228.281 220.681 246.393 244.947 252.472 256.826C260.715 272.935 263.752 286.641 264.451 298.115C264.893 305.13 264.451 311.315 263.813 316.722Z" fill="#5DBD5C"/>
<path d="M194.883 344.661C192.834 336.298 191.158 324.431 192.604 310.307C192.886 309.511 193.167 308.735 193.446 307.965C196.763 324.333 208.779 336.082 229.001 336.082C230.019 336.082 231.053 336.05 232.114 335.99C243.363 335.349 251.684 328.196 257.202 321.47C256.866 326.954 256.026 331.811 255.075 336.111C254.86 336.993 254.664 337.832 254.486 338.62C254.035 340.428 253.483 342.411 252.871 344.486C243.757 342.948 234.235 342.175 224.328 342.175C214.091 342.175 204.273 343.006 194.883 344.661" fill="#618B58"/>
<path d="M257.202 321.47C257.863 310.683 256.573 297.468 250.322 281.296C245.924 269.909 231.787 246.123 226.777 237.834C226.533 237.431 226.136 237.245 225.74 237.245C225.185 237.245 224.633 237.612 224.518 238.268C220.23 263.014 208.963 265.413 193.446 307.964C193.326 307.361 193.213 306.751 193.116 306.134C193.67 302.248 194.464 298.213 195.553 294.048C198.177 284.023 202.896 274.001 207.894 263.393C214.134 250.149 220.552 236.526 223.187 221.98C231.019 232.54 243.498 249.842 248.198 259.021C260.895 283.816 260.66 302.578 259.036 316.156C258.901 317.285 258.728 318.509 258.524 319.8C258.105 320.352 257.662 320.909 257.202 321.47" fill="#9ED79D"/>
<path d="M253.276 344.554L252.87 344.485C253.483 342.41 254.034 340.427 254.486 338.619C253.896 341.223 253.505 343.269 253.276 344.554V344.554ZM255.075 336.11C256.026 331.81 256.865 326.953 257.202 321.47C257.661 320.909 258.104 320.351 258.524 319.8C258.003 323.116 257.282 326.881 256.48 330.721C255.943 332.65 255.474 334.46 255.075 336.11ZM192.604 310.307C192.744 308.936 192.914 307.544 193.115 306.133C193.213 306.751 193.325 307.361 193.446 307.964C193.167 308.734 192.885 309.51 192.604 310.307Z" fill="#A0B99B"/>
<path d="M223.187 221.98C220.552 236.526 214.134 250.149 207.894 263.393C202.896 274.001 198.177 284.023 195.553 294.048C187.669 324.2 195.171 347.618 198.24 355.3L251.052 353.929C253.041 346.103 257.743 326.968 259.036 316.155C260.66 302.578 260.895 283.816 248.198 259.021C243.499 249.841 231.019 232.539 223.187 221.98ZM192.256 365.069L190.874 362.394C190.244 361.181 175.635 332.221 186.255 291.616C189.103 280.732 194.237 269.836 199.2 259.297C206.285 244.254 213.614 228.702 214.686 212.648C214.861 210.052 216.58 207.897 219.066 207.153C221.546 206.414 224.159 207.267 225.722 209.337C232.997 218.942 250.583 242.593 256.751 254.641C270.633 281.749 270.366 302.365 268.578 317.296C266.854 331.718 259.749 358.723 259.447 359.864L258.527 363.348L192.256 365.069" fill="#6B184E"/>
<path d="M440.77 293.416C425.753 292.792 376.407 292.361 347.925 311.641C347.336 312.037 346.77 312.434 346.207 312.831C314.074 335.545 314.543 363.127 295.033 365.973C275.199 368.87 253.6 365.613 257.782 346.742C257.782 346.742 259.308 336.829 263.476 324.41C268.652 308.936 277.915 289.585 293.387 280.647C312.93 269.354 335.426 269.941 355.892 270.527C364.635 270.777 373.01 271.03 380.624 270.354C415.952 267.219 432.504 284.455 441.623 290.967C442.716 291.746 442.115 293.465 440.77 293.416" fill="#5DBD5C"/>
<path d="M298.023 360.181C287.806 354.447 276.826 350.073 265.106 347.072C266.109 342.934 267.552 337.712 269.526 332.064C271.946 333.455 274.852 334.125 278.008 334.125C287.211 334.125 298.56 328.445 306.349 318.438C312.434 310.612 320.202 308.223 327.413 308.223C332.466 308.223 337.243 309.396 340.976 310.689C325.744 322.117 318.05 334.363 311.767 344.368C306.47 352.803 303.012 357.985 298.023 360.181Z" fill="#618B58"/>
<path d="M269.527 332.064C268.518 331.483 267.59 330.776 266.765 329.94C271.392 314.716 280.299 293.752 295.79 284.803C310 276.591 325.865 275.065 341.796 275.065C346.558 275.065 351.329 275.2 356.06 275.335C360.569 275.467 364.946 275.591 369.194 275.591C373.273 275.591 377.227 275.476 381.053 275.137C383.78 274.893 386.387 274.781 388.879 274.781C409.018 274.781 421.779 282.155 430.335 288.409H429.844C421.293 283.633 409.877 279.517 394.346 279.517C391.696 279.517 388.928 279.638 386.031 279.894C382.372 280.218 378.535 280.33 374.569 280.33C370.284 280.33 365.843 280.201 361.302 280.072C356.761 279.942 352.119 279.81 347.435 279.81C330.998 279.81 314.003 281.405 298.794 290.189C283.949 298.771 274.821 316.941 269.527 332.064" fill="#9ED79D"/>
<path d="M265.106 347.072C264.307 346.868 263.505 346.673 262.7 346.48C263.128 344.118 264.379 337.792 266.764 329.94C267.589 330.776 268.517 331.483 269.526 332.064C267.552 337.711 266.109 342.934 265.106 347.072" fill="#A0B99B"/>
<path d="M257.779 346.742H257.794H257.779ZM341.795 275.065C325.864 275.065 309.999 276.591 295.789 284.802C270.239 299.566 262.602 347 262.53 347.477L262.473 347.782C261.588 351.777 262.131 354.766 264.134 356.922C268.528 361.647 280.105 363.294 294.344 361.218C301.537 360.169 305.265 354.717 311.766 344.368C318.61 333.472 327.125 319.912 345.238 307.654C369.857 290.99 409.08 288.441 430.334 288.409C420.717 281.382 405.789 272.935 381.052 275.137C373.243 275.829 364.897 275.591 356.059 275.335C351.328 275.2 346.557 275.065 341.795 275.065V275.065ZM283.031 371.677C273.915 371.677 263.211 370.045 257.095 363.463C254.187 360.333 251.135 354.746 253.057 345.856C253.646 342.14 261.947 293.258 290.981 276.482C311.801 264.454 335.457 265.132 356.332 265.73C364.882 265.977 372.956 266.207 380.201 265.563C413.061 262.646 431.133 276.758 440.845 284.339C442.201 285.397 443.374 286.314 444.417 287.058C446.65 288.653 447.553 291.467 446.659 294.06C445.765 296.661 443.296 298.313 440.574 298.216C426.382 297.623 377.936 297.129 350.624 315.612C334.19 326.738 326.269 339.347 319.906 349.478C313.33 359.948 307.651 368.99 295.729 370.729C292.708 371.169 288.115 371.677 283.031 371.677" fill="#6B184E"/>
<path d="M400.614 628.543C400.614 630.118 400.6 631.69 400.565 633.254C400.542 634.909 400.493 636.579 400.421 638.226L400.384 639.129C400.338 640.425 400.266 641.698 400.191 642.971C400.18 643.247 400.157 643.535 400.134 643.813C400.085 644.796 400.013 645.782 399.927 646.756C399.881 647.475 399.832 648.196 399.76 648.906C399.711 649.662 399.64 650.418 399.568 651.177C399.496 651.944 399.413 652.714 399.341 653.482C399.303 653.867 399.254 654.238 399.208 654.623C399.111 655.571 399.004 656.534 398.884 657.471C398.726 658.767 398.559 660.066 398.366 661.351C398.306 661.854 398.223 662.36 398.139 662.851C397.981 663.981 397.815 665.099 397.622 666.202C397.61 666.312 397.585 666.409 397.573 666.516C397.335 667.959 397.082 669.398 396.806 670.815C396.53 672.293 396.228 673.758 395.929 675.213C395.627 676.584 395.328 677.929 395.015 679.274C394.992 679.369 394.966 679.466 394.943 679.561C394.619 680.967 394.271 682.361 393.897 683.743C393.863 683.887 393.825 684.03 393.779 684.174C393.538 685.134 393.273 686.085 392.998 687.034C392.828 687.658 392.65 688.284 392.469 688.908C392.216 689.773 391.963 690.626 391.687 691.477C391.604 691.79 391.506 692.104 391.4 692.414C391.003 693.725 390.572 695.009 390.138 696.283C389.681 697.639 389.201 698.973 388.721 700.306C385.778 708.285 382.306 715.852 378.331 723.012C376.998 725.403 375.615 727.731 374.172 730.027C372.732 732.309 371.229 734.554 369.68 736.753C368.131 738.94 366.521 741.09 364.852 743.179C363.182 745.283 361.463 747.324 359.687 749.318C357.908 751.313 356.083 753.259 354.197 755.156C353.26 756.107 352.298 757.044 351.326 757.955C350.881 758.389 350.424 758.808 349.967 759.242C348.466 760.634 346.917 761.993 345.342 763.338C344.839 763.769 344.322 764.203 343.805 764.623C343.302 765.042 342.807 765.45 342.304 765.847C340.178 767.554 338.005 769.213 335.78 770.796C335.228 771.193 334.677 771.59 334.11 771.975C333.559 772.36 332.995 772.742 332.429 773.127C331.36 773.849 330.291 774.558 329.199 775.243C327.974 776.036 326.747 776.792 325.5 777.536C324.91 777.898 324.31 778.246 323.721 778.594C323.12 778.941 322.519 779.278 321.918 779.626C320.717 780.312 319.493 780.973 318.254 781.62C317.377 782.089 316.489 782.557 315.587 782.991C314.736 783.434 313.871 783.856 312.994 784.276C312.236 784.647 311.48 785.009 310.71 785.368C309.425 785.969 308.129 786.546 306.818 787.11C305.51 787.687 304.188 788.239 302.855 788.768C301.521 789.308 300.176 789.837 298.819 790.343C298.133 790.593 297.448 790.846 296.764 791.087C295.465 791.567 294.169 792.024 292.847 792.444C290.674 793.188 288.476 793.872 286.254 794.522C284.823 794.942 283.371 795.353 281.917 795.746C281.184 795.939 280.463 796.131 279.718 796.324C278.948 796.517 278.181 796.709 277.399 796.902C275.215 797.442 273.004 797.933 270.757 798.402C266.907 799.195 263.037 799.888 259.151 800.48C256.786 800.842 254.395 801.164 251.98 801.443C248.149 801.897 244.258 802.259 240.291 802.535C239.26 802.618 238.214 802.679 237.159 802.739C236.317 802.788 235.475 802.834 234.624 802.871C233.793 802.908 232.965 802.943 232.135 802.98C229.554 803.075 226.959 803.136 224.329 803.159C219.187 803.207 214.155 803.098 209.217 802.848C208.386 802.799 207.547 802.762 206.716 802.704C205.889 802.656 205.061 802.595 204.23 802.535C203.403 802.474 202.586 802.414 201.767 802.342C200.939 802.282 200.123 802.21 199.318 802.127C196.364 801.851 193.444 801.515 190.573 801.129C189.84 801.035 189.118 800.925 188.397 800.816C187.497 800.684 186.609 800.552 185.707 800.408C185.095 800.313 184.482 800.215 183.87 800.109C182.994 799.965 182.103 799.807 181.215 799.652C180.614 799.531 180.002 799.422 179.401 799.304C178.668 799.172 177.935 799.014 177.202 798.87C176.469 798.727 175.737 798.571 175.004 798.413C174.282 798.258 173.564 798.103 172.842 797.933C172.121 797.778 171.4 797.609 170.678 797.43C169.419 797.129 168.169 796.815 166.919 796.494C166.764 796.456 166.594 796.407 166.427 796.361C165.022 795.988 163.628 795.603 162.246 795.194C160.217 794.605 158.21 793.993 156.242 793.344C156.193 793.332 156.144 793.321 156.095 793.298C154.75 792.852 153.416 792.384 152.097 791.927L152.083 791.915C144.133 789.07 136.612 785.719 129.524 781.873C117.717 775.47 107.121 767.721 97.7885 758.748L97.7626 758.737C94.4947 755.59 91.385 752.31 88.4419 748.887C86.7606 746.927 85.1137 744.909 83.5272 742.857C82.8547 741.992 82.1936 741.116 81.547 740.225C81.3774 740.021 81.2222 739.817 81.09 739.612C80.3571 738.604 79.6357 737.595 78.9287 736.56C77.437 734.41 76.0086 732.226 74.6262 729.99C74.0629 729.065 73.4967 728.142 72.9448 727.205C72.7408 726.88 72.5597 726.555 72.3815 726.242C71.9475 725.475 71.5049 724.705 71.0824 723.937C70.8324 723.515 70.6025 723.084 70.3869 722.664C69.9903 721.954 69.6166 721.244 69.2459 720.526C68.97 720.046 68.7286 719.563 68.5015 719.083C68.0934 718.315 67.7082 717.545 67.3346 716.778C67.1191 716.355 66.915 715.947 66.7339 715.528C66.3258 714.7 65.9407 713.869 65.5699 713.041C65.3774 712.668 65.2078 712.297 65.0526 711.935C64.656 711.07 64.2708 710.193 63.9001 709.317C63.719 708.932 63.5638 708.561 63.4316 708.199C62.9631 707.129 62.5291 706.06 62.098 704.968C61.641 703.85 61.2099 702.721 60.7874 701.594C60.6322 701.197 60.4885 700.789 60.3563 700.393C59.9827 699.418 59.6349 698.447 59.3101 697.461C59.2383 697.329 59.2038 697.197 59.1779 697.076C58.7468 695.84 58.3272 694.59 57.9306 693.328C57.5455 692.164 57.1833 690.986 56.8356 689.796C56.6919 689.316 56.5482 688.836 56.416 688.356C56.1515 687.453 55.8986 686.542 55.6457 685.617C55.5278 685.22 55.4301 684.835 55.3468 684.462C55.0709 683.467 54.818 682.47 54.565 681.461C54.4472 681.016 54.338 680.57 54.2546 680.139C54.0247 679.274 53.8322 678.409 53.6281 677.532C53.424 676.656 53.2315 675.779 53.0648 674.899C52.944 674.408 52.8348 673.928 52.7515 673.437C52.5474 672.485 52.3549 671.537 52.1882 670.577C52.0674 670.011 51.9697 669.436 51.8749 668.858C50.4321 660.989 49.4233 652.858 48.86 644.486C48.6789 642.057 48.5467 639.609 48.4518 637.134C48.4404 636.844 48.426 636.568 48.426 636.292C48.3685 634.886 48.3311 633.492 48.3081 632.087C48.2708 630.489 48.2593 628.88 48.2593 627.259C48.2593 624.183 48.3081 621.085 48.4145 617.961C48.426 617.481 48.4518 617.001 48.4748 616.518C48.5467 614.549 48.6444 612.566 48.7766 610.574C48.8226 609.827 48.8715 609.083 48.9203 608.327V608.304C48.9807 607.39 49.0525 606.476 49.1244 605.565C49.2451 603.967 49.3773 602.369 49.5325 600.759V600.748C49.5699 600.34 49.6044 599.917 49.6532 599.509V599.486C50.1935 594.069 50.8891 588.579 51.7312 583.018C54.6139 564.083 57.9306 543.039 62.5176 521.561C80.4175 437.712 117.691 346.98 224.329 346.98C268.354 346.98 300.501 362.319 324.333 386.238C326.891 388.795 329.342 391.463 331.708 394.202C332.898 395.584 334.064 396.978 335.191 398.406C336.335 399.823 337.45 401.266 338.545 402.72C339.516 404.028 340.479 405.339 341.416 406.672C342.35 408.006 343.276 409.351 344.178 410.707C344.635 411.38 345.078 412.064 345.523 412.762C346.868 414.815 348.168 416.918 349.426 419.045C367.553 449.519 378.475 486.135 386.031 521.619C390.606 543.028 393.946 564.023 396.926 583.018C397.792 588.53 398.499 593.971 399.05 599.328V599.343C399.111 599.797 399.148 600.254 399.197 600.711C399.292 601.613 399.375 602.513 399.447 603.412C399.507 604.001 399.556 604.591 399.605 605.18C399.809 607.511 399.976 609.827 400.108 612.112C400.157 612.974 400.206 613.839 400.252 614.693V614.719C400.289 615.222 400.312 615.739 400.324 616.231C400.41 617.852 400.456 619.45 400.505 621.036C400.528 621.528 400.542 622.022 400.542 622.513C400.588 624.545 400.614 626.549 400.614 628.543" fill="#F1CD01"/>
<path d="M362.434 464.416L355.309 457.291L357.921 454.679C359.488 457.877 360.991 461.128 362.434 464.416V464.416ZM349.213 451.195L289.875 391.857L295.97 385.761L349.845 439.636C351.196 441.929 352.512 444.266 353.783 446.623L349.213 451.195ZM283.779 385.761L271.851 373.833C277.829 375.75 283.506 378.032 288.892 380.648L283.779 385.761ZM394.503 627.354L386.875 619.726C388.91 617.683 390.789 615.487 392.502 613.162L395.517 616.174C395.52 616.274 395.523 616.375 395.526 616.481C395.606 618.068 395.655 619.628 395.704 621.269C395.718 621.522 395.724 621.775 395.73 622.057C395.342 623.842 394.934 625.601 394.503 627.354ZM298.278 518.935C296.761 518.889 295.266 518.846 293.792 518.808L295.97 516.63L298.278 518.935ZM283.779 516.63L224.44 457.291L230.539 451.195L289.875 510.534L283.779 516.63V516.63ZM218.344 451.195L159 391.851L165.096 385.755L224.44 445.099L218.344 451.195ZM152.904 385.755L151.999 384.85C153.33 384.08 154.68 383.335 156.048 382.611L152.904 385.755ZM345.494 709.225L289.875 653.609L295.97 647.513L351.894 703.434C349.825 705.423 347.687 707.357 345.494 709.225V709.225ZM283.779 647.513L224.434 588.166L230.53 582.07L246.117 597.656C251.885 614.521 265.258 627.897 282.126 633.665L289.875 641.414L283.779 647.513ZM218.339 582.07L205.991 569.725C206.149 569.142 206.322 568.561 206.512 567.99C207.348 565.503 208.472 563.279 209.825 561.368L224.434 575.974L218.339 582.07V582.07ZM163.099 518.636L165.096 516.635L167.062 518.601C165.771 518.607 164.449 518.618 163.099 518.636V518.636ZM152.904 516.635L93.5601 457.291L99.656 451.195L159 510.539L152.904 516.635V516.635ZM252.764 747.364L224.44 719.043L230.539 712.944L263.401 745.809C259.912 746.404 256.371 746.925 252.764 747.364V747.364ZM218.344 712.944L159 653.6L165.096 647.504L224.44 706.848L218.344 712.944ZM152.904 647.504L142.149 636.749H147.219C149.49 636.749 151.734 636.614 153.945 636.353L159 641.408L152.904 647.504" fill="#C99618"/>
<path d="M195.714 747.769C192.078 747.364 188.5 746.875 184.985 746.303L218.345 712.944L224.44 706.848L283.779 647.512L289.875 641.413L294.841 636.447C296.784 636.648 298.759 636.749 300.753 636.749H306.734L295.971 647.512L289.875 653.608L230.539 712.944L224.44 719.043L195.714 747.769V747.769ZM103.039 709.564C100.867 707.676 98.7524 705.723 96.6987 703.706L152.904 647.504L159 641.408L167.315 633.093C182.907 627.23 195.464 614.771 201.333 599.075L218.339 582.069L224.435 575.973L238.489 561.919C239.673 563.701 240.662 565.733 241.421 567.978C241.694 568.794 241.932 569.624 242.136 570.464L230.531 582.069L224.435 588.165L165.096 647.504L159 653.6L103.039 709.564ZM293.792 518.808C289.587 518.699 285.569 518.63 281.802 518.607L283.779 516.629L289.875 510.533L349.213 451.195L353.783 446.622C355.214 449.275 356.588 451.954 357.922 454.678L355.309 457.291L295.971 516.629L293.792 518.808V518.808ZM54.5099 627.224C54.0213 625.247 53.5615 623.249 53.1304 621.234C53.1534 620.171 53.1821 619.119 53.2195 618.082C53.2281 617.639 53.2511 617.199 53.277 616.696C53.2827 616.547 53.2885 616.397 53.2942 616.245L55.8493 613.69C57.5852 615.995 59.4908 618.168 61.5457 620.188L54.5099 627.224V627.224ZM150.634 518.905L152.904 516.635L159 510.539L218.345 451.195L224.44 445.099L283.779 385.76L288.892 380.647C291.622 381.972 294.275 383.381 296.862 384.872L295.971 385.76L289.875 391.856L230.539 451.195L224.44 457.291L165.096 516.635L163.099 518.635C159.161 518.684 154.979 518.776 150.634 518.905V518.905ZM86.0473 464.806C89.8095 456.227 93.9856 447.924 98.6387 440.02L152.904 385.755L156.049 382.61C162.604 379.144 169.597 376.184 177.055 373.796L165.096 385.755L159 391.851L99.6561 451.195L93.5602 457.291L86.0473 464.806" fill="#C99618"/>
<path d="M69.1333 513.87C72.4356 499.408 76.4766 484.221 81.6643 469.187L86.0473 464.807C79.161 480.499 73.6571 497.108 69.1333 513.87V513.87ZM379.187 512.956C374.689 496.358 369.234 479.927 362.434 464.416L366.645 468.626C371.286 482.042 375.454 496.778 379.187 512.956ZM93.5602 445.099L91.8961 443.435C103.841 417.286 120.252 393.245 143.5 376.351L151.999 384.849C129.268 397.955 111.992 417.338 98.6387 440.02L93.5602 445.099V445.099ZM355.309 445.099L349.846 439.635C336.582 417.12 319.432 397.901 296.862 384.872L305.449 376.285C310.853 380.245 316.012 384.694 320.935 389.635C323.3 392 325.634 394.521 328.066 397.337C329.35 398.829 330.448 400.154 331.449 401.418C332.558 402.795 333.641 404.195 334.688 405.583C335.633 406.859 336.57 408.135 337.484 409.434C338.395 410.733 339.298 412.041 340.2 413.403C340.631 414.039 341.051 414.685 341.502 415.392C342.726 417.263 343.968 419.261 345.299 421.5C349.36 428.331 353.179 435.698 356.766 443.642L355.309 445.099V445.099ZM289.875 379.664L267.917 357.706C278.749 360.925 288.82 365.464 298.19 371.353L289.875 379.664ZM159 379.659L150.783 371.439C159.796 365.811 169.761 361.207 180.786 357.873L159 379.659ZM271.851 373.833C257.771 369.323 242.01 366.849 224.328 366.849C206.762 366.849 191.081 369.309 177.055 373.796L196.763 354.091C205.368 352.585 214.539 351.786 224.328 351.786C234.04 351.786 243.271 352.53 252.046 354.028L271.851 373.833Z" fill="#F8E680"/>
<path d="M366.644 468.626L362.434 464.416C360.991 461.128 359.488 457.877 357.922 454.679L360.436 452.164C362.595 457.415 364.664 462.901 366.644 468.626ZM353.783 446.622C352.513 444.266 351.196 441.929 349.845 439.636L355.309 445.099L353.783 446.622ZM288.892 380.648C283.506 378.032 277.829 375.75 271.851 373.833L252.046 354.028C257.509 354.959 262.798 356.186 267.917 357.707L289.875 379.665L288.892 380.648V380.648ZM151.999 384.85L143.5 376.351C145.857 374.638 148.283 373 150.783 371.439L159 379.659L156.048 382.611C154.68 383.335 153.33 384.079 151.999 384.85ZM89.2632 449.396C90.1168 447.398 90.9934 445.41 91.8959 443.435L93.5599 445.099L89.2632 449.396Z" fill="#E4CB8C"/>
<path d="M357.922 454.679C356.589 451.954 355.215 449.275 353.783 446.623L355.31 445.099L356.767 443.642C358.017 446.41 359.244 449.252 360.437 452.164L357.922 454.679ZM296.862 384.873C294.275 383.381 291.623 381.973 288.892 380.648L289.875 379.665L298.19 371.353C300.659 372.902 303.076 374.546 305.45 376.285L296.862 384.873V384.873ZM81.6646 469.187C83.9609 462.533 86.4815 455.914 89.2636 449.396L93.5604 445.099L98.6389 440.021C93.9858 447.924 89.8097 456.228 86.0475 464.807L81.6646 469.187V469.187ZM156.049 382.611L159.001 379.659L180.786 357.874C185.879 356.333 191.202 355.066 196.763 354.091L177.056 373.796C169.597 376.184 162.605 379.145 156.049 382.611Z" fill="#E4CB8C"/>
<path d="M157.963 788.854C159.699 789.423 161.541 789.987 163.584 790.579C164.947 790.984 166.298 791.355 167.657 791.717L167.996 791.809C169.344 792.157 170.563 792.461 171.793 792.754C172.514 792.935 173.187 793.094 173.862 793.237C174.627 793.415 175.322 793.568 176.018 793.717C176.73 793.87 177.429 794.019 178.127 794.157L178.906 794.312C179.355 794.404 179.803 794.493 180.251 794.574L182.208 794.947C183.028 795.091 183.841 795.235 184.646 795.367C185.287 795.479 185.87 795.571 186.454 795.663C187.347 795.807 188.215 795.933 189.095 796.062C189.802 796.169 190.494 796.272 191.196 796.364C194.104 796.755 196.981 797.083 199.763 797.341C200.571 797.428 201.336 797.494 202.114 797.548C202.982 797.626 203.773 797.683 204.575 797.741C205.385 797.801 206.19 797.859 206.995 797.905C207.578 797.948 208.095 797.974 208.607 798.002L209.495 798.051C214.344 798.299 219.336 798.405 224.282 798.353C226.863 798.33 229.444 798.27 231.956 798.178L234.416 798.071C235.247 798.034 236.063 797.988 236.882 797.942C237.903 797.885 238.908 797.827 239.903 797.747C243.889 797.468 247.743 797.106 251.414 796.669C253.673 796.41 256.027 796.097 258.426 795.729C262.194 795.157 266.017 794.47 269.788 793.697C272.165 793.2 274.28 792.723 276.246 792.237L280.695 791.099C282.074 790.722 283.497 790.326 284.897 789.912C287.233 789.231 289.32 788.573 291.292 787.897C292.513 787.509 293.726 787.087 295.094 786.581C295.813 786.328 296.451 786.092 297.089 785.859C298.457 785.351 299.759 784.839 301.049 784.316C302.363 783.796 303.627 783.264 304.883 782.712C306.179 782.152 307.435 781.594 308.677 781.017C309.413 780.669 310.143 780.324 310.87 779.965C311.747 779.545 312.563 779.148 313.37 778.729L313.505 778.66C314.345 778.258 315.172 777.821 315.989 777.384C317.21 776.743 318.386 776.108 319.538 775.452L321.8 774.148C322.197 773.915 322.593 773.679 322.987 773.441C324.237 772.693 325.413 771.969 326.585 771.207C327.695 770.515 328.718 769.836 329.741 769.144C330.279 768.779 330.828 768.405 331.365 768.031C331.926 767.649 332.434 767.284 332.943 766.922C335.044 765.422 337.165 763.809 339.298 762.099C339.803 761.703 340.26 761.323 340.729 760.932C341.255 760.501 341.741 760.096 342.218 759.688C343.997 758.165 345.422 756.906 346.698 755.719L347.127 755.317C347.411 755.049 347.696 754.782 347.974 754.512C348.966 753.581 349.883 752.687 350.777 751.781C352.573 749.974 354.361 748.071 356.099 746.122C357.801 744.214 359.479 742.216 361.089 740.19C362.652 738.233 364.222 736.146 365.762 733.976C367.26 731.847 368.725 729.651 370.111 727.461C371.502 725.245 372.858 722.957 374.132 720.672C377.991 713.726 381.383 706.313 384.214 698.642C384.688 697.323 385.148 696.047 385.585 694.751C386.001 693.515 386.418 692.282 386.8 691.023L386.858 690.845C386.93 690.638 386.993 690.434 387.048 690.23L387.117 689.997C387.378 689.187 387.617 688.379 387.855 687.56C388.025 686.979 388.197 686.384 388.355 685.787C388.643 684.801 388.89 683.91 389.114 683.01L389.258 682.49C389.614 681.165 389.95 679.829 390.261 678.481L390.35 678.116C390.643 676.86 390.939 675.535 391.235 674.184C391.517 672.819 391.81 671.382 392.08 669.936C392.35 668.548 392.592 667.177 392.819 665.806C392.83 665.728 392.845 665.656 392.856 665.582L392.888 665.381C393.069 664.329 393.23 663.265 393.379 662.193L393.399 662.049C393.471 661.633 393.543 661.207 393.595 660.779C393.799 659.4 393.963 658.146 394.112 656.896C394.23 655.965 394.333 655.045 394.425 654.14L394.448 653.95C394.489 653.646 394.526 653.347 394.555 653.036L394.785 650.726C394.857 649.967 394.923 649.283 394.966 648.599L394.98 648.423C395.046 647.768 395.089 647.104 395.132 646.437C395.219 645.429 395.288 644.503 395.334 643.581L395.345 643.385C395.365 643.181 395.382 642.968 395.391 642.764C395.466 641.457 395.535 640.215 395.584 638.948L395.618 638.036C395.69 636.415 395.736 634.794 395.759 633.182C395.796 631.619 395.808 630.081 395.808 628.543C395.808 626.589 395.785 624.62 395.736 622.628C395.736 622.1 395.725 621.683 395.704 621.269C395.656 619.628 395.607 618.067 395.526 616.481C395.512 615.929 395.489 615.486 395.46 615.058L395.311 612.379C395.181 610.146 395.015 607.861 394.816 605.599C394.767 605.01 394.724 604.456 394.667 603.898C394.589 602.938 394.509 602.079 394.417 601.219L394.368 600.728C394.345 600.472 394.319 600.219 394.287 599.963L394.247 599.578C393.707 594.391 393.011 589.071 392.178 583.762C389.594 567.285 386.056 544.723 381.331 522.625C372.281 480.131 360.497 447.053 345.299 421.5C343.968 419.261 342.726 417.263 341.502 415.392C341.051 414.685 340.631 414.039 340.2 413.403C339.298 412.041 338.395 410.733 337.484 409.434C336.57 408.135 335.633 406.859 334.687 405.583C333.641 404.195 332.558 402.795 331.448 401.418C330.448 400.154 329.35 398.829 328.066 397.337C325.634 394.521 323.3 392 320.935 389.635C295.554 364.165 263.956 351.786 224.328 351.786C116.179 351.786 82.8685 449.252 67.2162 522.564C62.6521 543.922 59.4101 564.497 56.4814 583.739C55.6566 589.186 54.9754 594.563 54.4581 599.725L54.4236 600.075C54.3891 600.366 54.3632 600.665 54.3374 600.958L54.3144 601.225C54.162 602.797 54.0327 604.361 53.9149 605.924C53.8517 606.72 53.7913 607.505 53.7367 608.287L53.57 610.885C53.4407 612.836 53.3487 614.774 53.2768 616.696C53.251 617.199 53.228 617.639 53.2194 618.082C53.1159 621.053 53.0641 624.126 53.0641 627.259C53.0641 628.845 53.0757 630.417 53.1101 631.981C53.136 633.369 53.1705 634.72 53.228 636.085L53.2308 636.292C53.2308 636.493 53.2423 636.691 53.251 636.901C53.3516 639.508 53.4809 641.856 53.6505 644.13C54.2023 652.292 55.1939 660.311 56.6022 667.993C56.697 668.574 56.7803 669.082 56.8867 669.577L56.9183 669.746C57.0764 670.649 57.2575 671.537 57.45 672.425L57.4874 672.626C57.5535 673.008 57.6397 673.382 57.7317 673.764L57.7834 673.994C57.9386 674.81 58.1168 675.624 58.3065 676.437L58.4387 677C58.5853 677.641 58.7318 678.277 58.8985 678.909L58.9704 679.228C59.0336 679.55 59.117 679.877 59.2061 680.208C59.4705 681.263 59.7119 682.22 59.9763 683.177L60.0338 683.404C60.0913 683.665 60.1574 683.936 60.2436 684.217C60.5281 685.249 60.7696 686.131 61.0254 687.005C61.1691 687.523 61.3042 687.968 61.4364 688.413C61.7813 689.586 62.1261 690.71 62.4912 691.825C62.8935 693.101 63.2988 694.3 63.7126 695.489L63.8736 695.955C64.1754 696.869 64.4973 697.772 64.8422 698.674L64.9111 698.867C65.0175 699.186 65.1324 699.51 65.2589 699.829C65.6929 700.999 66.1068 702.08 66.5436 703.149C66.9747 704.241 67.3886 705.256 67.8312 706.273L67.9404 706.54C68.0267 706.779 68.1301 707.023 68.2508 707.276L68.3227 707.437C68.6762 708.273 69.0412 709.11 69.4206 709.932C69.5758 710.288 69.6965 710.561 69.8373 710.834L69.9552 711.076C70.3029 711.852 70.6622 712.628 71.0445 713.404L71.1479 713.634C71.2859 713.953 71.4439 714.263 71.6106 714.582C72.0044 715.395 72.3637 716.114 72.743 716.83L72.8408 717.022C73.0161 717.39 73.1972 717.761 73.4098 718.129L73.5133 718.318C73.8611 718.991 74.2088 719.655 74.5796 720.316L74.6601 720.465C74.8296 720.793 75.0049 721.132 75.2004 721.46L75.2981 721.632C75.5654 722.121 75.8413 722.607 76.1201 723.095L76.6719 724.069C76.7811 724.259 76.8903 724.452 77.0139 724.647C77.6232 725.676 78.1751 726.581 78.7269 727.487C80.0547 729.631 81.4544 731.772 82.8771 733.827C83.5726 734.842 84.271 735.816 84.978 736.79L85.1189 736.994C85.1562 737.052 85.2051 737.109 85.2539 737.167L85.4293 737.394C86.0472 738.244 86.6795 739.081 87.3204 739.906C88.8437 741.88 90.4446 743.843 92.0857 745.754C94.5861 748.666 97.282 751.54 100.113 754.319L101.116 755.285C110.172 763.991 120.502 771.515 131.814 777.648C138.672 781.37 146.038 784.647 153.703 787.391L154.563 787.696C155.569 788.047 156.583 788.397 157.603 788.734L157.963 788.854V788.854ZM221.989 807.976C217.632 807.976 213.263 807.866 208.969 807.645L208.101 807.599C207.523 807.567 206.943 807.536 206.368 807.496C205.589 807.452 204.736 807.389 203.882 807.326C203.031 807.266 202.186 807.202 201.344 807.128C200.542 807.07 199.674 806.996 198.818 806.906C195.961 806.639 192.955 806.297 189.934 805.892C189.187 805.794 188.434 805.682 187.684 805.567C186.778 805.435 185.867 805.3 184.945 805.153C184.321 805.056 183.677 804.952 183.033 804.84C182.252 804.711 181.401 804.564 180.55 804.415L178.458 804.015C178.032 803.94 177.518 803.834 177.003 803.731L176.276 803.587C175.526 803.44 174.776 803.279 174.026 803.118C173.244 802.949 172.497 802.788 171.753 802.615C171.054 802.463 170.284 802.282 169.516 802.092C168.275 801.796 166.993 801.474 165.714 801.144C165.628 801.127 165.395 801.063 165.159 800.994C163.745 800.621 162.308 800.224 160.886 799.802C158.713 799.172 156.733 798.563 154.859 797.948C154.732 797.913 154.588 797.867 154.43 797.807C153.419 797.471 152.413 797.123 151.415 796.778L151.286 796.732H147.291L147.288 795.266C140.298 792.611 133.567 789.533 127.233 786.095C115.443 779.703 104.651 771.891 95.1379 762.861L92.968 761.964L92.9651 760.766C90.0939 757.926 87.352 754.992 84.797 752.02C83.0467 749.979 81.3394 747.884 79.7242 745.792C79.0574 744.935 78.3935 744.056 77.7411 743.162C77.5227 742.892 77.3215 742.622 77.1404 742.352C76.4018 741.337 75.6775 740.32 74.9647 739.279C73.4587 737.106 71.967 734.824 70.5386 732.516C69.9494 731.551 69.3717 730.605 68.8055 729.648C68.682 729.453 68.5038 729.145 68.3313 728.843L67.7622 727.837C67.4748 727.332 67.1874 726.829 66.9115 726.323C66.6385 725.863 66.3884 725.394 66.1528 724.935C65.7619 724.233 65.3911 723.532 65.0232 722.822C64.7243 722.293 64.457 721.77 64.207 721.244C63.7903 720.454 63.3936 719.663 63.0114 718.873C62.8102 718.482 62.5802 718.022 62.3704 717.545C61.9738 716.738 61.6002 715.93 61.2352 715.12C61.0196 714.691 60.8242 714.263 60.6431 713.849C60.281 713.056 59.8901 712.165 59.5107 711.271C59.3067 710.837 59.1314 710.415 58.9733 710.004C58.5048 708.923 58.0651 707.839 57.6282 706.736C57.1741 705.624 56.7229 704.445 56.2831 703.27C56.1423 702.908 55.9813 702.459 55.8319 702.014C55.4784 701.088 55.145 700.16 54.8346 699.226C54.7254 698.973 54.6363 698.711 54.5644 698.438C54.1419 697.225 53.7338 696.004 53.3458 694.768C52.9635 693.616 52.587 692.388 52.2249 691.147C52.0783 690.664 51.926 690.149 51.7823 689.632C51.5323 688.776 51.2707 687.833 51.0121 686.879C50.9028 686.531 50.7879 686.083 50.6844 685.637C50.4114 684.64 50.1585 683.64 49.9055 682.628C49.7877 682.2 49.667 681.705 49.5693 681.217C49.3911 680.533 49.233 679.849 49.0721 679.159L48.9484 678.621C48.7386 677.725 48.5432 676.825 48.3679 675.923C48.2414 675.397 48.1265 674.879 48.0345 674.351C47.8304 673.402 47.6379 672.451 47.4683 671.488C47.3418 670.882 47.2384 670.266 47.1349 669.649C45.6749 661.684 44.6373 653.304 44.0654 644.808C43.8901 642.454 43.7521 639.994 43.6486 637.321C43.6371 636.996 43.6256 636.697 43.6228 636.404C43.5624 634.99 43.525 633.587 43.502 632.17C43.4676 630.564 43.4532 628.917 43.4532 627.259C43.4532 624.017 43.5078 620.832 43.6141 617.794C43.6256 617.323 43.6486 616.803 43.6745 616.282C43.7463 614.325 43.847 612.296 43.9792 610.256L43.9849 610.189L42.2202 608.422L44.2493 606.258C44.2781 605.901 44.3068 605.542 44.3327 605.186C44.4534 603.605 44.5827 602.007 44.7408 600.397L44.7466 600.328C44.7839 599.874 44.8213 599.481 44.8615 599.101L44.8701 599.009C45.4076 593.615 46.1175 587.99 46.9797 582.296C49.9314 562.908 53.1992 542.171 57.8179 520.555C69.0613 467.893 84.9206 428.441 106.304 399.944C135.068 361.612 174.776 342.175 224.328 342.175C266.051 342.175 300.845 355.858 327.735 382.846C330.261 385.37 332.75 388.06 335.343 391.06C336.722 392.664 337.904 394.09 338.961 395.429C340.108 396.852 341.258 398.335 342.384 399.829C343.399 401.197 344.385 402.542 345.348 403.91C346.307 405.278 347.256 406.658 348.181 408.052C348.635 408.722 349.107 409.443 349.575 410.179C350.846 412.119 352.159 414.234 353.559 416.591C369.3 443.058 381.46 477.085 390.729 520.618C395.509 542.973 399.07 565.687 401.671 582.27C402.545 587.829 403.269 593.402 403.832 598.837V598.848C403.87 599.167 403.904 599.483 403.933 599.802L403.973 600.213C404.074 601.145 404.163 602.087 404.238 603.03C404.292 603.55 404.344 604.171 404.393 604.792C404.597 607.117 404.769 609.497 404.904 611.833L405.057 614.532C405.091 615.061 405.114 615.601 405.129 616.116C405.209 617.639 405.258 619.272 405.307 620.893C405.333 621.372 405.344 621.944 405.344 622.513C405.393 624.468 405.419 626.511 405.419 628.543C405.419 630.156 405.404 631.765 405.367 633.363C405.344 635.03 405.295 636.746 405.22 638.436L405.186 639.318C405.137 640.635 405.062 641.939 404.991 643.244C404.979 643.5 404.953 643.822 404.927 644.138C404.876 645.153 404.801 646.167 404.715 647.17C404.672 647.823 404.623 648.567 404.551 649.3C404.499 650.053 404.43 650.806 404.358 651.559L404.123 653.933C404.085 654.341 404.036 654.741 403.985 655.155C403.887 656.1 403.775 657.103 403.648 658.08C403.49 659.388 403.318 660.73 403.12 662.061C403.071 662.486 402.979 663.038 402.887 663.581C402.732 664.711 402.562 665.826 402.372 666.933L402.338 667.139L402.312 667.309C402.065 668.792 401.806 670.278 401.522 671.735C401.246 673.207 400.941 674.701 400.633 676.184C400.317 677.633 400.013 678.995 399.694 680.363L399.607 680.72C399.286 682.108 398.923 683.556 398.535 684.993C398.507 685.117 398.461 685.292 398.403 685.482C398.159 686.453 397.889 687.416 397.61 688.379C397.46 688.934 397.274 689.589 397.084 690.241C396.825 691.127 396.57 691.989 396.294 692.851C396.196 693.199 396.09 693.547 395.972 693.891C395.566 695.225 395.127 696.533 394.687 697.829C394.233 699.177 393.753 700.513 393.273 701.85C390.229 710.098 386.628 717.962 382.53 725.346C381.17 727.786 379.727 730.217 378.241 732.582C376.764 734.922 375.206 737.253 373.608 739.521C371.956 741.851 370.274 744.087 368.605 746.18C366.892 748.338 365.095 750.474 363.27 752.517C361.419 754.595 359.514 756.621 357.605 758.544C356.634 759.527 355.631 760.507 354.614 761.461C354.355 761.711 354.03 762.016 353.702 762.324L353.271 762.732C351.86 764.039 350.346 765.382 348.466 766.991C347.934 767.445 347.388 767.902 346.842 768.348C346.339 768.764 345.813 769.201 345.273 769.627C343.04 771.417 340.772 773.139 338.57 774.708C337.97 775.139 337.398 775.55 336.814 775.947C336.288 776.312 335.708 776.708 335.13 777.102C334.003 777.864 332.888 778.602 331.747 779.315C330.532 780.1 329.258 780.89 327.956 781.663C327.568 781.902 327.12 782.166 326.677 782.428L324.326 783.784C323.047 784.514 321.771 785.201 320.484 785.877C319.604 786.348 318.679 786.834 317.739 787.288C316.862 787.742 315.971 788.176 315.069 788.607C314.33 788.972 313.546 789.346 312.747 789.719C311.416 790.343 310.074 790.938 308.723 791.524C307.389 792.108 306.013 792.685 304.625 793.234C303.282 793.78 301.894 794.327 300.492 794.847C299.724 795.128 299.037 795.381 298.353 795.623C296.922 796.152 295.571 796.62 294.304 797.022C292.295 797.712 290.067 798.413 287.598 799.135C286.147 799.56 284.664 799.98 283.181 800.385L278.548 801.566C276.473 802.081 274.243 802.584 271.736 803.107C267.793 803.917 263.807 804.633 259.875 805.231C257.354 805.616 254.883 805.946 252.526 806.217C248.726 806.668 244.714 807.044 240.624 807.329C239.61 807.412 238.523 807.475 237.428 807.536C236.569 807.585 235.704 807.634 234.827 807.671L232.347 807.78C229.714 807.878 227.041 807.941 224.371 807.964C223.578 807.973 222.782 807.976 221.989 807.976" fill="#6B184E"/>
<path d="M221.888 798.368C217.732 798.368 213.565 798.259 209.495 798.052L208.607 798.003C208.095 797.974 207.578 797.949 206.994 797.905C206.19 797.859 205.385 797.802 204.574 797.742C203.773 797.684 202.982 797.627 202.114 797.549C201.335 797.494 200.571 797.428 199.763 797.342C196.981 797.083 194.104 796.756 191.196 796.365C190.494 796.273 189.802 796.169 189.095 796.063C188.215 795.934 187.347 795.807 186.453 795.664C185.87 795.572 185.286 795.48 184.645 795.368C183.841 795.235 183.027 795.092 182.208 794.948L181.53 794.819L165.096 778.388L195.714 747.77C204.163 748.707 212.944 749.187 222.049 749.187C222.808 749.187 223.563 749.181 224.328 749.175C234.175 749.089 243.656 748.48 252.764 747.365L283.779 778.379L268.126 794.031C264.896 794.669 261.642 795.241 258.426 795.73C256.026 796.098 253.672 796.411 251.413 796.67C247.743 797.106 243.889 797.469 239.903 797.747C238.908 797.828 237.902 797.885 236.882 797.943C236.063 797.989 235.247 798.035 234.416 798.072L231.956 798.178C229.444 798.27 226.863 798.331 224.282 798.354C223.486 798.362 222.687 798.368 221.888 798.368V798.368ZM165.705 791.189C164.998 790.99 164.294 790.789 163.584 790.579C161.541 789.987 159.698 789.424 157.962 788.855L157.603 788.734C156.888 788.499 156.178 788.257 155.471 788.013L159 784.483L165.705 791.189ZM284.247 790.102L289.874 784.475L292.8 787.401C292.292 787.573 291.791 787.74 291.291 787.898C289.32 788.573 287.233 789.231 284.897 789.913C284.681 789.976 284.465 790.039 284.247 790.102V790.102ZM146.621 784.67C141.491 782.558 136.533 780.21 131.814 777.649C120.502 771.516 110.172 763.991 101.116 755.286L100.113 754.32C97.2818 751.541 94.586 748.667 92.0855 745.755C90.4444 743.844 88.8435 741.881 87.3203 739.906C86.6793 739.081 86.0471 738.245 85.4291 737.394L85.2538 737.167C85.2049 737.11 85.1561 737.052 85.1187 736.995L84.9779 736.791C84.2709 735.816 83.5724 734.842 82.8769 733.828C82.3193 733.023 81.7675 732.207 81.2214 731.382L93.5599 719.04L152.904 778.388L146.621 784.67ZM301.661 784.07L295.97 778.379L355.309 719.04L367.59 731.321C366.986 732.215 366.377 733.1 365.762 733.977C364.221 736.147 362.652 738.234 361.089 740.191C359.479 742.217 357.801 744.215 356.099 746.123C354.36 748.072 352.573 749.974 350.776 751.782C349.883 752.687 348.966 753.581 347.974 754.512C347.695 754.783 347.411 755.05 347.126 755.317L346.698 755.72C345.422 756.907 343.996 758.165 342.217 759.689C341.74 760.097 341.255 760.502 340.729 760.933C340.26 761.324 339.803 761.703 339.297 762.1C337.165 763.81 335.044 765.422 332.943 766.923C332.434 767.285 331.925 767.65 331.365 768.032C330.827 768.406 330.278 768.779 329.741 769.144C328.718 769.837 327.695 770.515 326.585 771.208C325.413 771.97 324.237 772.694 322.987 773.441C322.593 773.68 322.196 773.915 321.8 774.148L319.538 775.453C318.385 776.108 317.21 776.744 315.988 777.384C315.172 777.821 314.344 778.258 313.505 778.661L313.37 778.73C312.563 779.149 311.746 779.546 310.87 779.965C310.143 780.325 309.413 780.67 308.677 781.017C307.435 781.595 306.179 782.153 304.883 782.713C303.825 783.179 302.759 783.63 301.661 784.07V784.07ZM159 772.289L99.6559 712.944L103.039 709.565C124.511 728.235 152.005 740.938 184.985 746.304L159 772.289V772.289ZM289.874 772.283L263.401 745.81C296.292 740.174 323.884 727.637 345.494 709.225L349.213 712.944L289.874 772.283V772.283ZM76.5511 723.857L76.1199 723.096C75.8412 722.607 75.5653 722.121 75.298 721.633L75.2002 721.46C75.0048 721.133 74.8295 720.794 74.6599 720.466L74.5794 720.317C74.2087 719.655 73.8609 718.992 73.5131 718.319L73.4097 718.129C73.197 717.761 73.0159 717.391 72.8406 717.023L72.7429 716.83C72.3635 716.115 72.0042 715.396 71.6105 714.583C71.4438 714.264 71.2857 713.953 71.1478 713.634L71.0443 713.404C70.6621 712.628 70.3028 711.852 69.955 711.076L69.8372 710.835C69.6964 710.562 69.5757 710.289 69.4205 709.932C69.0411 709.11 68.6761 708.274 68.3225 707.438L68.2507 707.277C68.13 707.024 68.0265 706.78 67.9403 706.541L67.8311 706.274C67.3885 705.256 66.9746 704.242 66.5435 703.15C66.1066 702.08 65.6927 701 65.2588 699.83C65.1323 699.511 65.0173 699.186 64.911 698.867L64.842 698.675C64.4971 697.772 64.1752 696.87 63.8735 695.956L63.7125 695.49C63.2986 694.3 62.8934 693.102 62.491 691.826C62.126 690.711 61.7811 689.587 61.4362 688.414C61.304 687.969 61.1689 687.523 61.0252 687.006C60.9591 686.773 60.893 686.543 60.824 686.307L87.464 712.944L76.5511 723.857V723.857ZM372.309 723.849L361.405 712.944L388.277 686.072C388.142 686.572 387.996 687.072 387.855 687.561C387.616 688.38 387.378 689.187 387.116 689.998L387.047 690.231C386.993 690.435 386.93 690.639 386.858 690.846L386.8 691.024C386.418 692.283 386.001 693.516 385.584 694.752C385.148 696.048 384.688 697.324 384.214 698.643C381.383 706.314 377.991 713.726 374.131 720.673C373.539 721.733 372.93 722.794 372.309 723.849V723.849ZM355.309 706.849L351.894 703.434C372.519 683.617 386.955 657.897 394.503 627.354L395.808 628.659C395.808 630.156 395.796 631.657 395.759 633.183C395.736 634.795 395.69 636.416 395.618 638.037L395.583 638.948C395.535 640.216 395.466 641.457 395.391 642.765C395.382 642.969 395.365 643.182 395.345 643.386L395.333 643.581C395.287 644.504 395.218 645.429 395.132 646.438C395.089 647.105 395.046 647.769 394.98 648.424L394.966 648.599C394.922 649.283 394.856 649.967 394.784 650.726L394.554 653.037C394.526 653.347 394.488 653.646 394.448 653.951L394.425 654.141C394.333 655.046 394.23 655.966 394.112 656.897C393.962 658.147 393.799 659.4 393.595 660.78C393.543 661.208 393.471 661.633 393.399 662.05L393.379 662.194C393.23 663.266 393.069 664.329 392.888 665.381L392.856 665.582C392.844 665.657 392.83 665.729 392.819 665.807C392.591 667.178 392.35 668.548 392.08 669.937C392.068 669.994 392.06 670.052 392.048 670.109L355.309 706.849V706.849ZM93.5599 706.849L57.0216 670.31C56.9871 670.123 56.9527 669.937 56.9182 669.747L56.8865 669.577C56.7802 669.083 56.6969 668.574 56.602 667.994C55.1937 660.311 54.2022 652.293 53.6503 644.13C53.4808 641.857 53.3514 639.509 53.2508 636.902C53.2422 636.692 53.2307 636.494 53.2307 636.293L53.2278 636.086C53.1704 634.72 53.1359 633.37 53.11 631.981C53.0841 630.881 53.0726 629.777 53.0669 628.668L54.5097 627.225C62.0312 657.71 76.278 683.672 96.6984 703.707L93.5599 706.849" fill="#C99618"/>
<path d="M395.808 628.658L394.503 627.353C394.935 625.6 395.343 623.841 395.731 622.057C395.734 622.235 395.736 622.422 395.736 622.628C395.785 624.62 395.808 626.589 395.808 628.543V628.658ZM367.591 731.321L355.31 719.04L361.405 712.944L372.31 723.848C371.591 725.067 370.855 726.274 370.111 727.461C369.295 728.751 368.453 730.042 367.591 731.321ZM349.214 712.944L345.495 709.225C347.687 707.357 349.826 705.422 351.895 703.433L355.31 706.848L349.214 712.944ZM292.801 787.4L289.875 784.474L295.971 778.378L301.662 784.069C301.461 784.152 301.254 784.233 301.05 784.316C299.759 784.839 298.457 785.351 297.089 785.859C296.451 786.092 295.813 786.328 295.095 786.581C294.287 786.88 293.534 787.15 292.801 787.4ZM283.779 778.378L252.765 747.364C256.372 746.924 259.913 746.404 263.402 745.809L289.875 772.282L283.779 778.378V778.378ZM181.531 794.818L180.252 794.574C179.803 794.493 179.355 794.404 178.907 794.312L178.128 794.157C177.429 794.019 176.731 793.869 176.018 793.717C175.323 793.568 174.627 793.415 173.863 793.237C173.187 793.093 172.515 792.935 171.793 792.754C170.563 792.461 169.345 792.156 167.997 791.809L167.658 791.717C167.005 791.541 166.356 791.366 165.706 791.188L159.001 784.483L165.097 778.387L181.531 794.818ZM152.905 778.387L93.5607 719.04L99.6567 712.944L159.001 772.288L152.905 778.387V778.387ZM87.4648 712.944L60.8249 686.307C60.6409 685.654 60.4512 684.976 60.2443 684.217C60.1581 683.936 60.092 683.665 60.0345 683.404L59.977 683.177C59.7126 682.22 59.4712 681.263 59.2068 680.208C59.1177 679.877 59.0343 679.55 58.9711 679.228L58.8992 678.909C58.7325 678.277 58.586 677.641 58.4394 677L58.3072 676.437C58.1175 675.624 57.9393 674.81 57.7841 673.994L57.7324 673.764C57.6404 673.382 57.5542 673.008 57.4881 672.626L57.4507 672.425C57.2984 671.721 57.1547 671.019 57.0225 670.31L93.5607 706.848L87.4648 712.944Z" fill="#AD7028"/>
<path d="M268.127 794.03L283.779 778.378L289.875 772.282L349.214 712.944L355.31 706.848L392.049 670.108C391.787 671.496 391.506 672.873 391.236 674.184C390.94 675.534 390.644 676.859 390.35 678.115L390.261 678.48C389.951 679.828 389.615 681.165 389.258 682.49L389.115 683.01C388.89 683.91 388.643 684.801 388.356 685.786L388.278 686.071L361.405 712.944L355.31 719.04L295.971 778.378L289.875 784.474L284.248 790.101C283.061 790.446 281.862 790.783 280.695 791.099L276.246 792.237C274.28 792.723 272.165 793.2 269.788 793.697C269.236 793.809 268.682 793.921 268.127 794.03V794.03ZM155.471 788.012C155.169 787.906 154.865 787.802 154.563 787.696L153.704 787.391C151.312 786.535 148.95 785.626 146.622 784.669L152.905 778.387L159.001 772.288L184.985 746.303C188.5 746.875 192.078 747.364 195.714 747.769L165.097 778.387L159.001 784.483L155.471 788.012V788.012ZM81.2219 731.381C80.3712 730.096 79.5348 728.791 78.7272 727.486C78.1754 726.581 77.6235 725.676 77.0142 724.647C76.8907 724.451 76.7815 724.259 76.6722 724.069L76.5515 723.856L87.4644 712.944L93.5604 706.848L96.6989 703.706C98.751 705.721 100.863 707.673 103.039 709.564L99.6563 712.944L93.5604 719.04L81.2219 731.381V731.381ZM53.0673 628.667C53.0645 628.198 53.0645 627.73 53.0645 627.258C53.0645 625.221 53.0846 623.209 53.1306 621.234C53.5617 623.249 54.0215 625.246 54.5101 627.224L53.0673 628.667" fill="#AD7028"/>
<path d="M221.94 803.17C217.624 803.17 213.387 803.061 209.217 802.848C208.386 802.799 207.547 802.762 206.716 802.704C205.889 802.655 205.061 802.595 204.23 802.535C203.403 802.474 202.586 802.414 201.767 802.342C200.939 802.282 200.123 802.21 199.318 802.127C196.364 801.851 193.444 801.514 190.573 801.129C189.84 801.034 189.118 800.925 188.397 800.816C187.497 800.684 186.609 800.552 185.707 800.408C185.095 800.313 184.482 800.215 183.87 800.109C182.994 799.965 182.103 799.807 181.215 799.652C180.614 799.531 180.002 799.422 179.401 799.304C178.668 799.172 177.935 799.014 177.202 798.87C176.469 798.727 175.737 798.571 175.004 798.413C174.282 798.258 173.564 798.103 172.842 797.933C172.121 797.778 171.4 797.609 170.678 797.43C169.419 797.129 168.169 796.815 166.919 796.493C166.764 796.456 166.594 796.407 166.427 796.361C165.022 795.988 163.628 795.602 162.246 795.194C160.217 794.62 158.21 793.993 156.242 793.343C156.193 793.332 156.144 793.32 156.095 793.297C154.75 792.852 153.416 792.395 152.097 791.926L152.083 791.915C144.133 789.081 136.612 785.73 129.524 781.873C117.717 775.481 107.109 767.735 97.7885 758.748L97.7626 758.737C94.4947 755.601 91.385 752.31 88.4419 748.887C86.7347 746.927 85.1022 744.909 83.5272 742.857C82.8547 741.992 82.1936 741.115 81.547 740.225C81.3774 740.02 81.2222 739.816 81.09 739.612C80.3571 738.604 79.6357 737.595 78.9287 736.56C77.4255 734.422 75.9971 732.226 74.6262 729.99C74.0629 729.064 73.4967 728.142 72.9448 727.205C72.7408 726.88 72.5597 726.555 72.3815 726.242C71.9475 725.475 71.5049 724.704 71.0824 723.937C70.8324 723.515 70.6025 723.083 70.3869 722.664C69.9903 721.954 69.6166 721.244 69.2459 720.526C68.97 720.046 68.7286 719.563 68.5015 719.083C68.0934 718.315 67.7082 717.545 67.3346 716.778C67.1191 716.355 66.915 715.947 66.7339 715.527C66.3258 714.7 65.9407 713.869 65.5699 713.041C65.3774 712.668 65.2078 712.297 65.0526 711.935C64.656 711.07 64.2708 710.193 63.9001 709.317C63.719 708.931 63.5638 708.561 63.4316 708.199C62.9631 707.129 62.5291 706.06 62.098 704.968C61.641 703.85 61.2099 702.721 60.7874 701.594C60.6322 701.197 60.4885 700.789 60.3563 700.393C59.9827 699.418 59.6349 698.447 59.3101 697.461C59.2383 697.329 59.2038 697.197 59.1779 697.076C58.7468 695.84 58.3272 694.59 57.9306 693.328C57.5455 692.164 57.1833 690.986 56.8356 689.796C56.6919 689.316 56.5482 688.836 56.416 688.356C56.1515 687.453 55.8986 686.542 55.6457 685.617C55.5278 685.22 55.4301 684.835 55.3468 684.461C55.0709 683.467 54.818 682.47 54.565 681.461C54.4472 681.015 54.338 680.57 54.2546 680.139C54.0247 679.274 53.8322 678.409 53.6281 677.532C53.424 676.655 53.2315 675.779 53.0648 674.899C52.944 674.408 52.8348 673.928 52.7515 673.436C52.5474 672.485 52.3549 671.537 52.1882 670.577C52.0674 670.011 51.9697 669.436 51.8749 668.858C50.4321 660.989 49.4233 652.858 48.86 644.486C48.6789 642.057 48.5467 639.608 48.4518 637.134C48.4404 636.844 48.426 636.568 48.426 636.292C48.3685 634.886 48.3311 633.492 48.3081 632.087C48.2708 630.489 48.2593 628.88 48.2593 627.259C48.2593 624.183 48.3081 621.085 48.4145 617.961C48.426 617.481 48.4518 617.001 48.4748 616.518C48.5467 614.549 48.6444 612.566 48.7766 610.574C48.8226 609.827 48.8715 609.083 48.9203 608.327V608.304C48.9807 607.39 49.0525 606.476 49.1244 605.565C49.2451 603.967 49.3773 602.369 49.5325 600.759V600.748C49.5699 600.34 49.6044 599.917 49.6532 599.509C49.6934 599.891 49.7366 600.268 49.7797 600.644C49.7366 601.058 49.6934 601.472 49.6532 601.889V601.912C49.6044 602.32 49.5699 602.74 49.5325 603.151V603.162C49.6532 603.412 49.7596 603.642 49.8803 603.884L49.8918 603.895C50.0211 604.168 50.1504 604.441 50.2855 604.711C50.4695 606.102 50.6678 607.488 50.8776 608.867V608.879C51.5128 613.069 52.2658 617.191 53.1309 621.234C53.0849 623.209 53.0648 625.221 53.0648 627.259C53.0648 627.73 53.0648 628.198 53.0676 628.667C53.0734 629.776 53.0849 630.88 53.1108 631.981C53.1366 633.369 53.1711 634.72 53.2286 636.085L53.2315 636.292C53.2315 636.493 53.243 636.691 53.2516 636.901C53.3522 639.508 53.4815 641.856 53.6511 644.129C54.2029 652.292 55.1945 660.311 56.6028 667.993C56.6976 668.574 56.781 669.082 56.8873 669.577L56.9189 669.746C56.9534 669.936 56.9879 670.123 57.0224 670.309C57.1546 671.019 57.2983 671.721 57.4506 672.425L57.488 672.626C57.5541 673.008 57.6403 673.382 57.7323 673.764L57.784 673.994C57.9392 674.81 58.1174 675.624 58.3071 676.437L58.4393 677C58.5859 677.641 58.7325 678.276 58.8992 678.909L58.971 679.228C59.0342 679.55 59.1176 679.877 59.2067 680.208C59.4711 681.263 59.7125 682.22 59.9769 683.177L60.0344 683.404C60.0919 683.665 60.158 683.936 60.2442 684.217C60.4512 684.976 60.6409 685.654 60.8248 686.307C60.8938 686.542 60.9599 686.772 61.026 687.005C61.1697 687.522 61.3048 687.968 61.437 688.413C61.7819 689.586 62.1268 690.71 62.4918 691.825C62.8941 693.101 63.2994 694.299 63.7133 695.489L63.8742 695.955C64.176 696.869 64.4979 697.771 64.8428 698.674L64.9118 698.866C65.0181 699.185 65.133 699.51 65.2595 699.829C65.6935 700.999 66.1074 702.08 66.5442 703.149C66.9753 704.241 67.3892 705.256 67.8318 706.273L67.9411 706.54C68.0273 706.779 68.1307 707.023 68.2515 707.276L68.3233 707.437C68.6768 708.273 69.0418 709.11 69.4212 709.932C69.5764 710.288 69.6971 710.561 69.838 710.834L69.9558 711.076C70.3035 711.852 70.6628 712.628 71.0451 713.404L71.1485 713.633C71.2865 713.952 71.4445 714.263 71.6112 714.582C72.005 715.395 72.3643 716.114 72.7436 716.829L72.8414 717.022C73.0167 717.39 73.1978 717.761 73.4104 718.129L73.5139 718.318C73.8617 718.991 74.2094 719.655 74.5802 720.316L74.6607 720.465C74.8302 720.793 75.0056 721.132 75.201 721.46L75.2987 721.632C75.566 722.121 75.8419 722.606 76.1207 723.095L76.5518 723.857L76.6725 724.069C76.7817 724.259 76.8909 724.452 77.0145 724.647C77.6238 725.676 78.1757 726.581 78.7275 727.487C79.5351 728.791 80.3715 730.096 81.2222 731.381C81.7683 732.206 82.3201 733.022 82.8777 733.827C83.5732 734.841 84.2716 735.816 84.9786 736.79L85.1195 736.994C85.1568 737.052 85.2057 737.109 85.2545 737.167L85.4299 737.394C86.0478 738.244 86.6801 739.081 87.321 739.906C88.8443 741.88 90.4452 743.843 92.0863 745.754C94.5867 748.666 97.2826 751.54 100.114 754.319L101.117 755.285C110.173 763.99 120.502 771.515 131.815 777.648C136.534 780.209 141.492 782.557 146.622 784.669C148.95 785.626 151.313 786.535 153.704 787.391L154.563 787.696C154.865 787.802 155.17 787.906 155.471 788.012C156.178 788.256 156.888 788.498 157.604 788.733L157.963 788.854C159.699 789.423 161.541 789.986 163.585 790.579C164.295 790.788 164.999 790.99 165.706 791.188C166.356 791.366 167.005 791.541 167.658 791.717L167.997 791.809C169.345 792.156 170.563 792.461 171.793 792.754C172.515 792.935 173.187 793.093 173.863 793.237C174.627 793.415 175.323 793.568 176.018 793.717C176.731 793.869 177.429 794.019 178.128 794.157L178.907 794.312C179.355 794.404 179.803 794.493 180.252 794.574L181.531 794.818L182.209 794.947C183.028 795.091 183.842 795.235 184.646 795.367C185.287 795.479 185.871 795.571 186.454 795.663C187.348 795.807 188.216 795.933 189.095 796.062C189.802 796.169 190.495 796.272 191.196 796.364C194.105 796.755 196.982 797.083 199.764 797.341C200.572 797.428 201.336 797.494 202.115 797.548C202.983 797.626 203.773 797.683 204.575 797.741C205.386 797.801 206.19 797.859 206.995 797.905C207.579 797.948 208.096 797.974 208.608 798.002L209.496 798.051C213.565 798.258 217.733 798.367 221.889 798.367C222.688 798.367 223.487 798.362 224.283 798.353C226.864 798.33 229.445 798.27 231.957 798.178L234.417 798.071C235.247 798.034 236.064 797.988 236.883 797.942C237.903 797.884 238.909 797.827 239.903 797.747C243.89 797.468 247.744 797.106 251.414 796.669C253.673 796.41 256.027 796.097 258.427 795.729C261.643 795.24 264.897 794.668 268.127 794.03C268.682 793.921 269.236 793.809 269.788 793.697C272.165 793.2 274.28 792.723 276.246 792.237L280.695 791.099C281.862 790.783 283.061 790.446 284.248 790.101C284.466 790.038 284.682 789.975 284.897 789.912C287.234 789.231 289.321 788.572 291.292 787.897C291.792 787.739 292.292 787.572 292.801 787.4C293.534 787.15 294.287 786.88 295.095 786.581C295.813 786.328 296.451 786.092 297.089 785.859C298.457 785.351 299.759 784.839 301.05 784.316C301.254 784.233 301.461 784.152 301.662 784.069C302.76 783.629 303.826 783.178 304.884 782.712C306.18 782.152 307.436 781.594 308.678 781.016C309.413 780.669 310.143 780.324 310.871 779.965C311.747 779.545 312.563 779.148 313.371 778.729L313.506 778.66C314.345 778.257 315.173 777.82 315.989 777.384C317.211 776.743 318.386 776.108 319.539 775.452L321.801 774.147C322.197 773.915 322.594 773.679 322.988 773.44C324.238 772.693 325.413 771.969 326.586 771.207C327.695 770.515 328.719 769.836 329.742 769.144C330.279 768.779 330.828 768.405 331.366 768.031C331.926 767.649 332.435 767.284 332.944 766.922C335.044 765.422 337.166 763.809 339.298 762.099C339.804 761.703 340.261 761.323 340.729 760.932C341.255 760.501 341.741 760.096 342.218 759.688C343.997 758.165 345.423 756.906 346.699 755.719L347.127 755.316C347.412 755.049 347.696 754.782 347.975 754.512C348.967 753.58 349.883 752.687 350.777 751.781C352.574 749.973 354.361 748.071 356.1 746.122C357.801 744.214 359.48 742.216 361.089 740.19C362.653 738.233 364.222 736.146 365.763 733.976C366.378 733.1 366.987 732.214 367.591 731.321C368.453 730.042 369.295 728.751 370.111 727.461C370.856 726.274 371.591 725.067 372.31 723.848C372.931 722.793 373.54 721.733 374.132 720.672C377.992 713.725 381.383 706.313 384.214 698.642C384.689 697.323 385.148 696.047 385.585 694.751C386.002 693.515 386.419 692.282 386.801 691.023L386.858 690.845C386.93 690.638 386.994 690.434 387.048 690.23L387.117 689.997C387.379 689.186 387.617 688.379 387.856 687.56C387.997 687.071 388.143 686.571 388.278 686.071L388.356 685.786C388.643 684.801 388.89 683.91 389.115 683.01L389.258 682.49C389.615 681.165 389.951 679.828 390.261 678.481L390.35 678.115C390.644 676.86 390.94 675.535 391.236 674.184C391.506 672.873 391.788 671.496 392.049 670.108C392.061 670.051 392.069 669.993 392.081 669.936C392.351 668.548 392.592 667.177 392.819 665.806C392.831 665.728 392.845 665.656 392.857 665.582L392.888 665.38C393.069 664.329 393.23 663.265 393.38 662.193L393.4 662.049C393.472 661.633 393.544 661.207 393.595 660.779C393.799 659.399 393.963 658.146 394.113 656.896C394.231 655.965 394.334 655.045 394.426 654.14L394.449 653.95C394.489 653.646 394.527 653.347 394.555 653.036L394.785 650.725C394.857 649.967 394.923 649.283 394.966 648.599L394.981 648.423C395.047 647.768 395.09 647.104 395.133 646.437C395.219 645.428 395.288 644.503 395.334 643.58L395.346 643.385C395.366 643.181 395.383 642.968 395.392 642.764C395.466 641.457 395.535 640.215 395.584 638.947L395.619 638.036C395.691 636.415 395.737 634.794 395.76 633.182C395.797 631.656 395.808 630.156 395.808 628.658V628.543C395.808 626.589 395.785 624.62 395.737 622.628C395.737 622.421 395.734 622.235 395.731 622.056C396.584 618.13 397.329 614.121 397.958 610.046V610.031C398.438 606.97 398.846 603.858 399.197 600.711C399.292 601.613 399.375 602.513 399.447 603.412C399.507 604.001 399.556 604.591 399.605 605.18C399.809 607.511 399.976 609.827 400.108 612.112C400.145 612.592 400.168 613.061 400.191 613.518C400.229 614.19 400.266 614.863 400.301 615.535C400.312 615.774 400.312 616.004 400.324 616.231C400.41 617.852 400.456 619.45 400.505 621.036C400.528 621.528 400.542 622.022 400.542 622.513C400.588 624.545 400.614 626.549 400.614 628.543C400.614 630.118 400.6 631.69 400.565 633.254C400.542 634.909 400.493 636.579 400.421 638.226L400.384 639.128C400.338 640.425 400.266 641.698 400.191 642.971C400.18 643.247 400.157 643.534 400.134 643.813C400.085 644.796 400.013 645.782 399.927 646.756C399.881 647.475 399.832 648.196 399.76 648.906C399.711 649.662 399.64 650.418 399.568 651.177C399.496 651.944 399.413 652.714 399.341 653.482C399.303 653.867 399.254 654.238 399.208 654.623C399.111 655.571 399.004 656.534 398.884 657.471C398.726 658.767 398.559 660.066 398.366 661.351C398.306 661.854 398.223 662.36 398.139 662.851C397.981 663.981 397.815 665.099 397.622 666.202C397.61 666.312 397.585 666.409 397.573 666.516C397.335 667.958 397.082 669.387 396.806 670.815C396.53 672.293 396.228 673.758 395.929 675.213C395.627 676.584 395.328 677.929 395.015 679.274C394.992 679.369 394.966 679.466 394.943 679.561C394.619 680.967 394.271 682.361 393.897 683.743C393.863 683.887 393.825 684.03 393.779 684.174C393.538 685.134 393.273 686.085 392.998 687.034C392.828 687.657 392.65 688.284 392.469 688.908C392.216 689.773 391.963 690.626 391.687 691.477C391.604 691.79 391.506 692.104 391.4 692.414C391.003 693.725 390.572 695.009 390.138 696.283C389.681 697.639 389.201 698.973 388.721 700.306C385.778 708.285 382.306 715.852 378.331 723.012C376.998 725.403 375.615 727.731 374.172 730.027C372.732 732.309 371.229 734.554 369.68 736.753C368.131 738.94 366.521 741.09 364.852 743.179C363.182 745.283 361.463 747.324 359.687 749.318C357.908 751.313 356.083 753.259 354.197 755.155C353.26 756.107 352.298 757.044 351.326 757.955C350.881 758.389 350.424 758.808 349.967 759.242C348.466 760.633 346.917 761.993 345.342 763.338C344.839 763.769 344.322 764.203 343.805 764.623C343.302 765.042 342.807 765.45 342.304 765.847C340.178 767.554 338.005 769.213 335.78 770.796C335.228 771.193 334.677 771.589 334.11 771.975C333.559 772.36 332.995 772.742 332.429 773.127C331.36 773.848 330.291 774.558 329.199 775.242C327.974 776.036 326.747 776.792 325.5 777.536C324.91 777.898 324.31 778.246 323.721 778.594C323.12 778.941 322.519 779.278 321.918 779.625C320.717 780.312 319.493 780.973 318.254 781.62C317.377 782.088 316.489 782.557 315.587 782.991C314.736 783.434 313.871 783.856 312.994 784.276C312.236 784.646 311.48 785.009 310.71 785.368C309.425 785.969 308.129 786.546 306.818 787.11C305.51 787.687 304.188 788.239 302.855 788.768C301.521 789.308 300.176 789.837 298.819 790.343C298.133 790.593 297.448 790.846 296.764 791.087C295.48 791.556 294.169 792.013 292.847 792.444C290.674 793.188 288.476 793.872 286.254 794.522C284.823 794.941 283.371 795.352 281.917 795.746C281.184 795.939 280.463 796.131 279.718 796.324C278.948 796.516 278.181 796.709 277.399 796.902C275.215 797.43 273.004 797.933 270.757 798.402C266.907 799.195 263.037 799.887 259.151 800.48C256.786 800.828 254.395 801.152 251.98 801.443C248.149 801.897 244.258 802.259 240.291 802.535C239.26 802.618 238.214 802.678 237.159 802.739C236.317 802.788 235.475 802.834 234.624 802.871C233.793 802.908 232.965 802.943 232.135 802.98C229.554 803.075 226.959 803.135 224.329 803.158C223.53 803.167 222.734 803.17 221.94 803.17" fill="#6B184E"/>
<path d="M345.991 636.749H306.734L355.318 588.168L386.875 619.725C376.422 630.233 361.951 636.749 345.991 636.749ZM142.15 636.749H101.967C86.2458 636.749 71.9645 630.426 61.5459 620.188L93.5661 588.168L142.15 636.749V636.749ZM294.841 636.447C290.438 635.998 286.182 635.05 282.126 633.665L246.117 597.655C244.117 591.809 243.03 585.541 243.03 579.028V578.031C243.03 575.444 242.731 572.912 242.136 570.464L289.875 522.725L349.219 582.069L294.841 636.447V636.447ZM153.945 636.352L99.6621 582.069L159 522.734L205.992 569.725C205.276 572.398 204.903 575.183 204.903 578.031V579.028C204.903 580.589 204.854 582.164 204.747 583.69V583.748C204.313 589.099 203.141 594.241 201.333 599.075L167.315 633.093C163.059 634.694 158.578 635.803 153.945 636.352V636.352ZM55.8495 613.69C55.062 612.646 54.3118 611.574 53.5962 610.477L53.737 608.287C53.7916 607.505 53.852 606.72 53.9152 605.924C54.0331 604.361 54.1624 602.797 54.3147 601.225L54.3377 600.958C54.3636 600.664 54.3894 600.366 54.4239 600.075L54.4584 599.725C54.9758 594.563 55.6569 589.185 56.4818 583.739C57.87 574.625 59.3271 565.216 60.9625 555.561L87.4702 582.069L55.8495 613.69V613.69ZM392.503 613.161L361.414 582.069L387.648 555.835C389.407 566.095 390.908 575.663 392.178 583.762C393.012 589.07 393.707 594.39 394.247 599.578L394.288 599.963C394.319 600.219 394.345 600.472 394.368 600.728L394.417 601.219C394.509 602.078 394.589 602.938 394.667 603.898C394.725 604.455 394.768 605.01 394.816 605.599C394.926 606.829 395.023 608.065 395.11 609.295C394.293 610.62 393.423 611.908 392.503 613.161V613.161ZM355.315 575.973L298.279 518.934C325.232 519.771 358.459 521.984 381.357 523.662C381.423 523.668 381.489 523.671 381.555 523.676C383.102 530.979 384.521 538.323 385.821 545.471L355.315 575.973V575.973ZM93.5661 575.973L62.776 545.183C64.055 538.11 65.4461 530.922 66.9866 523.642C67.0642 523.636 67.1389 523.63 67.2136 523.625C90.3673 521.915 123.75 519.707 150.634 518.905L93.5661 575.973V575.973ZM238.489 561.919C237.328 560.174 235.983 558.665 234.491 557.43C231.462 554.932 227.861 553.55 223.966 553.55C218.365 553.55 213.326 556.427 209.826 561.367L167.062 518.601C167.709 518.598 168.347 518.598 168.976 518.598C172.739 518.598 176.213 518.65 179.317 518.762C184.338 518.94 189.658 519.193 195.151 519.529V519.446L200.206 519.831L204.759 519.975V520.141C211.197 520.538 217.626 520.742 224.015 520.742C230.407 520.742 236.75 520.538 243.03 520.141L246.551 519.903C246.853 519.877 247.163 519.865 247.465 519.842L252.641 519.434V519.529C258.131 519.204 263.499 518.954 268.656 518.762C271.76 518.65 275.231 518.598 278.999 518.598C279.916 518.598 280.853 518.601 281.802 518.607L238.489 561.919V561.919ZM204.759 529.775V552.371C209.84 547.002 216.543 543.939 223.966 543.939C231.318 543.939 237.975 546.942 243.03 552.228V529.79C236.768 530.166 230.442 530.356 224.078 530.356C217.666 530.356 211.217 530.163 204.759 529.775" fill="#C99618"/>
<path d="M386.875 619.725L355.318 588.168L361.414 582.069L392.503 613.161C390.79 615.486 388.91 617.682 386.875 619.725V619.725ZM349.219 582.069L289.875 522.725L293.792 518.808C295.266 518.845 296.761 518.888 298.278 518.934L355.315 575.973L349.219 582.069V582.069ZM282.126 633.665C265.258 627.896 251.885 614.52 246.117 597.655L282.126 633.665ZM205.991 569.725L159 522.734L163.099 518.635C164.449 518.618 165.771 518.606 167.062 518.601L209.825 561.367C208.472 563.278 207.348 565.503 206.512 567.989C206.322 568.561 206.149 569.141 205.991 569.725V569.725ZM147.219 636.749H142.149L93.5656 588.168L99.6615 582.069L153.945 636.352C151.734 636.613 149.49 636.749 147.219 636.749ZM87.4697 582.069L60.9619 555.561C61.5425 552.133 62.1461 548.669 62.7755 545.183L93.5656 575.973L87.4697 582.069Z" fill="#AD7028"/>
<path d="M306.734 636.749H300.753C298.758 636.749 296.784 636.648 294.841 636.447L349.219 582.069L355.315 575.973L385.82 545.471C386.458 548.983 387.067 552.446 387.648 555.835L361.413 582.069L355.318 588.168L306.734 636.749ZM167.315 633.093L201.333 599.075C195.464 614.77 182.907 627.23 167.315 633.093ZM242.136 570.464C241.932 569.624 241.693 568.794 241.42 567.978C240.662 565.733 239.673 563.701 238.489 561.919L281.801 518.607C285.569 518.63 289.587 518.699 293.792 518.808L289.875 522.725L242.136 570.464V570.464ZM61.5456 620.188C59.4906 618.168 57.5851 615.995 55.8491 613.69L87.4698 582.069L93.5658 575.973L150.634 518.905C154.979 518.776 159.161 518.684 163.099 518.635L159 522.734L99.6617 582.069L93.5658 588.168L61.5456 620.188" fill="#AD7028"/>
<path d="M53.5961 610.477C52.8546 609.338 52.1504 608.172 51.4894 606.982C51.064 606.234 50.6645 605.481 50.2851 604.711C50.1443 603.645 50.0121 602.57 49.8914 601.492L49.8799 601.481C49.8454 601.199 49.8109 600.92 49.7793 600.644C50.2995 595.629 50.9548 590.556 51.7308 585.417C54.6135 566.486 57.9302 545.442 62.5173 523.961C63.9601 523.86 65.446 523.745 66.9865 523.642C65.446 530.922 64.0549 538.11 62.7759 545.183C62.1465 548.669 61.5429 552.133 60.9624 555.561C59.327 565.215 57.8699 574.625 56.4817 583.739C55.6568 589.185 54.9756 594.563 54.4583 599.725L54.4238 600.075C54.3893 600.366 54.3635 600.664 54.3376 600.958L54.3146 601.225C54.1623 602.797 54.033 604.36 53.9151 605.924C53.8519 606.72 53.7915 607.505 53.7369 608.287L53.5961 610.477V610.477ZM395.11 609.295C395.023 608.065 394.926 606.829 394.817 605.599C394.768 605.01 394.725 604.455 394.667 603.898C394.589 602.938 394.509 602.078 394.417 601.219L394.368 600.728C394.345 600.472 394.319 600.219 394.288 599.963L394.247 599.578C393.707 594.39 393.012 589.07 392.178 583.762C390.908 575.663 389.407 566.095 387.649 555.834C387.068 552.446 386.459 548.983 385.821 545.47C384.522 538.323 383.102 530.979 381.555 523.676C383.093 523.791 384.591 523.906 386.03 524.021C390.606 545.427 393.946 566.425 396.926 585.417C397.791 590.933 398.498 596.373 399.05 601.731V601.745C398.426 603.185 397.754 604.59 397.021 605.961C396.42 607.094 395.782 608.206 395.11 609.295Z" fill="#6B184E"/>
<path d="M50.2852 604.711C50.1501 604.441 50.0208 604.168 49.8915 603.895L49.88 603.884C49.7593 603.642 49.6529 603.412 49.5322 603.162V603.151C49.5696 602.74 49.6041 602.32 49.6529 601.912V601.889C49.6931 601.472 49.7363 601.058 49.7794 600.645C49.811 600.92 49.8455 601.199 49.88 601.481L49.8915 601.492C50.0122 602.57 50.1443 603.645 50.2852 604.711" fill="#6B184E"/>
<path d="M199.152 511.606C199.571 511.632 199.994 511.666 200.413 511.678V570.409C198.215 597.604 175.437 618.987 147.677 618.987H102.427C73.2004 618.987 49.5093 595.299 49.5093 566.072V531.787C49.5093 531.152 49.2593 530.563 48.8368 530.155C48.4172 529.733 47.8395 529.468 47.2043 529.468C45.4856 529.468 43.9479 528.773 42.8184 527.655C41.7033 526.525 41.0049 524.987 41.0049 523.272C41.0049 520.038 43.4795 517.348 46.6984 517.095C68.3691 515.353 146.079 509.395 179.593 510.608C186.454 510.85 193.084 511.209 199.152 511.606ZM407.871 523.272C407.871 524.987 407.172 526.525 406.057 527.655C404.939 528.773 403.376 529.468 401.671 529.468C401.048 529.468 400.458 529.733 400.039 530.155C399.628 530.563 399.363 531.152 399.363 531.787V566.072C399.363 595.299 375.675 618.987 346.449 618.987H301.21C271.984 618.987 248.296 595.299 248.296 566.072V511.678C248.485 511.666 248.666 511.655 248.859 511.643C255.058 511.246 261.953 510.873 269.279 510.608C302.794 509.395 380.507 515.353 402.177 517.095C405.396 517.348 407.871 520.038 407.871 523.272" fill="#5BA6CD"/>
<path d="M199.152 511.606C199.571 511.632 199.994 511.666 200.413 511.678V570.409C198.215 597.604 175.437 618.987 147.677 618.987H102.427C73.2004 618.987 49.5093 595.299 49.5093 566.072V531.787C49.5093 531.152 49.2593 530.563 48.8368 530.155C48.4172 529.733 47.8395 529.468 47.2043 529.468C45.4856 529.468 43.9479 528.773 42.8184 527.655C41.7033 526.525 41.0049 524.987 41.0049 523.272C41.0049 520.038 43.4795 517.348 46.6984 517.095C68.3691 515.353 146.079 509.395 179.593 510.608C186.454 510.85 193.084 511.209 199.152 511.606ZM407.871 523.272C407.871 524.987 407.172 526.525 406.057 527.655C404.939 528.773 403.376 529.468 401.671 529.468C401.048 529.468 400.458 529.733 400.039 530.155C399.628 530.563 399.363 531.152 399.363 531.787V566.072C399.363 595.299 375.675 618.987 346.449 618.987H301.21C271.984 618.987 248.296 595.299 248.296 566.072V511.678C248.485 511.666 248.666 511.655 248.859 511.643C255.058 511.246 261.953 510.873 269.279 510.608C302.794 509.395 380.507 515.353 402.177 517.095C405.396 517.348 407.871 520.038 407.871 523.272" fill="#4A83FF"/>
<path d="M293.626 618.438L357.6 513.83C347.072 513.143 335.803 512.453 324.677 511.879H324.669L266.891 606.347L293.626 618.438V618.438ZM394.32 516.471L331.63 618.981H305.375L369.203 514.623C378.992 515.302 387.675 515.96 394.32 516.471ZM151.08 510.763L86.3954 616.51C76.8563 613.483 68.4784 607.816 62.1353 600.377L115.987 512.327C128.009 511.66 140.092 511.085 151.08 510.763ZM189.242 511.034L123.218 618.981H102.424C100.628 618.981 98.8661 618.889 97.1215 618.723L163.32 510.49C169.413 510.407 174.935 510.439 179.599 510.605C182.876 510.72 186.109 510.867 189.242 511.034Z" fill="#A2D6EB"/>
<path d="M205.218 516.822V539.421C210.294 534.047 217.002 530.992 224.42 530.989H224.423C231.772 530.989 238.428 533.986 243.49 539.269V516.831C230.918 517.598 218.086 517.595 205.218 516.822ZM205.207 570.74L195.607 570.41V506.493L200.775 506.887C216.657 508.097 232.519 508.097 247.919 506.889L253.098 506.481V565.075H243.49C243.49 561.606 242.946 558.229 241.877 555.03C238.885 546.132 232.197 540.6 224.423 540.6H224.42C216.649 540.6 209.963 546.132 206.974 555.036C205.908 558.229 205.365 561.609 205.365 565.075V566.073C205.365 567.633 205.313 569.205 205.207 570.74" fill="#6B184E"/>
<path d="M169.295 515.252C132.72 515.252 67.6762 520.23 47.0834 521.885C46.3534 521.943 45.8102 522.538 45.8102 523.271C45.8102 523.745 46.0401 524.078 46.2355 524.274C46.4827 524.521 46.8219 524.662 47.2041 524.662C49.101 524.662 50.8887 525.406 52.2366 526.757C53.5386 528.019 54.3146 529.869 54.3146 531.786V566.071C54.3146 592.599 75.899 614.181 102.427 614.181H147.676C172.497 614.181 193.515 594.881 195.608 570.21V516.197C189.966 515.852 184.537 515.591 179.427 515.41C176.391 515.301 172.989 515.252 169.295 515.252ZM147.676 623.792H102.427C70.5992 623.792 44.7037 597.899 44.7037 566.071V533.988C42.7349 533.531 40.9185 532.534 39.4383 531.071C37.3374 528.947 36.1992 526.188 36.1992 523.271C36.1992 517.565 40.6454 512.751 46.3218 512.306C69.1162 510.472 146.124 504.589 179.769 505.808C185.939 506.023 192.567 506.359 199.465 506.811L199.876 506.837C200.1 506.851 200.324 506.868 200.548 506.874L205.219 507.006L205.201 570.794C202.801 600.512 177.532 623.792 147.676 623.792V623.792ZM253.098 516.195V566.071C253.098 592.599 274.682 614.181 301.21 614.181H346.448C372.976 614.181 394.561 592.599 394.561 566.071V531.786C394.561 529.91 395.317 528.076 396.639 526.754C397.969 525.426 399.803 524.662 401.671 524.662C402.039 524.662 402.398 524.515 402.657 524.256C402.921 523.989 403.065 523.653 403.065 523.271C403.065 522.538 402.522 521.943 401.8 521.885C379.121 520.063 302.578 514.223 269.454 515.41C264.137 515.602 258.754 515.861 253.098 516.195ZM346.448 623.792H301.21C269.383 623.792 243.49 597.899 243.49 566.071V507.161L248.56 506.845C255.762 506.385 262.485 506.046 269.107 505.808C302.736 504.583 379.759 510.472 402.562 512.306C408.227 512.751 412.673 517.565 412.673 523.271C412.673 526.191 411.535 528.947 409.471 531.036C408.008 532.499 406.158 533.514 404.169 533.982V566.071C404.169 597.899 378.276 623.792 346.448 623.792V623.792ZM285.9 639.263C285.9 653.151 281.491 667.961 272.662 679.854C262.462 693.598 246.39 703.436 224.443 703.436C205.331 703.436 187.876 692.612 176.501 677.451C168.08 666.233 162.975 652.622 162.975 639.263C162.975 623.864 180.358 626.542 180.358 626.542L270.176 626.301C270.176 626.301 285.9 625.076 285.9 639.263" fill="#6B184E"/>
<path d="M277.088 677.032C265.954 692.035 248.402 702.775 224.438 702.775C200.473 702.775 182.921 692.035 171.787 677.032C178.188 671.471 207.225 662.219 219.848 672.839C223.535 675.937 224.438 681.849 224.438 681.849C224.438 681.849 225.337 675.937 229.027 672.839C241.65 662.219 270.685 671.471 277.088 677.032Z" fill="#ED2E7A"/>
<path d="M177.553 631.771C175.355 631.771 172.19 632.145 170.325 633.76C169.845 634.177 168.379 635.45 168.379 639.27C168.379 666.441 192.867 698.028 224.438 698.028C260.85 698.028 280.498 667.755 280.498 639.27C280.498 636.89 279.897 635.165 278.655 634.004C276.333 631.829 272.03 631.596 270.562 631.694L270.188 631.708L179.948 631.952L179.531 631.889C179.1 631.826 178.398 631.771 177.553 631.771V631.771ZM224.438 708.84C207.415 708.84 190.219 700.807 177.263 686.804C164.746 673.276 157.567 655.951 157.567 639.27C157.567 631.99 160.688 627.782 163.309 625.534C169.54 620.194 178.39 620.855 180.709 621.14L269.99 620.898C271.743 620.795 280.112 620.625 285.97 626.043C288.407 628.296 291.31 632.418 291.31 639.27C291.31 672.994 267.872 708.84 224.438 708.84V708.84ZM44.9199 516.514H54.1457V538.823H44.9199V516.514ZM394.438 516.514H403.667V538.823H394.438V516.514Z" fill="#6B184E"/>
</g>
<defs>
<filter id="filter0_d_402_3563" x="-4" y="0" width="455" height="815.976" filterUnits="userSpaceOnUse" color-interpolation-filters="sRGB">
<feFlood flood-opacity="0" result="BackgroundImageFix"/>
<feColorMatrix in="SourceAlpha" type="matrix" values="0 0 0 0 0 0 0 0 0 0 0 0 0 0 0 0 0 0 127 0" result="hardAlpha"/>
<feOffset dy="4"/>
<feGaussianBlur stdDeviation="2"/>
<feComposite in2="hardAlpha" operator="out"/>
<feColorMatrix type="matrix" values="0 0 0 0 0 0 0 0 0 0 0 0 0 0 0 0 0 0 0.25 0"/>
<feBlend mode="normal" in2="BackgroundImageFix" result="effect1_dropShadow_402_3563"/>
<feBlend mode="normal" in="SourceGraphic" in2="effect1_dropShadow_402_3563" result="shape"/>
</filter>
</defs>
</svg>
