<svg width="164" height="140" viewBox="0 0 164 140" fill="none" xmlns="http://www.w3.org/2000/svg">
<path d="M75.6119 77.1925L109.181 57.9579L133.577 76.4562C134.306 77.0084 135.357 76.8704 135.917 76.1341C136.469 75.3979 136.331 74.3549 135.594 73.795L109.435 53.9692L75.269 73.549L38.425 60.8641L1.42787 71.4938C0.538247 71.7469 0.0244035 72.6748 0.285155 73.5569C0.538248 74.4388 1.46622 74.9603 2.34823 74.6996L38.3244 64.3614L75.6119 77.1925Z" fill="white"/>
<path d="M84.5391 93.0972H92.5228V120.922H84.5391V93.0972Z" fill="white"/>
<path d="M98.5967 99.8242H106.573V120.93H98.5967V99.8242Z" fill="white"/>
<path d="M70.4873 105.714H78.4711V120.922H70.4873V105.714Z" fill="white"/>
<path d="M42.3882 93.0972H50.3719V120.922H42.3882V93.0972Z" fill="white"/>
<path d="M56.438 99.8242H64.414V120.93H56.438V99.8242Z" fill="white"/>
<path d="M28.3306 99.8242H36.3143V120.93H28.3306V99.8242Z" fill="white"/>
<path d="M14.2793 98.9956H22.263V120.93H14.2793V98.9956Z" fill="white"/>
<path d="M0.222168 107.685H8.20588V120.93H0.222168V107.685Z" fill="white"/>
<path d="M75.8867 31.0459H117.085V39.0297H75.8867V31.0459Z" fill="white"/>
<path d="M75.8794 16.9966H96.9852V24.9803H75.8794V16.9966Z" fill="white"/>
<path d="M75.8867 2.9375H125.453V10.9212H75.8867V2.9375Z" fill="white"/>
<path d="M20.8683 0C9.35668 0 0 9.36413 0 20.8683C0 32.3799 9.36414 41.7366 20.8683 41.7366C27.6787 41.7366 33.745 38.4541 37.549 33.3924C37.7714 33.0933 37.9938 32.7866 38.2009 32.4721C40.4326 29.1513 41.7365 25.1555 41.7365 20.8684C41.7365 9.36443 32.3723 9.73639e-05 20.8682 9.73639e-05L20.8683 0ZM20.8683 40.1404C10.2463 40.1404 1.60307 31.4972 1.60307 20.8752C1.60307 10.4909 9.85516 2.00869 20.1474 1.62525C20.1934 1.62525 20.2394 1.62525 20.2777 1.61758V20.5147H20.2854L36.3755 32.2717C36.3372 32.3254 36.2988 32.3868 36.2528 32.4481C32.7402 37.1187 27.1494 40.1405 20.8683 40.1405V40.1404Z" fill="white"/>
<path d="M135 140C119.009 140 106 126.991 106 111C106 95.0089 119.009 82 135 82C150.991 82 164 95.0089 164 111C164 126.991 150.991 140 135 140ZM135 84.2524C120.249 84.2524 108.252 96.2489 108.252 111C108.252 125.751 120.249 137.748 135 137.748C149.751 137.748 161.748 125.751 161.748 111C161.748 96.2489 149.751 84.2524 135 84.2524Z" fill="white"/>
<path d="M125.111 109.874H144.842V112.126H125.111V109.874Z" fill="white"/>
<path d="M133.848 101.132H136.1V120.863H133.848V101.132Z" fill="white"/>
</svg>
