<svg width="206" height="155" viewBox="0 0 206 155" fill="none" xmlns="http://www.w3.org/2000/svg">
<path d="M45.9431 118.849H137.058C140.34 118.849 143 116.189 143 112.907V57.442C143 54.1598 140.34 51.4996 137.058 51.4996V44.1876C137.058 42.7485 136.384 41.3974 135.238 40.534C134.091 39.6704 132.605 39.3965 131.222 39.7958L101.403 48.5285V41.5972H107.345C110.627 41.5972 113.288 38.937 113.288 35.6547V31.495C117.898 30.5479 121.208 26.495 121.212 21.7874V1.9824C121.212 0.886757 120.326 0 119.23 0C118.139 0 117.252 0.886722 117.252 1.9824V13.9184C116.082 13.0178 114.731 12.391 113.288 12.0846V7.92486C113.288 4.6426 110.627 1.9824 107.345 1.9824H75.6552C72.373 1.9824 69.7128 4.6426 69.7128 7.92486V12.0846C68.269 12.3864 66.9179 13.0131 65.7481 13.9138V1.98252C65.7481 0.886876 64.8613 0.000118849 63.7703 0.000118849C62.6747 0.000118849 61.7879 0.88684 61.7879 1.98252V21.7875C61.7925 26.495 65.1027 30.548 69.7128 31.4951V35.6549C69.7128 38.9371 72.373 41.5973 75.6552 41.5973H81.5977V48.5286L51.7642 39.7959C50.3853 39.4013 48.9044 39.6752 47.7576 40.5387C46.6109 41.4022 45.9425 42.7532 45.9425 44.1878V51.4997C42.6602 51.4997 40 54.1599 40 57.4422V112.907C40 116.189 42.6602 118.849 45.9425 118.849L45.9431 118.849ZM132.327 43.6032C132.508 43.5475 132.708 43.5847 132.857 43.7054C133.01 43.8168 133.098 43.9979 133.098 44.1882V51.5002H105.331L132.327 43.6032ZM117.253 21.7885C117.239 24.3001 115.655 26.5332 113.288 27.3688V16.2128C115.656 17.0484 117.239 19.2815 117.253 21.7885ZM65.7481 21.7885C65.762 19.2815 67.3452 17.0484 69.7128 16.2128V27.3688C67.345 26.5332 65.762 24.3001 65.7481 21.7885ZM73.6729 35.6558V7.92592C73.6729 6.83027 74.5597 5.94351 75.6553 5.94351H107.345C107.87 5.94351 108.376 6.15243 108.747 6.52383C109.119 6.89523 109.328 7.40127 109.328 7.92589V35.6558C109.328 36.1804 109.119 36.6864 108.747 37.0578C108.376 37.4293 107.87 37.6382 107.345 37.6382H75.6553C74.5597 37.6382 73.6729 36.7514 73.6729 35.6557V35.6558ZM85.5578 41.5983H97.4428V49.6809L91.5003 51.4218L85.5578 49.6809V41.5983ZM49.9031 44.1888C49.9031 43.9985 49.9913 43.8174 50.1445 43.706C50.2931 43.5899 50.4834 43.5481 50.6645 43.5992L77.6706 51.5008H49.9038L49.9031 44.1888ZM43.9606 57.4429C43.9606 56.3519 44.8474 55.4651 45.9431 55.4651H89.5179V108.947C89.5179 110.038 90.4046 110.925 91.5003 110.925C92.596 110.925 93.4827 110.038 93.4827 108.947V55.4651H137.058C137.582 55.4651 138.088 55.674 138.46 56.0454C138.831 56.4168 139.04 56.9182 139.04 57.4428V112.907C139.04 113.432 138.831 113.938 138.46 114.309C138.088 114.681 137.582 114.89 137.058 114.89H45.9431C44.8474 114.89 43.9606 114.003 43.9606 112.907V57.4429Z" fill="white"/>
<path d="M103.385 85.1765H129.138C130.187 85.1765 131.194 84.7587 131.937 84.0159C132.68 83.273 133.098 82.2656 133.098 81.2117V69.3268C133.098 68.2776 132.68 67.2701 131.937 66.5273C131.194 65.7845 130.187 65.3667 129.138 65.3667H103.385C101.199 65.3667 99.4253 67.1402 99.4253 69.3268V81.2117C99.4253 82.2655 99.8431 83.273 100.586 84.0158C101.329 84.7586 102.336 85.1764 103.385 85.1764L103.385 85.1765ZM103.385 69.3315L129.138 69.3269V81.2118H103.385V69.3315Z" fill="white"/>
<path d="M89.5179 15.845C89.5179 13.4449 88.0694 11.2767 85.8503 10.3575C83.6312 9.43831 81.0732 9.94435 79.374 11.6435C77.6748 13.3426 77.1688 15.9007 78.088 18.1198C79.0073 20.339 81.1754 21.7874 83.5755 21.7874C86.8578 21.7874 89.518 19.1272 89.518 15.8449L89.5179 15.845ZM81.5977 15.845C81.5977 15.0465 82.0805 14.3223 82.8186 14.0158C83.5568 13.7094 84.4109 13.8812 84.9774 14.4476C85.5438 15.014 85.7155 15.8636 85.4091 16.6064C85.0981 17.3445 84.3785 17.8273 83.5753 17.8273C82.4843 17.8273 81.5975 16.9406 81.5975 15.8449L81.5977 15.845Z" fill="white"/>
<path d="M99.4252 21.7874C101.825 21.7874 103.994 20.3389 104.913 18.1199C105.832 15.9007 105.326 13.3427 103.627 11.6435C101.928 9.94434 99.3696 9.43828 97.1505 10.3576C94.9313 11.2768 93.4829 13.4449 93.4829 15.8451C93.4829 19.1273 96.1431 21.7875 99.4254 21.7875L99.4252 21.7874ZM99.4252 13.8626V13.8672C100.224 13.8672 100.948 14.35 101.254 15.0881C101.561 15.8263 101.389 16.6805 100.823 17.2469C100.256 17.8133 99.4067 17.9851 98.6639 17.6787C97.9258 17.3676 97.443 16.648 97.443 15.8448C97.443 14.7538 98.3297 13.8671 99.4254 13.8671L99.4252 13.8626Z" fill="white"/>
<path d="M125.173 91.1191H107.345C106.254 91.1191 105.368 92.0059 105.368 93.0969C105.368 94.1926 106.254 95.0793 107.345 95.0793H125.173C126.268 95.0793 127.155 94.1926 127.155 93.0969C127.155 92.0059 126.268 91.1191 125.173 91.1191Z" fill="white"/>
<path d="M121.213 99.0396H111.31C110.214 99.0396 109.328 99.9263 109.328 101.022C109.328 102.118 110.214 103.004 111.31 103.004H121.213C122.308 103.004 123.195 102.118 123.195 101.022C123.195 99.9263 122.308 99.0396 121.213 99.0396Z" fill="white"/>
<path d="M85.5578 31.6949V27.7302C85.5578 26.6392 84.6711 25.7524 83.5754 25.7524C82.4844 25.7524 81.5977 26.6392 81.5977 27.7302V31.6949C81.5977 32.7859 82.4844 33.6727 83.5754 33.6727C84.6711 33.6727 85.5578 32.7859 85.5578 31.6949Z" fill="white"/>
<path d="M89.5181 31.6949C89.5181 32.7859 90.4048 33.6727 91.5005 33.6727C92.5962 33.6727 93.4829 32.7859 93.4829 31.6949V27.7302C93.4829 26.6392 92.5962 25.7524 91.5005 25.7524C90.4048 25.7524 89.5181 26.6392 89.5181 27.7302V31.6949Z" fill="white"/>
<path d="M99.4253 25.7524C98.3296 25.7524 97.4429 26.6392 97.4429 27.7302V31.6949C97.4429 32.7859 98.3296 33.6727 99.4253 33.6727C100.516 33.6727 101.403 32.7859 101.403 31.6949V27.7302C101.403 27.2056 101.194 26.7042 100.823 26.3328C100.451 25.9614 99.9499 25.7525 99.4253 25.7525L99.4253 25.7524Z" fill="white"/>
<path d="M50.4167 95H4.58333C2.0625 95 0 97.0625 0 99.5833V145.417C0 147.938 2.0625 150 4.58333 150H50.4167C52.9375 150 55 147.938 55 145.417V99.5833C55 97.0625 52.9375 95 50.4167 95Z" fill="#27002E"/>
<path d="M50.4167 95H4.58333C2.0625 95 0 97.0625 0 99.5833V145.417C0 147.938 2.0625 150 4.58333 150H50.4167C52.9375 150 55 147.938 55 145.417V99.5833C55 97.0625 52.9375 95 50.4167 95ZM52.7083 145.417C52.7083 146.677 51.6771 147.708 50.4167 147.708H4.58333C3.32288 147.708 2.29167 146.677 2.29167 145.417V108.75H52.7083V145.417ZM52.7083 106.458H2.29167V99.5833C2.29167 98.3229 3.32288 97.2917 4.58333 97.2917H50.4167C51.6771 97.2917 52.7083 98.3229 52.7083 99.5833V106.458Z" fill="white"/>
<path d="M44.6879 104.052C43.542 104.052 42.5107 103.136 42.5107 101.875C42.5107 100.615 43.4274 99.6982 44.6879 99.6982C45.9483 99.6982 46.865 100.615 46.865 101.875C46.865 103.136 45.8338 104.052 44.6879 104.052ZM44.6879 100.615C44.0004 100.615 43.4274 101.188 43.4274 101.875C43.4274 102.563 44.0003 103.136 44.6879 103.136C45.3754 103.136 45.9483 102.563 45.9483 101.875C45.9483 101.188 45.3754 100.615 44.6879 100.615Z" fill="white"/>
<path d="M49.2714 104.052C48.1255 104.052 47.0942 103.136 47.0942 101.875C47.0942 100.615 48.0109 99.6982 49.2714 99.6982C50.5318 99.6982 51.4485 100.615 51.4485 101.875C51.4485 103.136 50.4173 104.052 49.2714 104.052ZM49.2714 100.615C48.5839 100.615 48.0109 101.188 48.0109 101.875C48.0109 102.563 48.5838 103.136 49.2714 103.136C49.9589 103.136 50.5318 102.563 50.5318 101.875C50.5318 101.188 49.9589 100.615 49.2714 100.615Z" fill="white"/>
<path d="M40.1049 104.052C38.959 104.052 37.9277 103.136 37.9277 101.875C37.9277 100.615 38.8444 99.6982 40.1049 99.6982C41.3653 99.6982 42.282 100.615 42.282 101.875C42.282 103.136 41.2508 104.052 40.1049 104.052ZM40.1049 100.615C39.4174 100.615 38.8444 101.188 38.8444 101.875C38.8444 102.563 39.4173 103.136 40.1049 103.136C40.7924 103.136 41.3653 102.563 41.3653 101.875C41.3653 101.188 40.7924 100.615 40.1049 100.615Z" fill="white"/>
<path d="M33.2289 103.021H6.87435C6.18685 103.021 5.72852 102.563 5.72852 101.875C5.72852 101.188 6.18685 100.729 6.87435 100.729H33.2289C33.9164 100.729 34.3747 101.188 34.3747 101.875C34.3747 102.563 33.9164 103.021 33.2289 103.021Z" fill="white"/>
<path d="M21.0834 119.062L19.4792 117.458L8.70801 128.229L19.4792 139L21.0834 137.396L11.9167 128.23L21.0834 119.062Z" fill="white"/>
<path d="M33.9165 119.062L35.5207 117.458L46.2919 128.229L35.5207 139L33.9165 137.396L43.0832 128.23L33.9165 119.062Z" fill="white"/>
<path d="M24.7698 139.997L22.6099 139.235L30.227 117.621L32.3869 118.383L24.7698 139.997Z" fill="white"/>
<path d="M204 145C204 149.418 200.418 153 196 153H131C126.582 153 123 149.418 123 145V80C123 75.582 126.582 72 131 72H196C200.418 72 204 75.582 204 80V145Z" fill="#27002E" stroke="white" stroke-width="3" stroke-miterlimit="10" stroke-linecap="round" stroke-linejoin="round"/>
<path d="M124.5 88H203.5" stroke="white" stroke-width="3" stroke-miterlimit="10" stroke-linecap="round" stroke-linejoin="round"/>
<path d="M132.5 80H144.5" stroke="white" stroke-width="3" stroke-miterlimit="10" stroke-linecap="round" stroke-linejoin="round"/>
<path d="M177.188 80C177.188 83.2461 172.313 83.2461 172.313 80C172.313 76.7539 177.188 76.7539 177.188 80Z" fill="white"/>
<path d="M187.188 80C187.188 83.2461 182.313 83.2461 182.313 80C182.313 76.7539 187.188 76.7539 187.188 80Z" fill="white"/>
<path d="M197.188 80C197.188 83.2461 192.313 83.2461 192.313 80C192.313 76.7539 197.188 76.7539 197.188 80Z" fill="white"/>
<path d="M142.828 136.277H184.172" stroke="white" stroke-width="3" stroke-miterlimit="10" stroke-linecap="round" stroke-linejoin="round"/>
<path d="M150.164 117.508H158.832V130.18H150.164V117.508Z" stroke="white" stroke-width="3" stroke-miterlimit="10" stroke-linecap="round" stroke-linejoin="round"/>
<path d="M159.164 109.508H167.832V130.18H159.164V109.508Z" stroke="white" stroke-width="3" stroke-miterlimit="10" stroke-linecap="round" stroke-linejoin="round"/>
<path d="M168.164 101.508H176.832V130.18H168.164V101.508Z" stroke="white" stroke-width="3" stroke-miterlimit="10" stroke-linecap="round" stroke-linejoin="round"/>
</svg>
