<?xml version="1.0" encoding="UTF-8" standalone="no"?>
<svg
   xmlns:dc="http://purl.org/dc/elements/1.1/"
   xmlns:cc="http://creativecommons.org/ns#"
   xmlns:rdf="http://www.w3.org/1999/02/22-rdf-syntax-ns#"
   xmlns:svg="http://www.w3.org/2000/svg"
   xmlns="http://www.w3.org/2000/svg"
   xmlns:sodipodi="http://sodipodi.sourceforge.net/DTD/sodipodi-0.dtd"
   xmlns:inkscape="http://www.inkscape.org/namespaces/inkscape"
   version="1.1"
   id="svg2"
   xml:space="preserve"
   width="5333.3335"
   height="5333.3335"
   viewBox="0 0 5333.3335 5333.3335"
   sodipodi:docname="1378.eps"><metadata
     id="metadata8"><rdf:RDF><cc:Work
         rdf:about=""><dc:format>image/svg+xml</dc:format><dc:type
           rdf:resource="http://purl.org/dc/dcmitype/StillImage" /></cc:Work></rdf:RDF></metadata><defs
     id="defs6"><clipPath
       clipPathUnits="userSpaceOnUse"
       id="clipPath130"><path
         d="m 25808.5,14382.3 c 716.6,-4578.4 -1604.4,-7621.2 -6005.3,-7660 -4437.2,-39.1 -6689.6,3163.7 -6005.3,7660 491.6,3230 1344,8212.5 6005.3,8212.5 4668.9,0 5495.8,-4956.9 6005.3,-8212.5"
         id="path128" /></clipPath></defs><sodipodi:namedview
     pagecolor="#ffffff"
     bordercolor="#666666"
     borderopacity="1"
     objecttolerance="10"
     gridtolerance="10"
     guidetolerance="10"
     inkscape:pageopacity="0"
     inkscape:pageshadow="2"
     inkscape:window-width="640"
     inkscape:window-height="480"
     id="namedview4" /><g
     id="g10"
     inkscape:groupmode="layer"
     inkscape:label="ink_ext_XXXXXX"
     transform="matrix(1.3333333,0,0,-1.3333333,0,5333.3333)"><g
       id="g12"
       transform="scale(0.1)"><path
         d="M 0,0 H 40000 V 40000 H 0 Z"
         style="fill:#ffd553;fill-opacity:1;fill-rule:nonzero;stroke:none"
         id="path14" /><path
         d="m 20000,5500 c -4562.6,0 -8261.3,548.5 -8261.3,1225 0,444.2 1594.5,833.2 3981.3,1048 220.8,-169.4 456.5,-322.2 704.9,-456.8 220.4,-119.6 454.6,-226.7 697.8,-319.1 l 0.1,-51 h 139 l 4.5,-1.6 c 34.7,-12 69.7,-24.1 104.9,-35.8 5.5,-2.1 10.5,-3.7 14.9,-4.9 65.2,-21.4 134.1,-42.6 209.7,-64.5 49.5,-14.7 99.5,-28.5 148.7,-41.5 8.2,-2.4 16.3,-4.6 19.3,-5.2 44.5,-11.5 89.1,-22.7 132.3,-33 26.7,-6.6 53.5,-12.9 77.8,-18.2 25.9,-6 51.9,-11.6 79.1,-17.5 26.1,-5.6 52.2,-11.2 78.3,-16.3 l 25.3,-5 c 17.9,-3.6 35.8,-7.3 50.6,-9.9 l 72.8,-13.9 c 29.6,-5.2 59.2,-10.3 86.4,-14.8 22.4,-3.9 44.8,-7.5 66.5,-10.9 32.1,-5.1 63.8,-9.8 95.3,-14.4 26.1,-4 52.3,-7.9 78.3,-11.3 105.1,-14.1 209.7,-26 309.1,-35.3 29.8,-3.1 60,-5.7 87.9,-7.7 29.3,-2.6 58.7,-4.8 88.3,-6.9 29.7,-2.2 59.4,-4.4 86.5,-5.9 20,-1.4 40.2,-2.5 60.3,-3.6 l 30.2,-1.6 c 149.4,-7.7 301.4,-11.5 453,-11.5 27.6,0 55.3,0.1 82.9,0.4 92.9,0.8 185.9,3 277.5,6.4 l 86.3,3.8 c 30.5,1.3 60.6,3 90.5,4.7 38.1,2.1 75.9,4.3 111.2,7.2 142.3,9.9 281.9,23 414.1,38.7 82,9.4 168,20.9 255.7,34.3 136.8,20.8 275.5,45.7 412.7,73.9 87.2,18.2 164.8,35.7 237,53.6 l 161.2,41.1 c 51.6,14.1 103.2,28.7 153.7,43.5 85.9,25.1 163.4,49.5 233.3,73.5 44.1,14 91.1,30.3 140.9,48.7 23.8,8.4 47.7,17.2 74.4,27 48.8,18.1 97.1,37.1 143.8,56.1 48.3,19.1 96.2,39.2 142.6,59.5 47,20.4 93.7,41.1 140,62.8 27.8,13 55.1,26 80.8,38.7 31.4,15 62.4,30.1 92.9,45.9 32.7,15.8 64.9,32.7 95.5,49.1 44.8,23.5 89.2,47.4 133.7,72.8 l 81.8,47.2 c 15.4,9.1 31,18.3 44.5,26.6 45.3,26.9 89.6,54.4 131.9,81.7 39.7,24.8 78.5,50.5 117.7,77 20.1,13.7 40.3,27.5 58.6,40.2 20.3,13.8 40.2,28.1 61.1,43.1 41.3,29.4 83.3,60.4 125.4,92.5 2594,-206.6 4357.8,-612.7 4357.8,-1079.9 0,-676.5 -3698.7,-1225 -8261.3,-1225"
         style="fill:#d29c51;fill-opacity:1;fill-rule:nonzero;stroke:none"
         id="path16" /><path
         d="m 22776.5,31367.2 c 11.7,-609.8 -124.9,-1276.1 -797.9,-1771.3 l -1195.3,213.5 c 0,0 -596,1522.2 245.7,2532.9 24.3,29.7 50.2,58.5 76.9,86.9 573.1,605.7 1895.1,1634.7 1919.7,1621.3 24.3,-13.4 -424.2,-1017.3 -338.1,-1757.5 30.9,-264.6 82.8,-586.8 89,-925.8"
         style="fill:#5dbd5c;fill-opacity:1;fill-rule:nonzero;stroke:none"
         id="path18" /><path
         d="m 21295.2,29771.7 c -116.4,470.7 -273.3,908.6 -505.9,1419 -6.5,59 -18.3,240 43.6,466.5 86.9,149.2 176.9,337 324.1,454.5 10.2,8.2 20.4,16.3 30.4,24.4 70.5,-136.2 131.5,-329.1 161.3,-580.2 74.7,-629.9 248.8,-877.2 444.3,-877.2 100.5,0 206.7,65.3 308,177.6 182.6,202.2 251.6,352.5 460.8,445.9 16.2,-76.2 30.6,-155.9 42.4,-238.4 -9.7,-267.5 -53,-492.9 -157.6,-609.7 -601.3,-370 -959.3,-575.9 -1151.4,-682.4"
         style="fill:#618b58;fill-opacity:1;fill-rule:nonzero;stroke:none"
         id="path20" /><path
         d="m 22561.8,31302.2 c -21.7,102.1 -46.6,197.9 -72.8,285.7 -349.4,1170.7 66,1699 40.5,1710.7 -0.1,0 -0.3,0.1 -0.5,0.1 -26.9,0 -571.3,-544.8 -1341.6,-1162.6 -16,31 -32.6,59.1 -49.4,84.2 26.3,30.1 54.5,59.9 84.8,89.4 393.9,384.4 1054.8,939.8 1479.9,1283.6 -112.9,-372.5 -232.2,-882.3 -181.2,-1319.9 33,-283.1 73.7,-632.2 82.9,-953.8 -14.8,-5.5 -29,-11.4 -42.6,-17.4"
         style="fill:#9ed79d;fill-opacity:1;fill-rule:nonzero;stroke:none"
         id="path22" /><path
         d="m 22604.2,31063.8 c -11.8,82.5 -26.2,162.2 -42.4,238.4 13.6,6 27.8,11.9 42.6,17.4 2.5,-88 2.7,-173.9 -0.2,-255.8 m -1771.3,593.4 c 47.2,172.5 137.2,371.5 305.1,563.1 16.8,-25.1 33.4,-53.2 49.4,-84.2 -10,-8.1 -20.2,-16.2 -30.4,-24.4 -147.2,-117.5 -237.2,-305.3 -324.1,-454.5"
         style="fill:#a0b99b;fill-opacity:1;fill-rule:nonzero;stroke:none"
         id="path24" /><path
         d="m 22552.6,30155.9 c -42.9,0 -85.8,16.4 -118.5,49.2 -65.1,65.5 -64.9,171.3 0.6,236.5 269,267.7 159.4,1209 86.8,1831.8 -51,437.6 68.3,947.4 181.2,1319.9 -425.1,-343.8 -1086,-899.2 -1479.9,-1283.6 -522.9,-510.3 -434.9,-1113.2 -431,-1138.6 14.3,-90.9 -47.4,-176.7 -138.3,-191.4 -90.8,-14.7 -176.4,46.3 -191.6,137 -5.4,32.3 -124.3,796.3 527.4,1432.3 367,358.2 950.4,848.7 1184.3,1042.9 193.3,160.6 378.8,311.3 522.2,424.2 252,198.3 304.3,239.5 410.8,180.5 128.4,-71.3 88.3,-186.6 32.8,-346.2 -104.2,-300 -348.2,-1002.5 -285.8,-1538.3 94.3,-808.7 201,-1725.4 -183.1,-2107.6 -32.6,-32.4 -75.2,-48.6 -117.9,-48.6"
         style="fill:#6b184e;fill-opacity:1;fill-rule:nonzero;stroke:none"
         id="path26" /><path
         d="m 26213.9,31167.8 c -288.4,-184.7 -934.6,-641.6 -1312,-1242.6 -60.6,-96.1 -114.1,-196 -158.4,-299.3 -532.1,-1243.8 -3561.9,-3622 -3561.9,-3622 l -1634.7,2657.8 c 0,0 1082.1,559.7 2181,1183.3 v 0.4 c 402.1,228.2 806.6,465.2 1161.1,686.3 971.3,606 2740.1,705.9 3298.1,722.6 48.1,1.3 67.3,-60.6 26.8,-86.5"
         style="fill:#5dbd5c;fill-opacity:1;fill-rule:nonzero;stroke:none"
         id="path28" /><path
         d="m 21625.5,26589.7 c -8.6,536 -39.8,1457.3 -149.1,2222.2 -22.8,159.8 -47.2,311.4 -73.9,457.2 105.3,58.9 211.8,118.8 318.4,179.3 79.6,-640.3 594.1,-1089.5 1052.5,-1089.5 28.5,0 56.7,1.7 84.6,5.2 565.5,71.5 1139.4,632.4 1509.7,1078.4 59.6,71.7 131.9,144.4 206.3,212.5 -496.8,-1125.9 -1479.8,-1752 -1535.7,-1786.9 -437.1,-249.3 -972.4,-785.7 -1412.8,-1278.4"
         style="fill:#618b58;fill-opacity:1;fill-rule:nonzero;stroke:none"
         id="path30" /><path
         d="m 21720.9,29448.4 c -7,56.6 -10.7,114.8 -10.6,174.2 267.8,154.8 673.4,396.8 1267,767.1 761.4,474.9 2058.8,628 2799.3,677.2 -96.5,-72.7 -200.8,-156.1 -307.1,-249 -776.3,-70.2 -1883.5,-244.7 -2580.5,-679.1 -356.5,-222.4 -763.5,-460.8 -1168.1,-690.4"
         style="fill:#9ed79d;fill-opacity:1;fill-rule:nonzero;stroke:none"
         id="path32" /><path
         d="m 21402.5,29269.1 c -10.1,55.1 -20.5,109.3 -31.3,162.9 72.5,39 182.1,99.8 339.1,190.6 -0.1,-59.4 3.6,-117.6 10.6,-174.2 -106.6,-60.5 -213.1,-120.4 -318.4,-179.3"
         style="fill:#a0b99b;fill-opacity:1;fill-rule:nonzero;stroke:none"
         id="path34" /><path
         d="M 19377.7,29722.5 17333,28562.7 c 0,0 -592.7,1003.9 -679.2,2165.4 -23,300.1 -11.7,611.1 52.7,917.9 211.5,1009.8 309.3,1416 352.3,2321.8 43.1,905.7 193.9,381.1 193.9,381.1 0,0 498.3,-1133.5 740.7,-1387.6 219,-229.5 486.5,-487.4 731.8,-790.8 481.1,-595.2 876.9,-1366.7 652.5,-2448"
         style="fill:#5dbd5c;fill-opacity:1;fill-rule:nonzero;stroke:none"
         id="path36" /><path
         d="m 18078.2,29155.8 c -192.5,197.5 -546.4,485.1 -1123.3,707.2 -33.7,120 -96.8,377 -127.5,708.5 199.9,-182.3 497.1,-428.5 822.7,-428.5 65.9,0 132.9,10.1 200.5,32.8 651.3,218.6 345.1,876.8 765.3,1768.6 117.4,-110.5 229.4,-237 338.8,-371 41.2,-85.4 72.2,-172.1 92.1,-262.5 -185.2,-570.8 -464.5,-1132 -775.7,-1757.5 l -86.1,-173.2 c -37.6,-75.8 -73.1,-150.6 -106.8,-224.4"
         style="fill:#618b58;fill-opacity:1;fill-rule:nonzero;stroke:none"
         id="path38" /><path
         d="m 16809.8,30929.3 c -1.1,214.7 15.3,447 60.9,685 38.8,202.3 74.3,380.1 106.8,542.5 132.9,664.6 213.1,1065.8 248.3,1803 0.6,13.5 1.3,26.6 2,39.2 169,-364.2 461,-960.7 644.6,-1153.1 90.4,-94.7 177.3,-184.2 260.4,-269.7 202.4,-208.4 377.3,-388.5 519.6,-557.6 -12.8,-24.9 -24.9,-49.7 -36.5,-74.2 -86.7,81.7 -176.4,154.5 -270.1,215.3 -508,329 -761.1,865.3 -855.6,1021.9 -33.4,55.2 -81.2,145.1 -121.8,223.3 -9.1,17.6 -25.4,25.6 -41.6,25.6 -22.9,0 -45.7,-16.2 -47.5,-44.2 -6.7,-107.3 -16.6,-262.8 -29.9,-461.4 -37.4,-560 -298.8,-1162.5 -439.6,-1995.6"
         style="fill:#9ed79d;fill-opacity:1;fill-rule:nonzero;stroke:none"
         id="path40" /><path
         d="m 18954.7,31573.4 c -109.4,134 -221.4,260.5 -338.8,371 11.6,24.5 23.7,49.3 36.5,74.2 128.9,-153.2 231,-297.3 302.3,-445.2"
         style="fill:#a0b99b;fill-opacity:1;fill-rule:nonzero;stroke:none"
         id="path42" /><path
         d="m 23122.5,27556.4 c -56.6,0 -111.8,28.7 -143.2,80.7 -47.8,79 -22.4,181.8 56.6,229.6 10.3,6.2 1050.7,648.3 1553.9,1824.8 251.7,588.3 786.3,1073.8 1186.8,1375.4 -740.5,-49.2 -2037.9,-202.3 -2799.3,-677.2 -1315.1,-820.3 -1707.2,-1011.1 -1723.3,-1018.8 -83.2,-40.1 -183.1,-5 -223.1,78.2 -40,83.1 -5.1,182.9 78,223 3.8,1.9 400,195.7 1691.5,1001.3 983.9,613.7 2692.9,727.6 3382,748 98,2.4 182.2,-57.7 211,-150.8 28.7,-93.2 -7.1,-191 -89.3,-243.5 -322.6,-206.5 -1105.6,-762.8 -1406.8,-1467.1 -546.9,-1278.5 -1642.1,-1951.5 -1688.4,-1979.5 -27.1,-16.3 -56.9,-24.1 -86.4,-24.1"
         style="fill:#6b184e;fill-opacity:1;fill-rule:nonzero;stroke:none"
         id="path44" /><path
         d="m 16818.8,29567.7 c -69.6,0 -134.4,43.7 -158.2,113.2 -13.1,38.3 -318.4,951.2 -118.3,1996.3 38.9,203.2 74.7,382 107.3,545.1 129.9,649.4 208.3,1041.3 242.2,1753.4 21.9,459.7 63,668.5 248.7,690.2 84.8,9.9 199.7,-27.6 269.7,-259.6 196.3,-445.6 542.4,-1160.1 704.1,-1329.5 89.6,-94 175.9,-182.9 258.3,-267.7 528.9,-544.5 911.1,-937.9 1010.4,-1474 16.8,-90.8 -43.2,-178 -134,-194.8 -90.7,-16.8 -177.9,43.1 -194.8,133.9 -80.9,436.6 -415.3,780.8 -921.4,1302 -83.1,85.5 -170,175 -260.4,269.7 -183.6,192.4 -475.6,788.9 -644.6,1153.1 -0.7,-12.6 -1.4,-25.7 -2,-39.2 -35.2,-737.2 -115.4,-1138.4 -248.3,-1803 -32.5,-162.4 -68,-340.2 -106.8,-542.5 -182.9,-955.1 103.5,-1817 106.4,-1825.6 29.6,-87.3 -17.1,-182.3 -104.4,-212 -17.9,-6.1 -36.1,-9 -53.9,-9"
         style="fill:#6b184e;fill-opacity:1;fill-rule:nonzero;stroke:none"
         id="path46" /><path
         d="m 18837.7,28172.7 -907.4,-1439.9 c 0,0 -1899.7,612.3 -2571.8,1440.7 -231.9,285.9 -546.6,815.1 -1137.7,1091.8 -384.9,180.1 -886.4,253.7 -1558.1,83.5 0,0 1089.6,916.6 3216.2,614.9 709.3,-101.2 1342.5,-430.1 1839,-779.5 692.2,-486.5 1119.8,-1011.5 1119.8,-1011.5"
         style="fill:#5dbd5c;fill-opacity:1;fill-rule:nonzero;stroke:none"
         id="path48" /><path
         d="m 17501.1,27082.7 c -135.3,70.6 -271.6,127 -406.1,163.3 -22.2,5.9 -44.2,11.7 -65.9,17.2 -58.4,15.9 -931.7,265.1 -1540.6,1015.7 -38.9,47.9 -81.8,105.2 -127.3,165.8 -187.3,249.7 -452.4,603.3 -860.1,855.6 296.2,-3.7 755.9,-126.8 1249.1,-699.6 8.3,-9.6 16.7,-19.2 25.1,-28.8 201.5,-230.8 478.2,-342.8 753,-342.8 338.4,0 674,169.6 863.6,495.7 39.5,67.8 81.6,135.5 126.5,201.5 127.3,-88.8 246,-179.2 354.7,-267.4 -257,-694.1 -343.3,-1257.1 -372,-1576.2"
         style="fill:#618b58;fill-opacity:1;fill-rule:nonzero;stroke:none"
         id="path50" /><path
         d="m 17518.4,28926.3 c -494.2,344.6 -1120.7,667.2 -1821.7,766.8 -300.5,42.6 -580.3,60.9 -839.3,60.9 -488.4,0 -902.5,-65.1 -1241.5,-154.9 -30.8,3.2 -62.1,5.7 -93.8,7.7 373,133.3 882.7,250 1524.9,250 249.6,0 519.1,-17.6 808.4,-58.7 907.6,-128.9 1470.8,-449.7 1787.7,-702.4 -43.6,-54.4 -85.2,-111.2 -124.7,-169.4"
         style="fill:#9ed79d;fill-opacity:1;fill-rule:nonzero;stroke:none"
         id="path52" /><path
         d="m 17873.1,28658.9 c -108.7,88.2 -227.4,178.6 -354.7,267.4 39.5,58.2 81.1,115 124.7,169.4 145.6,-116.1 239.1,-217.7 290.2,-279.8 -21,-53.1 -41.1,-105.3 -60.2,-157"
         style="fill:#a0b99b;fill-opacity:1;fill-rule:nonzero;stroke:none"
         id="path54" /><path
         d="m 16990.7,26933.2 c -13.7,0 -27.5,1.7 -41.4,5.2 -41.4,10.6 -1021.5,268.2 -1720.5,1129.9 -42.8,52.8 -87.7,112.5 -135.1,175.8 -388.5,518 -975.7,1300.8 -2389.8,942.8 l -705.9,-178.7 557.2,468.7 c 46.8,39.4 1171.7,961.1 3347.2,652.2 1754.6,-249.1 2339.5,-1162 2363.5,-1200.8 48.7,-78.4 24.5,-181.5 -53.9,-230.2 -78.4,-48.5 -181.5,-24.5 -230.2,54 -4.7,7.4 -538.6,820.6 -2126.4,1046 -1033.8,146.8 -1815.4,-6.1 -2333.3,-191.3 1014.3,-62.1 1531.6,-752.1 1839.1,-1162.1 45.5,-60.6 88.4,-117.9 127.3,-165.8 627,-773 1534.5,-1014.2 1543.6,-1016.5 89.3,-23 143.2,-114.1 120.3,-203.4 -19.3,-75.6 -87.2,-125.8 -161.7,-125.8"
         style="fill:#6b184e;fill-opacity:1;fill-rule:nonzero;stroke:none"
         id="path56" /><path
         d="m 21461.6,24511.8 -3489.5,112.4 -485.7,15.5 c 0,0 -1.3,45.1 -1.7,127 -1.2,373.7 13.8,1513.1 224.5,2654.1 88.1,477.3 210.2,955 379.9,1376.7 72.7,181 154.2,352 245.8,508.3 758.6,1298.2 1258,2448.8 1077.9,3941 -6.3,50.5 60.6,73.9 86.5,30.1 140.4,-233.3 405.4,-694.3 797.9,-1458.7 614.8,-1196.7 851.8,-1897.6 1013.6,-3029.8 7.1,-48.5 13.3,-100.8 19.6,-156.4 42.6,-374.5 71.5,-898.2 91.1,-1447.4 45.1,-1269.3 40.1,-2672.8 40.1,-2672.8"
         style="fill:#5dbd5c;fill-opacity:1;fill-rule:nonzero;stroke:none"
         id="path58" /><path
         d="m 20944.9,25780.7 c -4.5,8.9 -9,17.8 -13.6,26.7 -214.6,419.2 -826.5,1242.1 -1079.6,1576.3 -41.4,54.8 -104,85.1 -169.6,85.1 -20.5,0 -41.4,-3 -62,-9.1 -86.5,-25.9 -146.3,-100.9 -152.4,-191.2 -33.4,-499.3 -240.6,-984.7 -460.3,-1455.9 -235.1,265.4 -684.3,736.5 -1183.8,1075.6 7.8,169.3 42.3,578.6 194.1,1127.8 79.7,146 165.2,283.2 257,408.7 55.6,76.1 109.3,151.5 161.1,226.2 330.9,-144.7 714.9,-326.5 1129.5,-548.4 200.9,-107.5 392.4,-152.4 572,-152.4 357.9,0 669,178 914.7,394.1 1.5,-6.6 3.1,-13.2 4.6,-19.8 l 0.4,-1.2 c 49,-209 111.6,-424.4 190,-604.8 43.3,-687.5 47.2,-1316.9 47.2,-1510.9 -140.4,-166.6 -260.1,-314.6 -349.3,-426.8"
         style="fill:#618b58;fill-opacity:1;fill-rule:nonzero;stroke:none"
         id="path60" /><path
         d="m 21052,28344.2 c -76.4,331.1 -118.6,643.5 -134.4,773.5 -5.4,44.7 -13.1,88.8 -23.9,132.5 -104,422.5 -197.4,890.8 -467.4,1412.3 -182.1,351.9 -414,614.1 -526.9,854 -8.2,18 -21.2,25.9 -34.8,25.9 -20.6,0 -42.6,-18 -51.7,-46.4 -262.8,-817.7 -623.8,-1759.2 -1377.1,-2845.1 -61,26.7 -120.1,52.1 -177.4,76.3 65.2,162.3 140.1,330.9 226.1,504.3 l 86,173 c 559.8,1125.1 1052.5,2115.3 1042.1,3342.3 140.9,-252 318.8,-581.9 536,-1004.9 606.7,-1181.6 839.7,-1877.2 996.8,-2977.3 13.7,-96.1 26.2,-195.2 37.5,-296 -41.2,-42.2 -84.9,-83.9 -130.9,-124.4"
         style="fill:#9ed79d;fill-opacity:1;fill-rule:nonzero;stroke:none"
         id="path62" /><path
         d="m 21247,27718.4 c -78.4,180.4 -141,395.8 -190,604.8 l -0.4,1.2 c -1.5,6.6 -3.1,13.2 -4.6,19.8 46,40.5 89.7,82.2 130.9,124.4 27.6,-245.8 48.4,-501.8 64.1,-750.2 m -3229.3,297.6 c 60,217.2 138.4,456.5 240.7,711.2 57.3,-24.2 116.4,-49.6 177.4,-76.3 -51.8,-74.7 -105.5,-150.1 -161.1,-226.2 -91.8,-125.5 -177.3,-262.7 -257,-408.7"
         style="fill:#a0b99b;fill-opacity:1;fill-rule:nonzero;stroke:none"
         id="path64" /><path
         d="m 21461.3,25978.1 h -1.3 c -92.3,0.7 -166.6,76.1 -165.9,168.4 0.1,15 9.4,1511.7 -148.7,2618.1 -157.1,1100.1 -390.1,1795.7 -996.8,2977.3 -217.2,423 -395.1,752.9 -536,1004.9 10.4,-1227 -482.3,-2217.2 -1042.1,-3342.3 l -86,-173 c -672,-1354.4 -663.2,-2418.2 -663.1,-2428.8 1.5,-92.2 -72,-168.3 -164.3,-169.9 -90.6,-3.1 -168.2,71.7 -170,163.9 -0.9,46.3 -13,1150.8 697.9,2583.5 l 86.1,173.2 c 638.1,1282.3 1142,2295.1 975.6,3673.3 -12.3,101.4 46.6,195.5 143.2,228.7 96.3,33.2 200.3,-4.8 252.9,-92.2 153.8,-255.9 418,-718.4 803.2,-1468.5 626.4,-1219.9 867.2,-1940.2 1030.4,-3082.8 161.7,-1131.6 152.5,-2605.7 152.1,-2667.9 -0.7,-91.9 -75.4,-165.9 -167.2,-165.9"
         style="fill:#6b184e;fill-opacity:1;fill-rule:nonzero;stroke:none"
         id="path66" /><path
         d="m 20783.3,23697.6 -2659.5,-1702.4 c 0,0 -1697.8,2648.6 -3049.1,3798.9 -55.5,47.6 -111.1,93.2 -166.3,137.1 -959.2,772.8 -1803.1,1077.5 -2165,1181.5 -47.7,13.8 -44.3,82 4.1,91.2 548.8,104 1697,196.4 2368.6,101.5 765.3,-107.8 1187.9,-19.6 1935.6,-221.1 327.7,-88.2 889.4,-536.6 1479.2,-1080.4 1079.6,-994.3 2252.4,-2306.3 2252.4,-2306.3"
         style="fill:#5dbd5c;fill-opacity:1;fill-rule:nonzero;stroke:none"
         id="path68" /><path
         d="m 18347.8,23658.5 c -305.5,317.3 -841.1,697.9 -1685.8,763.9 -2.8,0.2 -5.6,0.4 -8.4,0.7 -114.9,192 -456.2,634.1 -1461.9,1491 417.5,-43.9 1098.2,-195.2 1614.2,-698.9 352.4,-344 600.4,-482.2 791.5,-482.2 337.2,0 497.4,430.2 742.4,919.5 136.8,-126.7 274.8,-258.1 411.5,-391 -109,-244.6 -207.9,-492.7 -272.8,-740.6 -80.7,-308.8 -119.6,-598.2 -130.7,-862.4"
         style="fill:#618b58;fill-opacity:1;fill-rule:nonzero;stroke:none"
         id="path70" /><path
         d="m 18339.8,25652.5 c -603.7,559.2 -1183.2,1025.6 -1518.4,1115.8 -747.3,201.1 -1169.9,113.3 -1935.6,221.1 -197.1,27.8 -435.3,39.5 -687.3,39.5 -227.1,0 -465.4,-9.5 -695,-25.2 -86.9,39.8 -168.8,74.9 -245,105.7 352,39.9 776.9,68.9 1167.9,68.9 244,0 474.9,-11.3 666.3,-38.3 310.7,-43.8 561.8,-55.8 804.7,-67.5 363,-17.4 676.5,-32.5 1110.7,-149.4 509.3,-137.1 1077.7,-635.9 1461,-1025.4 -46.2,-82.2 -88.9,-164.5 -129.3,-245.2"
         style="fill:#9ed79d;fill-opacity:1;fill-rule:nonzero;stroke:none"
         id="path72" /><path
         d="m 18751.3,25261.5 c -136.7,132.9 -274.7,264.3 -411.5,391 40.4,80.7 83.1,163 129.3,245.2 172.5,-175.2 307.5,-328.3 382.8,-416.4 -34,-72.9 -67.8,-146.2 -100.6,-219.8"
         style="fill:#a0b99b;fill-opacity:1;fill-rule:nonzero;stroke:none"
         id="path74" /><path
         d="m 16391.8,24204 c -6.3,15.6 -168.3,392.9 -1425.5,1462.8 -1013.5,862.6 -1924.6,1186.2 -2269.2,1285.3 -95.7,27.5 -159.3,116.2 -154.7,215.7 4.6,99.5 76.1,181.9 173.9,200.5 549.2,104.1 1728.1,200.7 2423,102.8 295.5,-41.6 538.8,-53.3 774.2,-64.6 366.4,-17.6 712.5,-34.3 1181.5,-160.5 970.1,-261.2 2038.7,-1578.4 2083.7,-1634.3 57.9,-71.9 46.5,-177.1 -25.4,-235 -71.9,-57.9 -177.2,-46.5 -235,25.4 -10.4,12.8 -1045.4,1288.2 -1910.2,1521 -434.2,116.9 -747.7,132 -1110.7,149.4 -242.9,11.7 -494,23.7 -804.7,67.5 -498.1,70.1 -1262.5,34.2 -1834.2,-30.6 476.3,-192.9 1176.1,-551 1924.5,-1187.9 1320.9,-1124.2 1502.1,-1537.6 1525,-1609.1 l -318.4,-102.1 2.2,-6.3"
         style="fill:#6b184e;fill-opacity:1;fill-rule:nonzero;stroke:none"
         id="path76" /><path
         d="m 18556.1,22225.1 -1724.5,-636.6 c 0,0 -337.7,179.8 -761.9,798.3 -250.8,365.3 -463.9,436.8 -876.9,471.5 -285.9,24.3 -667.1,30.1 -1222.5,103.7 -1050.4,138.7 -1554.8,659.9 -1730,889.4 -27.1,35.9 6.3,86.1 49.8,74 1393.7,-386.9 2123,-161.5 2768.8,63.9 443.1,154.7 846.9,309.5 1399.1,266.3 737.7,-57.7 1224.2,-373.3 1517.2,-654.2 v -0.4 c 254.9,-244.5 363.2,-463.1 363.2,-463.1 15.5,-471 217.7,-912.8 217.7,-912.8"
         style="fill:#5dbd5c;fill-opacity:1;fill-rule:nonzero;stroke:none"
         id="path78" /><path
         d="m 16882.8,21907.7 c -125.7,115.9 -295.7,298.8 -484.1,573.5 -254.4,370.8 -489.7,480.2 -841.2,526.8 179.2,136.8 403.5,256.3 670.4,302.5 54.7,9.5 106.7,13.8 156.3,13.8 261.6,0 459.1,-119.6 648.8,-239.3 189.7,-119.6 371.7,-239.3 602,-239.3 116.6,0 245.6,30.7 394.3,107.5 52.4,27 90.5,64.8 117.8,109.2 132.7,-160.3 191.5,-278.9 191.5,-278.9 2.3,-68 8.4,-135.4 17.3,-200.9 -535.8,-141.6 -1027.3,-366.8 -1473.1,-674.9"
         style="fill:#618b58;fill-opacity:1;fill-rule:nonzero;stroke:none"
         id="path80" /><path
         d="m 18147.1,23062.4 c -254.7,307.5 -781.8,768.3 -1689.3,839.1 -63.8,5 -125.8,7.4 -185.9,7.4 -460.1,0 -821,-136.8 -1212.9,-273.6 -391.7,-136.8 -814.4,-273.6 -1397.5,-273.7 -112.2,0 -230.2,5.1 -355.2,16.2 -188.4,89.4 -338.5,189.6 -455.5,284.7 382.4,-81.4 712,-114 1003.3,-114 644,0 1099.8,159.9 1520.6,307.5 363.9,127.6 684.2,240 1086.6,240 56.5,0 114.6,-2.2 174.7,-6.9 850.5,-66.5 1337.9,-491.8 1571.3,-773.8 -0.1,-89.2 -15.4,-179.9 -60.2,-252.9"
         style="fill:#9ed79d;fill-opacity:1;fill-rule:nonzero;stroke:none"
         id="path82" /><path
         d="m 18425.2,22600.4 c -42.3,154.3 -80.1,342.1 -86.7,534.8 10.7,-17 19.3,-31.5 25.8,-42.9 9.3,-174.7 41,-343 78,-487.7 -5.7,-1.4 -11.4,-2.8 -17.1,-4.2"
         style="fill:#a2a499;fill-opacity:1;fill-rule:nonzero;stroke:none"
         id="path84" /><path
         d="m 18355.9,22582.6 c -8.9,65.5 -15,132.9 -17.3,200.9 0,0 -58.8,118.6 -191.5,278.9 44.8,73 60.1,163.7 60.2,252.9 59.8,-72.3 102.9,-135.1 131.2,-180.1 6.6,-192.7 44.4,-380.5 86.7,-534.8 -23.2,-5.8 -46.3,-11.7 -69.3,-17.8"
         style="fill:#a0b99b;fill-opacity:1;fill-rule:nonzero;stroke:none"
         id="path86" /><path
         d="m 27162.6,27864.7 c -480.6,-140.5 -1685.2,-677.1 -2364.4,-1131.9 -23.8,-15.9 -46.8,-31.7 -68.9,-47.2 -480.7,-336.1 -2540.4,-2988 -2540.4,-2988 l -2223.6,673.7 c 0,0 945,1184.1 1858.3,2162.6 522.4,560.9 1034.9,1054.1 1352.9,1219.2 798.8,414.2 3178.6,344.4 3981.1,203.1 48.9,-8.8 52.7,-77.8 5,-91.5"
         style="fill:#5dbd5c;fill-opacity:1;fill-rule:nonzero;stroke:none"
         id="path88" /><path
         d="m 27363,27892.8 c 0.7,9.4 0.9,19 0.3,28.7 -0.8,15.1 -3.2,29.7 -6.9,43.9 33,-13.2 36.3,-55.3 6.6,-72.6"
         style="fill:#ffe698;fill-opacity:1;fill-rule:nonzero;stroke:none"
         id="path90" /><path
         d="m 21594.2,25753.3 c 7.4,127.5 49.1,273.2 97.7,404.1 469,543.6 1098.6,1207.2 1561.5,1447.3 420.2,217.9 1342.7,292.2 2207.5,292.2 427.1,0 840.2,-18.1 1171.6,-46.1 -68.2,-27.5 -139.6,-57.2 -213.4,-88.7 -250,8.7 -511.5,14.3 -770.9,14.3 -751,0 -1485.2,-47.4 -1880.4,-207.4 -324.5,-131.4 -914.3,-513.4 -1436.8,-1011.1 -259.6,-246.8 -509.8,-529.8 -736.8,-804.6"
         style="fill:#9ed79d;fill-opacity:1;fill-rule:nonzero;stroke:none"
         id="path92" /><path
         d="m 21369.7,24249.9 c -12.7,287.4 -64.5,614 -191.4,982.1 126,161.8 265.9,339.7 415.9,521.3 -7.9,-136.2 23.2,-251.8 127,-307 137.9,-73.5 258.6,-105.1 367.9,-105.1 439.3,-0.1 694.9,510 1146.4,857.5 386.6,297.1 846.4,435.1 1236.3,496.9 -435.6,-373.6 -1021.2,-1087.4 -1187.4,-1293.5 -395.7,-42.3 -791.9,-140.7 -1162.1,-354.6 -317.4,-183.4 -563.6,-477.1 -752.6,-797.6"
         style="fill:#618b58;fill-opacity:1;fill-rule:nonzero;stroke:none"
         id="path94" /><path
         d="m 21178.3,25232 c -23.2,67.2 -48.9,135.9 -77.3,205.9 99.8,127.9 318.2,403.4 590.9,719.5 -48.6,-130.9 -90.3,-276.6 -97.7,-404.1 -150,-181.6 -289.9,-359.5 -415.9,-521.3"
         style="fill:#8f9d85;fill-opacity:1;fill-rule:nonzero;stroke:none"
         id="path96" /><path
         d="m 12850.8,23662.5 c 260.7,-211.8 685.6,-449.4 1332.8,-535 387.6,-51.3 690.7,-69.4 934.2,-83.9 621.4,-37.1 933.3,-55.8 1280.9,-562.4 290.3,-423.2 536.8,-628.6 645,-706.6 l 1485.1,548.1 c -62.3,173.5 -148.1,461.8 -164.5,769.6 -91.7,160.4 -577.9,906.9 -1728.3,996.8 -488,38.1 -846.4,-87.6 -1261.3,-233.1 -611.1,-214.4 -1296,-454.6 -2523.9,-193.5 m 4159.7,-2256.6 -66.2,35.2 c -15.2,8.1 -379.1,206.4 -821.4,851 -255,371.7 -433.5,382.4 -1025,417.7 -248.9,14.9 -558.6,33.4 -958.1,86.2 -1117.8,147.9 -1659.9,716.5 -1841.2,954.1 -55.9,73.4 -58.7,173.9 -7,250.2 51.5,76.2 145.7,111 234.5,86.2 1393.3,-386.7 2076.9,-146.9 2738,85 431.7,151.5 839.6,294.6 1397.9,250.9 1458.1,-113.9 1995.3,-1165.5 2017.5,-1210.2 l 16.1,-32.5 1.2,-36.2 c 14.2,-430 200.7,-844.9 202.5,-849 l 74.5,-163.8 -1963.3,-724.8"
         style="fill:#6b184e;fill-opacity:1;fill-rule:nonzero;stroke:none"
         id="path98" /><path
         d="m 23370.8,25075.6 c -36.4,0 -73,11.8 -103.7,36.2 -72.4,57.3 -84.5,162.5 -27.2,234.8 36.5,46 898.6,1130 1393.5,1476 509.7,356.3 1383.7,780 1999.1,1028.2 -1002.7,84.6 -2751.4,79.4 -3379.1,-246.1 -830.4,-430.6 -2197.3,-2224.6 -2211,-2242.7 -55.8,-73.5 -160.7,-88 -234.3,-32.1 -73.5,55.7 -87.9,160.6 -32.1,234.2 57.8,76.2 1426.9,1872.5 2323.5,2337.4 841.4,436.2 3251.8,366.4 4087.2,219.2 98.5,-17.4 171.2,-99.3 176.6,-199.2 5.5,-99.9 -57.8,-189.3 -153.8,-217.4 -494.2,-144.3 -1740.7,-705.5 -2384.5,-1155.6 -455,-318.1 -1314.4,-1398.7 -1323,-1409.6 -33.1,-41.6 -81.9,-63.3 -131.2,-63.3"
         style="fill:#6b184e;fill-opacity:1;fill-rule:nonzero;stroke:none"
         id="path100" /><path
         d="m 21177,23647.4 c -59.4,-496.1 -313.5,-1458.3 -313.5,-1458.3 l -2076,-53.9 c 0,0 -504.9,976.4 -147.1,2343.5 23.8,91.2 52.2,181.9 84.4,273 284.2,804.5 850.1,1612.9 909.9,2505.7 2.5,43.4 57.3,60.1 83.6,25.5 222.4,-293.9 852.6,-1138.2 1064.1,-1551.5 286.8,-560.5 392.5,-1037.4 416.8,-1436.6 15.4,-244.1 0,-459.3 -22.2,-647.4"
         style="fill:#5dbd5c;fill-opacity:1;fill-rule:nonzero;stroke:none"
         id="path102" /><path
         d="m 18778.7,22675.3 c -71.3,291 -129.6,703.9 -79.3,1195.3 9.8,27.7 19.6,54.7 29.3,81.5 115.4,-569.5 533.5,-978.3 1237.1,-978.3 35.4,0 71.4,1.1 108.3,3.2 391.4,22.3 680.9,271.2 872.9,505.2 -11.7,-190.8 -40.9,-359.8 -74,-509.4 -7.5,-30.7 -14.3,-59.9 -20.5,-87.3 -15.7,-62.9 -34.9,-131.9 -56.2,-204.1 -317.1,53.5 -648.4,80.4 -993.1,80.4 -356.2,0 -697.8,-28.9 -1024.5,-86.5"
         style="fill:#618b58;fill-opacity:1;fill-rule:nonzero;stroke:none"
         id="path104" /><path
         d="m 20947,23482.2 c 23,375.3 -21.9,835.1 -239.4,1397.8 -153,396.2 -644.9,1223.8 -819.2,1512.2 -8.5,14 -22.3,20.5 -36.1,20.5 -19.3,0 -38.5,-12.8 -42.5,-35.6 -149.2,-861 -541.2,-944.5 -1081.1,-2425 -4.2,21 -8.1,42.2 -11.5,63.7 19.3,135.2 46.9,275.6 84.8,420.5 91.3,348.8 255.5,697.5 429.4,1066.6 217.1,460.8 440.4,934.8 532.1,1440.9 272.5,-367.4 706.7,-969.4 870.2,-1288.8 441.8,-862.7 433.6,-1515.5 377.1,-1987.9 -4.7,-39.3 -10.7,-81.9 -17.8,-126.8 -14.6,-19.2 -30,-38.6 -46,-58.1"
         style="fill:#9ed79d;fill-opacity:1;fill-rule:nonzero;stroke:none"
         id="path106" /><path
         d="m 20810.4,22679 c -4.7,0.8 -9.4,1.6 -14.1,2.4 21.3,72.2 40.5,141.2 56.2,204.1 -20.5,-90.6 -34.1,-161.8 -42.1,-206.5 m 62.6,293.8 c 33.1,149.6 62.3,318.6 74,509.4 16,19.5 31.4,38.9 46,58.1 -18.1,-115.4 -43.2,-246.4 -71.1,-380 -18.7,-67.1 -35,-130.1 -48.9,-187.5 m -2173.6,897.8 c 4.9,47.7 10.8,96.1 17.8,145.2 3.4,-21.5 7.3,-42.7 11.5,-63.7 -9.7,-26.8 -19.5,-53.8 -29.3,-81.5"
         style="fill:#a0b99b;fill-opacity:1;fill-rule:nonzero;stroke:none"
         id="path108" /><path
         d="m 19763.5,26943.8 c -91.7,-506.1 -315,-980.1 -532.1,-1440.9 -173.9,-369.1 -338.1,-717.8 -429.4,-1066.6 -274.3,-1049.1 -13.3,-1863.9 93.5,-2131.2 l 1837.5,47.7 c 69.2,272.3 232.8,938.1 277.8,1314.3 56.5,472.4 64.7,1125.2 -377.1,1987.9 -163.5,319.4 -597.7,921.4 -870.2,1288.8 m -1076.2,-4978.6 -48.1,93.1 c -21.9,42.2 -530.2,1049.8 -160.7,2462.6 99.1,378.7 277.7,757.8 450.4,1124.5 246.5,523.4 501.5,1064.5 538.8,1623.1 6.1,90.3 65.9,165.3 152.4,191.2 86.3,25.7 177.2,-4 231.6,-76 253.1,-334.2 865,-1157.1 1079.6,-1576.3 483,-943.2 473.7,-1660.5 411.5,-2180 -60,-501.8 -307.2,-1441.4 -317.7,-1481.1 l -32,-121.2 -2305.8,-59.9"
         style="fill:#6b184e;fill-opacity:1;fill-rule:nonzero;stroke:none"
         id="path110" /><path
         d="m 27334,24458.3 c -522.5,21.7 -2239.4,36.7 -3230.4,-634.1 -20.5,-13.8 -40.2,-27.6 -59.8,-41.4 -1118,-790.3 -1101.7,-1750 -1780.5,-1849 -690.1,-100.8 -1441.6,12.5 -1296.1,669.1 0,0 53.1,344.9 198.1,777 180.1,538.4 502.4,1211.7 1040.7,1522.7 680,392.9 1462.7,372.5 2174.8,352.1 304.2,-8.7 595.6,-17.5 860.5,6 1229.2,109.1 1805.1,-490.6 2122.4,-717.2 38,-27.1 17.1,-86.9 -29.7,-85.2"
         style="fill:#5dbd5c;fill-opacity:1;fill-rule:nonzero;stroke:none"
         id="path112" /><path
         d="m 22367.3,22135.3 c -355.5,199.5 -737.5,351.7 -1145.3,456.1 34.9,144 85.1,325.7 153.8,522.2 84.2,-48.4 185.3,-71.7 295.1,-71.7 320.2,0 715.1,197.6 986.1,545.8 211.7,272.3 482,355.4 732.9,355.4 175.8,0 342,-40.8 471.9,-85.8 -530,-397.6 -797.7,-823.7 -1016.3,-1171.8 -184.3,-293.5 -304.6,-473.8 -478.2,-550.2"
         style="fill:#618b58;fill-opacity:1;fill-rule:nonzero;stroke:none"
         id="path114" /><path
         d="m 21375.8,23113.6 c -35.1,20.2 -67.4,44.8 -96.1,73.9 161,529.7 470.9,1259.1 1009.9,1570.5 494.4,285.7 1046.4,338.8 1600.7,338.8 165.7,0 331.7,-4.7 496.3,-9.4 156.9,-4.6 309.2,-8.9 457,-8.9 141.9,0 279.5,4 412.6,15.8 94.9,8.5 185.6,12.4 272.3,12.4 700.7,0 1144.7,-256.6 1442.4,-474.2 -5.7,0 -11.4,0 -17.1,0 -297.5,166.2 -694.7,309.4 -1235.1,309.4 -92.2,0 -188.5,-4.2 -289.3,-13.1 -127.3,-11.3 -260.8,-15.2 -398.8,-15.2 -149.1,0 -303.6,4.5 -461.6,9 -158,4.5 -319.5,9.1 -482.5,9.1 -571.9,0 -1163.2,-55.5 -1692.4,-361.1 -516.5,-298.6 -834.1,-930.8 -1018.3,-1457"
         style="fill:#9ed79d;fill-opacity:1;fill-rule:nonzero;stroke:none"
         id="path116" /><path
         d="m 21222,22591.4 c -27.8,7.1 -55.7,13.9 -83.7,20.6 14.9,82.2 58.4,302.3 141.4,575.5 28.7,-29.1 61,-53.7 96.1,-73.9 -68.7,-196.5 -118.9,-378.2 -153.8,-522.2"
         style="fill:#a0b99b;fill-opacity:1;fill-rule:nonzero;stroke:none"
         id="path118" /><path
         d="m 20967.1,22602.9 h 0.5 -0.5 m 2923.2,2493.9 c -554.3,0 -1106.3,-53.1 -1600.7,-338.8 -889,-513.7 -1154.7,-2164.1 -1157.2,-2180.7 l -2,-10.6 c -30.8,-139 -11.9,-243 57.8,-318 152.9,-164.4 555.7,-221.7 1051.1,-149.5 250.3,36.5 380,226.2 606.2,586.3 238.1,379.1 534.4,850.9 1164.6,1277.4 856.6,579.8 2221.3,668.5 2960.8,669.6 -334.6,244.5 -854,538.4 -1714.7,461.8 -271.7,-24.1 -562.1,-15.8 -869.6,-6.9 -164.6,4.7 -330.6,9.4 -496.3,9.4 m -2044.6,-3361.5 c -317.2,0 -689.6,56.8 -902.4,285.8 -101.2,108.9 -207.4,303.3 -140.5,612.6 20.5,129.3 309.3,1830.1 1319.5,2413.8 724.4,418.5 1547.5,394.9 2273.8,374.1 297.5,-8.6 578.4,-16.6 830.5,5.8 1143.3,101.5 1772.1,-389.5 2110,-653.3 47.2,-36.8 88,-68.7 124.3,-94.6 77.7,-55.5 109.1,-153.4 78,-243.6 -31.1,-90.5 -117,-148 -211.7,-144.6 -493.8,20.6 -2179.4,37.8 -3129.7,-605.3 -571.8,-387.1 -847.4,-825.8 -1068.8,-1178.3 -228.8,-364.3 -426.4,-678.9 -841.2,-739.4 -105.1,-15.3 -264.9,-33 -441.8,-33"
         style="fill:#6b184e;fill-opacity:1;fill-rule:nonzero;stroke:none"
         id="path120" /><path
         d="m 25936.8,12798 c 0,-54.8 -0.5,-109.5 -1.7,-163.9 -0.8,-57.6 -2.5,-115.7 -5,-173 l -1.3,-31.4 c -1.6,-45.1 -4.1,-89.4 -6.7,-133.7 -0.4,-9.6 -1.2,-19.6 -2,-29.3 -1.7,-34.2 -4.2,-68.5 -7.2,-102.4 -1.6,-25 -3.3,-50.1 -5.8,-74.8 -1.7,-26.3 -4.2,-52.6 -6.7,-79 -2.5,-26.7 -5.4,-53.5 -7.9,-80.2 -1.3,-13.4 -3,-26.3 -4.6,-39.7 -3.4,-33 -7.1,-66.5 -11.3,-99.1 -5.5,-45.1 -11.3,-90.3 -18,-135 -2.1,-17.5 -5,-35.1 -7.9,-52.2 -5.5,-39.3 -11.3,-78.2 -18,-116.6 -0.4,-3.8 -1.3,-7.2 -1.7,-10.9 -8.3,-50.2 -17.1,-100.3 -26.7,-149.6 -9.6,-51.4 -20.1,-102.4 -30.5,-153 -10.5,-47.7 -20.9,-94.5 -31.8,-141.3 -0.8,-3.3 -1.7,-6.7 -2.5,-10 -11.3,-48.9 -23.4,-97.4 -36.4,-145.5 -1.2,-5 -2.5,-10 -4.1,-15 -8.4,-33.4 -17.6,-66.5 -27.2,-99.5 -5.9,-21.7 -12.1,-43.5 -18.4,-65.2 -8.8,-30.1 -17.6,-59.8 -27.2,-89.4 -2.9,-10.9 -6.3,-21.8 -10,-32.6 -13.8,-45.6 -28.8,-90.3 -43.9,-134.6 -15.9,-47.2 -32.6,-93.6 -49.3,-140 -102.4,-277.6 -223.2,-540.9 -361.5,-790 -46.4,-83.2 -94.5,-164.2 -144.7,-244.1 -50.1,-79.4 -102.4,-157.5 -156.3,-234 -53.9,-76.1 -109.9,-150.9 -168,-223.6 -58.1,-73.2 -117.9,-144.2 -179.7,-213.6 -61.9,-69.4 -125.4,-137.1 -191,-203.1 -32.6,-33.1 -66.1,-65.7 -99.9,-97.4 -15.5,-15.1 -31.4,-29.7 -47.3,-44.8 -52.2,-48.4 -106.1,-95.7 -160.9,-142.5 -17.5,-15 -35.5,-30.1 -53.5,-44.7 -17.5,-14.6 -34.7,-28.8 -52.2,-42.6 -74,-59.4 -149.6,-117.1 -227,-172.2 -19.2,-13.8 -38.4,-27.6 -58.1,-41 -19.2,-13.4 -38.8,-26.7 -58.5,-40.1 -37.2,-25.1 -74.4,-49.8 -112.4,-73.6 -42.6,-27.6 -85.3,-53.9 -128.7,-79.8 -20.5,-12.6 -41.4,-24.7 -61.9,-36.8 -20.9,-12.1 -41.8,-23.8 -62.7,-35.9 -41.8,-23.9 -84.4,-46.9 -127.5,-69.4 -30.5,-16.3 -61.4,-32.6 -92.8,-47.7 -29.6,-15.4 -59.7,-30.1 -90.2,-44.7 -26.4,-12.9 -52.7,-25.5 -79.5,-38 -44.7,-20.9 -89.8,-41 -135.4,-60.6 -45.5,-20.1 -91.5,-39.3 -137.9,-57.7 -46.4,-18.8 -93.2,-37.2 -140.4,-54.8 -23.9,-8.7 -47.7,-17.5 -71.5,-25.9 -45.2,-16.7 -90.3,-32.6 -136.3,-47.2 -75.6,-25.9 -152.1,-49.7 -229.4,-72.3 -49.8,-14.6 -100.3,-28.9 -150.9,-42.6 -25.5,-6.7 -50.6,-13.4 -76.5,-20.1 -26.8,-6.7 -53.5,-13.4 -80.7,-20.1 -76,-18.8 -152.9,-35.9 -231.1,-52.2 -132.1,-27.2 -266.7,-51.4 -403.8,-72.3 -82.3,-12.6 -165.5,-23.8 -249.5,-33.5 -133.3,-15.8 -268.7,-28.4 -406.7,-38 -35.9,-2.9 -72.3,-5 -109,-7.1 -29.3,-1.7 -58.6,-3.3 -88.2,-4.6 -28.9,-1.3 -57.7,-2.5 -86.6,-3.8 -89.8,-3.3 -180.1,-5.4 -271.6,-6.2 -178.9,-1.7 -354,2.1 -525.8,10.8 -28.9,1.7 -58.1,3 -87,5 -28.8,1.7 -57.6,3.8 -86.5,5.9 -28.8,2.1 -57.2,4.2 -85.7,6.7 -28.8,2.1 -57.2,4.6 -85.2,7.5 -102.8,9.6 -204.4,21.3 -304.3,34.7 -25.5,3.3 -50.6,7.1 -75.7,10.9 -31.3,4.6 -62.2,9.2 -93.6,14.2 -21.3,3.3 -42.6,6.7 -63.9,10.4 -30.5,5 -61.5,10.5 -92.4,15.9 -20.9,4.2 -42.2,8 -63.1,12.1 -25.5,4.6 -51,10.1 -76.5,15.1 -25.5,5 -51,10.4 -76.5,15.9 -25.1,5.4 -50.1,10.8 -75.2,16.7 -25.1,5.4 -50.2,11.3 -75.3,17.5 -43.8,10.5 -87.3,21.4 -130.8,32.6 -5.4,1.3 -11.3,3 -17.1,4.6 -48.9,13 -97.4,26.4 -145.5,40.6 -70.6,20.5 -140.4,41.8 -208.9,64.4 -1.7,0.4 -3.4,0.8 -5.1,1.6 -46.8,15.5 -93.2,31.8 -139.1,47.7 l -0.5,0.4 c -276.6,99 -538.3,215.6 -784.9,349.4 -410.8,222.8 -779.5,492.4 -1104.2,804.6 l -0.9,0.4 c -113.7,109.5 -221.9,223.6 -324.3,342.7 -58.5,68.2 -115.8,138.4 -171,209.8 -23.4,30.1 -46.4,60.6 -68.9,91.6 -5.9,7.1 -11.3,14.2 -15.9,21.3 -25.5,35.1 -50.6,70.2 -75.2,106.2 -51.9,74.8 -101.6,150.8 -149.7,228.6 -19.6,32.2 -39.3,64.3 -58.5,96.9 -7.1,11.3 -13.4,22.6 -19.6,33.5 -15.1,26.7 -30.5,53.5 -45.2,80.2 -8.7,14.7 -16.7,29.7 -24.2,44.3 -13.8,24.7 -26.8,49.4 -39.7,74.4 -9.6,16.7 -18,33.5 -25.9,50.2 -14.2,26.7 -27.6,53.5 -40.6,80.2 -7.5,14.7 -14.6,28.9 -20.9,43.5 -14.2,28.8 -27.6,57.7 -40.5,86.5 -6.7,13 -12.6,25.9 -18,38.5 -13.8,30.1 -27.2,60.6 -40.1,91.1 -6.3,13.4 -11.7,26.3 -16.3,38.9 -16.3,37.2 -31.4,74.4 -46.4,112.4 -15.9,38.9 -30.9,78.2 -45.6,117.4 -5.4,13.8 -10.4,28 -15,41.8 -13,33.9 -25.1,67.7 -36.4,102 -2.5,4.6 -3.7,9.2 -4.6,13.4 -15,43 -29.6,86.5 -43.4,130.4 -13.4,40.5 -26,81.5 -38.1,122.9 -5,16.7 -10,33.4 -14.6,50.1 -9.2,31.4 -18,63.1 -26.8,95.3 -4.1,13.8 -7.5,27.2 -10.4,40.2 -9.6,34.6 -18.4,69.3 -27.2,104.4 -4.1,15.5 -7.9,31 -10.8,46 -8,30.1 -14.7,60.2 -21.8,90.7 -7.1,30.5 -13.8,61 -19.6,91.6 -4.2,17.1 -8,33.8 -10.9,50.9 -7.1,33.1 -13.8,66.1 -19.6,99.5 -4.2,19.7 -7.6,39.7 -10.9,59.8 -50.2,273.8 -85.3,556.7 -104.9,848 -6.3,84.5 -10.9,169.7 -14.2,255.8 -0.4,10.1 -0.9,19.7 -0.9,29.3 -2,48.9 -3.3,97.4 -4.1,146.3 -1.3,55.6 -1.7,111.6 -1.7,168 0,107 1.7,214.8 5.4,323.5 0.4,16.7 1.3,33.4 2.1,50.2 2.5,68.5 5.9,137.5 10.5,206.8 1.6,26 3.3,51.9 5,78.2 v 0.8 c 2.1,31.8 4.6,63.6 7.1,95.3 4.2,55.6 8.8,111.2 14.2,167.2 v 0.4 c 1.3,14.2 2.5,28.9 4.2,43.1 v 0.8 c 18.8,188.5 43,379.5 72.3,573 100.3,658.8 215.7,1391 375.3,2138.3 622.8,2917.4 1919.7,6074.3 5630,6074.3 1531.8,0 2650.3,-533.7 3479.5,-1365.9 89,-89 174.3,-181.8 256.6,-277.1 41.4,-48.1 82,-96.6 121.2,-146.3 39.8,-49.3 78.6,-99.5 116.7,-150.1 33.8,-45.5 67.3,-91.1 99.9,-137.5 32.5,-46.4 64.7,-93.2 96.1,-140.4 15.9,-23.4 31.3,-47.2 46.8,-71.5 46.8,-71.4 92,-144.6 135.8,-218.6 630.7,-1060.3 1010.7,-2334.3 1273.6,-3568.9 159.2,-744.9 275.4,-1475.4 379.1,-2136.3 30.1,-191.8 54.7,-381.1 73.9,-567.5 v -0.5 c 2.1,-15.8 3.4,-31.7 5.1,-47.6 3.3,-31.4 6.2,-62.7 8.7,-94 2.1,-20.5 3.8,-41 5.5,-61.5 7.1,-81.1 12.9,-161.7 17.5,-241.2 1.7,-30 3.4,-60.1 5,-89.8 v -0.9 c 1.3,-17.5 2.1,-35.5 2.5,-52.6 3,-56.4 4.6,-112 6.3,-167.2 0.8,-17.1 1.3,-34.3 1.3,-51.4 1.6,-70.7 2.5,-140.4 2.5,-209.8"
         style="fill:#f1cd01;fill-opacity:1;fill-rule:nonzero;stroke:none"
         id="path122" /><g
         id="g124"><g
           id="g126"
           clip-path="url(#clipPath130)"><path
             d="m 24608.4,18508.6 -247.9,247.9 90.9,90.9 c 54.5,-111.3 106.8,-224.4 157,-338.8 m -460,460 -2064.6,2064.6 212.1,212.1 1874.5,-1874.5 c 47,-79.8 92.8,-161.1 137,-243.1 l -159,-159.1"
             style="fill:#c99618;fill-opacity:1;fill-rule:nonzero;stroke:none"
             id="path132" /><path
             d="m 21871.7,21245.3 -415,415 c 208,-66.7 405.5,-146.1 592.9,-237.1 l -177.9,-177.9"
             style="fill:#c99618;fill-opacity:1;fill-rule:nonzero;stroke:none"
             id="path134" /><path
             d="m 25724.2,12839.4 -265.4,265.4 c 70.8,71.1 136.2,147.5 195.8,228.4 l 104.9,-104.8 c 0.1,-3.5 0.2,-7 0.3,-10.7 2.8,-55.2 4.5,-109.5 6.2,-166.6 0.5,-8.8 0.7,-17.6 0.9,-27.4 -13.5,-62.1 -27.7,-123.3 -42.7,-184.3 m -3348,3772.3 c -52.8,1.6 -104.8,3.1 -156.1,4.4 l 75.8,75.8 80.3,-80.2 m -504.5,80.2 -2064.6,2064.6 212.2,212.1 2064.5,-2064.6 -212.1,-212.1 m -2276.7,2276.7 -2064.8,2064.8 212.1,212.1 2064.8,-2064.8 -212.1,-212.1"
             style="fill:#c99618;fill-opacity:1;fill-rule:nonzero;stroke:none"
             id="path136" /><path
             d="m 17318.1,21245.5 -31.5,31.5 c 46.3,26.8 93.3,52.7 140.9,77.9 l -109.4,-109.4"
             style="fill:#c99618;fill-opacity:1;fill-rule:nonzero;stroke:none"
             id="path138" /><path
             d="m 24019,9990.8 -1935.2,1935.1 212.1,212.1 1945.8,-1945.7 c -72,-69.2 -146.4,-136.5 -222.7,-201.5 m -2147.3,2147.2 -2064.8,2064.9 212.1,212.1 542.3,-542.3 c 200.7,-586.8 666,-1052.2 1252.9,-1252.9 l 269.6,-269.6 -212.1,-212.2 m -2276.9,2277 -429.6,429.5 c 5.5,20.3 11.5,40.5 18.1,60.4 29.1,86.5 68.2,163.9 115.3,230.4 l 508.3,-508.2 -212.1,-212.1 m -1922,2207.1 69.5,69.6 68.4,-68.4 c -44.9,-0.2 -90.9,-0.6 -137.9,-1.2 m -354.7,69.6 -2064.8,2064.8 212.1,212.1 2064.8,-2064.8 -212.1,-212.1"
             style="fill:#c99618;fill-opacity:1;fill-rule:nonzero;stroke:none"
             id="path140" /><path
             d="m 20792.6,8663.8 -985.5,985.4 212.2,212.2 1143.4,-1143.5 c -121.4,-20.7 -244.6,-38.8 -370.1,-54.1 m -1197.6,1197.6 -2064.8,2064.8 212.1,212.1 2064.8,-2064.8 -212.1,-212.1 m -2276.9,2276.9 -374.2,374.2 h 176.4 c 79,0 157.1,4.7 234,13.8 l 175.9,-175.9 -212.1,-212.1"
             style="fill:#c99618;fill-opacity:1;fill-rule:nonzero;stroke:none"
             id="path142" /><path
             d="m 18807.6,8649.7 c -126.5,14.1 -251,31.1 -373.3,51 l 1160.7,1160.7 212.1,212.1 2064.6,2064.5 212.1,212.2 172.8,172.8 c 67.6,-7 136.3,-10.5 205.7,-10.5 h 208.1 l -374.5,-374.5 -212.1,-212.1 -2064.5,-2064.5 -212.2,-212.2 -999.5,-999.5"
             style="fill:#c99618;fill-opacity:1;fill-rule:nonzero;stroke:none"
             id="path144" /><path
             d="m 15583.1,9979 c -75.7,65.8 -149.2,133.7 -220.6,203.8 l 1955.6,1955.5 212.1,212.1 289.3,289.3 c 542.5,204 979.4,637.5 1183.6,1183.6 l 591.7,591.7 212.1,212.1 489,489 c 41.2,-62 75.6,-132.7 102,-210.8 9.5,-28.4 17.8,-57.3 24.9,-86.5 L 20019,14415 19806.9,14202.9 17742.3,12138.3 17530.2,11926.2 15583.1,9979 m 6637,6637.1 c -146.3,3.8 -286.1,6.2 -417.2,7 l 68.8,68.8 212.1,212.1 2064.6,2064.6 159,159.1 c 49.8,-92.3 97.6,-185.5 144,-280.3 l -90.9,-90.9 -2064.6,-2064.6 -75.8,-75.8"
             style="fill:#c99618;fill-opacity:1;fill-rule:nonzero;stroke:none"
             id="path146" /><path
             d="m 13894.6,12843.9 c -17,68.8 -33,138.3 -48,208.4 0.8,37 1.8,73.6 3.1,109.7 0.3,15.4 1.1,30.7 2,48.2 0.2,5.2 0.4,10.4 0.6,15.7 l 88.9,88.9 c 60.4,-80.2 126.7,-155.8 198.2,-226.1 l -244.8,-244.8 m 3344.5,3768.8 79,79 212.1,212.1 2064.8,2064.8 212.1,212.1 2064.6,2064.6 177.9,177.9 c 95,-46.1 187.3,-95.1 277.3,-147 l -31,-30.9 -212.1,-212.1 -2064.5,-2064.6 -212.2,-212.1 -2064.8,-2064.8 -69.5,-69.6 c -137,-1.7 -282.5,-4.9 -433.7,-9.4"
             style="fill:#c99618;fill-opacity:1;fill-rule:nonzero;stroke:none"
             id="path148" /><path
             d="m 14991.9,18495 c 130.9,298.5 276.2,587.4 438.1,862.4 l 1888.1,1888.1 109.4,109.4 c 228.1,120.6 471.4,223.6 730.9,306.7 l -416.1,-416.1 -212.1,-212.1 -2064.8,-2064.8 -212.1,-212.1 -261.4,-261.5"
             style="fill:#c99618;fill-opacity:1;fill-rule:nonzero;stroke:none"
             id="path150" /></g></g><path
         d="m 14403.4,16787.9 c 114.9,503.2 255.5,1031.6 436,1554.7 l 152.5,152.4 c -239.6,-546 -431.1,-1123.9 -588.5,-1707.1 m 10787.9,31.8 c -156.5,577.5 -346.3,1149.2 -582.9,1688.9 l 146.5,-146.5 c 161.5,-466.8 306.5,-979.5 436.4,-1542.4 m -9938,2361 -57.9,57.9 c 415.6,909.8 986.6,1746.3 1795.5,2334.1 l 295.7,-295.7 c -790.9,-456 -1392,-1130.4 -1856.6,-1919.6 l -176.7,-176.7 m 9107.2,0 -190.1,190.1 c -461.5,783.4 -1058.2,1452.1 -1843.5,1905.4 l 298.8,298.8 c 188,-137.8 367.5,-292.6 538.8,-464.5 82.3,-82.3 163.5,-170 248.1,-268 44.7,-51.9 82.9,-98 117.7,-142 38.6,-47.9 76.3,-96.6 112.7,-144.9 32.9,-44.4 65.5,-88.8 97.3,-134 31.7,-45.2 63.1,-90.7 94.5,-138.1 15,-22.1 29.6,-44.6 45.3,-69.2 42.6,-65.1 85.8,-134.6 132.1,-212.5 141.3,-237.7 274.2,-494 399,-770.4 l -50.7,-50.7 m -2276.7,2276.7 -764,764 c 376.9,-112 727.3,-269.9 1053.3,-474.8 l -289.3,-289.2 m -4553.6,0.2 -285.9,286 c 313.6,195.8 660.3,356 1043.9,472 l -758,-758 m 3926.5,202.7 c -489.9,156.9 -1038.3,243 -1653.5,243 -611.2,0 -1156.8,-85.6 -1644.8,-241.7 l 685.7,685.6 c 299.4,52.4 618.5,80.2 959.1,80.2 337.9,0 659.1,-25.9 964.4,-78 l 689.1,-689.1"
         style="fill:#f8e680;fill-opacity:1;fill-rule:nonzero;stroke:none"
         id="path152" /><path
         d="m 24754.9,18362.1 -146.5,146.5 c -50.2,114.4 -102.5,227.5 -157,338.8 l 87.5,87.5 c 75.1,-182.7 147.1,-373.6 216,-572.8 m -447.5,765.6 c -44.2,82 -90,163.3 -137,243.1 l 190.1,-190.1 -53.1,-53"
         style="fill:#e4cb8c;fill-opacity:1;fill-rule:nonzero;stroke:none"
         id="path154" /><path
         d="m 22049.6,21423.2 c -187.4,91 -384.9,170.4 -592.9,237.1 l -689.1,689.1 c 190.1,-32.4 374.1,-75.1 552.2,-128 l 764,-764 -34.2,-34.2"
         style="fill:#e4cb8c;fill-opacity:1;fill-rule:nonzero;stroke:none"
         id="path156" /><path
         d="m 17286.6,21277 -295.7,295.7 c 82,59.6 166.4,116.6 253.4,170.9 l 285.9,-286 -102.7,-102.7 c -47.6,-25.2 -94.6,-51.1 -140.9,-77.9"
         style="fill:#e4cb8c;fill-opacity:1;fill-rule:nonzero;stroke:none"
         id="path158" /><path
         d="m 15103.8,19031.2 c 29.7,69.5 60.2,138.7 91.6,207.4 l 57.9,-57.9 -149.5,-149.5"
         style="fill:#e4cb8c;fill-opacity:1;fill-rule:nonzero;stroke:none"
         id="path160" /><path
         d="m 24451.4,18847.4 c -46.4,94.8 -94.2,188 -144,280.3 l 53.1,53 50.7,50.7 c 43.5,-96.3 86.2,-195.2 127.7,-296.5 l -87.5,-87.5"
         style="fill:#e4cb8c;fill-opacity:1;fill-rule:nonzero;stroke:none"
         id="path162" /><path
         d="m 22326.9,21276.2 c -90,51.9 -182.3,100.9 -277.3,147 l 34.2,34.2 289.3,289.2 c 85.9,-53.9 170,-111.1 252.6,-171.6 l -298.8,-298.8"
         style="fill:#e4cb8c;fill-opacity:1;fill-rule:nonzero;stroke:none"
         id="path164" /><path
         d="m 14839.4,18342.6 c 79.9,231.5 167.6,461.8 264.4,688.6 l 149.5,149.5 176.7,176.7 c -161.9,-275 -307.2,-563.9 -438.1,-862.4 l -152.5,-152.4 m 2588.1,3012.3 102.7,102.7 758,758 c 177.2,53.6 362.4,97.7 555.9,131.6 l -685.7,-685.6 c -259.5,-83.1 -502.8,-186.1 -730.9,-306.7"
         style="fill:#e4cb8c;fill-opacity:1;fill-rule:nonzero;stroke:none"
         id="path166" /><path
         d="m 17494.1,7220.2 c 60.4,-19.8 124.5,-39.4 195.6,-60 47.4,-14.1 94.4,-27 141.7,-39.6 l 11.8,-3.2 c 46.9,-12.1 89.3,-22.7 132.1,-32.9 25.1,-6.3 48.5,-11.8 72,-16.8 26.6,-6.2 50.8,-11.5 75,-16.7 24.8,-5.3 49.1,-10.5 73.4,-15.3 l 27.1,-5.4 c 15.6,-3.2 31.2,-6.3 46.8,-9.1 l 68.1,-13 c 28.5,-5 56.8,-10 84.8,-14.6 22.3,-3.9 42.6,-7.1 62.9,-10.3 31.1,-5 61.3,-9.4 91.9,-13.9 24.6,-3.7 48.7,-7.3 73.1,-10.5 101.2,-13.6 201.3,-25 298.1,-34 28.1,-3 54.7,-5.3 81.8,-7.2 30.2,-2.7 57.7,-4.7 85.6,-6.7 28.2,-2.1 56.2,-4.1 84.2,-5.7 20.3,-1.5 38.3,-2.4 56.1,-3.4 l 30.9,-1.7 c 168.7,-8.6 342.4,-12.3 514.5,-10.5 89.8,0.8 179.6,2.9 267,6.1 l 85.6,3.7 c 28.9,1.3 57.3,2.9 85.8,4.5 35.5,2 70.5,4 105.1,6.8 138.7,9.7 272.8,22.3 400.5,37.5 78.6,9 160.5,19.9 244,32.7 131.1,19.9 264.1,43.8 395.3,70.7 82.7,17.3 156.3,33.9 224.7,50.8 l 154.8,39.6 c 48,13.1 97.5,26.9 146.2,41.3 81.3,23.7 153.9,46.6 222.5,70.1 42.5,13.5 84.7,28.2 132.3,45.8 25,8.8 47.2,17 69.4,25.1 47.6,17.7 92.9,35.5 137.8,53.7 45.7,18.1 89.7,36.6 133.4,55.8 45.1,19.5 88.8,38.9 132,59 25.6,12.1 51,24.1 76.3,36.6 30.5,14.6 58.9,28.4 87,43 l 4.7,2.4 c 29.2,14 58,29.2 86.4,44.4 42.5,22.3 83.4,44.4 123.5,67.2 l 78.7,45.4 c 13.8,8.1 27.6,16.3 41.3,24.6 43.5,26 84.4,51.2 125.2,77.7 38.6,24.1 74.2,47.7 109.8,71.8 18.7,12.7 37.8,25.7 56.5,38.7 19.5,13.3 37.2,26 54.9,38.6 73.1,52.2 146.9,108.3 221.1,167.8 17.6,13.8 33.5,27 49.8,40.6 18.3,15 35.2,29.1 51.8,43.3 61.9,53 111.5,96.8 155.9,138.1 l 14.9,14 c 9.9,9.3 19.8,18.6 29.5,28 34.5,32.4 66.4,63.5 97.5,95 62.5,62.9 124.7,129.1 185.2,196.9 59.2,66.4 117.6,135.9 173.6,206.4 54.4,68.1 109,140.7 162.6,216.2 52.1,74.1 103.1,150.5 151.3,226.7 48.4,77.1 95.6,156.7 139.9,236.2 134.3,241.7 252.3,499.6 350.8,766.5 16.5,45.9 32.5,90.3 47.7,135.4 14.5,43 29,85.9 42.3,129.7 l 2,6.2 c 2.5,7.2 4.7,14.3 6.6,21.4 l 2.4,8.1 c 9.1,28.2 17.4,56.3 25.7,84.8 5.9,20.2 11.9,40.9 17.4,61.7 10,34.3 18.6,65.3 26.4,96.6 l 5,18.1 c 12.4,46.1 24.1,92.6 34.9,139.5 l 3.1,12.7 c 10.2,43.7 20.5,89.8 30.8,136.8 9.8,47.5 20,97.5 29.4,147.8 9.4,48.3 17.8,96 25.7,143.7 0.4,2.7 0.9,5.2 1.3,7.8 l 1.1,7 c 6.3,36.6 11.9,73.6 17.1,110.9 l 0.7,5 c 2.5,14.5 5,29.3 6.8,44.2 7.1,48 12.8,91.6 18,135.1 4.1,32.4 7.7,64.4 10.9,95.9 l 0.8,6.6 c 1.4,10.6 2.7,21 3.7,31.8 l 8,80.4 c 2.5,26.4 4.8,50.2 6.3,74 l 0.5,6.1 c 2.3,22.8 3.8,45.9 5.3,69.1 3,35.1 5.4,67.3 7,99.4 l 0.4,6.8 c 0.7,7.1 1.3,14.5 1.6,21.6 2.6,45.5 5,88.7 6.7,132.8 l 1.2,31.7 c 2.5,56.4 4.1,112.8 4.9,168.9 1.3,54.4 1.7,107.9 1.7,161.4 0,68 -0.8,136.5 -2.5,205.8 0,18.4 -0.4,32.9 -1.1,47.3 -1.7,57.1 -3.4,111.4 -6.2,166.6 -0.5,19.2 -1.3,34.6 -2.3,49.5 l -5.2,93.2 c -4.5,77.7 -10.3,157.2 -17.2,235.9 -1.7,20.5 -3.2,39.8 -5.2,59.2 -2.7,33.4 -5.5,63.3 -8.7,93.2 l -1.7,17.1 c -0.8,8.9 -1.7,17.7 -2.8,26.6 l -1.4,13.4 c -18.8,180.5 -43,365.6 -72,550.3 -89.9,573.3 -213,1358.3 -377.4,2127.2 -314.9,1478.5 -724.9,2629.4 -1253.7,3518.5 -46.3,77.9 -89.5,147.4 -132.1,212.5 -15.7,24.6 -30.3,47.1 -45.3,69.2 -31.4,47.4 -62.8,92.9 -94.5,138.1 -31.8,45.2 -64.4,89.6 -97.3,134 -36.4,48.3 -74.1,97 -112.7,144.9 -34.8,44 -73,90.1 -117.7,142 -84.6,98 -165.8,185.7 -248.1,268 -883.1,886.2 -1982.5,1316.9 -3361.3,1316.9 -3762.9,0 -4921.9,-3391.2 -5466.5,-5942 -158.8,-743.1 -271.6,-1459 -373.5,-2128.5 -28.7,-189.5 -52.4,-376.6 -70.4,-556.2 l -1.2,-12.2 c -1.2,-10.1 -2.1,-20.5 -3,-30.7 l -0.8,-9.3 c -5.3,-54.7 -9.8,-109.1 -13.9,-163.5 -2.2,-27.7 -4.3,-55 -6.2,-82.2 l -5.8,-90.4 c -4.5,-67.9 -7.7,-135.3 -10.2,-202.2 -0.9,-17.5 -1.7,-32.8 -2,-48.2 -3.6,-103.4 -5.4,-210.3 -5.4,-319.3 0,-55.2 0.4,-109.9 1.6,-164.3 0.9,-48.3 2.1,-95.3 4.1,-142.8 l 0.1,-7.2 c 0,-7 0.4,-13.9 0.7,-21.2 3.5,-90.7 8,-172.4 13.9,-251.5 19.2,-284 53.7,-563 102.7,-830.3 3.3,-20.2 6.2,-37.9 9.9,-55.1 l 1.1,-5.9 c 5.5,-31.4 11.8,-62.3 18.5,-93.2 l 1.3,-7 c 2.3,-13.3 5.3,-26.3 8.5,-39.6 l 1.8,-8 c 5.4,-28.4 11.6,-56.7 18.2,-85 l 4.6,-19.6 c 5.1,-22.3 10.2,-44.4 16,-66.4 l 2.5,-11.1 c 2.2,-11.2 5.1,-22.6 8.2,-34.1 9.2,-36.7 17.6,-70 26.8,-103.3 l 2,-7.9 c 2,-9.1 4.3,-18.5 7.3,-28.3 9.9,-35.9 18.3,-66.6 27.2,-97 5,-18 9.7,-33.5 14.3,-49 12,-40.8 24,-79.9 36.7,-118.7 14,-44.4 28.1,-86.1 42.5,-127.5 l 5.6,-16.2 c 10.5,-31.8 21.7,-63.2 33.7,-94.6 l 2.4,-6.7 c 3.7,-11.1 7.7,-22.4 12.1,-33.5 15.1,-40.7 29.5,-78.3 44.7,-115.5 15,-38 29.4,-73.3 44.8,-108.7 l 3.8,-9.3 c 3,-8.3 6.6,-16.8 10.8,-25.6 l 2.5,-5.6 c 12.3,-29.1 25,-58.2 38.2,-86.8 5.4,-12.4 9.6,-21.9 14.5,-31.4 l 4.1,-8.4 c 12.1,-27 24.6,-54 37.9,-81 l 3.6,-8 c 4.8,-11.1 10.3,-21.9 16.1,-33 13.7,-28.3 26.2,-53.3 39.4,-78.2 l 3.4,-6.7 c 6.1,-12.8 12.4,-25.7 19.8,-38.5 l 3.6,-6.6 c 12.1,-23.4 24.2,-46.5 37.1,-69.5 l 2.8,-5.2 c 5.9,-11.4 12,-23.2 18.8,-34.6 l 3.4,-6 c 9.3,-17 18.9,-33.9 28.6,-50.9 l 19.2,-33.9 c 3.8,-6.6 7.6,-13.3 11.9,-20.1 21.2,-35.8 40.4,-67.3 59.6,-98.8 46.2,-74.6 94.9,-149.1 144.4,-220.6 24.2,-35.3 48.5,-69.2 73.1,-103.1 l 4.9,-7.1 c 1.3,-2 3,-4 4.7,-6 l 6.1,-7.9 c 21.5,-29.6 43.5,-58.7 65.8,-87.4 53,-68.7 108.7,-137 165.8,-203.5 87,-101.3 180.8,-201.3 279.3,-298 l 34.9,-33.6 c 315.1,-302.9 674.5,-564.7 1068.1,-778.1 238.6,-129.5 494.9,-243.5 761.6,-339 l 29.9,-10.6 c 35,-12.2 70.3,-24.4 105.8,-36.1 l 12.5,-4.2 m 2227.7,-665.3 c -151.6,0 -303.6,3.8 -453,11.5 l -30.2,1.6 c -20.1,1.1 -40.3,2.2 -60.3,3.6 -27.1,1.5 -56.8,3.7 -86.5,5.9 -29.6,2.1 -59,4.3 -88.3,6.9 -27.9,2 -58.1,4.6 -87.9,7.7 -99.4,9.3 -204,21.2 -309.1,35.3 -26,3.4 -52.2,7.3 -78.3,11.3 -31.5,4.6 -63.2,9.3 -95.3,14.4 -21.7,3.4 -44.1,7 -66.5,10.9 -27.2,4.5 -56.8,9.6 -86.4,14.8 l -72.8,13.9 c -14.8,2.6 -32.7,6.3 -50.6,9.9 l -25.3,5 c -26.1,5.1 -52.2,10.7 -78.3,16.3 -27.2,5.9 -53.2,11.5 -79.1,17.5 -24.3,5.3 -51.1,11.6 -77.8,18.2 -43.2,10.3 -87.8,21.5 -132.3,33 -3,0.6 -11.1,2.8 -19.3,5.2 -49.2,13 -99.2,26.8 -148.7,41.5 -75.6,21.9 -144.5,43.1 -209.7,64.5 -4.4,1.2 -9.4,2.8 -14.9,4.9 -35.2,11.7 -70.2,23.8 -104.9,35.8 l -4.5,1.6 h -139 l -0.1,51 c -243.2,92.4 -477.4,199.5 -697.8,319.1 -410.2,222.4 -785.7,494.2 -1116.7,808.4 l -75.5,31.2 -0.1,41.7 c -99.9,98.8 -195.3,200.9 -284.2,304.3 -60.9,71 -120.3,143.9 -176.5,216.7 -23.2,29.8 -46.3,60.4 -69,91.5 -7.6,9.4 -14.6,18.8 -20.9,28.2 -25.7,35.3 -50.9,70.7 -75.7,106.9 -52.4,75.6 -104.3,155 -154,235.3 -20.5,33.6 -40.6,66.5 -60.3,99.8 -4.3,6.8 -10.5,17.5 -16.5,28 l -19.8,35 c -10,17.6 -20,35.1 -29.6,52.7 -9.5,16 -18.2,32.3 -26.4,48.3 -13.6,24.4 -26.5,48.8 -39.3,73.5 -10.4,18.4 -19.7,36.6 -28.4,54.9 -14.5,27.5 -28.3,55 -41.6,82.5 -7,13.6 -15,29.6 -22.3,46.2 -13.8,28.1 -26.8,56.2 -39.5,84.4 -7.5,14.9 -14.3,29.8 -20.6,44.2 -12.6,27.6 -26.2,58.6 -39.4,89.7 -7.1,15.1 -13.2,29.8 -18.7,44.1 -16.3,37.6 -31.6,75.3 -46.8,113.7 -15.8,38.7 -31.5,79.7 -46.8,120.6 -4.9,12.6 -10.5,28.2 -15.7,43.7 -12.3,32.2 -23.9,64.5 -34.7,97 -3.8,8.8 -6.9,17.9 -9.4,27.4 -14.7,42.2 -28.9,84.7 -42.4,127.7 -13.3,40.1 -26.4,82.8 -39,126 -5.1,16.8 -10.4,34.7 -15.4,52.7 -8.7,29.8 -17.8,62.6 -26.8,95.8 -3.8,12.1 -7.8,27.7 -11.4,43.2 -9.5,34.7 -18.3,69.5 -27.1,104.7 -4.1,14.9 -8.3,32.1 -11.7,49.1 -6.2,23.8 -11.7,47.6 -17.3,71.6 l -4.3,18.7 c -7.3,31.2 -14.1,62.5 -20.2,93.9 -4.4,18.3 -8.4,36.3 -11.6,54.7 -7.1,33 -13.8,66.1 -19.7,99.6 -4.4,21.1 -8,42.5 -11.6,64 -50.8,277.1 -86.9,568.7 -106.8,864.3 -6.1,81.9 -10.9,167.5 -14.5,260.5 -0.4,11.3 -0.8,21.7 -0.9,31.9 -2.1,49.2 -3.4,98 -4.2,147.3 -1.2,55.9 -1.7,113.2 -1.7,170.9 0,112.8 1.9,223.6 5.6,329.3 0.4,16.4 1.2,34.5 2.1,52.6 2.5,68.1 6,138.7 10.6,209.7 l 0.2,2.3 -61.4,61.5 70.6,75.3 c 1,12.4 2,24.9 2.9,37.3 4.2,55 8.7,110.6 14.2,166.6 l 0.2,2.4 c 1.3,15.8 2.6,29.5 4,42.7 l 0.3,3.2 c 18.7,187.7 43.4,383.4 73.4,581.5 102.7,674.6 216.4,1396.1 377.1,2148.2 391.2,1832.3 943,3205 1687,4196.5 1000.8,1333.7 2382.4,2010 4106.5,2010 1451.7,0 2662.3,-476.1 3597.9,-1415.1 87.9,-87.8 174.5,-181.4 264.7,-285.8 48,-55.8 89.1,-105.4 125.9,-152 39.9,-49.5 79.9,-101.1 119.1,-153.1 35.3,-47.6 69.6,-94.4 103.1,-142 33.4,-47.6 66.4,-95.6 98.6,-144.1 15.8,-23.3 32.2,-48.4 48.5,-74 44.2,-67.5 89.9,-141.1 138.6,-223.1 547.7,-920.9 970.8,-2104.8 1293.3,-3619.5 166.3,-777.8 290.2,-1568.1 380.7,-2145.1 30.4,-193.4 55.6,-387.3 75.2,-576.4 v -0.4 c 1.3,-11.1 2.5,-22.1 3.5,-33.2 l 1.4,-14.3 c 3.5,-32.4 6.6,-65.2 9.2,-98 1.9,-18.1 3.7,-39.7 5.4,-61.3 7.1,-80.9 13.1,-163.7 17.8,-245 l 5.3,-93.9 c 1.2,-18.4 2,-37.2 2.5,-55.1 2.8,-53 4.5,-109.8 6.2,-166.2 0.9,-16.7 1.3,-36.6 1.3,-56.4 1.7,-68 2.6,-139.1 2.6,-209.8 0,-56.1 -0.5,-112.1 -1.8,-167.7 -0.8,-58 -2.5,-117.7 -5.1,-176.5 l -1.2,-30.7 c -1.7,-45.8 -4.3,-91.2 -6.8,-136.6 -0.4,-8.9 -1.3,-20.1 -2.2,-31.1 -1.8,-35.3 -4.4,-70.6 -7.4,-105.5 -1.5,-22.7 -3.2,-48.6 -5.7,-74.1 -1.8,-26.2 -4.2,-52.4 -6.7,-78.6 l -8.2,-82.6 c -1.3,-14.2 -3,-28.1 -4.8,-42.5 -3.4,-32.9 -7.3,-67.8 -11.7,-101.8 -5.5,-45.5 -11.5,-92.2 -18.4,-138.5 -1.7,-14.8 -4.9,-34 -8.1,-52.9 -5.4,-39.3 -11.3,-78.1 -17.9,-116.6 -0.4,-2.4 -0.8,-4.8 -1.2,-7.2 l -0.9,-5.9 c -8.6,-51.6 -17.6,-103.3 -27.5,-154 -9.6,-51.2 -20.2,-103.2 -30.9,-154.8 -11,-50.4 -21.6,-97.8 -32.7,-145.4 l -3,-12.4 c -11.2,-48.3 -23.8,-98.7 -37.3,-148.7 -1,-4.3 -2.6,-10.4 -4.6,-17 -8.5,-33.8 -17.9,-67.3 -27.6,-100.8 -5.2,-19.3 -11.7,-42.1 -18.3,-64.8 -9,-30.8 -17.9,-60.8 -27.5,-90.8 -3.4,-12.1 -7.1,-24.2 -11.2,-36.2 -14.1,-46.4 -29.4,-91.9 -44.7,-137 -15.8,-46.9 -32.5,-93.4 -49.2,-139.9 -105.9,-287 -231.2,-560.6 -373.8,-817.5 -47.3,-84.9 -97.5,-169.5 -149.2,-251.8 -51.4,-81.4 -105.6,-162.5 -161.2,-241.4 -57.5,-81.1 -116,-158.9 -174.1,-231.7 -59.6,-75.1 -122.1,-149.4 -185.6,-220.5 -64.4,-72.3 -130.7,-142.8 -197.1,-209.7 -33.8,-34.2 -68.7,-68.3 -104.1,-101.5 -9,-8.7 -20.3,-19.3 -31.7,-30 l -15,-14.2 c -49.1,-45.5 -101.8,-92.2 -167.2,-148.2 -18.5,-15.8 -37.5,-31.7 -56.5,-47.2 -17.5,-14.5 -35.8,-29.7 -54.6,-44.5 -77.7,-62.3 -156.6,-122.2 -233.2,-176.8 -20.9,-15 -40.8,-29.3 -61.1,-43.1 -18.3,-12.7 -38.5,-26.5 -58.6,-40.2 -39.2,-26.5 -78,-52.2 -117.7,-77 -42.3,-27.3 -86.6,-54.8 -131.9,-81.7 -13.5,-8.3 -29.1,-17.5 -44.5,-26.6 l -81.8,-47.2 c -44.5,-25.4 -88.9,-49.3 -133.7,-72.8 -30.6,-16.4 -62.8,-33.3 -95.5,-49.1 -30.5,-15.8 -61.5,-30.9 -92.9,-45.9 -25.7,-12.7 -53,-25.7 -80.8,-38.7 -46.3,-21.7 -93,-42.4 -140,-62.8 -46.4,-20.3 -94.3,-40.4 -142.6,-59.5 -46.7,-19 -95,-38 -143.8,-56.1 -26.7,-9.8 -50.6,-18.6 -74.4,-27 -49.8,-18.4 -96.8,-34.7 -140.9,-48.7 -69.9,-24 -147.4,-48.4 -233.3,-73.5 -50.5,-14.8 -102.1,-29.4 -153.7,-43.5 l -161.2,-41.1 c -72.2,-17.9 -149.8,-35.4 -237,-53.6 -137.2,-28.2 -275.9,-53.1 -412.7,-73.9 -87.7,-13.4 -173.7,-24.9 -255.7,-34.3 -132.2,-15.7 -271.8,-28.8 -414.1,-38.7 -35.3,-2.9 -73.1,-5.1 -111.2,-7.2 -29.9,-1.7 -60,-3.4 -90.5,-4.7 l -86.3,-3.8 c -91.6,-3.4 -184.6,-5.6 -277.5,-6.4 -27.6,-0.3 -55.3,-0.4 -82.9,-0.4"
         style="fill:#6b184e;fill-opacity:1;fill-rule:nonzero;stroke:none"
         id="path168" /><path
         d="m 19718.3,6889.2 c -144.6,0 -289.6,3.8 -431.2,11 l -30.9,1.7 c -17.8,1 -35.8,1.9 -56.1,3.4 -28,1.6 -56,3.6 -84.2,5.7 -27.9,2 -55.4,4 -85.6,6.7 -27.1,1.9 -53.7,4.2 -81.8,7.2 -96.8,9 -196.9,20.4 -298.1,34 -24.4,3.2 -48.5,6.8 -73.1,10.5 -30.6,4.5 -60.8,8.9 -91.9,13.9 -20.3,3.2 -40.6,6.4 -62.9,10.3 -28,4.6 -56.3,9.6 -84.8,14.6 l -23.6,4.5 -571.8,571.7 1065.3,1065.3 c 294,-32.6 599.5,-49.3 916.3,-49.3 26.4,0 52.7,0.2 79.3,0.4 342.6,3 672.5,24.2 989.4,63 l 1079.1,-1079.1 -544.6,-544.6 c -112.4,-22.2 -225.6,-42.1 -337.5,-59.1 -83.5,-12.8 -165.4,-23.7 -244,-32.7 -127.7,-15.2 -261.8,-27.8 -400.5,-37.5 -34.6,-2.8 -69.6,-4.8 -105.1,-6.8 -28.5,-1.6 -56.9,-3.2 -85.8,-4.5 l -85.6,-3.7 c -87.4,-3.2 -177.2,-5.3 -267,-6.1 -27.7,-0.3 -55.5,-0.5 -83.3,-0.5 M 17763.5,7139 c -24.6,6.9 -49.1,13.9 -73.8,21.2 -71.1,20.6 -135.2,40.2 -195.6,60 l -12.5,4.2 c -24.9,8.2 -49.6,16.6 -74.2,25.1 l 122.8,122.8 233.3,-233.3 m 4124.5,37.8 195.8,195.8 101.8,-101.8 c -17.7,-6 -35.1,-11.8 -52.5,-17.3 -68.6,-23.5 -141.2,-46.4 -222.5,-70.1 -7.5,-2.2 -15,-4.4 -22.6,-6.6 m -4788.5,189 c -178.5,73.5 -351,155.2 -515.2,244.3 -393.6,213.4 -753,475.2 -1068.1,778.1 l -34.9,33.6 c -98.5,96.7 -192.3,196.7 -279.3,298 -57.1,66.5 -112.8,134.8 -165.8,203.5 -22.3,28.7 -44.3,57.8 -65.8,87.4 l -6.1,7.9 c -1.7,2 -3.4,4 -4.7,6 l -4.9,7.1 c -24.6,33.9 -48.9,67.8 -73.1,103.1 -19.4,28 -38.6,56.4 -57.6,85.1 l 429.3,429.4 2064.8,-2064.9 -218.6,-218.6 m 5394.4,20.9 -198,198 2064.6,2064.6 427.3,-427.3 c -21,-31.1 -42.2,-61.9 -63.6,-92.4 -53.6,-75.5 -108.2,-148.1 -162.6,-216.2 -56,-70.5 -114.4,-140 -173.6,-206.4 -60.5,-67.8 -122.7,-134 -185.2,-196.9 -31.1,-31.5 -63,-62.6 -97.5,-95 -9.7,-9.4 -19.6,-18.7 -29.5,-28 l -14.9,-14 c -44.4,-41.3 -94,-85.1 -155.9,-138.1 -16.6,-14.2 -33.5,-28.3 -51.8,-43.3 -16.3,-13.6 -32.2,-26.8 -49.8,-40.6 -74.2,-59.5 -148,-115.6 -221.1,-167.8 -17.7,-12.6 -35.4,-25.3 -54.9,-38.6 -18.7,-13 -37.8,-26 -56.5,-38.7 -35.6,-24.1 -71.2,-47.7 -109.8,-71.8 -40.8,-26.5 -81.7,-51.7 -125.2,-77.7 -13.7,-8.3 -27.5,-16.5 -41.3,-24.6 l -78.7,-45.4 c -40.1,-22.8 -81,-44.9 -123.5,-67.2 -28.4,-15.2 -57.2,-30.4 -86.4,-44.4 l -4.7,-2.4 c -28.1,-14.6 -56.5,-28.4 -87,-43 -25.3,-12.5 -50.7,-24.5 -76.3,-36.6 -43.2,-20.1 -86.9,-39.5 -132,-59 -36.8,-16.2 -73.9,-31.9 -112.1,-47.2 m -4963.7,409.9 -2064.8,2064.8 117.7,117.6 c 747.1,-649.6 1703.7,-1091.6 2851.2,-1278.3 l -904.1,-904.1 m 4553.6,0.2 -921.1,921.1 c 1144.4,196.1 2104.4,632.3 2856.3,1272.9 l 129.4,-129.4 -2064.6,-2064.6 m -7422.3,1684.9 -15,26.5 c -9.7,17 -19.3,33.9 -28.6,50.9 l -3.4,6 c -6.8,11.4 -12.9,23.2 -18.8,34.6 l -2.8,5.2 c -12.9,23 -25,46.1 -37.1,69.5 l -3.6,6.6 c -7.4,12.8 -13.7,25.7 -19.8,38.5 l -3.4,6.7 c -13.2,24.9 -25.7,49.9 -39.4,78.2 -5.8,11.1 -11.3,21.9 -16.1,33 l -3.6,8 c -13.3,27 -25.8,54 -37.9,81 l -4.1,8.4 c -4.9,9.5 -9.1,19 -14.5,31.4 -13.2,28.6 -25.9,57.7 -38.2,86.8 l -2.5,5.6 c -4.2,8.8 -7.8,17.3 -10.8,25.6 l -3.8,9.3 c -15.4,35.4 -29.8,70.7 -44.8,108.7 -15.2,37.2 -29.6,74.8 -44.7,115.5 -4.4,11.1 -8.4,22.4 -12.1,33.5 l -2.4,6.7 c -12,31.4 -23.2,62.8 -33.7,94.6 l -5.6,16.2 c -14.4,41.4 -28.5,83.1 -42.5,127.5 -12.7,38.8 -24.7,77.9 -36.7,118.7 -4.6,15.5 -9.3,31 -14.3,49 -2.3,8.1 -4.6,16.1 -7,24.3 l 926.9,-926.8 -379.7,-379.7 m 10290.5,0.3 -379.4,379.4 935,935 c -4.7,-17.4 -9.8,-34.8 -14.7,-51.8 -8.3,-28.5 -16.6,-56.6 -25.7,-84.8 l -2.4,-8.1 c -1.9,-7.1 -4.1,-14.2 -6.6,-21.4 l -2,-6.2 c -13.3,-43.8 -27.8,-86.7 -42.3,-129.7 -15.2,-45.1 -31.2,-89.5 -47.7,-135.4 -98.5,-266.9 -216.5,-524.8 -350.8,-766.5 -20.6,-36.9 -41.8,-73.8 -63.4,-110.5 m -591.5,591.5 -118.8,118.8 c 717.6,689.5 1219.9,1584.4 1482.5,2647.1 l 45.4,-45.4 c 0,-52.1 -0.4,-104.3 -1.7,-157.4 -0.8,-56.1 -2.4,-112.5 -4.9,-168.9 l -1.2,-31.7 c -1.7,-44.1 -4.1,-87.3 -6.7,-132.8 -0.3,-7.1 -0.9,-14.5 -1.6,-21.6 l -0.4,-6.8 c -1.6,-32.1 -4,-64.3 -7,-99.4 -1.5,-23.2 -3,-46.3 -5.3,-69.1 l -0.5,-6.1 c -1.5,-23.8 -3.8,-47.6 -6.3,-74 l -8,-80.4 c -1,-10.8 -2.3,-21.2 -3.7,-31.8 l -0.8,-6.6 c -3.2,-31.5 -6.8,-63.5 -10.9,-95.9 -5.2,-43.5 -10.9,-87.1 -18,-135.1 -1.8,-14.9 -4.3,-29.7 -6.8,-44.2 l -0.7,-5 c -5.2,-37.3 -10.8,-74.3 -17.1,-110.9 l -1.1,-7 c -0.4,-2.6 -0.9,-5.1 -1.3,-7.8 -7.9,-47.7 -16.3,-95.4 -25.7,-143.7 -0.4,-2 -0.7,-4 -1.1,-6 l -1278.3,-1278.3 m -9107.2,0 -1271.3,1271.3 c -1.2,6.5 -2.4,13 -3.6,19.6 l -1.1,5.9 c -3.7,17.2 -6.6,34.9 -9.9,55.1 -49,267.3 -83.5,546.3 -102.7,830.3 -5.9,79.1 -10.4,160.8 -13.9,251.5 -0.3,7.3 -0.7,14.2 -0.7,21.2 l -0.1,7.2 c -2,47.5 -3.2,94.5 -4.1,142.8 -0.9,38.3 -1.3,76.7 -1.5,115.3 l 50.2,50.2 c 261.7,-1060.7 757.4,-1964 1467.9,-2661.1 l -109.2,-109.3"
         style="fill:#c99618;fill-opacity:1;fill-rule:nonzero;stroke:none"
         id="path170" /><path
         d="m 25769.6,12794 -45.4,45.4 c 15,61 29.2,122.2 42.7,184.3 0.1,-6.2 0.2,-12.7 0.2,-19.9 1.7,-69.3 2.5,-137.8 2.5,-205.8 0,-1.3 0,-2.7 0,-4"
         style="fill:#ad7028;fill-opacity:1;fill-rule:nonzero;stroke:none"
         id="path172" /><path
         d="m 24787.8,9222 -427.3,427.3 212.1,212.1 379.4,-379.4 c -25,-42.4 -50.6,-84.4 -76.5,-125.7 -28.4,-44.9 -57.7,-89.8 -87.7,-134.3 m -639.4,639.4 -129.4,129.4 c 76.3,65 150.7,132.3 222.7,201.5 l 118.8,-118.8 -212.1,-212.1"
         style="fill:#ad7028;fill-opacity:1;fill-rule:nonzero;stroke:none"
         id="path174" /><path
         d="m 22185.6,7270.8 -101.8,101.8 212.1,212.1 198,-198 c -7,-2.9 -14.2,-5.7 -21.3,-8.6 -44.9,-18.2 -90.2,-36 -137.8,-53.7 -22.2,-8.1 -44.4,-16.3 -69.4,-25.1 -28.1,-10.4 -54.3,-19.8 -79.8,-28.5 m -313.9,313.9 -1079.1,1079.1 c 125.5,15.3 248.7,33.4 370.1,54.1 l 921.1,-921.1 -212.1,-212.1"
         style="fill:#ad7028;fill-opacity:1;fill-rule:nonzero;stroke:none"
         id="path176" /><path
         d="m 18314.1,7012.7 -44.5,8.5 c -15.6,2.8 -31.2,5.9 -46.8,9.1 l -27.1,5.4 c -24.3,4.8 -48.6,10 -73.4,15.3 -24.2,5.2 -48.4,10.5 -75,16.7 -23.5,5 -46.9,10.5 -72,16.8 -42.8,10.2 -85.2,20.8 -132.1,32.9 l -11.8,3.2 c -22.7,6.1 -45.3,12.2 -67.9,18.4 l -233.3,233.3 212.1,212.1 571.8,-571.7 m -996,571.7 -2064.8,2064.9 212.1,212.1 2064.8,-2064.8 -212.1,-212.2"
         style="fill:#ad7028;fill-opacity:1;fill-rule:nonzero;stroke:none"
         id="path178" /><path
         d="m 15041.2,9861.4 -926.9,926.8 c -6.4,22.7 -13,46.3 -20.2,72.7 -3,9.8 -5.3,19.2 -7.3,28.3 l -2,7.9 c -9.2,33.3 -17.6,66.6 -26.8,103.3 -3.1,11.5 -6,22.9 -8.2,34.1 l -2.5,11.1 c -5.8,22 -10.9,44.1 -16,66.4 l -4.6,19.6 c -6.6,28.3 -12.8,56.6 -18.2,85 l -1.8,8 c -3.2,13.3 -6.2,26.3 -8.5,39.6 l -1.3,7 c -5.3,24.5 -10.3,48.9 -14.9,73.6 l 1271.3,-1271.3 -212.1,-212.1"
         style="fill:#ad7028;fill-opacity:1;fill-rule:nonzero;stroke:none"
         id="path180" /><path
         d="m 21327.1,7040.1 544.6,544.6 212.1,212.1 2064.6,2064.6 212.1,212.1 1278.3,1278.3 c -9.1,-48.3 -18.9,-96.2 -28.3,-141.8 -10.3,-47 -20.6,-93.1 -30.8,-136.8 l -3.1,-12.7 c -10.8,-46.9 -22.5,-93.4 -34.9,-139.5 l -5,-18.1 c -7.8,-31.3 -16.4,-62.3 -26.4,-96.6 -0.9,-3.3 -1.8,-6.6 -2.7,-9.9 l -935,-935 -212.1,-212.1 -2064.6,-2064.6 -212.1,-212.1 -195.8,-195.8 c -41.3,-12 -83,-23.7 -123.6,-34.7 l -154.8,-39.6 c -68.4,-16.9 -142,-33.5 -224.7,-50.8 -19.2,-3.9 -38.5,-7.8 -57.8,-11.6"
         style="fill:#ad7028;fill-opacity:1;fill-rule:nonzero;stroke:none"
         id="path182" /><path
         d="m 17407.4,7249.5 c -10.5,3.7 -21.1,7.3 -31.6,11 l -29.9,10.6 c -83.2,29.8 -165.4,61.4 -246.4,94.7 l 218.6,218.6 212.1,212.2 904.1,904.1 c 122.3,-19.9 246.8,-36.9 373.3,-51 l -1065.3,-1065.3 -212.1,-212.1 -122.8,-122.8"
         style="fill:#ad7028;fill-opacity:1;fill-rule:nonzero;stroke:none"
         id="path184" /><path
         d="m 14824,9219.9 c -29.6,44.7 -58.7,90.1 -86.8,135.5 -19.2,31.5 -38.4,63 -59.6,98.8 -4.3,6.8 -8.1,13.5 -11.9,20.1 l -4.2,7.4 379.7,379.7 212.1,212.1 109.2,109.3 c 71.4,-70.1 144.9,-138 220.6,-203.8 l -117.7,-117.6 -212.1,-212.1 -429.3,-429.4"
         style="fill:#ad7028;fill-opacity:1;fill-rule:nonzero;stroke:none"
         id="path186" /><path
         d="m 13844.4,12793.7 c -0.1,16.3 -0.1,32.6 -0.1,49 0,70.9 0.7,140.9 2.3,209.6 15,-70.1 31,-139.6 48,-208.4 l -50.2,-50.2"
         style="fill:#ad7028;fill-opacity:1;fill-rule:nonzero;stroke:none"
         id="path188" /><path
         d="m 19720.1,6722.1 c -150.2,0 -297.6,3.8 -442.7,11.2 -28.9,1.7 -58.1,3 -87,5 -28.8,1.7 -57.6,3.8 -86.5,5.9 -28.8,2.1 -57.2,4.2 -85.7,6.7 -28.8,2.1 -57.2,4.6 -85.2,7.5 -102.8,9.6 -204.4,21.3 -304.3,34.7 -25.5,3.3 -50.6,7.1 -75.7,10.9 -31.3,4.6 -62.2,9.2 -93.6,14.2 -21.3,3.3 -42.6,6.7 -63.9,10.4 -30.5,5 -61.5,10.5 -92.4,15.9 -20.9,4.2 -42.2,8 -63.1,12.1 -25.5,4.6 -51,10.1 -76.5,15.1 -25.5,5 -51,10.4 -76.5,15.9 -25.1,5.4 -50.1,10.8 -75.2,16.7 -25.1,5.4 -50.2,11.3 -75.3,17.5 -43.8,10.5 -87.3,21.4 -130.8,32.6 -5.4,1.3 -11.3,3 -17.1,4.6 -48.9,13 -97.4,26.4 -145.5,40.6 -70.6,20 -140.4,41.8 -208.9,64.4 -1.7,0.4 -3.4,0.8 -5.1,1.6 -46.8,15.5 -93.2,31.4 -139.1,47.7 l -0.5,0.4 c -276.6,98.6 -538.3,215.2 -784.9,349.4 -410.8,222.4 -779.9,491.9 -1104.2,804.6 l -0.9,0.4 c -113.7,109.1 -221.9,223.6 -324.3,342.7 -59.4,68.2 -116.2,138.4 -171,209.8 -23.4,30.1 -46.4,60.6 -68.9,91.6 -5.9,7.1 -11.3,14.2 -15.9,21.3 -25.5,35.1 -50.6,70.2 -75.2,106.2 -52.3,74.4 -102,150.8 -149.7,228.6 -19.6,32.2 -39.3,64.3 -58.5,96.9 -7.1,11.3 -13.4,22.6 -19.6,33.5 -15.1,26.7 -30.5,53.5 -45.2,80.2 -8.7,14.7 -16.7,29.7 -24.2,44.3 -13.8,24.7 -26.8,49.4 -39.7,74.4 -9.6,16.7 -18,33.5 -25.9,50.2 -14.2,26.7 -27.6,53.5 -40.6,80.2 -7.5,14.7 -14.6,28.9 -20.9,43.5 -14.2,28.8 -27.6,57.7 -40.5,86.5 -6.7,13 -12.6,25.9 -18,38.5 -13.8,30.1 -27.2,60.6 -40.1,91.1 -6.3,13.4 -11.7,26.3 -16.3,38.9 -16.3,37.2 -31.4,74.4 -46.4,112.4 -15.9,38.9 -30.9,78.2 -45.6,117.4 -5.4,13.8 -10.4,28 -15,41.8 -13,33.9 -25.1,67.7 -36.4,102 -2.5,4.6 -3.7,9.2 -4.6,13.4 -15,43 -29.6,86.5 -43.4,130.4 -13.4,40.5 -26,81.5 -38.1,122.9 -5,16.7 -10,33.4 -14.6,50.1 -9.2,31.4 -18,63.1 -26.8,95.3 -4.1,13.8 -7.5,27.2 -10.4,40.2 -9.6,34.6 -18.4,69.3 -27.2,104.4 -4.1,15.5 -7.9,31 -10.8,46 -8,30.1 -14.7,60.2 -21.8,90.7 -7.1,30.5 -13.8,61 -19.6,91.6 -4.2,17.1 -8,33.8 -10.9,50.9 -7.1,33.1 -13.8,66.1 -19.6,99.5 -4.2,19.7 -7.6,39.7 -10.9,59.8 -50.2,273.8 -85.3,556.7 -104.9,848 -6.3,84.5 -10.9,169.7 -14.2,255.8 -0.4,10.1 -0.9,19.7 -0.9,29.3 -2,48.9 -3.3,97.4 -4.1,146.3 -1.3,55.6 -1.7,111.6 -1.7,168 0,107 1.7,214.8 5.4,323.5 0.4,16.7 1.3,33.4 2.1,50.2 2.5,68.5 5.9,137.5 10.5,206.8 1.6,26 3.3,51.9 5,78.2 v 0.8 c 2.1,31.8 4.6,63.6 7.1,95.3 4.2,55.6 8.8,111.2 14.2,167.2 v 0.4 c 1.3,14.2 2.5,28.9 4.2,43.1 1.4,-13.3 2.9,-26.4 4.4,-39.5 -1.5,-14.4 -3,-28.8 -4.4,-43.3 v -0.8 c -1.7,-14.2 -2.9,-28.8 -4.2,-43.1 v -0.4 c 4.2,-8.7 7.9,-16.7 12.1,-25.1 l 0.4,-0.4 c 4.5,-9.5 9,-19 13.7,-28.4 6.4,-48.4 13.3,-96.6 20.6,-144.6 v -0.4 c 22.1,-145.8 48.3,-289.2 78.4,-429.9 -1.6,-68.7 -2.3,-138.7 -2.3,-209.6 0,-16.4 0,-32.7 0.1,-49 0.2,-38.6 0.6,-77 1.5,-115.3 0.9,-48.3 2.1,-95.3 4.1,-142.8 l 0.1,-7.2 c 0,-7 0.4,-13.9 0.7,-21.2 3.5,-90.7 8,-172.4 13.9,-251.5 19.2,-284 53.7,-563 102.7,-830.3 3.3,-20.2 6.2,-37.9 9.9,-55.1 l 1.1,-5.9 c 1.2,-6.6 2.4,-13.1 3.6,-19.6 4.6,-24.7 9.6,-49.1 14.9,-73.6 l 1.3,-7 c 2.3,-13.3 5.3,-26.3 8.5,-39.6 l 1.8,-8 c 5.4,-28.4 11.6,-56.7 18.2,-85 l 4.6,-19.6 c 5.1,-22.3 10.2,-44.4 16,-66.4 l 2.5,-11.1 c 2.2,-11.2 5.1,-22.6 8.2,-34.1 9.2,-36.7 17.6,-70 26.8,-103.3 l 2,-7.9 c 2,-9.1 4.3,-18.5 7.3,-28.3 7.2,-26.4 13.8,-50 20.2,-72.7 2.4,-8.2 4.7,-16.2 7,-24.3 5,-18 9.7,-33.5 14.3,-49 12,-40.8 24,-79.9 36.7,-118.7 14,-44.4 28.1,-86.1 42.5,-127.5 l 5.6,-16.2 c 10.5,-31.8 21.7,-63.2 33.7,-94.6 l 2.4,-6.7 c 3.7,-11.1 7.7,-22.4 12.1,-33.5 15.1,-40.7 29.5,-78.3 44.7,-115.5 15,-38 29.4,-73.3 44.8,-108.7 l 3.8,-9.3 c 3,-8.3 6.6,-16.8 10.8,-25.6 l 2.5,-5.6 c 12.3,-29.1 25,-58.2 38.2,-86.8 5.4,-12.4 9.6,-21.9 14.5,-31.4 l 4.1,-8.4 c 12.1,-27 24.6,-54 37.9,-81 l 3.6,-8 c 4.8,-11.1 10.3,-21.9 16.1,-33 13.7,-28.3 26.2,-53.3 39.4,-78.2 l 3.4,-6.7 c 6.1,-12.8 12.4,-25.7 19.8,-38.5 l 3.6,-6.6 c 12.1,-23.4 24.2,-46.5 37.1,-69.5 l 2.8,-5.2 c 5.9,-11.4 12,-23.2 18.8,-34.6 l 3.4,-6 c 9.3,-17 18.9,-33.9 28.6,-50.9 l 15,-26.5 4.2,-7.4 c 3.8,-6.6 7.6,-13.3 11.9,-20.1 21.2,-35.8 40.4,-67.3 59.6,-98.8 28.1,-45.4 57.2,-90.8 86.8,-135.5 19,-28.7 38.2,-57.1 57.6,-85.1 24.2,-35.3 48.5,-69.2 73.1,-103.1 l 4.9,-7.1 c 1.3,-2 3,-4 4.7,-6 l 6.1,-7.9 c 21.5,-29.6 43.5,-58.7 65.8,-87.4 53,-68.7 108.7,-137 165.8,-203.5 87,-101.3 180.8,-201.3 279.3,-298 l 34.9,-33.6 c 315.1,-302.9 674.5,-564.7 1068.1,-778.1 164.2,-89.1 336.7,-170.8 515.2,-244.3 81,-33.3 163.2,-64.9 246.4,-94.7 l 29.9,-10.6 c 10.5,-3.7 21.1,-7.3 31.6,-11 24.6,-8.5 49.3,-16.9 74.2,-25.1 l 12.5,-4.2 c 60.4,-19.8 124.5,-39.4 195.6,-60 24.7,-7.3 49.2,-14.3 73.8,-21.2 22.6,-6.2 45.2,-12.3 67.9,-18.4 l 11.8,-3.2 c 46.9,-12.1 89.3,-22.7 132.1,-32.9 25.1,-6.3 48.5,-11.8 72,-16.8 26.6,-6.2 50.8,-11.5 75,-16.7 24.8,-5.3 49.1,-10.5 73.4,-15.3 l 27.1,-5.4 c 15.6,-3.2 31.2,-6.3 46.8,-9.1 l 44.5,-8.5 23.6,-4.5 c 28.5,-5 56.8,-10 84.8,-14.6 22.3,-3.9 42.6,-7.1 62.9,-10.3 31.1,-5 61.3,-9.4 91.9,-13.9 24.6,-3.7 48.7,-7.3 73.1,-10.5 101.2,-13.6 201.3,-25 298.1,-34 28.1,-3 54.7,-5.3 81.8,-7.2 30.2,-2.7 57.7,-4.7 85.6,-6.7 28.2,-2.1 56.2,-4.1 84.2,-5.7 20.3,-1.5 38.3,-2.4 56.1,-3.4 l 30.9,-1.7 c 141.6,-7.2 286.6,-11 431.2,-11 27.8,0 55.6,0.2 83.3,0.5 89.8,0.8 179.6,2.9 267,6.1 l 85.6,3.7 c 28.9,1.3 57.3,2.9 85.8,4.5 35.5,2 70.5,4 105.1,6.8 138.7,9.7 272.8,22.3 400.5,37.5 78.6,9 160.5,19.9 244,32.7 111.9,17 225.1,36.9 337.5,59.1 19.3,3.8 38.6,7.7 57.8,11.6 82.7,17.3 156.3,33.9 224.7,50.8 l 154.8,39.6 c 40.6,11 82.3,22.7 123.6,34.7 7.6,2.2 15.1,4.4 22.6,6.6 81.3,23.7 153.9,46.6 222.5,70.1 17.4,5.5 34.8,11.3 52.5,17.3 25.5,8.7 51.7,18.1 79.8,28.5 25,8.8 47.2,17 69.4,25.1 47.6,17.7 92.9,35.5 137.8,53.7 7.1,2.9 14.3,5.7 21.3,8.6 38.2,15.3 75.3,31 112.1,47.2 45.1,19.5 88.8,38.9 132,59 25.6,12.1 51,24.1 76.3,36.6 30.5,14.6 58.9,28.4 87,43 l 4.7,2.4 c 29.2,14 58,29.2 86.4,44.4 42.5,22.3 83.4,44.4 123.5,67.2 l 78.7,45.4 c 13.8,8.1 27.6,16.3 41.3,24.6 43.5,26 84.4,51.2 125.2,77.7 38.6,24.1 74.2,47.7 109.8,71.8 18.7,12.7 37.8,25.7 56.5,38.7 19.5,13.3 37.2,26 54.9,38.6 73.1,52.2 146.9,108.3 221.1,167.8 17.6,13.8 33.5,27 49.8,40.6 18.3,15 35.2,29.1 51.8,43.3 61.9,53 111.5,96.8 155.9,138.1 l 14.9,14 c 9.9,9.3 19.8,18.6 29.5,28 34.5,32.4 66.4,63.5 97.5,95 62.5,62.9 124.7,129.1 185.2,196.9 59.2,66.4 117.6,135.9 173.6,206.4 54.4,68.1 109,140.7 162.6,216.2 21.4,30.5 42.6,61.3 63.6,92.4 30,44.5 59.3,89.4 87.7,134.3 25.9,41.3 51.5,83.3 76.5,125.7 21.6,36.7 42.8,73.6 63.4,110.5 134.3,241.7 252.3,499.6 350.8,766.5 16.5,45.9 32.5,90.3 47.7,135.4 14.5,43 29,85.9 42.3,129.7 l 2,6.2 c 2.5,7.2 4.7,14.3 6.6,21.4 l 2.4,8.1 c 9.1,28.2 17.4,56.3 25.7,84.8 4.9,17 10,34.4 14.7,51.8 0.9,3.3 1.8,6.6 2.7,9.9 10,34.3 18.6,65.3 26.4,96.6 l 5,18.1 c 12.4,46.1 24.1,92.6 34.9,139.5 l 3.1,12.7 c 10.2,43.7 20.5,89.8 30.8,136.8 9.4,45.6 19.2,93.5 28.3,141.8 0.4,2 0.7,4 1.1,6 9.4,48.3 17.8,96 25.7,143.7 0.4,2.7 0.9,5.2 1.3,7.8 l 1.1,7 c 6.3,36.6 11.9,73.6 17.1,110.9 l 0.7,5 c 2.5,14.5 5,29.3 6.8,44.2 7.1,48 12.8,91.6 18,135.1 4.1,32.4 7.7,64.4 10.9,95.9 l 0.8,6.6 c 1.4,10.6 2.7,21 3.7,31.8 l 8,80.4 c 2.5,26.4 4.8,50.2 6.3,74 l 0.5,6.1 c 2.3,22.8 3.8,45.9 5.3,69.1 3,35.1 5.4,67.3 7,99.4 l 0.4,6.8 c 0.7,7.1 1.3,14.5 1.6,21.6 2.6,45.5 5,88.7 6.7,132.8 l 1.2,31.7 c 2.5,56.4 4.1,112.8 4.9,168.9 1.3,53.1 1.7,105.3 1.7,157.4 0,1.3 0,2.7 0,4 0,68 -0.8,136.5 -2.5,205.8 0,7.2 -0.1,13.7 -0.2,19.9 29.7,136.6 55.6,276.1 77.5,417.9 v 0.5 c 16.7,106.5 30.9,214.8 43.1,324.3 3.3,-31.4 6.2,-62.7 8.7,-94 2.1,-20.5 3.8,-41 5.5,-61.5 7.1,-81.1 12.9,-161.7 17.5,-241.2 1.3,-16.7 2.1,-33 2.9,-48.9 1.3,-23.4 2.6,-46.8 3.8,-70.2 0.4,-8.3 0.4,-16.3 0.8,-24.2 3,-56.4 4.6,-112 6.3,-167.2 0.8,-17.1 1.3,-34.3 1.3,-51.4 1.6,-70.7 2.5,-140.4 2.5,-209.8 0,-54.8 -0.5,-109.5 -1.7,-163.9 -0.8,-57.6 -2.5,-115.7 -5,-173 l -1.3,-31.4 c -1.6,-45.1 -4.1,-89.4 -6.7,-133.7 -0.4,-9.6 -1.2,-19.6 -2,-29.3 -1.7,-34.2 -4.2,-68.5 -7.2,-102.4 -1.6,-25 -3.3,-50.1 -5.8,-74.8 -1.7,-26.3 -4.2,-52.6 -6.7,-79 -2.5,-26.7 -5.4,-53.5 -7.9,-80.2 -1.3,-13.4 -3,-26.3 -4.6,-39.7 -3.4,-33 -7.1,-66.5 -11.3,-99.1 -5.5,-45.1 -11.3,-90.3 -18,-135 -2.1,-17.5 -5,-35.1 -7.9,-52.2 -5.5,-39.3 -11.3,-78.2 -18,-116.6 -0.4,-3.8 -1.3,-7.2 -1.7,-10.9 -8.3,-50.2 -17.1,-99.9 -26.7,-149.6 -9.6,-51.4 -20.1,-102.4 -30.5,-153 -10.5,-47.7 -20.9,-94.5 -31.8,-141.3 -0.8,-3.3 -1.7,-6.7 -2.5,-10 -11.3,-48.9 -23.4,-97.4 -36.4,-145.5 -1.2,-5 -2.5,-10 -4.1,-15 -8.4,-33.4 -17.6,-66.5 -27.2,-99.5 -5.9,-21.7 -12.1,-43.5 -18.4,-65.2 -8.8,-30.1 -17.6,-59.8 -27.2,-89.4 -2.9,-10.9 -6.3,-21.8 -10,-32.6 -13.8,-45.6 -28.8,-90.3 -43.9,-134.6 -15.9,-47.2 -32.6,-93.6 -49.3,-140 -102.4,-277.6 -223.2,-540.9 -361.5,-790 -46.4,-83.2 -94.5,-164.2 -144.7,-244.1 -50.1,-79.4 -102.4,-157.5 -156.3,-234 -53.9,-76.1 -109.9,-150.9 -168,-223.6 -58.1,-73.2 -117.9,-144.2 -179.7,-213.6 -61.9,-69.4 -125.4,-137.1 -191,-203.1 -32.6,-33.1 -66.1,-65.7 -99.9,-97.4 -15.5,-15.1 -31.4,-29.7 -47.3,-44.8 -52.2,-48.4 -106.1,-95.7 -160.9,-142.5 -17.5,-15 -35.5,-30.1 -53.5,-44.7 -17.5,-14.6 -34.7,-28.8 -52.2,-42.6 -74,-59.4 -149.6,-117.1 -227,-172.2 -19.2,-13.8 -38.4,-27.6 -58.1,-41 -19.2,-13.4 -38.8,-26.7 -58.5,-40.1 -37.2,-25.1 -74.4,-49.8 -112.4,-73.6 -42.6,-27.6 -85.3,-53.9 -128.7,-79.8 -20.5,-12.6 -41.4,-24.7 -61.9,-36.8 -20.9,-12.1 -41.8,-23.8 -62.7,-35.9 -41.8,-23.9 -84.4,-46.9 -127.5,-69.4 -30.5,-16.3 -61.4,-32.6 -92.8,-47.7 -29.6,-15.4 -59.7,-30.1 -90.2,-44.7 -26.4,-12.9 -52.7,-25.5 -79.5,-38 -44.7,-20.9 -89.8,-41 -135.4,-60.6 -45.5,-20.1 -91.5,-39.3 -137.9,-57.7 -46.4,-18.8 -93.2,-37.2 -140.4,-54.8 -23.9,-8.7 -47.7,-17.5 -71.5,-25.9 -44.7,-16.3 -90.3,-32.2 -136.3,-47.2 -75.6,-25.9 -152.1,-49.7 -229.4,-72.3 -49.8,-14.6 -100.3,-28.9 -150.9,-42.6 -25.5,-6.7 -50.6,-13.4 -76.5,-20.1 -26.8,-6.7 -53.5,-13.4 -80.7,-20.1 -76,-18.4 -152.9,-35.9 -231.1,-52.2 -132.1,-27.2 -266.7,-51.4 -403.8,-72.3 -82.3,-12.1 -165.5,-23.4 -249.5,-33.5 -133.3,-15.8 -268.7,-28.4 -406.7,-38 -35.9,-2.9 -72.3,-5 -109,-7.1 -29.3,-1.7 -58.6,-3.3 -88.2,-4.6 -28.9,-1.3 -57.7,-2.5 -86.6,-3.8 -89.8,-3.3 -180.1,-5.4 -271.6,-6.2 -27.8,-0.3 -55.5,-0.4 -83.1,-0.4"
         style="fill:#6b184e;fill-opacity:1;fill-rule:nonzero;stroke:none"
         id="path190" /><path
         d="m 24036.3,12512.5 h -1365.9 l 1690.4,1690.3 1098,-1098 c -363.7,-365.6 -867.2,-592.3 -1422.5,-592.3 m -7092.4,0 h -1398.1 c -547,0 -1043.9,220 -1406.4,576.2 l 1114.1,1114.1 1690.4,-1690.3 m 5312.7,10.5 c -153.2,15.6 -301.3,48.6 -442.4,96.8 l -1252.9,1252.9 c -69.6,203.4 -107.4,421.5 -107.4,648.1 v 34.7 c 0,90 -10.4,178.1 -31.1,263.3 l 1661,1661 2064.8,-2064.8 -1892,-1892 m -4902.3,3.3 -1888.7,1888.7 2064.6,2064.5 1635,-1635 c -24.9,-93 -37.9,-189.9 -37.9,-289 v -34.7 c 0,-54.3 -1.7,-109.1 -5.4,-162.2 v -2 c -15.1,-186.2 -55.9,-365.1 -118.8,-533.3 l -1183.6,-1183.6 c -148.1,-55.7 -304,-94.3 -465.2,-113.4 m -3413.1,788.5 c -27.4,36.3 -53.5,73.6 -78.4,111.8 l 4.9,76.2 c 1.9,27.2 4,54.5 6.2,82.2 4.1,54.4 8.6,108.8 13.9,163.5 l 0.8,9.3 c 0.9,10.2 1.8,20.6 3,30.7 l 1.2,12.2 c 18,179.6 41.7,366.7 70.4,556.2 48.3,317.1 99,644.5 155.9,980.4 l 922.3,-922.3 -1100.2,-1100.2 m 11713.4,18.4 -1081.7,1081.8 912.8,912.8 c 61.2,-357 113.4,-689.9 157.6,-971.7 29,-184.7 53.2,-369.8 72,-550.3 l 1.4,-13.4 c 1.1,-8.9 2,-17.7 2.8,-26.6 l 1.7,-17.1 c 3.2,-29.9 6,-59.8 8.7,-93.2 2,-19.4 3.5,-38.7 5.2,-59.2 3.8,-42.8 7.2,-85.8 10.2,-128.6 -28.4,-46.1 -58.7,-90.9 -90.7,-134.5 m -1293.9,1293.9 -1984.5,1984.6 c 937.8,-29.1 2093.9,-106.1 2890.6,-164.5 2.3,-0.2 4.6,-0.3 6.9,-0.5 53.8,-254.1 103.2,-509.6 148.4,-758.3 l -1061.4,-1061.3 m -9107.2,0 -1071.3,1071.3 c 44.5,246.1 92.9,496.2 146.5,749.5 2.7,0.2 5.3,0.4 7.9,0.6 805.6,59.5 1967.1,136.3 2902.5,164.2 l -1985.6,-1985.6 m 5042.4,489 c -40.4,60.7 -87.2,113.2 -139.1,156.2 -105.4,86.9 -230.7,135 -366.2,135 -194.9,0 -370.2,-100.1 -492,-272 l -1487.9,1488 c 22.5,0.1 44.7,0.1 66.6,0.1 130.9,0 251.8,-1.8 359.8,-5.7 174.7,-6.2 359.8,-15 550.9,-26.7 v 2.9 l 175.9,-13.4 158.4,-5 v -5.8 c 224,-13.8 447.7,-20.9 670,-20.9 222.4,0 443.1,7.1 661.6,20.9 l 122.5,8.3 c 10.5,0.9 21.3,1.3 31.8,2.1 l 180.1,14.2 v -3.3 c 191,11.3 377.8,20 557.2,26.7 108,3.9 228.8,5.7 359.9,5.7 31.9,0 64.5,-0.1 97.5,-0.3 l -1507,-1507 m -1173.6,1118.4 v -786.2 c 176.8,186.8 410,293.4 668.3,293.4 255.8,0 487.4,-104.5 663.3,-288.4 v 780.7 c -217.9,-13.1 -438,-19.7 -659.4,-19.7 -223.1,0 -447.5,6.7 -672.2,20.2"
         style="fill:#c99618;fill-opacity:1;fill-rule:nonzero;stroke:none"
         id="path192" /><path
         d="m 25458.8,13104.8 -1098,1098 212.1,212.2 1081.7,-1081.8 c -59.6,-80.9 -125,-157.3 -195.8,-228.4 m -1310.2,1310.2 -2064.8,2064.8 136.3,136.3 c 51.3,-1.3 103.3,-2.8 156.1,-4.4 l 1984.5,-1984.6 -212.1,-212.1"
         style="fill:#ad7028;fill-opacity:1;fill-rule:nonzero;stroke:none"
         id="path194" /><path
         d="m 21814.2,12619.8 c -586.9,200.7 -1052.2,666.1 -1252.9,1252.9 l 1252.9,-1252.9 m -2649,2224.7 -1635,1635 142.6,142.6 c 47,0.6 93,1 137.9,1.2 l 1487.9,-1488 c -47.1,-66.5 -86.2,-143.9 -115.3,-230.4 -6.6,-19.9 -12.6,-40.1 -18.1,-60.4"
         style="fill:#ad7028;fill-opacity:1;fill-rule:nonzero;stroke:none"
         id="path196" /><path
         d="m 17120.3,12512.5 h -176.4 l -1690.4,1690.3 212.1,212.2 1888.7,-1888.7 c -76.9,-9.1 -155,-13.8 -234,-13.8"
         style="fill:#ad7028;fill-opacity:1;fill-rule:nonzero;stroke:none"
         id="path198" /><path
         d="m 15041.4,14415 -922.3,922.3 c 20.2,119.3 41.2,239.8 63.1,361.1 l 1071.3,-1071.3 -212.1,-212.1"
         style="fill:#ad7028;fill-opacity:1;fill-rule:nonzero;stroke:none"
         id="path200" /><path
         d="m 22670.4,12512.5 h -208.1 c -69.4,0 -138.1,3.5 -205.7,10.5 l 1892,1892 212.1,212.1 1061.4,1061.3 c 22.2,-122.2 43.4,-242.7 63.6,-360.6 l -912.8,-912.8 -212.1,-212.2 -1690.4,-1690.3"
         style="fill:#ad7028;fill-opacity:1;fill-rule:nonzero;stroke:none"
         id="path202" /><path
         d="m 17819.5,12639.7 1183.6,1183.6 c -204.2,-546.1 -641.1,-979.6 -1183.6,-1183.6 m 2603.3,2179.1 c -7.1,29.2 -15.4,58.1 -24.9,86.5 -26.4,78.1 -60.8,148.8 -102,210.8 l 1507,1507 c 131.1,-0.8 270.9,-3.2 417.2,-7 l -136.3,-136.3 -1661,-1661"
         style="fill:#ad7028;fill-opacity:1;fill-rule:nonzero;stroke:none"
         id="path204" /><path
         d="m 14139.4,13088.7 c -71.5,70.3 -137.8,145.9 -198.2,226.1 l 1100.2,1100.2 212.1,212.1 1985.6,1985.6 c 151.2,4.5 296.7,7.7 433.7,9.4 l -142.6,-142.6 -2064.6,-2064.5 -212.1,-212.2 -1114.1,-1114.1"
         style="fill:#ad7028;fill-opacity:1;fill-rule:nonzero;stroke:none"
         id="path206" /><path
         d="m 13862.8,13426.6 c -25.8,39.6 -50.3,80.2 -73.3,121.6 -14.8,26 -28.7,52.2 -41.9,79 -4.9,37.1 -9.5,74.5 -13.7,112 l -0.4,0.4 c -1.2,9.8 -2.4,19.5 -3.5,29.1 18.1,174.5 40.9,351 67.9,529.8 100.3,658.7 215.7,1390.9 375.3,2138.3 50.2,3.5 101.9,7.5 155.5,11.1 -53.6,-253.3 -102,-503.4 -146.5,-749.5 -21.9,-121.3 -42.9,-241.8 -63.1,-361.1 -56.9,-335.9 -107.6,-663.3 -155.9,-980.4 -28.7,-189.5 -52.4,-376.6 -70.4,-556.2 l -1.2,-12.2 c -1.2,-10.1 -2.1,-20.5 -3,-30.7 l -0.8,-9.3 c -5.3,-54.7 -9.8,-109.1 -13.9,-163.5 -2.2,-27.7 -4.3,-55 -6.2,-82.2 l -4.9,-76.2 m 11882.5,41.1 c -3,42.8 -6.4,85.8 -10.2,128.6 -1.7,20.5 -3.2,39.8 -5.2,59.2 -2.7,33.4 -5.5,63.3 -8.7,93.2 l -1.7,17.1 c -0.8,8.9 -1.7,17.7 -2.8,26.6 l -1.4,13.4 c -18.8,180.5 -43,365.6 -72,550.3 -44.2,281.8 -96.4,614.7 -157.6,971.7 -20.2,117.9 -41.4,238.4 -63.6,360.6 -45.2,248.7 -94.6,504.2 -148.4,758.3 53.5,-4 105.6,-8 155.7,-12 159.2,-744.8 275.4,-1475.4 379.1,-2136.2 30.1,-191.9 54.7,-381.2 73.9,-567.6 v -0.5 c -21.7,-50.1 -45.1,-99 -70.6,-146.7 -20.9,-39.4 -43.1,-78.1 -66.5,-116"
         style="fill:#6b184e;fill-opacity:1;fill-rule:nonzero;stroke:none"
         id="path208" /><path
         d="m 13747.6,13627.2 c -4.7,9.4 -9.2,18.9 -13.7,28.4 l -0.4,0.4 c -4.2,8.4 -7.9,16.4 -12.1,25.1 v 0.4 c 1.3,14.3 2.5,28.9 4.2,43.1 v 0.8 c 1.4,14.5 2.9,28.9 4.4,43.3 1.1,-9.6 2.3,-19.3 3.5,-29.1 l 0.4,-0.4 c 4.2,-37.5 8.8,-74.9 13.7,-112"
         style="fill:#6b184e;fill-opacity:1;fill-rule:nonzero;stroke:none"
         id="path210" /><path
         d="m 18927.2,16866.7 c 14.6,-0.9 29.3,-2.1 43.9,-2.5 v -2043.5 c -76.5,-946.2 -869,-1690.2 -1834.9,-1690.2 h -1574.4 c -1016.9,0 -1841.2,824.2 -1841.2,1841.1 v 1192.9 c 0,22.1 -8.7,42.6 -23.4,56.8 -14.6,14.7 -34.7,23.9 -56.8,23.9 -59.8,0 -113.3,24.2 -152.6,63.1 -38.8,39.3 -63.1,92.8 -63.1,152.5 0,112.5 86.1,206.1 198.1,214.9 754,60.6 3457.8,267.9 4623.9,225.7 238.7,-8.4 469.4,-20.9 680.5,-34.7"
         style="fill:#5ba6cd;fill-opacity:1;fill-rule:nonzero;stroke:none"
         id="path212" /><path
         d="m 26189.3,16460.8 c 0,-59.7 -24.3,-113.2 -63.1,-152.5 -38.9,-38.9 -93.3,-63.1 -152.6,-63.1 -21.7,0 -42.2,-9.2 -56.8,-23.9 -14.3,-14.2 -23.5,-34.7 -23.5,-56.8 v -1192.9 c 0,-1016.9 -824.2,-1841.1 -1841.1,-1841.1 h -1574 c -1016.9,0 -1841.1,824.2 -1841.1,1841.1 v 1892.6 c 6.6,0.4 12.9,0.8 19.6,1.2 215.7,13.8 455.6,26.8 710.5,36 1166.1,42.2 3870,-165.1 4624,-225.7 112,-8.8 198.1,-102.4 198.1,-214.9"
         style="fill:#5ba6cd;fill-opacity:1;fill-rule:nonzero;stroke:none"
         id="path214" /><path
         d="m 18927.2,16866.7 c 14.6,-0.9 29.3,-2.1 43.9,-2.5 v -2043.5 c -76.5,-946.2 -869,-1690.2 -1834.9,-1690.2 h -1574.4 c -1016.9,0 -1841.2,824.2 -1841.2,1841.1 v 1192.9 c 0,22.1 -8.7,42.6 -23.4,56.8 -14.6,14.7 -34.7,23.9 -56.8,23.9 -59.8,0 -113.3,24.2 -152.6,63.1 -38.8,39.3 -63.1,92.8 -63.1,152.5 0,112.5 86.1,206.1 198.1,214.9 754,60.6 3457.8,267.9 4623.9,225.7 238.7,-8.4 469.4,-20.9 680.5,-34.7"
         style="fill:#4a83ff;fill-opacity:1;fill-rule:nonzero;stroke:none"
         id="path216" /><path
         d="m 26189.3,16460.8 c 0,-59.7 -24.3,-113.2 -63.1,-152.5 -38.9,-38.9 -93.3,-63.1 -152.6,-63.1 -21.7,0 -42.2,-9.2 -56.8,-23.9 -14.3,-14.2 -23.5,-34.7 -23.5,-56.8 v -1192.9 c 0,-1016.9 -824.2,-1841.1 -1841.1,-1841.1 h -1574 c -1016.9,0 -1841.1,824.2 -1841.1,1841.1 v 1892.6 c 6.6,0.4 12.9,0.8 19.6,1.2 215.7,13.8 455.6,26.8 710.5,36 1166.1,42.2 3870,-165.1 4624,-225.7 112,-8.8 198.1,-102.4 198.1,-214.9"
         style="fill:#4a83ff;fill-opacity:1;fill-rule:nonzero;stroke:none"
         id="path218" /><path
         d="m 22214.3,13149.6 2225.9,3639.7 c -366.3,23.9 -758.4,47.9 -1145.5,67.9 h -0.3 l -2010.3,-3286.9 930.2,-420.7"
         style="fill:#a2d6eb;fill-opacity:1;fill-rule:nonzero;stroke:none"
         id="path220" /><path
         d="m 25717.8,16697.4 -2181.2,-3566.7 h -913.5 l 2220.8,3631 c 340.6,-23.6 642.7,-46.5 873.9,-64.3"
         style="fill:#a2d6eb;fill-opacity:1;fill-rule:nonzero;stroke:none"
         id="path222" /><path
         d="M 17254.6,16896 15004,13216.7 c -331.9,105.3 -623.4,302.5 -844.1,561.3 l 1873.7,3063.6 c 418.3,23.2 838.7,43.2 1221,54.4"
         style="fill:#a2d6eb;fill-opacity:1;fill-rule:nonzero;stroke:none"
         id="path224" /><path
         d="m 18582.4,16886.6 -2297.2,-3755.9 h -723.5 c -62.5,0 -123.8,3.2 -184.5,9 l 2303.3,3765.8 c 212,2.9 404.1,1.8 566.4,-4 114,-4 226.5,-9.1 335.5,-14.9"
         style="fill:#a2d6eb;fill-opacity:1;fill-rule:nonzero;stroke:none"
         id="path226" /><path
         d="m 19138.3,16685.2 v -786.3 c 176.6,187 410,293.3 668.1,293.4 h 0.1 c 255.7,0 487.3,-104.3 663.4,-288.1 v 780.7 c -437.4,-26.7 -883.9,-26.6 -1331.6,0.3 z m -0.4,-1876 -334,11.5 v 2223.9 l 179.8,-13.7 c 552.6,-42.1 1104.5,-42.1 1640.3,-0.1 l 180.2,14.2 v -2038.7 h -334.3 c 0,120.7 -18.9,238.2 -56.1,349.5 -104.1,309.6 -336.8,502.1 -607.3,502.1 h -0.1 c -270.4,0 -503,-192.5 -607,-502.3 -37.1,-111.1 -56,-228.7 -56,-349.3 v -34.7 c 0,-54.3 -1.8,-109 -5.5,-162.4"
         style="fill:#6b184e;fill-opacity:1;fill-rule:nonzero;stroke:none"
         id="path228" /><path
         d="m 17888.4,16739.8 c -1272.6,0 -3535.7,-173.2 -4252.2,-230.8 -25.4,-2 -44.3,-22.7 -44.3,-48.2 0,-16.5 8,-28.1 14.8,-34.9 8.6,-8.6 20.4,-13.5 33.7,-13.5 66,0 128.2,-25.9 175.1,-72.9 45.3,-43.9 72.3,-108.3 72.3,-175 v -1192.9 c 0,-923 751,-1673.9 1674,-1673.9 h 1574.4 c 863.6,0 1594.9,671.5 1667.7,1529.9 v 1879.3 c -196.3,12 -385.2,21.1 -563,27.4 -105.6,3.8 -224,5.5 -352.5,5.5 z m -752.2,-3776.5 h -1574.4 c -1107.4,0 -2008.4,900.9 -2008.4,2008.3 v 1116.3 c -68.5,15.9 -131.7,50.6 -183.2,101.5 -73.1,73.9 -112.7,169.9 -112.7,271.4 0,198.5 154.7,366 352.2,381.5 793.1,63.8 3472.5,268.5 4643.1,226.1 214.7,-7.5 445.3,-19.2 685.3,-34.9 l 14.3,-0.9 c 7.8,-0.5 15.6,-1.1 23.4,-1.3 l 162.5,-4.6 -0.6,-2219.4 c -83.5,-1034 -962.7,-1844 -2001.5,-1844"
         style="fill:#6b184e;fill-opacity:1;fill-rule:nonzero;stroke:none"
         id="path230" /><path
         d="m 20804.2,16707 v -1735.4 c 0,-923 751,-1673.9 1674,-1673.9 h 1574 c 923,0 1674,750.9 1674,1673.9 v 1192.9 c 0,65.3 26.3,129.1 72.3,175.1 46.3,46.2 110.1,72.8 175.1,72.8 12.8,0 25.3,5.1 34.3,14.1 9.2,9.3 14.2,21 14.2,34.3 0,25.5 -18.9,46.2 -44,48.2 -789.1,63.4 -3452.3,266.6 -4604.8,225.3 -185,-6.7 -372.3,-15.7 -569.1,-27.3 z m 3248,-3743.7 h -1574 c -1107.4,0 -2008.3,900.9 -2008.3,2008.3 v 2049.7 l 176.4,11 c 250.6,16 484.5,27.8 714.9,36.1 1170.1,42.6 3850,-162.3 4643.4,-226.1 197.1,-15.5 351.8,-183 351.8,-381.5 0,-101.6 -39.6,-197.5 -111.4,-270.2 -50.9,-50.9 -115.3,-86.2 -184.5,-102.5 v -1116.5 c 0,-1107.4 -900.9,-2008.3 -2008.3,-2008.3"
         style="fill:#6b184e;fill-opacity:1;fill-rule:nonzero;stroke:none"
         id="path232" /><path
         d="m 21945.5,12425 c 0,-483.2 -153.4,-998.5 -460.6,-1412.3 -354.9,-478.2 -914.1,-820.5 -1677.7,-820.5 -665,0 -1272.3,376.6 -1668.1,904.1 -293,390.3 -470.6,863.9 -470.6,1328.7 0,535.8 604.8,442.6 604.8,442.6 l 3125.1,8.4 c 0,0 547.1,42.6 547.1,-451"
         style="fill:#6b184e;fill-opacity:1;fill-rule:nonzero;stroke:none"
         id="path234" /><path
         d="m 21638.9,11110.9 c -387.4,-522 -998.1,-895.7 -1831.9,-895.7 -833.8,0 -1444.5,373.7 -1831.9,895.7 222.7,193.5 1233,515.4 1672.2,145.9 128.3,-107.8 159.7,-313.5 159.7,-313.5 0,0 31.3,205.7 159.7,313.5 439.2,369.5 1449.4,47.6 1672.2,-145.9"
         style="fill:#ed2e7a;fill-opacity:1;fill-rule:nonzero;stroke:none"
         id="path236" /><path
         d="m 18175.7,12685.7 c -76.5,0 -186.6,-13 -251.5,-69.2 -16.7,-14.5 -67.7,-58.8 -67.7,-191.7 0,-945.4 852,-2044.4 1950.5,-2044.4 1266.9,0 1950.5,1053.3 1950.5,2044.4 0,82.8 -20.9,142.8 -64.1,183.2 -80.8,75.7 -230.5,83.8 -281.6,80.4 l -13,-0.5 -3139.8,-8.5 -14.5,2.2 c -15,2.2 -39.4,4.1 -68.8,4.1 z M 19807,10004.2 c -592.3,0 -1190.6,279.5 -1641.4,766.7 -435.5,470.7 -685.3,1073.5 -685.3,1653.9 0,253.3 108.6,399.7 199.8,477.9 216.8,185.8 524.7,162.8 605.4,152.9 l 3106.4,8.4 c 61,3.6 352.2,9.5 556,-179 84.8,-78.4 185.8,-221.8 185.8,-460.2 0,-1173.4 -815.5,-2420.6 -2326.7,-2420.6"
         style="fill:#6b184e;fill-opacity:1;fill-rule:nonzero;stroke:none"
         id="path238" /><path
         d="m 13560.9,16695.9 h 321 v -776.2 h -321 v 776.2"
         style="fill:#6b184e;fill-opacity:1;fill-rule:nonzero;stroke:none"
         id="path240" /><path
         d="m 25721.9,16695.9 h 321.1 v -776.2 h -321.1 v 776.2"
         style="fill:#6b184e;fill-opacity:1;fill-rule:nonzero;stroke:none"
         id="path242" /></g></g></svg>
