<svg width="52" height="52" viewBox="0 0 52 52" fill="none" xmlns="http://www.w3.org/2000/svg">
<path d="M47.158 33.5978C45.2606 38.7937 41.5176 43.1098 36.6424 45.7234C31.7672 48.337 26.1008 49.0652 20.7232 47.7694L22.0032 42.4575C26.0763 43.439 30.3682 42.8874 34.0608 40.9078C37.7534 38.9282 40.5884 35.6591 42.0256 31.7236L47.158 33.5978Z" fill="#F8574A"/>
<path d="M3.4751 25.8714C3.4751 30.9464 5.18893 35.8727 8.33885 39.8519C11.4888 43.8311 15.8901 46.6299 20.8296 47.7948L22.0838 42.4767C18.3425 41.5944 15.0088 39.4745 12.623 36.4606C10.2371 33.4467 8.93903 29.7154 8.93903 25.8714H3.4751Z" fill="#FF942E"/>
<path d="M25.9998 3.34668C29.6217 3.34668 33.1901 4.22006 36.4026 5.89277C39.6151 7.56547 42.3768 9.98817 44.4536 12.9554C46.5304 15.9227 47.8611 19.347 48.3328 22.938C48.8045 26.529 48.4032 30.1808 47.1631 33.5838L42.0295 31.7129C42.9687 29.1355 43.2726 26.3695 42.9154 23.6496C42.5581 20.9297 41.5502 18.336 39.9772 16.0885C38.4042 13.841 36.3124 12.006 33.8792 10.7391C31.446 9.47213 28.7431 8.81061 25.9998 8.81061V3.34668Z" fill="#FFD225"/>
<path d="M25.9998 3.34668C23.0419 3.34668 20.1128 3.9293 17.38 5.06127C14.6472 6.19325 12.1641 7.85241 10.0724 9.94403C7.98083 12.0356 6.32167 14.5188 5.18969 17.2516C4.05772 19.9844 3.4751 22.9134 3.4751 25.8714L8.93903 25.8714C8.93903 23.631 9.38032 21.4125 10.2377 19.3425C11.0951 17.2726 12.3518 15.3919 13.936 13.8076C15.5203 12.2234 17.401 10.9667 19.471 10.1093C21.5409 9.2519 23.7594 8.81061 25.9998 8.81061V3.34668Z" fill="#D11D62"/>
</svg>
