<svg width="52" height="52" viewBox="0 0 52 52" fill="none" xmlns="http://www.w3.org/2000/svg">
<path fill-rule="evenodd" clip-rule="evenodd" d="M12.5016 14.0914L12.624 14.328L12.7248 14.4389L12.7276 14.6032L12.6244 14.7201L12.4667 14.9613L12.2871 15.2678L12.0835 15.433L11.9268 15.6405L11.8864 15.8035L12.007 15.9047L12.0349 16.052L11.9029 16.3267L11.4629 18.1547L11.462 18.1575L9.22417 17.5942L6.08656 16.6563L6.02881 16.0211L6.59353 15.0248L7.00286 13.9152L7.60838 12.4438L7.75644 12.4756L7.96683 12.5474L8.10756 12.6914L8.29228 12.8116L8.36379 13.0435L8.33124 13.2179L8.34087 13.3749L8.49213 13.4623L8.66632 13.5111L8.97022 13.4849L9.13936 13.4991L9.3791 13.6151L9.47536 13.6998L9.6335 13.7058L9.81731 13.669L10.1327 13.7707L10.4256 13.7297L10.5855 13.6841L10.7542 13.7766L11.0357 13.7366L12.5016 14.0914Z" fill="#FFD225"/>
<path fill-rule="evenodd" clip-rule="evenodd" d="M13.1514 10.9859L12.8466 12.2849L12.5323 13.7009L12.5606 13.8702L12.5122 14.0486L11.051 13.6987L10.7705 13.7381L10.6023 13.6469L10.4429 13.6919L10.1509 13.7322L9.83657 13.6319L9.65335 13.6683L9.49572 13.6624L9.39977 13.5788L9.16081 13.4645L8.99222 13.4504L8.68929 13.4763L8.51567 13.4282L8.36489 13.3419L8.3553 13.1872L8.38774 13.0151L8.31646 12.7864L8.13233 12.6679L7.99206 12.5259L7.78234 12.4551L7.63477 12.4237L7.71244 11.541L7.91028 10.5506L8.79072 11.0249L8.85241 11.8973L9.10096 11.6839L9.2394 10.832L9.17452 9.91113L11.1538 10.4821L13.1514 10.9859Z" fill="#FF763C"/>
<path fill-rule="evenodd" clip-rule="evenodd" d="M9.1258 17.6144L8.32669 20.5888L9.44688 22.315L10.5626 23.9791L11.6957 25.648L11.6939 25.7418L11.7109 25.8877L11.7429 26.0785L11.8112 26.2905L11.929 26.5166L11.6345 26.672L11.4735 27.1201L11.2621 27.3176L11.2689 27.5047L11.2675 27.6624L11.3881 27.8327L11.2532 28.0153L11.1407 27.9904L10.0009 27.7681L9.02192 27.6227L9.00663 27.2285L8.77593 26.6237L8.03888 25.8036L7.71645 25.6804L7.44123 25.2722L6.8148 25.0198L6.65066 24.8014L6.70193 24.2306L6.20591 23.0132L5.95363 21.4482L6.04897 21.2285L5.80568 20.7994L5.46706 19.7927L5.61321 18.9609L5.38477 18.298L5.80613 17.5387L6.06857 16.6982L9.1258 17.6144Z" fill="#FF763C"/>
<path opacity="0.8" fill-rule="evenodd" clip-rule="evenodd" d="M13.6735 18.692L12.6424 23.7029L12.5201 24.5854L12.4775 24.6121L12.3914 24.7573L12.2869 24.6937L12.1431 24.5882L11.9695 24.5522L11.8866 24.6665L11.9315 24.8223L11.8857 25.0427L11.8619 25.245L11.8614 25.4543L11.7342 25.6168L10.6577 24.0424L9.52133 22.3493L8.38037 20.593L9.18357 17.6392L11.2965 18.1891L11.452 18.2253L13.6735 18.692Z" fill="#FFD225"/>
<path fill-rule="evenodd" clip-rule="evenodd" d="M16.4123 16.4106L16.4431 16.4993L16.0138 19.0644L13.7575 18.6525L11.5063 18.1744L11.9387 16.3455L12.078 16.0561L12.0328 15.8752L11.9278 15.7865L11.9568 15.6563L12.116 15.4573L12.3095 15.2927L12.5047 14.9577L12.6607 14.7168L12.7564 14.6215L12.7509 14.4189L12.6424 14.2941L12.532 14.0806L12.5863 13.8744L12.5592 13.6989L12.8711 12.3023L13.1815 10.9927L13.8472 11.1519L13.6487 12.2365L13.7693 12.551L13.7314 12.7148L13.8219 12.9066L13.9774 13.0549L14.0607 13.2539L14.18 13.5868L14.3374 13.7749L14.5111 13.8147L14.2813 14.2489L14.2741 14.3086L14.2904 14.5094L14.2126 14.5455L14.1529 14.8495L14.2795 15.0014L14.4713 14.9055L14.5527 14.7861L14.6124 14.8223L14.6558 14.9508L14.6775 15.2927L14.7752 15.441L14.7662 15.7033L14.8114 15.8137L14.9543 15.8643L15.0176 16.1031L15.099 16.3473L15.2908 16.2225L15.5259 16.3003L15.5657 16.1972L15.9312 16.3166L16.1301 16.3202L16.2495 16.1664L16.2839 16.1845L16.3527 16.3473L16.4123 16.4106Z" fill="#FF763C"/>
<path fill-rule="evenodd" clip-rule="evenodd" d="M17.4072 20.3926L16.832 24.4665L15.5982 24.2784L14.0063 23.9962L12.6821 23.7574L13.7169 18.6958L16.0035 19.1191L15.8445 20.0948L17.4072 20.3926Z" fill="#FFD225"/>
<path fill-rule="evenodd" clip-rule="evenodd" d="M16.824 24.5187L15.9783 30.3235L14.2127 30.0565L12.3281 28.977L11.1104 28.2185L11.1644 28.0479L11.2675 28.0696L11.4339 27.8308L11.3091 27.6409L11.3037 27.5649L11.3145 27.3352L11.5171 27.138L11.6673 26.7129L11.9838 26.5265L11.8536 26.2733L11.8048 26.1304L11.7668 25.9603L11.7414 25.7378L11.7541 25.651L11.8934 25.4647L11.8952 25.2421L11.9169 25.0413L11.9676 24.8116L11.926 24.6723L11.9838 24.5855L12.1231 24.6162L12.2805 24.7248L12.3927 24.8026L12.494 24.6542L12.5736 24.6036L12.6749 23.8076L14.0412 24.0582L15.6251 24.3297L16.824 24.5187Z" fill="#FF763C"/>
<path fill-rule="evenodd" clip-rule="evenodd" d="M21.7271 15.534L21.6061 16.4671L20.395 16.3377L19.0881 16.19L17.9637 16.0261L16.5417 15.8124L16.4586 16.3261L16.4392 16.3597L16.3697 16.291L16.3232 16.1375L16.2496 16.0966L16.1115 16.2794L15.9395 16.283L15.5418 16.1474L15.5043 16.243L15.2737 16.1626L15.1139 16.2776L15.0353 15.992L14.9744 15.829L14.8326 15.776L14.8033 15.6943L14.8092 15.4226L14.7071 15.2722L14.6886 14.9381L14.6313 14.7832L14.5509 14.7383L14.4498 14.8654L14.2851 14.9565L14.179 14.8313L14.225 14.5722L14.3207 14.5241L14.3153 14.2534L14.4381 14.0024L14.5609 13.7949L14.3528 13.7424L14.2038 13.5587L14.0774 13.2067L13.9957 13.0262L13.8576 12.8964L13.7655 12.7078L13.8061 12.5264L13.686 12.2193L13.8702 11.1475L15.8759 11.5592L17.8946 11.905L19.9237 12.1847L21.9609 12.398L21.8021 14.2861L21.7271 15.534Z" fill="#FF763C"/>
<path fill-rule="evenodd" clip-rule="evenodd" d="M41.0208 21.048L41.1233 21.6333L41.2933 21.4524L41.3983 21.3149L41.5195 21.2425L41.6009 21.1141L41.827 21.1123L41.9102 20.9983L42.0332 20.9097L42.2575 20.9386L42.3733 21.058L42.4638 21.1756L42.4457 21.4035L41.98 21.2026L41.9708 21.4908L41.8917 21.6132L41.761 21.7795L41.6841 21.9336L41.6117 21.9082L41.5502 22.0747L41.4841 22.2125L41.4629 22.314L41.3548 22.3759L41.2209 22.3242L41.0995 22.2637L41.0626 22.5039L40.9568 22.7139L40.944 22.8746L40.811 23.0384L40.7314 23.2382L40.7659 23.3578L40.7645 23.4561L40.6486 23.5594L40.5317 23.5646L40.443 23.6582L40.3441 23.6367L40.3418 23.7331L40.0492 23.8719L39.9383 23.8146L39.6986 23.9827L39.5606 23.9189L39.4529 23.8393L39.3894 23.6679L39.2266 23.6735L39.1254 23.5599L38.9855 23.4426L38.9225 23.2903L38.801 23.1418L38.778 22.9244L38.73 22.829L38.9455 22.7703L39.0292 22.6092L39.0071 22.3759L39.0863 22.1319L39.199 22.1403L39.2271 22.2548L39.2924 22.2022L39.3016 22.0965L39.3048 21.9033L39.4552 21.6952L39.5555 21.7026L39.6586 21.6556L39.7428 21.5895L39.9203 21.3153L39.9157 21.2058L39.9553 20.9679L39.9912 20.683L39.9875 20.4367L39.9318 20.31L40.0317 20.2393L40.1945 21.197L41.0208 21.048Z" fill="#FF763C"/>
<path fill-rule="evenodd" clip-rule="evenodd" d="M21.6043 16.5283L21.4442 18.704L21.2696 20.8014L20.4981 20.7267L18.9583 20.5512L18.1899 20.45L17.422 20.3404L15.897 20.0675L16.0643 19.0559L16.4845 16.465L16.4615 16.4418L16.4809 16.407L16.5753 15.8662L17.9537 16.0724L19.1223 16.2425L20.4212 16.3908L21.6043 16.5283Z" fill="#FFD225"/>
<path opacity="0.8" fill-rule="evenodd" clip-rule="evenodd" d="M22.8703 22.0242L22.769 23.6197L22.6785 25.1356L21.882 25.0808L20.8825 24.9962L19.4652 24.8549L18.1506 24.6975L16.8789 24.4663L17.4426 20.4131L18.2289 20.521L19.0156 20.6207L20.5923 20.7936L21.3822 20.8672L22.8558 20.9749L22.7835 22.0169L22.8703 22.0242Z" fill="#FF763C"/>
<path fill-rule="evenodd" clip-rule="evenodd" d="M21.9117 25.1283L21.8771 25.6772L21.665 28.383L21.5121 30.332L20.6793 30.2644L19.0656 30.1093L18.2601 30.0199L18.2592 30.1093L18.3403 30.2859L16.7965 30.0947L16.7265 30.519L16.0288 30.4034L16.8682 24.5386L18.1634 24.7557L19.4912 24.9148L20.924 25.0559L21.9117 25.1283Z" fill="#FFD225"/>
<path fill-rule="evenodd" clip-rule="evenodd" d="M26.8269 12.6839L26.8357 12.7855L26.8995 12.9351L26.8935 13.055L26.8676 13.1866L26.8741 13.3885L26.8838 13.5756L26.9643 13.765L27.0489 13.9772L27.0826 14.1858L27.0956 14.3089L27.097 14.4472L27.1238 14.7485L27.1478 14.8049L27.1548 15.0386L27.1885 15.2472L27.2486 15.4137L27.2935 15.5695L27.2921 15.7557L25.8888 15.7893L24.6912 15.7454L23.1816 15.668L21.7769 15.5664L21.8536 14.3223L22.0164 12.4399L24.4406 12.6074L26.8269 12.6839Z" fill="#FFD225"/>
<path opacity="0.5" fill-rule="evenodd" clip-rule="evenodd" d="M27.2392 18.3987L27.1758 18.3969L27.1686 18.69L27.2717 18.8329L27.2355 19.0138L27.203 19.1133L27.1415 19.2508L27.2753 19.381L27.2717 19.4642L27.3025 19.5456L27.2012 19.533L27.1487 19.4932L27.1089 19.4045L27.051 19.372L26.8972 19.3105L26.7001 19.173L26.369 19.1712L26.2189 19.1621L26.1538 19.1947L25.9168 19.1187L25.6961 18.974L24.1476 18.9089L23.0007 18.8401L21.5137 18.7135L21.6883 16.5935L21.8088 15.6265L23.1747 15.7321L24.6427 15.8126L25.8072 15.8582L27.1795 15.8046L27.1632 15.9457L27.0347 16.0326L26.9787 16.2135L27.0564 16.4125L27.1795 16.4957L27.2627 17.4816L27.2392 18.3987Z" fill="#FF763C"/>
<path fill-rule="evenodd" clip-rule="evenodd" d="M27.3008 19.5764L27.346 19.7338L27.3315 19.8097L27.4075 19.9219L27.4907 20.0286L27.5233 20.1607L27.5432 20.4248L27.6011 20.4574L27.6535 20.5858L27.7096 20.8318L27.7422 21.0182L27.7169 21.1936L27.7693 21.3944L27.7965 21.5066L27.9647 21.7146L28.0714 21.834L28.2208 22.1282H27.1162L25.2712 22.0915L24.2292 22.0503L22.8293 21.972H22.8279L22.8298 21.939L22.9031 20.9313L21.3257 20.7938L21.5035 18.7788L22.9981 18.8933L24.1478 18.9603L25.686 19.0201L25.881 19.1554L26.162 19.2441L26.2291 19.1984L26.4122 19.2056L26.6872 19.1997L26.8845 19.3346L27.0765 19.4208L27.1127 19.5113L27.1904 19.5673L27.3008 19.5764Z" fill="#FF763C"/>
<path fill-rule="evenodd" clip-rule="evenodd" d="M28.8264 25.3586L28.1038 25.3674L26.6214 25.3623L25.1385 25.3272L24.3153 25.2949L23.493 25.2528L22.7188 25.205L22.8197 23.6502L22.9171 22.0181H22.9184L24.2967 22.099L25.3227 22.1416L27.1393 22.1795L28.2271 22.1633L28.3989 22.308L28.5183 22.3062L28.5545 22.4672L28.4459 22.6716L28.5364 22.7947L28.6124 22.9774L28.8186 23.0696L28.8156 24.224L28.8264 25.3586Z" fill="#FF763C"/>
<path fill-rule="evenodd" clip-rule="evenodd" d="M28.7495 25.7L29.0028 26.7782L29.0064 27.9179L29.01 28.8369L28.6556 28.6453L28.4148 28.5392L28.2209 28.6098L27.9201 28.6003L27.742 28.6021L27.5954 28.6853L27.452 28.7276L27.3266 28.6768L27.0403 28.7303L26.9122 28.5585L26.7769 28.7047L26.5442 28.6354L26.3075 28.4726L26.0486 28.5697L25.9422 28.321L25.5444 28.335L25.2923 28.2725L25.0091 28.1902L24.8905 27.9739L24.6646 28.0337L24.5298 27.9446L24.3322 27.8263L24.3755 26.8522L24.4193 25.8534L23.594 25.8125L22.7687 25.763L21.9448 25.7041L21.9694 25.1465L22.6713 25.1899V25.255L23.3732 25.2984L24.2994 25.3527L25.1967 25.3925L26.6113 25.4251L28.1019 25.4287L28.731 25.407H28.7351L28.7495 25.7Z" fill="#FFD225"/>
<path fill-rule="evenodd" clip-rule="evenodd" d="M29.0136 28.8947L29.0643 28.9092L29.1909 28.9635L29.3827 28.9562L29.379 29.3759L29.484 30.512L29.654 30.6675L29.7083 30.8159L29.7879 31.0293L29.8783 31.2428L29.9724 31.3875L29.9 31.7493L29.7481 32.0822L29.7905 32.2818L29.8582 32.3491L29.861 32.5555L29.7286 32.6956L29.64 32.8496L29.7182 32.9847L28.9442 33.2168L28.1166 33.9938L27.1975 34.441L26.6855 34.9329L26.464 35.3987L26.444 36.1187L26.4836 36.6215L26.6595 36.9806L26.2866 37.0063L25.6145 36.762L24.8828 36.4159L24.635 35.9159L24.4563 35.1782L23.9315 34.5621L23.6409 33.9387L23.2185 33.2051L22.6009 32.7556L21.8574 32.7263L21.2212 33.5005L20.4886 33.1279L20.0466 32.7737L19.8756 32.1856L19.6305 31.6191L19.1471 31.1127L18.7292 30.7396L18.4129 30.3347L18.3188 30.1502L18.3198 30.0616L19.1612 30.1646L20.7455 30.3181L21.5632 30.385L21.7132 28.4552L21.926 25.7471L22.7545 25.8086L23.5686 25.8556L24.3681 25.8918L24.3247 26.9808L24.303 27.86L24.502 27.9938L24.6576 28.0915L24.8746 28.0192L24.9832 28.2363L25.2907 28.3231L25.544 28.3882L25.9202 28.3665L26.0252 28.6161L26.311 28.5221L26.5136 28.6704L26.7813 28.7609L26.9116 28.6198L27.0346 28.7862L27.324 28.7247L27.447 28.7898L27.6243 28.7355L27.7618 28.6523L28.073 28.6632L28.2466 28.6596L28.4094 28.5908L28.6772 28.703L29.0136 28.8947Z" fill="#FFD225"/>
<path fill-rule="evenodd" clip-rule="evenodd" d="M32.1033 13.5869L32.1028 13.5874L31.4111 13.976L30.9338 14.4184L30.4733 14.8785L30.4779 15.0305L30.292 15.0961L30.3233 15.676H30.3006L30.1266 15.7973L29.9761 15.9022L29.8795 16.0959L30.0391 16.2841L29.9929 16.5455L30.0024 16.8256L29.9879 17.0531L30.2104 17.2436L30.2988 17.2494L30.544 17.3861L30.6302 17.4521L30.6873 17.5607L30.8826 17.729L31.1419 17.8688L31.1705 17.9525L31.1854 18.1999L31.2112 18.3148L30.2263 18.3406L29.1303 18.38L28.11 18.4085L27.2891 18.4076L27.304 17.4449L27.2202 16.4564L27.0933 16.375L27.0226 16.2148L27.0629 16.075L27.2261 15.9606L27.2397 15.8104L27.241 15.6222L27.1971 15.4648L27.1382 15.2965L27.1051 15.0857L27.0983 14.8495L27.0747 14.7925L27.0484 14.4881L27.047 14.3483L27.0344 14.2239L27.0013 14.0131L26.9183 13.7986L26.8394 13.6073L26.8299 13.4182L26.8236 13.2142L26.849 13.0811L26.8549 12.9599L26.7923 12.8088L26.7837 12.7061L28.2083 12.7102L28.2061 12.3089L28.4377 12.3008L28.5673 12.8726L28.7853 13.0459L29.2703 13.0992L29.9833 13.2427L30.6719 13.5367L31.2285 13.3716L32.1028 13.5869H32.1033Z" fill="#FF763C"/>
<path fill-rule="evenodd" clip-rule="evenodd" d="M31.2109 18.3506L31.2244 18.405L31.3305 18.5594L31.2678 18.6391L31.2817 18.8501L31.3174 18.9381L31.3747 19.0952L31.6271 19.1779L31.7097 19.327L31.7584 19.4009L31.8514 19.4469L31.8943 19.5531L32.0189 19.6261L32.1033 19.708L32.0798 19.9801L31.9525 20.2159L31.9056 20.2911L31.7336 20.3593L31.4722 20.4234L31.4127 20.5995L31.5129 20.6725L31.5544 20.826L31.4628 21.0052L31.4194 21.1601L31.2276 21.3193L31.2213 21.503L31.1102 21.4246L30.9531 21.2689L30.1014 21.3247L29.2036 21.3574L28.5039 21.3707L27.8029 21.3751L27.751 21.1932L27.7727 21.0136L27.7555 20.8406L27.6756 20.5508L27.6246 20.4309L27.5691 20.3982L27.5637 20.1659L27.5158 19.9996L27.3772 19.8097L27.3795 19.7266L27.3317 19.5607L27.2983 19.4602L27.2996 19.3682L27.1777 19.2558L27.2396 19.0912L27.2797 18.9302L27.2983 18.8209L27.203 18.6868L27.2057 18.4413H27.305L28.1225 18.4422L29.1386 18.4143L30.23 18.3758L31.2109 18.3506Z" fill="#E73A57"/>
<path fill-rule="evenodd" clip-rule="evenodd" d="M31.2152 21.5536L31.1682 21.7888L31.2568 22.1054L31.407 22.3098L31.577 22.4907L31.7362 22.5992L31.843 22.6499L31.9117 22.8091L31.9443 23.0171L32.0727 23.066L32.2156 22.9846L32.3441 23.1003L32.3242 23.265L32.2645 23.4061L32.2084 23.6304L32.3477 23.804L32.5412 23.9397L32.6371 23.9415L32.8614 24.1333L32.9284 24.1604L32.9971 24.3721L32.979 24.5276L33.1364 24.8135L33.2268 24.7718L33.3788 24.9148L33.4077 24.9925L33.3842 25.1065L33.415 25.2621L33.2811 25.3616L33.0894 25.4828L33.1056 25.5551L33.0749 25.7867L33.0134 26.0146L32.7366 26.0291L32.5159 26.0526L32.5919 25.9441L32.7257 25.7451L32.6281 25.5841L31.6476 25.566L30.7467 25.6094L29.8024 25.6456H28.8002L28.7785 25.414L28.8617 25.3923V24.0645L28.8545 23.0443L28.6266 22.9357L28.565 22.7693L28.4891 22.6716L28.5976 22.4726L28.5433 22.2628L28.4131 22.2664L28.2557 22.1253L28.0971 21.8008L27.9747 21.6675L27.8288 21.4939L27.8125 21.4162L28.5281 21.4116L29.2282 21.3978L30.128 21.3691L30.9348 21.3076L31.0651 21.4342L31.2152 21.5536Z" fill="#FFD225"/>
<path fill-rule="evenodd" clip-rule="evenodd" d="M33.0044 26.0399L33.0044 26.1411L32.9299 26.2933L32.7904 26.4043L32.7696 26.5785L32.6459 26.7238L32.6752 27.0254L32.5854 27.1286L32.5745 27.212L32.4287 27.2991L32.4345 27.4499L32.3379 27.735L32.2431 27.8001L32.1009 27.9505L32.0223 28.1701L31.8322 28.5653V28.8294L31.9371 29.0971L31.9045 29.2817L31.1982 29.268L30.2536 29.3395L29.4226 29.3613V28.909L29.2055 28.9162L29.1187 28.8909L29.0536 28.8403L29.0516 27.8043L29.0525 26.7912L28.8003 25.6926L29.8748 25.6868L30.7887 25.6575L31.6606 25.6167L32.6048 25.6245L32.682 25.7483L32.5957 25.8661L32.51 25.9843L32.4653 26.0907L33.0044 26.0399Z" fill="#FF763C"/>
<path fill-rule="evenodd" clip-rule="evenodd" d="M31.9036 29.3032L31.9721 29.384L31.9009 29.5346L32.0388 29.7365L32.0098 29.864L32.1179 30.0273L31.9913 30.1394L31.9696 30.3023L31.7923 30.4868L31.7489 30.7183L31.6765 30.9571L31.5607 31.1091L31.6367 31.4311L32.5267 31.413L33.2832 31.3484L33.2696 31.5191L33.2219 31.6898L33.2877 31.8146L33.4138 31.9247L33.4578 32.091L33.4819 32.1909L33.482 32.5587L33.8096 33.1511L32.5565 33.2719L31.7703 33.1034L31.2354 32.9162L30.5394 32.8092L29.6903 32.8529L29.7518 32.7444L29.8965 32.5744V32.3428L29.8241 32.2451L29.7879 32.0968L29.8748 31.9086L29.9363 31.7893L30.0159 31.3804L29.9256 31.24L29.8167 31.0108L29.7083 30.7058L29.6613 30.6206L29.5165 30.4815L29.4229 29.3992L30.3125 29.376L31.1664 29.3181L31.9036 29.3032Z" fill="#FF763C"/>
<path fill-rule="evenodd" clip-rule="evenodd" d="M31.7001 14.9257L31.7069 14.9307L31.8145 14.9009L31.8154 14.904L31.9299 14.9312L32.0004 15.1102L32.6607 15.255L33.0967 15.4123L33.2993 15.3961H33.4205L33.4784 15.5625L33.6611 15.615L33.7298 15.738L33.6936 15.8121L33.6737 16.022L33.8366 16.0166L33.7968 16.1685L33.9256 16.3046L33.9261 16.3028L33.9455 16.3083L33.9397 16.3187L33.5767 16.8797L33.6872 16.9923L34.1614 16.2801L34.2705 16.2656L33.9677 17.0926L33.8673 17.8229L33.7781 18.4156L33.9175 18.9089L33.9532 19.1371H33.9505L33.951 19.1398L33.3734 19.1859L32.6336 19.2384L31.7327 19.2782L31.6639 19.1534L31.4071 19.0593L31.3564 18.92L31.322 18.8368L31.3058 18.6577L31.3763 18.5672L31.2605 18.3827L31.2461 18.3049L31.2262 18.1638L31.2063 17.9431L31.1574 17.84L30.8861 17.6989L30.7034 17.5397L30.6545 17.4366L30.5623 17.3606L30.309 17.2159L30.2222 17.2123L30.0159 17.0386L30.0286 16.8216L30.0214 16.5556L30.063 16.2644L29.9219 16.0943L30.0015 15.9279L30.1643 15.8085L30.3262 15.6982H30.3488L30.3235 15.1121L30.5188 15.0469L31.2353 14.7808L31.7001 14.9257Z" fill="#FFD225"/>
<path fill-rule="evenodd" clip-rule="evenodd" d="M33.9632 19.1675V19.1702L33.9937 19.4342L34.2328 19.8733L34.3522 21.1179L34.4589 22.2503L34.3956 22.5705L34.4665 22.6315L34.5259 22.8075L34.5331 22.9377L34.4702 23.0055L34.4264 23.1747L34.2762 23.4099L34.1894 23.712L34.1785 23.92L34.2093 23.9761L34.2238 24.0864L34.1406 24.2492L34.2093 24.3361L33.8982 24.526L33.9542 24.7521L33.8783 24.8281L33.6829 24.7467L33.4314 24.6997L33.3808 24.8299L33.379 24.8733L33.236 24.7343L33.1477 24.7671L33.0219 24.525L33.0298 24.365L32.9575 24.1407L32.8754 24.1048L32.6445 23.9091L32.5414 23.9073L32.3623 23.7771L32.248 23.6198L32.2918 23.4189L32.3515 23.2905L32.3732 23.0879L32.2212 22.9486L32.0711 23.03L31.977 22.992L31.954 22.8094L31.8745 22.6199L31.7968 22.5777L31.6017 22.4511L31.4376 22.2863L31.2925 22.0838L31.2051 21.783L31.2516 21.5339L31.257 21.3367L31.447 21.1848L31.4922 21.022L31.5899 20.8284L31.541 20.6548L31.456 20.586L31.4976 20.4521L31.7491 20.3888L31.9245 20.3183L31.9861 20.2224L32.1073 19.9854L32.129 19.6888L32.0788 19.6219L31.9512 19.5478L31.9073 19.44L31.8121 19.3933L31.7622 19.3183L32.5541 19.269L33.3636 19.211L33.9608 19.1702L33.9604 19.1675H33.9632Z" fill="#FFD225"/>
<path fill-rule="evenodd" clip-rule="evenodd" d="M38.6954 22.8507L38.7388 22.9249L38.7732 23.1637L38.8908 23.3012L38.9595 23.4604L39.0952 23.5798L39.2074 23.7082H39.3213L38.9726 24.0515L38.7339 24.2141L38.7261 24.3025L38.6547 24.427L38.4462 24.5864L38.3862 24.6996L38.2245 24.7899L37.9932 24.8834L37.4352 24.9948L36.6968 25.0427L36.459 25.0846L35.9781 25.1099L35.4897 25.1546L35.0403 25.195L34.5213 25.2749L34.4902 25.2289L34.3248 25.2462L34.3418 25.4131L33.1454 25.5235L33.1382 25.491L33.3001 25.3861L33.4517 25.2763L33.4233 25.1104L33.4416 25.0018L33.3976 24.8434L33.4462 24.7358L33.6711 24.7758L33.8791 24.8575L33.9808 24.7607L33.9299 24.5314L34.1095 24.4261L34.2479 24.3358L34.1691 24.2418L34.2497 24.0858L34.2373 24.0073L34.3459 24.0252L34.3441 23.9072L34.5626 23.9697L34.7279 23.8367L34.9955 23.9735L35.0477 23.8639L35.2263 23.7436L35.4146 23.8498L35.4934 23.722L35.6139 23.4955L35.6785 23.6195L35.8539 23.6919L35.9991 23.3563L36.1109 23.3098L36.1975 23.1152L36.3028 23.024L36.2969 22.8186L36.4925 22.8337L36.6079 22.7246L36.7435 22.7058L36.7687 22.6231L36.6776 22.4154L36.7174 22.3594L36.9955 22.3486L37.1503 22.4318L37.3949 22.6419L37.5754 22.6931L37.711 22.7613L37.8993 22.7049L38.0495 22.7453L38.2144 22.6621L38.3647 22.6212L38.4499 22.7594L38.6954 22.8507Z" fill="#FF763C"/>
<path fill-rule="evenodd" clip-rule="evenodd" d="M38.0027 24.897L39.4101 24.7396L39.7502 24.6709L39.7412 24.8735L39.7756 24.9947L39.6164 25.0671L39.5295 25.2407L39.3975 25.2444L39.1207 25.4705L39.0429 25.3999L38.8077 25.5953L38.8295 25.6604L38.6884 25.7509L38.6196 25.8504L38.4586 25.9571L38.2849 26.0204L38.0932 26.0783L37.9756 26.2339L37.9449 26.3442L37.6916 26.4473L37.7028 26.6792L37.2488 26.7456L36.5893 26.8129L35.4901 26.9146L34.4139 27.0119L33.4712 27.0714L32.6318 27.1257L32.7191 27.02L32.6892 26.725L32.8153 26.5828L32.8364 26.4125L32.9785 26.304L33.0544 26.1551L33.0572 26.0704L33.105 25.8184L33.1311 25.6695L33.1465 25.5446L34.3739 25.4361L34.3594 25.2787L34.4779 25.2661L34.5087 25.3059L35.0468 25.2199L35.5308 25.1738L36.0002 25.1313L36.4615 25.1069L36.7048 25.0625L37.4383 25.0083L38.0027 24.897Z" fill="#FFD225"/>
<path fill-rule="evenodd" clip-rule="evenodd" d="M34.3991 27.0479L34.4914 27.2685L34.4516 28.6253L34.4299 30.2878L34.5891 31.934L34.0463 32.1551L33.5227 32.1766L33.4984 32.074L33.454 31.9031L33.3266 31.7899L33.2602 31.6616L33.3083 31.4861L33.3221 31.3106L32.4732 31.3624L31.6769 31.3716L31.6279 31.1122L31.7319 30.9899L31.8006 30.7338L31.8698 30.5106L32.0334 30.3388L32.0636 30.1395L32.1809 30.0259L32.0567 29.8527L32.086 29.7216L31.9468 29.5141L32.0187 29.3592L31.9527 29.3028L31.9839 29.0957L31.8689 28.8277L31.8758 28.5798L32.0453 28.2064L32.125 27.9869L32.2693 27.8366L32.3655 27.7716L32.4635 27.4866L32.4576 27.3358L32.6056 27.2488L32.6165 27.1654L33.4577 27.1067L34.3991 27.0479Z" fill="#FFD225"/>
<path fill-rule="evenodd" clip-rule="evenodd" d="M36.5752 26.8433L36.9469 28.1288L37.2702 29.1443L37.4328 29.4568L37.5308 29.6346L37.4093 29.8365L37.3998 30.1764L37.4703 30.3681V30.5565L37.4667 30.7315L37.538 30.8589L37.5882 30.9605L35.8154 31.1668L35.2727 31.2898L35.2659 31.3713L35.497 31.6045L35.4694 31.8171L35.418 31.968L34.6142 31.9338L34.4604 30.2894L34.4841 28.6331L34.5212 27.2602L34.4297 27.0423L35.5187 26.9373L36.5752 26.8433Z" fill="#FF763C"/>
<path fill-rule="evenodd" clip-rule="evenodd" d="M36.003 14.5364L36.2464 14.5378L36.1686 14.6533L36.5816 15.022L35.9568 15.1992L35.9321 15.1973L35.3494 15.1559L34.8065 15.4284L34.3212 15.5738L33.9548 16.2816L33.9352 16.2761L33.9347 16.2779L33.8254 16.1633L33.8643 15.9898L33.7019 15.9954L33.7202 15.8223L33.7572 15.7339L33.6795 15.5927L33.5015 15.5416L33.4467 15.3727L33.3039 15.3713L33.0986 15.3869L32.6654 15.2309L32.0187 15.0873L31.9482 14.9019L31.833 14.8747L31.8321 14.8715L31.7886 14.8959L31.7817 14.8908L31.7881 14.8954L32.326 14.5908L32.8749 14.2065L33.4736 13.8047L33.293 14.3795L33.7106 14.4775L34.2544 14.8287L34.8682 14.5282L35.5616 14.3551L35.7473 14.6299L35.9719 14.6446L36.003 14.5364ZM38.0865 18.0042L38.0695 18.0208L37.796 18.643L37.6798 19.0296L37.4722 19.4664L37.1826 19.5156L36.8314 19.5621L36.4371 19.6201L36.4266 19.5391L35.7002 19.6307L34.8673 19.7153L35.0091 19.5552L35.268 19.0153L35.2154 18.3268L34.8966 17.7097L34.8879 17.2637L35.0279 16.7313L35.1742 16.3603L35.4404 16.0768L35.5493 16.4188L35.6188 15.8886L35.7675 15.7629L35.8214 15.3538L36.4655 15.4836L37.0601 15.8159L37.1859 16.2798L37.1845 16.763L36.8318 17.2352L36.905 17.4915L37.055 17.48L37.4543 16.9581L37.7448 17.0217L37.9685 17.6025L38.0695 18.0213L38.0865 18.0042Z" fill="#FF763C"/>
<path fill-rule="evenodd" clip-rule="evenodd" d="M36.4016 19.6761L36.5427 20.5734L36.6548 21.4887L36.7399 22.2955L36.653 22.4149L36.7308 22.6067L36.7109 22.6718L36.606 22.6917L36.483 22.7966L36.2695 22.7858L36.2677 23.001L36.1869 23.0573L36.0778 23.2724L35.9819 23.3248L35.8372 23.6306L35.7033 23.5835L35.6165 23.4243L35.4745 23.6455L35.3994 23.7825L35.2257 23.6776L35.0448 23.797L34.9725 23.9055L34.7192 23.7789L34.5673 23.9128L34.3285 23.8621L34.3134 23.9394L34.2163 23.9091L34.2344 23.7102L34.3248 23.4316L34.4659 23.2L34.5187 23.0156L34.5817 22.9468L34.5748 22.8078L34.5166 22.6067L34.4479 22.5452L34.5062 22.272L34.3827 21.069L34.2742 19.8968L34.3375 19.9444L34.604 19.9134L34.8495 19.7521L35.6852 19.6761L36.3909 19.5923L36.4016 19.6761Z" fill="#FF763C"/>
<path fill-rule="evenodd" clip-rule="evenodd" d="M40.0186 20.2059L39.8858 20.2929L39.9491 20.4521L39.9599 20.6854L39.9274 20.9387L39.8785 21.1938V21.3023L39.7263 21.5415L39.6411 21.6069L39.5368 21.6534L39.4353 21.6461L39.2653 21.8722L39.2707 22.0332L39.2635 22.129L39.2526 22.1851L39.2242 22.0718L39.0681 22.0675L38.9668 22.3696L38.9813 22.5867L38.9107 22.7387L38.6665 22.8056L38.4784 22.7296L38.3752 22.5813L38.198 22.6247L38.046 22.7043L37.9031 22.6699L37.7077 22.7115L37.5901 22.6645L37.4165 22.6084L37.1885 22.4058L37.0094 22.3081L36.7652 22.3154L36.7068 21.5784L36.5867 20.5684L36.4722 19.6293L36.8734 19.5713L37.2309 19.5248L37.5255 19.4751V19.4755L38.0408 19.6215L38.4406 19.6169L38.9876 19.3917L39.4037 19.0315L39.7807 18.8257L40.0186 20.2059Z" fill="#FFD225"/>
<path opacity="0.2" fill-rule="evenodd" clip-rule="evenodd" d="M44.3444 18.525L44.2633 18.5926L44.1844 18.8532L44.0844 18.9721L44.1551 19.0957L44.0952 19.2419L44.129 19.4072L44.2187 19.4192L44.2565 19.5243L44.5571 19.7307L44.4846 19.8658L44.334 20.045L44.2935 20.1218L44.1574 20.2528L43.9803 20.2389L43.9212 20.3009L43.8802 20.3953L43.2019 20.5522L42.5408 20.6906L41.9928 20.8086L41.7476 20.86L41.0279 20.9984L40.2185 21.1465L40.0589 20.1944L39.8286 18.8073L40.3433 18.4051L40.3446 18.4033L40.3942 18.6838L41.5642 18.456L42.6535 18.2242L43.6661 17.9941L43.8644 18.1163L43.9744 18.1876L43.9803 18.3052L44.0627 18.4422L44.2065 18.4824L44.3444 18.525Z" fill="#FF763C"/>
<path fill-rule="evenodd" clip-rule="evenodd" d="M43.8853 20.4248L44.2127 21.7038L44.7355 21.5753L44.7976 21.6763L44.5769 22.1072L44.3994 22.1671L44.3534 22.2535L43.8514 21.8486L43.6543 21.0723L43.6039 21.4696L43.8019 22.3719L43.2708 22.1676L43.1959 22.0307L43.0781 22.1044L42.9636 22.0699L43.0059 21.817L43.1187 21.6891L43.1156 21.6013L43.1972 21.4857L43.0773 21.3993L43.0246 21.4635L42.8579 21.3786L42.6826 21.3512L42.717 21.2261L42.5997 21.1695L42.4797 21.1586L42.3937 21.0378L42.2715 20.9081L42.0187 20.875L41.8858 20.985L41.8162 21.0803L41.5817 21.0846L41.4987 21.2153L41.3534 21.2875L41.2423 21.4347L41.1402 21.5522L41.0542 21.0308L41.738 20.8951L42.0093 20.8318L42.543 20.7179L43.2069 20.5768L43.8853 20.4248Z" fill="#FF763C"/>
<path opacity="0.8" fill-rule="evenodd" clip-rule="evenodd" d="M42.4998 21.2119L42.5812 21.2192L42.659 21.2517L42.6427 21.3856L42.8327 21.4145L43.0316 21.5176L43.0913 21.4597L43.1348 21.4869L43.0733 21.581L43.0696 21.6823L42.9701 21.7872L42.9177 22.111L43.0733 22.1616L43.1782 22.0983L43.2433 22.2032L43.7969 22.4149L43.9457 22.7258L44.2086 23.169L44.2246 23.196L44.6001 23.7641L43.7227 23.9587L42.8559 24.1438L41.2134 24.4447L39.8008 24.6255L39.3901 24.7069L38.1582 24.8516L38.3572 24.7684L38.4259 24.7141L38.4802 24.6074L38.681 24.4573L38.7642 24.3125L38.7769 24.2275L38.9867 24.0846L39.3666 23.7047L39.4155 23.8513L39.5421 23.9507L39.7031 24.0213L39.9455 23.8567L40.0468 23.9128L40.3706 23.7626L40.376 23.6848L40.452 23.7029L40.5479 23.5998L40.6601 23.6016L40.8012 23.4804V23.3393L40.774 23.2362L40.8482 23.0698L40.9929 22.9033L41.002 22.7206L41.1087 22.5271L41.1286 22.3444L41.219 22.3914L41.3529 22.4438L41.5085 22.357L41.5302 22.2394L41.5568 22.1627L41.6261 21.9807L41.6912 22.0061L41.7889 21.836L41.8884 21.7058L42.0114 21.5104L42.0132 21.2608L42.4763 21.467L42.4998 21.2119ZM44.3065 23.0902L44.3894 23.1136L44.6587 22.2168L44.476 22.274L44.4288 22.356L44.3065 23.0902Z" fill="#FFD225"/>
<path fill-rule="evenodd" clip-rule="evenodd" d="M44.6073 23.7827L44.8863 24.8434L44.5255 25.6997L43.787 26.258L43.1681 26.9078L42.8793 27.0252L41.7455 26.2466L40.8084 26.4166L40.7957 26.2918L40.6492 26.1525L40.5624 26.2231L40.5409 26.1353L40.1264 26.1561L39.3793 26.2574L38.9669 26.4854L38.8558 26.5357L37.7241 26.6753L37.7163 26.4657L37.9637 26.3651L38.007 26.249L38.1096 26.1105L38.2761 26.061L38.4668 25.9876L38.6456 25.8738L38.7154 25.773L38.8627 25.6695L38.8476 25.5971L39.0369 25.4297L39.1177 25.5089L39.3954 25.2727L39.5419 25.2709L39.6427 25.0819L39.8041 25.0121L39.7628 24.8681L39.77 24.6619L41.1702 24.4756L42.8236 24.1843L43.6666 23.9926L44.6073 23.7827Z" fill="#FF763C"/>
<path fill-rule="evenodd" clip-rule="evenodd" d="M42.8633 27.0496L42.5529 27.8546L41.9288 28.6293L41.1537 29.3325L40.9891 29.3036L40.9204 29.2765L40.8896 29.0919L40.7612 28.8966L40.5948 28.817L40.6086 28.7454L40.5351 28.6325L40.4428 28.3955L40.1317 28.2218L39.9906 27.9975L39.7626 27.8492L39.683 27.7261L39.3465 27.5308L39.2272 27.368L39.0127 27.0662L38.859 27.025L38.6104 26.8862L38.7116 26.6878L38.7966 26.5774L38.9015 26.5539L39.3791 26.2862L40.1389 26.1813L40.5115 26.1704L40.5513 26.2717L40.6418 26.1885L40.7648 26.297L40.7829 26.4454L41.738 26.279L42.8633 27.0496Z" fill="#FFD225"/>
<path fill-rule="evenodd" clip-rule="evenodd" d="M38.7702 26.5786L38.6894 26.679L38.5812 26.8965L38.8346 27.0373L38.9912 27.0792L39.1971 27.3864L39.3258 27.5565L39.6609 27.7586L39.7394 27.8795L39.9691 28.0175L40.1078 28.2504L40.4169 28.4168L40.5164 28.6454L40.5863 28.7528L40.5685 28.8346L40.7488 28.922L40.8666 29.1037L40.8972 29.3031L40.9839 29.3282L41.1428 29.3565L40.8849 30.188L40.8114 30.8145L40.6201 30.8256L40.4315 30.7764L40.3297 30.8293L40.3831 31.1946L40.2818 31.3071L40.1877 31.1338L38.7145 31.1881L37.8083 31.2579L37.6385 30.9906L37.5796 30.8716L37.5075 30.7438L37.5111 30.5681V30.379L37.4399 30.1866L37.4495 29.8454L37.5723 29.6428L37.4732 29.4643L37.3089 29.1506L36.982 28.1314L36.6006 26.8451L37.2645 26.7745L37.724 26.7058L38.7702 26.5786Z" fill="#FFD225"/>
<path fill-rule="evenodd" clip-rule="evenodd" d="M40.8154 30.8374L41.0897 31.5453L41.5759 32.3272L42.1205 33.0252L42.1908 33.4246L42.7827 34.4059L42.9882 35.3178L42.9509 36.2459L42.5805 36.4964L42.0865 36.4485L41.8595 36.019L41.4578 35.8381L40.8149 35.0263L40.2395 34.341L40.0805 33.8582L40.1453 33.2093L39.8475 32.6652L39.1646 32.1328L38.5925 31.8119L37.6228 32.3692L37.3783 32.1057L36.467 31.737L35.4517 31.9789L35.5061 31.8201L35.5313 31.6045L35.3052 31.3693L35.3088 31.3096L35.7918 31.2065L37.6026 30.9912L37.7998 31.2879L38.7079 31.2101L40.1786 31.1595L40.2817 31.3367L40.4065 31.1938L40.3523 30.8447L40.4319 30.8013L40.6218 30.8519L40.8154 30.8374Z" fill="#FF763C"/>
<path fill-rule="evenodd" clip-rule="evenodd" d="M45.0008 18.7961L44.8685 19.358L45.0572 19.3548L45.0992 20.1227L44.7439 21.0471L44.6329 20.7985L44.4616 20.7865L44.2306 20.5629L44.1691 20.5902L44.1089 20.3981L44.1937 20.2644L44.3217 20.1334L44.3683 20.0612L44.5239 19.8857L44.5999 19.7175L44.2905 19.504L44.2435 19.381L44.1621 19.3647L44.1422 19.2363L44.1916 19.1072L44.125 18.9836L44.2191 18.8646L44.2978 18.6086L44.3756 18.5435L45.0008 18.7961Z" fill="#FFD225"/>
<path fill-rule="evenodd" clip-rule="evenodd" d="M45.0912 16.8157L45.1069 17.5498L45.2606 18.3296L45.3427 18.3999L45.2006 18.5397L45.2592 18.6558L46.3107 18.2419L46.589 18.3712L45.591 18.9522L45.0985 19.0769L45.0576 18.757L44.3865 18.4911L44.249 18.4422L44.0923 18.3913L44.0355 18.2794V18.16L43.8892 18.0697L43.6861 17.9491L42.6489 18.1761L41.5333 18.405L40.4429 18.6195L40.3921 18.3427L40.8257 17.6243L40.7925 17.5293L40.792 17.5265L40.6323 17.2511L41.0002 17.0483L41.5984 16.9697L42.2312 16.9272L42.7186 16.4713L42.5862 16.0858L42.4666 15.946L42.4634 15.9451L42.4639 15.9446L42.4671 15.946L43.0694 15.0835L43.3542 14.8204L44.4551 14.5454L44.493 14.7537L44.4971 14.8912L44.5917 15.1863L44.6716 15.3302L44.6513 15.5572L44.7865 15.8039L44.7768 15.962L44.8004 15.9967L44.9084 15.9775L45.0912 16.8157Z" fill="#FFD225"/>
<path fill-rule="evenodd" clip-rule="evenodd" d="M46.373 17.2715L46.5222 17.8095L46.5165 17.9663L46.3132 18.2056L45.7904 18.3992L45.2839 18.6072L45.2477 18.5457L45.3888 18.3919L45.2912 18.3123L45.1431 17.5598L45.6986 17.4323L46.373 17.2715Z" fill="#FF763C"/>
<path fill-rule="evenodd" clip-rule="evenodd" d="M46.9905 17.6347L46.5467 17.9447L46.5575 17.7927L46.4092 17.2591L46.6813 17.168L46.7975 17.4103L46.933 17.4907L46.9905 17.6347Z" fill="#FFD225"/>
<path fill-rule="evenodd" clip-rule="evenodd" d="M46.9099 16.21L47.0526 16.7217L47.4475 17.1631L47.7619 17.1007L47.5788 16.7727L47.8651 16.9226L47.8887 17.2132L47.4334 17.5095L47.0151 17.619L46.9572 17.4689L46.8198 17.3766L46.6931 17.1342L46.382 17.2319L45.7212 17.3829L45.141 17.5195L45.1304 16.8008L45.103 16.6892L46.136 16.4179L46.4109 16.3129L46.6818 16.3229L46.8181 16.2157L46.9099 16.21Z" fill="#FFD225"/>
<path fill-rule="evenodd" clip-rule="evenodd" d="M46.4549 15.9091L46.3947 16.1613L46.3025 16.1671L46.1657 16.2752L46.1168 16.3917L45.2346 16.6146L45.148 16.5287L45.1717 16.3873L45.1197 16.1271L45.1256 16.0602L45.0957 15.8319L45.1138 15.6456L45.159 15.519L45.1753 15.2693L45.1482 15.0939L45.1373 15.0143L45.2676 14.9292L45.396 14.7592L45.387 14.6054L45.2893 14.4643L45.3092 14.2129L45.297 13.9547L45.5238 13.8604L46.1301 15.6042L46.1305 15.7075L46.3071 15.8143L46.3805 15.9402L46.4549 15.9091Z" fill="#FFD225"/>
<path fill-rule="evenodd" clip-rule="evenodd" d="M46.4832 15.8401L46.4091 15.8716L46.3502 15.7786L46.1742 15.6702L46.1738 15.5655L45.5693 13.7962L45.8108 13.5427L45.9282 13.0229L45.9123 12.1929L46.2079 11.2933L46.5135 11.4848L46.9156 11.1777L47.3081 11.3666L47.741 12.7033L48.3773 13.1092L48.5247 13.5206L47.9398 14.0498L47.3217 14.4927L46.6854 15.3231L46.4832 15.8401Z" fill="#FF763C"/>
<path fill-rule="evenodd" clip-rule="evenodd" d="M9.63914 30.0461L9.77024 30.433L9.9082 30.2972L10.3399 30.4055L10.301 30.5858L10.687 30.7689L10.9643 30.7184L11.5001 31.0181L12.009 31.1268L12.2105 31.2402L12.5727 31.1264L12.9751 31.3737L13.2684 31.4866L13.2552 34.3281L13.2364 38.4508L13.579 38.471L13.9216 38.6615L14.1738 38.9634L14.5036 39.4122L14.8343 39.0084L15.1769 38.7638L15.3857 39.1139L15.6447 39.3828L15.9973 39.6706L16.2659 40.146L16.7168 40.8912L17.4034 41.2542L17.4637 41.6792L17.2864 42.0288L17.0471 41.7985L16.6876 41.6167L16.5249 41.0349L15.9969 40.5237L15.7507 39.889L15.3985 39.8679L14.8197 39.8817L14.3876 39.6981L13.6339 38.9896L13.2954 38.8579L12.6846 38.6L12.1986 38.6459L11.5294 38.2902L11.1393 37.963L10.7469 38.0823L10.7784 38.5761L10.5815 38.6046L10.1626 38.7119L9.82826 38.9138L9.41942 39.0153V38.6L9.65787 37.9336L10.0448 37.7583L9.97078 37.5711L9.49114 37.9121L9.1965 38.3471L8.62368 38.7693L8.83426 39.1419L8.42451 39.5861L7.99101 39.8105L7.59223 39.956L7.44925 40.2401L6.80927 40.4805L6.63021 40.7719L6.13367 40.9669L5.88745 40.86L5.49598 40.966L5.0611 41.1L4.69292 41.2418L3.99448 41.2574L3.96524 41.1317L4.45813 40.9367L4.8761 40.8279L5.36076 40.5636L5.83858 40.5948L6.08114 40.3617L6.6736 40.0671L6.78187 39.9487L7.09614 39.7623L7.25511 39.2589L7.51 38.8891L7.06325 39.0189L6.97235 38.879L6.7307 39.0878L6.57219 38.694L6.42511 38.9175L6.36755 38.5499L5.95643 38.7422L5.74128 38.6908L5.80751 38.2801L5.92948 38.0456L5.76777 37.7492L5.29224 37.7671L5.09125 37.372L4.90671 37.1457L5.01223 36.7593L4.8423 36.3963L5.07983 36.0379L5.44756 35.725L5.65677 35.3982L5.92491 35.4148L6.11265 35.5827L6.45023 35.3065L6.66401 35.4221L6.95317 35.2574L6.9687 34.9192L6.82572 34.7507L7.11579 34.5268L6.92667 34.4919L6.56626 34.5699L6.43424 34.7039L6.23279 34.486L5.78148 34.4506L5.38634 34.1551L5.34432 33.8334L5.09673 33.3075L5.59556 33.1336L6.33831 32.9633L6.57539 33.0262L6.44201 33.3782L7.06737 33.5044L6.93946 32.995L6.65762 32.6265L6.55392 32.2062L6.37349 31.8184L6.06469 31.4765L6.32872 31.1319L6.81156 31.2406L7.23821 30.9855L7.39398 30.6308L7.74937 30.3311L8.02207 30.3017L8.58439 30.0613L8.8096 30.1613L9.28056 29.8135L9.63914 30.0461ZM3.58519 34.2639L3.72634 34.4607L3.94012 34.4557L4.12649 34.7209L4.4024 34.9127L4.35307 34.9797L4.07122 35.0486L3.8853 34.8205L3.81039 34.6562L3.52672 34.6016L3.4751 34.5153L3.58519 34.2639ZM4.71713 37.5284L4.48006 37.5739L4.29551 37.383L4.14705 37.1388L4.51066 37.1219L4.75825 37.2595L4.71713 37.5284ZM8.77077 40.3543L8.36467 40.5604L8.20205 40.3566L8.19429 40.0294L8.56155 39.8371L8.76985 39.7605L9.00419 39.8394L9.13118 40.0721L8.77077 40.3543Z" fill="#FF763C"/>
<path fill-rule="evenodd" clip-rule="evenodd" d="M45.1961 16.6295L44.5933 16.7688L44.4162 15.9497L44.3116 15.9685L44.2887 15.9345L44.2981 15.7801L44.1671 15.539L44.1868 15.3172L44.1094 15.1766L44.0177 14.8882L44.0137 14.7539L43.9771 14.5503L45.2663 14.2075L45.2676 14.208L45.2596 14.4977L45.3504 14.624L45.3562 14.7534L45.2296 14.9106L45.1062 14.9949L45.1084 15.0967L45.1348 15.2592L45.1129 15.5145L45.0776 15.6158L45.0516 15.8328L45.0892 16.0711L45.0834 16.1385L45.1344 16.4005L45.1111 16.5429L45.1961 16.6295Z" fill="#FF763C"/>
<path fill-rule="evenodd" clip-rule="evenodd" d="M19.6809 35.8537L19.5436 35.8583L19.4645 35.7494L19.4238 35.5503L19.525 35.5146L19.6732 35.5384L19.8228 35.6698L19.8151 35.7444L19.6809 35.8537ZM20.4729 37.1483L20.4431 37.3076L20.308 37.2449L20.28 37.1337L20.233 37.1117L20.2113 37.1071L20.1245 37.0326L20.172 36.7443L20.2831 36.8175L20.4525 36.833L20.4074 37.0774L20.4729 37.1483ZM20.9897 37.935L20.8298 37.9267L20.565 37.6448L20.6617 37.5803L20.9897 37.935ZM21.0073 38.0956L21.0245 38.2544L21.1736 38.3281L21.2621 38.5907L21.221 38.6516L21.1149 38.653L20.8808 38.5157L20.945 38.329L20.8628 38.2384L20.8799 38.0974L20.9522 38.0636L21.0073 38.0956ZM20.6305 40.1361L20.4815 40.1965L20.3604 39.9718L20.5352 39.7293L20.6369 39.3623L20.9518 39.289L20.9893 39.1325L21.0557 39.073L21.095 39.0845L21.3814 39.6469L21.3936 39.7993L21.3349 39.9077L21.3805 39.9626L21.3566 40.0496L21.3941 40.223L21.0972 40.2432L20.8795 40.1466L20.6305 40.1361Z" fill="#FFD225"/>
<path fill-rule="evenodd" clip-rule="evenodd" d="M44.1423 20.2876L44.0753 20.3907L44.1477 20.6114L44.4176 21.075L44.7181 21.5248L44.2433 21.642L43.918 20.4124L43.9578 20.3166L43.9976 20.2695L44.1423 20.2876Z" fill="#FF763C"/>
</svg>
