<svg width="52" height="52" viewBox="0 0 52 52" fill="none" xmlns="http://www.w3.org/2000/svg">
<rect x="6.14844" y="44.2568" width="3.9604" height="4.26762" fill="#FFD225"/>
<rect x="6.14844" y="38.4902" width="3.9604" height="3.57558" fill="#D11D62"/>
<rect x="6.14844" y="42.0654" width="3.9604" height="2.19148" fill="#FF763C"/>
<rect x="11.2969" y="32.8159" width="3.96039" height="15.7085" fill="#FFD225"/>
<rect x="11.2969" y="11.5884" width="3.9604" height="13.1612" fill="#D11D62"/>
<rect x="11.2969" y="24.7495" width="3.96039" height="8.06655" fill="#FF763C"/>
<rect x="16.4453" y="40.4434" width="3.9604" height="8.08128" fill="#FFD225"/>
<rect x="16.4453" y="29.5229" width="3.9604" height="6.77078" fill="#D11D62"/>
<rect x="16.4453" y="36.2935" width="3.9604" height="4.14986" fill="#FF763C"/>
<rect x="21.5938" y="36.6299" width="3.96038" height="11.8949" fill="#FFD225"/>
<rect x="21.5938" y="20.5557" width="3.96038" height="9.96599" fill="#D11D62"/>
<rect x="21.5938" y="30.5215" width="3.96038" height="6.10818" fill="#FF763C"/>
<rect x="26.7427" y="38.9907" width="3.96041" height="9.53411" fill="#FFD225"/>
<rect x="26.7427" y="26.1069" width="3.96041" height="7.98802" fill="#D11D62"/>
<rect x="26.7427" y="34.0947" width="3.96041" height="4.89589" fill="#FF763C"/>
<rect x="31.8911" y="35.54" width="3.9604" height="12.9845" fill="#FFD225"/>
<rect x="31.8911" y="17.9937" width="3.9604" height="10.8789" fill="#D11D62"/>
<rect x="31.8911" y="28.8726" width="3.9604" height="6.66774" fill="#FF763C"/>
<rect x="37.0396" y="45.9824" width="3.9604" height="2.54243" fill="#FFD225"/>
<rect x="37.0396" y="42.5464" width="3.9604" height="2.13015" fill="#D11D62"/>
<rect x="37.0396" y="44.6768" width="3.9604" height="1.30556" fill="#FF763C"/>
<rect x="42.188" y="42.0776" width="3.9604" height="6.44687" fill="#FFD225"/>
<rect x="42.188" y="33.3657" width="3.9604" height="5.40141" fill="#D11D62"/>
<rect x="42.188" y="38.7671" width="3.9604" height="3.31055" fill="#FF763C"/>
</svg>
