<svg width="40" height="40" viewBox="0 0 40 40" fill="none" xmlns="http://www.w3.org/2000/svg">
<path d="M20 0C14.6946 0 9.60841 2.10601 5.85822 5.85822C2.10611 9.60836 0 14.6946 0 20C0 25.3054 2.10601 30.3916 5.85822 34.1418C9.60836 37.8939 14.6946 40 20 40C25.3054 40 30.3916 37.894 34.1418 34.1418C37.8939 30.3916 40 25.3054 40 20C40 14.6946 37.894 9.60841 34.1418 5.85822C30.3916 2.10611 25.3054 0 20 0ZM20 37.896C15.2531 37.896 10.7018 36.0091 7.34627 32.6537C3.9907 29.2984 2.10399 24.7471 2.10399 20C2.10399 15.2529 3.99091 10.7018 7.34627 7.34627C10.7016 3.9907 15.2529 2.10399 20 2.10399C24.7471 2.10399 29.2982 3.99091 32.6537 7.34627C36.0093 10.7016 37.896 15.2529 37.896 20C37.896 24.7471 36.0091 29.2982 32.6537 32.6537C29.2984 36.0093 24.7471 37.896 20 37.896Z" fill="white" />
<path d="M22.4647 12.0043C22.1791 12.0439 21.9444 12.2475 21.8652 12.5246L17.5217 27.0029C17.4454 27.1923 17.451 27.4044 17.5387 27.5882C17.6264 27.7706 17.7876 27.9092 17.9827 27.9686C18.1778 28.028 18.3885 28.0025 18.5624 27.8979C18.7377 27.7947 18.8607 27.6208 18.9017 27.4214L23.2452 12.9432C23.3201 12.7085 23.2706 12.4511 23.1123 12.2603C22.9539 12.0708 22.7093 11.9747 22.4647 12.0058L22.4647 12.0043ZM15.282 13.0902C15.0912 13.1015 14.913 13.1863 14.7843 13.3277L8.99305 19.481C8.73572 19.7595 8.73572 20.1879 8.99305 20.4651L14.7843 26.6183C15.0558 26.9124 15.5139 26.9308 15.808 26.6579C16.1021 26.3864 16.119 25.9284 15.8476 25.6343L10.5199 19.9801L15.8476 14.3134C16.0526 14.0985 16.1049 13.7789 15.9805 13.5103C15.8546 13.2402 15.5789 13.0748 15.282 13.0918L15.282 13.0902ZM25.3944 13.0902C25.1144 13.11 24.8712 13.2896 24.7694 13.5511C24.6676 13.8127 24.7256 14.1096 24.9193 14.3118L30.2469 19.9786L24.9193 25.6341C24.6478 25.9282 24.6648 26.3863 24.9589 26.6578C25.253 26.9307 25.711 26.9123 25.9825 26.6182L31.7738 20.4649C32.0311 20.1878 32.0311 19.7594 31.7738 19.4809L25.9825 13.3276C25.834 13.1622 25.6163 13.0759 25.3943 13.0901L25.3944 13.0902Z" fill="white" />
</svg>
