<svg width="16" height="16" viewBox="0 0 16 16" fill="none" xmlns="http://www.w3.org/2000/svg">
<path d="M1 2.75C1 2.55109 1.07902 2.36032 1.21967 2.21967C1.36032 2.07902 1.55109 2 1.75 2H7V3.5H2.5V14.5H12.719V9H14.219V15.25C14.219 15.4489 14.14 15.6397 13.9993 15.7803C13.8587 15.921 13.6679 16 13.469 16H1.75C1.55109 16 1.36032 15.921 1.21967 15.7803C1.07902 15.6397 1 15.4489 1 15.25V2.75Z" fill="white"/>
<path d="M15 1V5.993C15 6.19191 14.921 6.38268 14.7803 6.52333C14.6396 6.66398 14.4489 6.743 14.25 6.743C14.0511 6.743 13.8603 6.66398 13.7196 6.52333C13.579 6.38268 13.5 6.19191 13.5 5.993V3.56L8.77997 8.28C8.63779 8.41248 8.44975 8.4846 8.25545 8.48118C8.06115 8.47775 7.87576 8.39903 7.73835 8.26162C7.60093 8.12421 7.52222 7.93882 7.51879 7.74452C7.51537 7.55022 7.58749 7.36217 7.71997 7.22L12.44 2.5H10.007C9.80806 2.5 9.61729 2.42098 9.47664 2.28033C9.33599 2.13968 9.25697 1.94891 9.25697 1.75C9.25697 1.55109 9.33599 1.36032 9.47664 1.21967C9.61729 1.07902 9.80806 1 10.007 1H15V1Z" fill="white"/>
</svg>
